<?xml version="1.0" encoding="utf-8"?>
<!-- Generator: Adobe Illustrator 21.0.0, SVG Export Plug-In . SVG Version: 6.00 Build 0)  -->
<svg version="1.1" id="Слой_1" xmlns="http://www.w3.org/2000/svg" xmlns:xlink="http://www.w3.org/1999/xlink" x="0px" y="0px"
	 viewBox="0 0 1920 1080" style="enable-background:new 0 0 1920 1080;" xml:space="preserve">
<style type="text/css">
	.st0{display:none;}
	.st1{fill:#FFFFFF;}
	.st2{fill:#857874;}
	.st3{fill:#808080;}
</style>
<rect class="st0" width="1920" height="1080"/>
<g>
	<ellipse class="st1" cx="943.4" cy="665.9" rx="2.6" ry="2.6"/>
	<ellipse class="st1" cx="943.4" cy="694.8" rx="2.6" ry="2.6"/>
	<path class="st1" d="M946,723.7c0-1.4-1.2-2.6-2.6-2.6c-1.4,0-2.6,1.2-2.6,2.6c0,1.4,1.1,2.6,2.6,2.6
		C944.8,726.2,946,725.1,946,723.7z"/>
	<circle class="st1" cx="943.4" cy="752.6" r="2.6"/>
	<ellipse class="st1" cx="943.4" cy="781.5" rx="2.6" ry="2.6"/>
	<path class="st1" d="M946,810.4c0-1.4-1.1-2.6-2.6-2.6c-1.4,0-2.6,1.1-2.6,2.6c0,1.4,1.1,2.6,2.6,2.6
		C944.8,813,946,811.8,946,810.4z"/>
	<path class="st1" d="M946,839.3c0-1.4-1.1-2.6-2.6-2.6c-1.4,0-2.6,1.2-2.6,2.6c0,1.4,1.1,2.6,2.6,2.6
		C944.8,841.9,946,840.7,946,839.3z"/>
	<path class="st1" d="M946,868.2c0-1.4-1.1-2.6-2.6-2.6c-1.4,0-2.6,1.1-2.6,2.6c0,1.4,1.1,2.6,2.6,2.6
		C944.8,870.8,946,869.6,946,868.2z"/>
	<path class="st1" d="M946,897.1c0-1.4-1.1-2.6-2.6-2.6c-1.4,0-2.6,1.1-2.6,2.6c0,1.4,1.1,2.6,2.6,2.6
		C944.8,899.7,946,898.5,946,897.1z"/>
	<path class="st1" d="M946,926c0-1.4-1.1-2.6-2.6-2.6c-1.4,0-2.6,1.1-2.6,2.6c0,1.4,1.1,2.6,2.6,2.6C944.8,928.6,946,927.4,946,926z
		"/>
	<path class="st1" d="M946,954.9c0-1.4-1.1-2.6-2.6-2.6c-1.4,0-2.6,1.1-2.6,2.6c0,1.4,1.1,2.6,2.6,2.6
		C944.8,957.5,946,956.3,946,954.9z"/>
	<path class="st1" d="M946,983.8c0-1.4-1.1-2.6-2.6-2.6c-1.4,0-2.6,1.2-2.6,2.6c0,1.4,1.1,2.6,2.6,2.6
		C944.8,986.4,946,985.2,946,983.8z"/>
	<path class="st1" d="M946,1012.7c0-1.4-1.1-2.6-2.6-2.6c-1.4,0-2.6,1.1-2.6,2.6c0,1.4,1.1,2.6,2.6,2.6
		C944.8,1015.3,946,1014.1,946,1012.7z"/>
	<path class="st1" d="M940.9,1041.6c0,1.4,1.1,2.6,2.6,2.6c1.4,0,2.6-1.2,2.6-2.6c0-1.4-1.1-2.6-2.6-2.6
		C942,1039.1,940.9,1040.2,940.9,1041.6z"/>
	<circle class="st1" cx="914.5" cy="665.9" r="2.6"/>
	<circle class="st1" cx="914.5" cy="694.8" r="2.6"/>
	<path class="st1" d="M917.1,723.7c0-1.4-1.1-2.6-2.6-2.6c-1.4,0-2.6,1.2-2.6,2.6c0,1.4,1.1,2.6,2.6,2.6
		C915.9,726.2,917.1,725.1,917.1,723.7z"/>
	<ellipse class="st1" cx="914.5" cy="752.6" rx="2.6" ry="2.6"/>
	<ellipse class="st1" cx="914.5" cy="781.5" rx="2.6" ry="2.6"/>
	<path class="st1" d="M917.1,810.4c0-1.4-1.1-2.6-2.6-2.6c-1.4,0-2.6,1.1-2.6,2.6c0,1.4,1.1,2.6,2.6,2.6
		C915.9,813,917.1,811.8,917.1,810.4z"/>
	<path class="st1" d="M917.1,839.3c0-1.4-1.1-2.6-2.6-2.6c-1.4,0-2.6,1.2-2.6,2.6c0,1.4,1.1,2.6,2.6,2.6
		C915.9,841.9,917.1,840.7,917.1,839.3z"/>
	<path class="st1" d="M917.1,868.2c0-1.4-1.1-2.6-2.6-2.6c-1.4,0-2.6,1.1-2.6,2.6c0,1.4,1.1,2.6,2.6,2.6
		C915.9,870.8,917.1,869.6,917.1,868.2z"/>
	<path class="st1" d="M917.1,897.1c0-1.4-1.1-2.6-2.6-2.6c-1.4,0-2.6,1.1-2.6,2.6c0,1.4,1.1,2.6,2.6,2.6
		C915.9,899.7,917.1,898.5,917.1,897.1z"/>
	<path class="st1" d="M917.1,926c0-1.4-1.1-2.6-2.6-2.6c-1.4,0-2.6,1.1-2.6,2.6c0,1.4,1.1,2.6,2.6,2.6
		C915.9,928.6,917.1,927.4,917.1,926z"/>
	<path class="st1" d="M917.1,954.9c0-1.4-1.1-2.6-2.6-2.6c-1.4,0-2.6,1.1-2.6,2.6c0,1.4,1.1,2.6,2.6,2.6
		C915.9,957.5,917.1,956.3,917.1,954.9z"/>
	<path class="st1" d="M917.1,983.8c0-1.4-1.1-2.6-2.6-2.6c-1.4,0-2.6,1.2-2.6,2.6c0,1.4,1.1,2.6,2.6,2.6
		C915.9,986.4,917.1,985.2,917.1,983.8z"/>
	<path class="st1" d="M917.1,1012.7c0-1.4-1.1-2.6-2.6-2.6c-1.4,0-2.6,1.1-2.6,2.6c0,1.4,1.1,2.6,2.6,2.6
		C915.9,1015.3,917.1,1014.1,917.1,1012.7z"/>
	<path class="st1" d="M917.1,1041.6c0-1.4-1.1-2.6-2.6-2.6c-1.4,0-2.6,1.2-2.6,2.6c0,1.4,1.1,2.6,2.6,2.6
		C915.9,1044.2,917.1,1043,917.1,1041.6z"/>
	<ellipse class="st1" cx="885.6" cy="665.9" rx="2.6" ry="2.6"/>
	<ellipse class="st1" cx="885.6" cy="694.8" rx="2.6" ry="2.6"/>
	<path class="st1" d="M888.2,723.7c0-1.4-1.1-2.6-2.6-2.6c-1.4,0-2.6,1.2-2.6,2.6c0,1.4,1.1,2.6,2.6,2.6
		C887,726.2,888.2,725.1,888.2,723.7z"/>
	<circle class="st1" cx="885.6" cy="752.6" r="2.6"/>
	<circle class="st1" cx="885.6" cy="781.5" r="2.6"/>
	<path class="st1" d="M888.2,810.4c0-1.4-1.1-2.6-2.6-2.6c-1.4,0-2.6,1.1-2.6,2.6c0,1.4,1.1,2.6,2.6,2.6
		C887,813,888.2,811.8,888.2,810.4z"/>
	<path class="st1" d="M888.2,839.3c0-1.4-1.1-2.6-2.6-2.6c-1.4,0-2.6,1.2-2.6,2.6c0,1.4,1.1,2.6,2.6,2.6
		C887,841.9,888.2,840.7,888.2,839.3z"/>
	<path class="st1" d="M888.2,868.2c0-1.4-1.1-2.6-2.6-2.6c-1.4,0-2.6,1.1-2.6,2.6c0,1.4,1.1,2.6,2.6,2.6
		C887,870.8,888.2,869.6,888.2,868.2z"/>
	<path class="st1" d="M888.2,897.1c0-1.4-1.1-2.6-2.6-2.6c-1.4,0-2.6,1.1-2.6,2.6c0,1.4,1.1,2.6,2.6,2.6
		C887,899.7,888.2,898.5,888.2,897.1z"/>
	<path class="st1" d="M888.2,926c0-1.4-1.1-2.6-2.6-2.6c-1.4,0-2.6,1.1-2.6,2.6c0,1.4,1.1,2.6,2.6,2.6
		C887,928.6,888.2,927.4,888.2,926z"/>
	<path class="st1" d="M888.2,954.9c0-1.4-1.1-2.6-2.6-2.6c-1.4,0-2.6,1.1-2.6,2.6c0,1.4,1.1,2.6,2.6,2.6
		C887,957.5,888.2,956.3,888.2,954.9z"/>
	<path class="st1" d="M888.2,983.8c0-1.4-1.1-2.6-2.6-2.6c-1.4,0-2.6,1.2-2.6,2.6c0,1.4,1.1,2.6,2.6,2.6
		C887,986.4,888.2,985.2,888.2,983.8z"/>
	<path class="st1" d="M888.2,1012.7c0-1.4-1.1-2.6-2.6-2.6c-1.4,0-2.6,1.1-2.6,2.6c0,1.4,1.1,2.6,2.6,2.6
		C887,1015.3,888.2,1014.1,888.2,1012.7z"/>
	<path class="st1" d="M888.2,1041.6c0-1.4-1.1-2.6-2.6-2.6c-1.4,0-2.6,1.2-2.6,2.6c0,1.4,1.1,2.6,2.6,2.6
		C887,1044.2,888.2,1043,888.2,1041.6z"/>
	<circle class="st1" cx="856.7" cy="665.9" r="2.6"/>
	<circle class="st1" cx="856.7" cy="694.8" r="2.6"/>
	<path class="st1" d="M859.3,723.7c0-1.4-1.1-2.6-2.6-2.6c-1.4,0-2.6,1.2-2.6,2.6c0,1.4,1.1,2.6,2.6,2.6
		C858.1,726.2,859.3,725.1,859.3,723.7z"/>
	<ellipse class="st1" cx="856.7" cy="752.6" rx="2.6" ry="2.6"/>
	<circle class="st1" cx="856.7" cy="781.5" r="2.6"/>
	<path class="st1" d="M859.3,810.4c0-1.4-1.1-2.6-2.6-2.6c-1.4,0-2.6,1.1-2.6,2.6c0,1.4,1.1,2.6,2.6,2.6
		C858.1,813,859.3,811.8,859.3,810.4z"/>
	<path class="st1" d="M859.3,839.3c0-1.4-1.1-2.6-2.6-2.6c-1.4,0-2.6,1.2-2.6,2.6c0,1.4,1.1,2.6,2.6,2.6
		C858.1,841.9,859.3,840.7,859.3,839.3z"/>
	<path class="st1" d="M859.3,868.2c0-1.4-1.1-2.6-2.6-2.6c-1.4,0-2.6,1.1-2.6,2.6c0,1.4,1.1,2.6,2.6,2.6
		C858.1,870.8,859.3,869.6,859.3,868.2z"/>
	<path class="st1" d="M859.3,897.1c0-1.4-1.1-2.6-2.6-2.6c-1.4,0-2.6,1.1-2.6,2.6c0,1.4,1.1,2.6,2.6,2.6
		C858.1,899.7,859.3,898.5,859.3,897.1z"/>
	<path class="st1" d="M859.3,926c0-1.4-1.1-2.6-2.6-2.6c-1.4,0-2.6,1.1-2.6,2.6c0,1.4,1.1,2.6,2.6,2.6
		C858.1,928.6,859.3,927.4,859.3,926z"/>
	<path class="st1" d="M859.3,954.9c0-1.4-1.1-2.6-2.6-2.6c-1.4,0-2.6,1.1-2.6,2.6c0,1.4,1.1,2.6,2.6,2.6
		C858.1,957.5,859.3,956.3,859.3,954.9z"/>
	<path class="st1" d="M859.3,983.8c0-1.4-1.1-2.6-2.6-2.6c-1.4,0-2.6,1.2-2.6,2.6c0,1.4,1.1,2.6,2.6,2.6
		C858.1,986.4,859.3,985.2,859.3,983.8z"/>
	<path class="st1" d="M859.3,1012.7c0-1.4-1.1-2.6-2.6-2.6c-1.4,0-2.6,1.1-2.6,2.6c0,1.4,1.1,2.6,2.6,2.6
		C858.1,1015.3,859.3,1014.1,859.3,1012.7z"/>
	<path class="st1" d="M859.3,1041.6c0-1.4-1.1-2.6-2.6-2.6c-1.4,0-2.6,1.2-2.6,2.6c0,1.4,1.1,2.6,2.6,2.6
		C858.1,1044.2,859.3,1043,859.3,1041.6z"/>
	<path class="st1" d="M830.4,665.9c0-1.4-1.2-2.6-2.6-2.6c-1.4,0-2.6,1.1-2.6,2.6c0,1.4,1.1,2.6,2.6,2.6
		C829.2,668.4,830.4,667.3,830.4,665.9z"/>
	<path class="st1" d="M830.4,694.8c0-1.4-1.2-2.6-2.6-2.6c-1.4,0-2.6,1.1-2.6,2.6s1.1,2.6,2.6,2.6
		C829.2,697.3,830.4,696.2,830.4,694.8z"/>
	<path class="st1" d="M830.4,723.7c0-1.4-1.2-2.6-2.6-2.6c-1.4,0-2.6,1.2-2.6,2.6c0,1.4,1.1,2.6,2.6,2.6
		C829.2,726.2,830.4,725.1,830.4,723.7z"/>
	<path class="st1" d="M830.4,752.6c0-1.4-1.2-2.6-2.6-2.6c-1.4,0-2.6,1.2-2.6,2.6c0,1.4,1.1,2.6,2.6,2.6
		C829.2,755.1,830.4,754,830.4,752.6z"/>
	<path class="st1" d="M830.4,781.5c0-1.4-1.2-2.6-2.6-2.6c-1.4,0-2.6,1.2-2.6,2.6c0,1.4,1.1,2.6,2.6,2.6
		C829.2,784,830.4,782.9,830.4,781.5z"/>
	<path class="st1" d="M830.4,810.4c0-1.4-1.1-2.6-2.6-2.6c-1.4,0-2.6,1.1-2.6,2.6c0,1.4,1.1,2.6,2.6,2.6
		C829.2,813,830.4,811.8,830.4,810.4z"/>
	<path class="st1" d="M830.4,839.3c0-1.4-1.1-2.6-2.6-2.6c-1.4,0-2.6,1.2-2.6,2.6c0,1.4,1.1,2.6,2.6,2.6
		C829.2,841.9,830.4,840.7,830.4,839.3z"/>
	<path class="st1" d="M830.4,868.2c0-1.4-1.1-2.6-2.6-2.6c-1.4,0-2.6,1.1-2.6,2.6c0,1.4,1.1,2.6,2.6,2.6
		C829.2,870.8,830.4,869.6,830.4,868.2z"/>
	<path class="st1" d="M830.4,897.1c0-1.4-1.1-2.6-2.6-2.6c-1.4,0-2.6,1.1-2.6,2.6c0,1.4,1.1,2.6,2.6,2.6
		C829.2,899.7,830.4,898.5,830.4,897.1z"/>
	<path class="st1" d="M830.4,926c0-1.4-1.1-2.6-2.6-2.6c-1.4,0-2.6,1.1-2.6,2.6c0,1.4,1.1,2.6,2.6,2.6
		C829.2,928.6,830.4,927.4,830.4,926z"/>
	<path class="st1" d="M830.4,954.9c0-1.4-1.1-2.6-2.6-2.6c-1.4,0-2.6,1.1-2.6,2.6c0,1.4,1.1,2.6,2.6,2.6
		C829.2,957.5,830.4,956.3,830.4,954.9z"/>
	<path class="st1" d="M830.4,983.8c0-1.4-1.1-2.6-2.6-2.6c-1.4,0-2.6,1.2-2.6,2.6c0,1.4,1.1,2.6,2.6,2.6
		C829.2,986.4,830.4,985.2,830.4,983.8z"/>
	<path class="st1" d="M830.4,1012.7c0-1.4-1.1-2.6-2.6-2.6c-1.4,0-2.6,1.1-2.6,2.6c0,1.4,1.1,2.6,2.6,2.6
		C829.2,1015.3,830.4,1014.1,830.4,1012.7z"/>
	<path class="st1" d="M830.4,1041.6c0-1.4-1.1-2.6-2.6-2.6c-1.4,0-2.6,1.2-2.6,2.6c0,1.4,1.1,2.6,2.6,2.6
		C829.2,1044.2,830.4,1043,830.4,1041.6z"/>
	<ellipse class="st1" cx="798.9" cy="665.9" rx="2.6" ry="2.6"/>
	<ellipse class="st1" cx="798.9" cy="694.8" rx="2.6" ry="2.6"/>
	<path class="st1" d="M801.5,723.7c0-1.4-1.1-2.6-2.6-2.6c-1.4,0-2.6,1.2-2.6,2.6c0,1.4,1.1,2.6,2.6,2.6
		C800.3,726.2,801.5,725.1,801.5,723.7z"/>
	<ellipse class="st1" cx="798.9" cy="752.6" rx="2.6" ry="2.6"/>
	<ellipse class="st1" cx="798.9" cy="781.5" rx="2.6" ry="2.6"/>
	<ellipse class="st1" cx="798.9" cy="810.4" rx="2.6" ry="2.6"/>
	<path class="st1" d="M801.5,839.3c0-1.4-1.1-2.6-2.6-2.6c-1.4,0-2.6,1.2-2.6,2.6c0,1.4,1.1,2.6,2.6,2.6
		C800.3,841.9,801.5,840.7,801.5,839.3z"/>
	<ellipse class="st1" cx="798.9" cy="868.2" rx="2.6" ry="2.6"/>
	<path class="st1" d="M801.5,897.1c0-1.4-1.1-2.6-2.6-2.6c-1.4,0-2.6,1.1-2.6,2.6c0,1.4,1.1,2.6,2.6,2.6
		C800.3,899.7,801.5,898.5,801.5,897.1z"/>
	<ellipse class="st1" cx="798.9" cy="926" rx="2.6" ry="2.6"/>
	<ellipse class="st1" cx="798.9" cy="954.9" rx="2.6" ry="2.6"/>
	<ellipse class="st1" cx="798.9" cy="983.8" rx="2.6" ry="2.6"/>
	<ellipse class="st1" cx="798.9" cy="1012.7" rx="2.6" ry="2.6"/>
	<path class="st1" d="M801.5,1041.6c0-1.4-1.1-2.6-2.6-2.6c-1.4,0-2.6,1.2-2.6,2.6c0,1.4,1.1,2.6,2.6,2.6
		C800.3,1044.2,801.5,1043,801.5,1041.6z"/>
	<path class="st1" d="M772.6,665.9c0-1.4-1.2-2.6-2.6-2.6c-1.4,0-2.6,1.1-2.6,2.6c0,1.4,1.2,2.6,2.6,2.6
		C771.4,668.4,772.6,667.3,772.6,665.9z"/>
	<path class="st1" d="M772.6,694.8c0-1.4-1.2-2.6-2.6-2.6c-1.4,0-2.6,1.1-2.6,2.6s1.2,2.6,2.6,2.6
		C771.4,697.3,772.6,696.2,772.6,694.8z"/>
	<path class="st1" d="M772.6,723.7c0-1.4-1.2-2.6-2.6-2.6c-1.4,0-2.6,1.2-2.6,2.6c0,1.4,1.2,2.6,2.6,2.6
		C771.4,726.2,772.6,725.1,772.6,723.7z"/>
	<path class="st1" d="M772.6,752.6c0-1.4-1.2-2.6-2.6-2.6c-1.4,0-2.6,1.2-2.6,2.6c0,1.4,1.2,2.6,2.6,2.6
		C771.4,755.1,772.6,754,772.6,752.6z"/>
	<path class="st1" d="M772.6,781.5c0-1.4-1.2-2.6-2.6-2.6c-1.4,0-2.6,1.2-2.6,2.6c0,1.4,1.2,2.6,2.6,2.6
		C771.4,784,772.6,782.9,772.6,781.5z"/>
	<ellipse class="st1" cx="770" cy="810.4" rx="2.6" ry="2.6"/>
	<path class="st1" d="M772.6,839.3c0-1.4-1.1-2.6-2.6-2.6c-1.4,0-2.6,1.2-2.6,2.6c0,1.4,1.1,2.6,2.6,2.6
		C771.4,841.9,772.6,840.7,772.6,839.3z"/>
	<ellipse class="st1" cx="770" cy="868.2" rx="2.6" ry="2.6"/>
	<path class="st1" d="M772.6,897.1c0-1.4-1.1-2.6-2.6-2.6c-1.4,0-2.6,1.1-2.6,2.6c0,1.4,1.1,2.6,2.6,2.6
		C771.4,899.7,772.6,898.5,772.6,897.1z"/>
	<ellipse class="st1" cx="770" cy="926" rx="2.6" ry="2.6"/>
	<ellipse class="st1" cx="770" cy="954.9" rx="2.6" ry="2.6"/>
	<ellipse class="st1" cx="770" cy="983.8" rx="2.6" ry="2.6"/>
	<ellipse class="st1" cx="770" cy="1012.7" rx="2.6" ry="2.6"/>
	<path class="st1" d="M772.6,1041.6c0-1.4-1.1-2.6-2.6-2.6c-1.4,0-2.6,1.2-2.6,2.6c0,1.4,1.1,2.6,2.6,2.6
		C771.4,1044.2,772.6,1043,772.6,1041.6z"/>
	<circle class="st1" cx="741.1" cy="665.9" r="2.6"/>
	<circle class="st1" cx="741.1" cy="694.8" r="2.6"/>
	<path class="st1" d="M743.7,723.7c0-1.4-1.1-2.6-2.6-2.6c-1.4,0-2.6,1.2-2.6,2.6c0,1.4,1.2,2.6,2.6,2.6
		C742.5,726.2,743.7,725.1,743.7,723.7z"/>
	<ellipse class="st1" cx="741.1" cy="752.6" rx="2.6" ry="2.6"/>
	<circle class="st1" cx="741.1" cy="781.5" r="2.6"/>
	<path class="st1" d="M743.7,810.4c0-1.4-1.1-2.6-2.6-2.6c-1.4,0-2.6,1.1-2.6,2.6c0,1.4,1.1,2.6,2.6,2.6
		C742.5,813,743.7,811.8,743.7,810.4z"/>
	<path class="st1" d="M743.7,839.3c0-1.4-1.1-2.6-2.6-2.6c-1.4,0-2.6,1.2-2.6,2.6c0,1.4,1.1,2.6,2.6,2.6
		C742.5,841.9,743.7,840.7,743.7,839.3z"/>
	<path class="st1" d="M743.7,868.2c0-1.4-1.1-2.6-2.6-2.6c-1.4,0-2.6,1.1-2.6,2.6c0,1.4,1.1,2.6,2.6,2.6
		C742.5,870.8,743.7,869.6,743.7,868.2z"/>
	<path class="st1" d="M743.7,897.1c0-1.4-1.1-2.6-2.6-2.6c-1.4,0-2.6,1.1-2.6,2.6c0,1.4,1.1,2.6,2.6,2.6
		C742.5,899.7,743.7,898.5,743.7,897.1z"/>
	<path class="st1" d="M743.7,926c0-1.4-1.1-2.6-2.6-2.6c-1.4,0-2.6,1.1-2.6,2.6c0,1.4,1.1,2.6,2.6,2.6
		C742.5,928.6,743.7,927.4,743.7,926z"/>
	<path class="st1" d="M743.7,954.9c0-1.4-1.1-2.6-2.6-2.6c-1.4,0-2.6,1.1-2.6,2.6c0,1.4,1.1,2.6,2.6,2.6
		C742.5,957.5,743.7,956.3,743.7,954.9z"/>
	<path class="st1" d="M743.7,983.8c0-1.4-1.1-2.6-2.6-2.6c-1.4,0-2.6,1.2-2.6,2.6c0,1.4,1.1,2.6,2.6,2.6
		C742.5,986.4,743.7,985.2,743.7,983.8z"/>
	<path class="st1" d="M743.7,1012.7c0-1.4-1.1-2.6-2.6-2.6c-1.4,0-2.6,1.1-2.6,2.6c0,1.4,1.1,2.6,2.6,2.6
		C742.5,1015.3,743.7,1014.1,743.7,1012.7z"/>
	<path class="st1" d="M743.7,1041.6c0-1.4-1.1-2.6-2.6-2.6c-1.4,0-2.6,1.2-2.6,2.6c0,1.4,1.1,2.6,2.6,2.6
		C742.5,1044.2,743.7,1043,743.7,1041.6z"/>
	<ellipse class="st1" cx="712.2" cy="665.9" rx="2.6" ry="2.6"/>
	<ellipse class="st1" cx="712.2" cy="694.8" rx="2.6" ry="2.6"/>
	<path class="st1" d="M714.8,723.7c0-1.4-1.2-2.6-2.6-2.6c-1.4,0-2.6,1.2-2.6,2.6c0,1.4,1.2,2.6,2.6,2.6
		C713.6,726.2,714.8,725.1,714.8,723.7z"/>
	<ellipse class="st1" cx="712.2" cy="752.6" rx="2.6" ry="2.6"/>
	<ellipse class="st1" cx="712.2" cy="781.5" rx="2.6" ry="2.6"/>
	<path class="st1" d="M714.8,810.4c0-1.4-1.2-2.6-2.6-2.6c-1.4,0-2.6,1.1-2.6,2.6c0,1.4,1.2,2.6,2.6,2.6
		C713.6,813,714.8,811.8,714.8,810.4z"/>
	<path class="st1" d="M714.8,839.3c0-1.4-1.2-2.6-2.6-2.6c-1.4,0-2.6,1.2-2.6,2.6c0,1.4,1.2,2.6,2.6,2.6
		C713.6,841.9,714.8,840.7,714.8,839.3z"/>
	<path class="st1" d="M714.8,868.2c0-1.4-1.2-2.6-2.6-2.6c-1.4,0-2.6,1.1-2.6,2.6c0,1.4,1.2,2.6,2.6,2.6
		C713.6,870.8,714.8,869.6,714.8,868.2z"/>
	<path class="st1" d="M714.8,897.1c0-1.4-1.2-2.6-2.6-2.6c-1.4,0-2.6,1.1-2.6,2.6c0,1.4,1.2,2.6,2.6,2.6
		C713.6,899.7,714.8,898.5,714.8,897.1z"/>
	<path class="st1" d="M714.8,926c0-1.4-1.2-2.6-2.6-2.6c-1.4,0-2.6,1.1-2.6,2.6c0,1.4,1.2,2.6,2.6,2.6
		C713.6,928.6,714.8,927.4,714.8,926z"/>
	<path class="st1" d="M714.8,954.9c0-1.4-1.2-2.6-2.6-2.6c-1.4,0-2.6,1.1-2.6,2.6c0,1.4,1.2,2.6,2.6,2.6
		C713.6,957.5,714.8,956.3,714.8,954.9z"/>
	<path class="st1" d="M714.8,983.8c0-1.4-1.2-2.6-2.6-2.6c-1.4,0-2.6,1.2-2.6,2.6c0,1.4,1.2,2.6,2.6,2.6
		C713.6,986.4,714.8,985.2,714.8,983.8z"/>
	<path class="st1" d="M714.8,1012.7c0-1.4-1.2-2.6-2.6-2.6c-1.4,0-2.6,1.1-2.6,2.6c0,1.4,1.2,2.6,2.6,2.6
		C713.6,1015.3,714.8,1014.1,714.8,1012.7z"/>
	<path class="st1" d="M714.8,1041.6c0-1.4-1.2-2.6-2.6-2.6c-1.4,0-2.6,1.2-2.6,2.6c0,1.4,1.2,2.6,2.6,2.6
		C713.6,1044.2,714.8,1043,714.8,1041.6z"/>
	<circle class="st1" cx="683.3" cy="665.9" r="2.6"/>
	<circle class="st1" cx="683.3" cy="694.8" r="2.6"/>
	<path class="st1" d="M685.9,723.7c0-1.4-1.1-2.6-2.6-2.6c-1.4,0-2.6,1.2-2.6,2.6c0,1.4,1.1,2.6,2.6,2.6
		C684.7,726.2,685.9,725.1,685.9,723.7z"/>
	<circle class="st1" cx="683.3" cy="752.6" r="2.6"/>
	<circle class="st1" cx="683.3" cy="781.5" r="2.6"/>
	<ellipse class="st1" cx="683.3" cy="810.4" rx="2.6" ry="2.6"/>
	<path class="st1" d="M685.9,839.3c0-1.4-1.2-2.6-2.6-2.6c-1.4,0-2.6,1.2-2.6,2.6c0,1.4,1.1,2.6,2.6,2.6
		C684.7,841.9,685.9,840.7,685.9,839.3z"/>
	<ellipse class="st1" cx="683.3" cy="868.2" rx="2.6" ry="2.6"/>
	<path class="st1" d="M685.9,897.1c0-1.4-1.2-2.6-2.6-2.6c-1.4,0-2.6,1.1-2.6,2.6c0,1.4,1.1,2.6,2.6,2.6
		C684.7,899.7,685.9,898.5,685.9,897.1z"/>
	<circle class="st1" cx="683.3" cy="926" r="2.6"/>
	<circle class="st1" cx="683.3" cy="954.9" r="2.6"/>
	<circle class="st1" cx="683.3" cy="983.8" r="2.6"/>
	<circle class="st1" cx="683.3" cy="1012.7" r="2.6"/>
	<path class="st1" d="M685.9,1041.6c0-1.4-1.2-2.6-2.6-2.6c-1.4,0-2.6,1.2-2.6,2.6c0,1.4,1.1,2.6,2.6,2.6
		C684.7,1044.2,685.9,1043,685.9,1041.6z"/>
	<ellipse class="st1" cx="654.4" cy="665.9" rx="2.6" ry="2.6"/>
	<ellipse class="st1" cx="654.4" cy="694.8" rx="2.6" ry="2.6"/>
	<path class="st1" d="M657,723.7c0-1.4-1.1-2.6-2.6-2.6c-1.4,0-2.6,1.2-2.6,2.6c0,1.4,1.1,2.6,2.6,2.6
		C655.8,726.2,657,725.1,657,723.7z"/>
	<ellipse class="st1" cx="654.4" cy="752.6" rx="2.6" ry="2.6"/>
	<ellipse class="st1" cx="654.4" cy="781.5" rx="2.6" ry="2.6"/>
	<ellipse class="st1" cx="654.4" cy="810.4" rx="2.6" ry="2.6"/>
	<path class="st1" d="M657,839.3c0-1.4-1.1-2.6-2.6-2.6c-1.4,0-2.6,1.2-2.6,2.6c0,1.4,1.1,2.6,2.6,2.6
		C655.8,841.9,657,840.7,657,839.3z"/>
	<ellipse class="st1" cx="654.4" cy="868.2" rx="2.6" ry="2.6"/>
	<path class="st1" d="M657,897.1c0-1.4-1.1-2.6-2.6-2.6c-1.4,0-2.6,1.1-2.6,2.6c0,1.4,1.1,2.6,2.6,2.6
		C655.8,899.7,657,898.5,657,897.1z"/>
	<ellipse class="st1" cx="654.4" cy="926" rx="2.6" ry="2.6"/>
	<circle class="st1" cx="654.4" cy="954.9" r="2.6"/>
	<circle class="st1" cx="654.4" cy="983.8" r="2.6"/>
	<ellipse class="st1" cx="654.4" cy="1012.7" rx="2.6" ry="2.6"/>
	<path class="st1" d="M657,1041.6c0-1.4-1.1-2.6-2.6-2.6c-1.4,0-2.6,1.2-2.6,2.6c0,1.4,1.1,2.6,2.6,2.6
		C655.8,1044.2,657,1043,657,1041.6z"/>
	<ellipse class="st1" cx="625.5" cy="665.9" rx="2.6" ry="2.6"/>
	<path class="st1" d="M628,694.8c0-1.4-1.1-2.6-2.6-2.6c-1.4,0-2.6,1.1-2.6,2.6s1.2,2.6,2.6,2.6C626.9,697.3,628,696.2,628,694.8z"
		/>
	<path class="st1" d="M628,723.7c0-1.4-1.1-2.6-2.6-2.6c-1.4,0-2.6,1.1-2.6,2.6c0,1.4,1.2,2.6,2.6,2.6
		C626.9,726.2,628,725.1,628,723.7z"/>
	<circle class="st1" cx="625.5" cy="752.6" r="2.6"/>
	<path class="st1" d="M628,781.5c0-1.4-1.1-2.6-2.6-2.6c-1.4,0-2.6,1.1-2.6,2.6c0,1.4,1.2,2.6,2.6,2.6
		C626.9,784.1,628,782.9,628,781.5z"/>
	<path class="st1" d="M628.1,810.4c0-1.4-1.2-2.6-2.6-2.6c-1.4,0-2.6,1.1-2.6,2.6c0,1.4,1.1,2.6,2.6,2.6
		C626.9,813,628.1,811.8,628.1,810.4z"/>
	<ellipse class="st1" cx="625.5" cy="839.3" rx="2.6" ry="2.6"/>
	<ellipse class="st1" cx="625.5" cy="868.2" rx="2.6" ry="2.6"/>
	<path class="st1" d="M628.1,897.1c0-1.4-1.2-2.6-2.6-2.6c-1.4,0-2.6,1.1-2.6,2.6c0,1.4,1.1,2.6,2.6,2.6
		C626.9,899.7,628.1,898.5,628.1,897.1z"/>
	<path class="st1" d="M628.1,926c0-1.4-1.2-2.6-2.6-2.6c-1.4,0-2.6,1.1-2.6,2.6c0,1.4,1.1,2.6,2.6,2.6
		C626.9,928.6,628.1,927.4,628.1,926z"/>
	<circle class="st1" cx="625.5" cy="954.9" r="2.6"/>
	<path class="st1" d="M628.1,983.8c0-1.4-1.2-2.6-2.6-2.6c-1.4,0-2.6,1.2-2.6,2.6c0,1.4,1.1,2.6,2.6,2.6
		C626.9,986.4,628.1,985.2,628.1,983.8z"/>
	<circle class="st1" cx="625.5" cy="1012.7" r="2.6"/>
	<path class="st1" d="M628.1,1041.6c0-1.4-1.2-2.6-2.6-2.6c-1.4,0-2.6,1.2-2.6,2.6s1.1,2.6,2.6,2.6
		C626.9,1044.2,628.1,1043,628.1,1041.6z"/>
	<path class="st1" d="M599.1,665.9c0-1.4-1.1-2.6-2.6-2.6c-1.4,0-2.6,1.1-2.6,2.6c0,1.4,1.1,2.6,2.6,2.6
		C598,668.4,599.1,667.3,599.1,665.9z"/>
	<path class="st1" d="M599.1,694.8c0-1.4-1.1-2.6-2.6-2.6c-1.4,0-2.6,1.1-2.6,2.6s1.1,2.6,2.6,2.6
		C598,697.3,599.1,696.2,599.1,694.8z"/>
	<path class="st1" d="M599.1,723.7c0-1.4-1.1-2.6-2.6-2.6c-1.4,0-2.6,1.1-2.6,2.6c0,1.4,1.1,2.6,2.6,2.6
		C598,726.2,599.1,725.1,599.1,723.7z"/>
	<path class="st1" d="M599.1,752.6c0-1.4-1.1-2.6-2.6-2.6c-1.4,0-2.6,1.1-2.6,2.6c0,1.4,1.1,2.6,2.6,2.6
		C598,755.1,599.1,754,599.1,752.6z"/>
	<path class="st1" d="M599.1,781.5c0-1.4-1.1-2.6-2.6-2.6c-1.4,0-2.6,1.1-2.6,2.6c0,1.4,1.1,2.6,2.6,2.6
		C598,784.1,599.1,782.9,599.1,781.5z"/>
	<path class="st1" d="M599.1,810.4c0-1.4-1.1-2.6-2.6-2.6c-1.4,0-2.6,1.1-2.6,2.6c0,1.4,1.1,2.6,2.6,2.6
		C598,813,599.1,811.8,599.1,810.4z"/>
	<path class="st1" d="M599.1,839.3c0-1.4-1.1-2.6-2.6-2.6c-1.4,0-2.6,1.1-2.6,2.6c0,1.4,1.1,2.6,2.6,2.6
		C598,841.9,599.1,840.7,599.1,839.3z"/>
	<path class="st1" d="M599.1,868.2c0-1.4-1.1-2.6-2.6-2.6c-1.4,0-2.6,1.1-2.6,2.6c0,1.4,1.1,2.6,2.6,2.6
		C598,870.8,599.1,869.6,599.1,868.2z"/>
	<path class="st1" d="M599.1,897.1c0-1.4-1.1-2.6-2.6-2.6c-1.4,0-2.6,1.1-2.6,2.6c0,1.4,1.1,2.6,2.6,2.6
		C598,899.7,599.1,898.5,599.1,897.1z"/>
	<path class="st1" d="M599.1,926c0-1.4-1.1-2.6-2.6-2.6c-1.4,0-2.6,1.1-2.6,2.6c0,1.4,1.1,2.6,2.6,2.6
		C598,928.6,599.1,927.4,599.1,926z"/>
	<path class="st1" d="M599.1,954.9c0-1.4-1.1-2.6-2.6-2.6c-1.4,0-2.6,1.2-2.6,2.6c0,1.4,1.1,2.6,2.6,2.6
		C598,957.5,599.1,956.3,599.1,954.9z"/>
	<path class="st1" d="M599.1,983.8c0-1.4-1.1-2.6-2.6-2.6c-1.4,0-2.6,1.2-2.6,2.6c0,1.4,1.1,2.6,2.6,2.6
		C598,986.4,599.1,985.2,599.1,983.8z"/>
	<path class="st1" d="M599.1,1012.7c0-1.4-1.1-2.6-2.6-2.6c-1.4,0-2.6,1.1-2.6,2.6c0,1.4,1.1,2.6,2.6,2.6
		C598,1015.3,599.1,1014.1,599.1,1012.7z"/>
	<path class="st1" d="M599.1,1041.6c0-1.4-1.1-2.6-2.6-2.6c-1.4,0-2.6,1.2-2.6,2.6s1.1,2.6,2.6,2.6
		C598,1044.2,599.1,1043,599.1,1041.6z"/>
	<ellipse class="st1" cx="567.7" cy="665.9" rx="2.6" ry="2.6"/>
	<path class="st1" d="M570.2,694.8c0-1.4-1.1-2.6-2.6-2.6c-1.4,0-2.6,1.1-2.6,2.6s1.1,2.6,2.6,2.6
		C569.1,697.3,570.2,696.2,570.2,694.8z"/>
	<path class="st1" d="M570.2,723.7c0-1.4-1.1-2.6-2.6-2.6c-1.4,0-2.6,1.1-2.6,2.6c0,1.4,1.1,2.6,2.6,2.6
		C569.1,726.2,570.2,725.1,570.2,723.7z"/>
	<circle class="st1" cx="567.7" cy="752.6" r="2.6"/>
	<path class="st1" d="M570.2,781.5c0-1.4-1.1-2.6-2.6-2.6c-1.4,0-2.6,1.1-2.6,2.6c0,1.4,1.1,2.6,2.6,2.6
		C569.1,784.1,570.2,782.9,570.2,781.5z"/>
	<path class="st1" d="M570.2,810.4c0-1.4-1.2-2.6-2.6-2.6c-1.4,0-2.6,1.1-2.6,2.6c0,1.4,1.1,2.6,2.6,2.6
		C569.1,813,570.2,811.8,570.2,810.4z"/>
	<ellipse class="st1" cx="567.7" cy="839.3" rx="2.6" ry="2.6"/>
	<ellipse class="st1" cx="567.7" cy="868.2" rx="2.6" ry="2.6"/>
	<path class="st1" d="M570.2,897.1c0-1.4-1.2-2.6-2.6-2.6c-1.4,0-2.6,1.1-2.6,2.6c0,1.4,1.1,2.6,2.6,2.6
		C569.1,899.7,570.2,898.5,570.2,897.1z"/>
	<path class="st1" d="M570.2,926c0-1.4-1.2-2.6-2.6-2.6c-1.4,0-2.6,1.1-2.6,2.6c0,1.4,1.1,2.6,2.6,2.6
		C569.1,928.6,570.2,927.4,570.2,926z"/>
	<circle class="st1" cx="567.7" cy="954.9" r="2.6"/>
	<path class="st1" d="M570.2,983.8c0-1.4-1.2-2.6-2.6-2.6c-1.4,0-2.6,1.2-2.6,2.6c0,1.4,1.1,2.6,2.6,2.6
		C569.1,986.4,570.2,985.2,570.2,983.8z"/>
	<circle class="st1" cx="567.7" cy="1012.7" r="2.6"/>
	<path class="st1" d="M570.2,1041.6c0-1.4-1.2-2.6-2.6-2.6c-1.4,0-2.6,1.2-2.6,2.6s1.1,2.6,2.6,2.6
		C569.1,1044.2,570.2,1043,570.2,1041.6z"/>
	<ellipse class="st1" cx="538.8" cy="665.9" rx="2.6" ry="2.6"/>
	<path class="st1" d="M541.3,694.8c0-1.4-1.2-2.6-2.6-2.6s-2.6,1.1-2.6,2.6s1.2,2.6,2.6,2.6S541.3,696.2,541.3,694.8z"/>
	<path class="st1" d="M541.3,723.7c0-1.4-1.2-2.6-2.6-2.6s-2.6,1.1-2.6,2.6c0,1.4,1.2,2.6,2.6,2.6S541.3,725.1,541.3,723.7z"/>
	<circle class="st1" cx="538.8" cy="752.6" r="2.6"/>
	<path class="st1" d="M541.3,781.5c0-1.4-1.2-2.6-2.6-2.6s-2.6,1.1-2.6,2.6c0,1.4,1.2,2.6,2.6,2.6S541.3,782.9,541.3,781.5z"/>
	<path class="st1" d="M541.3,810.4c0-1.4-1.2-2.6-2.6-2.6s-2.6,1.1-2.6,2.6c0,1.4,1.2,2.6,2.6,2.6S541.3,811.8,541.3,810.4z"/>
	<ellipse class="st1" cx="538.8" cy="839.3" rx="2.6" ry="2.6"/>
	<ellipse class="st1" cx="538.8" cy="868.2" rx="2.6" ry="2.6"/>
	<path class="st1" d="M541.3,897.1c0-1.4-1.2-2.6-2.6-2.6s-2.6,1.1-2.6,2.6c0,1.4,1.2,2.6,2.6,2.6S541.3,898.5,541.3,897.1z"/>
	<path class="st1" d="M541.3,926c0-1.4-1.2-2.6-2.6-2.6s-2.6,1.1-2.6,2.6c0,1.4,1.2,2.6,2.6,2.6S541.3,927.4,541.3,926z"/>
	<circle class="st1" cx="538.8" cy="954.9" r="2.6"/>
	<path class="st1" d="M541.3,983.8c0-1.4-1.2-2.6-2.6-2.6s-2.6,1.2-2.6,2.6c0,1.4,1.2,2.6,2.6,2.6S541.3,985.2,541.3,983.8z"/>
	<ellipse class="st1" cx="538.8" cy="1012.7" rx="2.6" ry="2.6"/>
	<path class="st1" d="M541.3,1041.6c0-1.4-1.2-2.6-2.6-2.6s-2.6,1.2-2.6,2.6s1.2,2.6,2.6,2.6S541.3,1043,541.3,1041.6z"/>
	<circle class="st1" cx="509.9" cy="665.9" r="2.6"/>
	<path class="st1" d="M512.4,694.8c0-1.4-1.1-2.6-2.6-2.6s-2.6,1.1-2.6,2.6s1.1,2.6,2.6,2.6S512.4,696.2,512.4,694.8z"/>
	<path class="st1" d="M512.4,723.7c0-1.4-1.1-2.6-2.6-2.6s-2.6,1.1-2.6,2.6c0,1.4,1.1,2.6,2.6,2.6S512.4,725.1,512.4,723.7z"/>
	<circle class="st1" cx="509.9" cy="752.6" r="2.6"/>
	<path class="st1" d="M512.4,781.5c0-1.4-1.1-2.6-2.6-2.6s-2.6,1.1-2.6,2.6c0,1.4,1.1,2.6,2.6,2.6S512.4,782.9,512.4,781.5z"/>
	<path class="st1" d="M512.4,810.4c0-1.4-1.1-2.6-2.6-2.6c-1.4,0-2.6,1.1-2.6,2.6c0,1.4,1.1,2.6,2.6,2.6
		C511.3,813,512.4,811.8,512.4,810.4z"/>
	<ellipse class="st1" cx="509.9" cy="839.3" rx="2.6" ry="2.6"/>
	<ellipse class="st1" cx="509.9" cy="868.2" rx="2.6" ry="2.6"/>
	<path class="st1" d="M512.4,897.1c0-1.4-1.1-2.6-2.6-2.6c-1.4,0-2.6,1.1-2.6,2.6c0,1.4,1.1,2.6,2.6,2.6
		C511.3,899.7,512.4,898.5,512.4,897.1z"/>
	<path class="st1" d="M512.4,926c0-1.4-1.1-2.6-2.6-2.6c-1.4,0-2.6,1.1-2.6,2.6c0,1.4,1.1,2.6,2.6,2.6
		C511.3,928.6,512.4,927.4,512.4,926z"/>
	<circle class="st1" cx="509.9" cy="954.9" r="2.6"/>
	<path class="st1" d="M512.4,983.8c0-1.4-1.1-2.6-2.6-2.6c-1.4,0-2.6,1.2-2.6,2.6c0,1.4,1.1,2.6,2.6,2.6
		C511.3,986.4,512.4,985.2,512.4,983.8z"/>
	<circle class="st1" cx="509.9" cy="1012.7" r="2.6"/>
	<path class="st1" d="M512.4,1041.6c0-1.4-1.1-2.6-2.6-2.6c-1.4,0-2.6,1.2-2.6,2.6s1.1,2.6,2.6,2.6
		C511.3,1044.2,512.4,1043,512.4,1041.6z"/>
	<ellipse class="st1" cx="481" cy="665.9" rx="2.6" ry="2.6"/>
	<path class="st1" d="M483.5,694.8c0-1.4-1.2-2.6-2.6-2.6c-1.4,0-2.6,1.1-2.6,2.6s1.2,2.6,2.6,2.6
		C482.4,697.3,483.5,696.2,483.5,694.8z"/>
	<path class="st1" d="M483.5,723.7c0-1.4-1.2-2.6-2.6-2.6c-1.4,0-2.6,1.1-2.6,2.6c0,1.4,1.2,2.6,2.6,2.6
		C482.4,726.2,483.5,725.1,483.5,723.7z"/>
	<circle class="st1" cx="481" cy="752.6" r="2.6"/>
	<path class="st1" d="M483.5,781.5c0-1.4-1.2-2.6-2.6-2.6c-1.4,0-2.6,1.1-2.6,2.6c0,1.4,1.2,2.6,2.6,2.6
		C482.4,784.1,483.5,782.9,483.5,781.5z"/>
	<path class="st1" d="M483.5,810.4c0-1.4-1.2-2.6-2.6-2.6c-1.4,0-2.6,1.1-2.6,2.6c0,1.4,1.2,2.6,2.6,2.6
		C482.4,813,483.5,811.8,483.5,810.4z"/>
	<ellipse class="st1" cx="481" cy="839.3" rx="2.6" ry="2.6"/>
	<ellipse class="st1" cx="481" cy="868.2" rx="2.6" ry="2.6"/>
	<path class="st1" d="M483.5,897.1c0-1.4-1.2-2.6-2.6-2.6c-1.4,0-2.6,1.1-2.6,2.6c0,1.4,1.2,2.6,2.6,2.6
		C482.4,899.7,483.5,898.5,483.5,897.1z"/>
	<path class="st1" d="M483.5,926c0-1.4-1.2-2.6-2.6-2.6c-1.4,0-2.6,1.1-2.6,2.6c0,1.4,1.2,2.6,2.6,2.6
		C482.4,928.6,483.5,927.4,483.5,926z"/>
	<circle class="st1" cx="481" cy="954.9" r="2.6"/>
	<path class="st1" d="M483.5,983.8c0-1.4-1.2-2.6-2.6-2.6c-1.4,0-2.6,1.2-2.6,2.6c0,1.4,1.2,2.6,2.6,2.6
		C482.4,986.4,483.5,985.2,483.5,983.8z"/>
	<ellipse class="st1" cx="481" cy="1012.7" rx="2.6" ry="2.6"/>
	<path class="st1" d="M483.5,1041.6c0-1.4-1.2-2.6-2.6-2.6c-1.4,0-2.6,1.2-2.6,2.6s1.2,2.6,2.6,2.6
		C482.4,1044.2,483.5,1043,483.5,1041.6z"/>
	<ellipse class="st1" cx="452.1" cy="665.9" rx="2.6" ry="2.6"/>
	<path class="st1" d="M454.6,694.8c0-1.4-1.1-2.6-2.6-2.6s-2.6,1.1-2.6,2.6s1.1,2.6,2.6,2.6S454.6,696.2,454.6,694.8z"/>
	<path class="st1" d="M454.6,723.7c0-1.4-1.1-2.6-2.6-2.6s-2.6,1.1-2.6,2.6c0,1.4,1.1,2.6,2.6,2.6S454.6,725.1,454.6,723.7z"/>
	<ellipse class="st1" cx="452.1" cy="752.6" rx="2.6" ry="2.6"/>
	<path class="st1" d="M454.6,781.5c0-1.4-1.1-2.6-2.6-2.6s-2.6,1.1-2.6,2.6c0,1.4,1.1,2.6,2.6,2.6S454.6,782.9,454.6,781.5z"/>
	<path class="st1" d="M454.6,810.4c0-1.4-1.2-2.6-2.6-2.6c-1.4,0-2.6,1.1-2.6,2.6c0,1.4,1.1,2.6,2.6,2.6
		C453.5,813,454.6,811.8,454.6,810.4z"/>
	<ellipse class="st1" cx="452.1" cy="839.3" rx="2.6" ry="2.6"/>
	<ellipse class="st1" cx="452.1" cy="868.2" rx="2.6" ry="2.6"/>
	<path class="st1" d="M454.6,897.1c0-1.4-1.2-2.6-2.6-2.6c-1.4,0-2.6,1.1-2.6,2.6c0,1.4,1.1,2.6,2.6,2.6
		C453.5,899.7,454.6,898.5,454.6,897.1z"/>
	<path class="st1" d="M454.6,926c0-1.4-1.2-2.6-2.6-2.6c-1.4,0-2.6,1.1-2.6,2.6c0,1.4,1.1,2.6,2.6,2.6
		C453.5,928.6,454.6,927.4,454.6,926z"/>
	<circle class="st1" cx="452.1" cy="954.9" r="2.6"/>
	<path class="st1" d="M454.6,983.8c0-1.4-1.2-2.6-2.6-2.6c-1.4,0-2.6,1.2-2.6,2.6c0,1.4,1.1,2.6,2.6,2.6
		C453.5,986.4,454.6,985.2,454.6,983.8z"/>
	<circle class="st1" cx="452.1" cy="1012.7" r="2.6"/>
	<path class="st1" d="M454.6,1041.6c0-1.4-1.2-2.6-2.6-2.6c-1.4,0-2.6,1.2-2.6,2.6s1.1,2.6,2.6,2.6
		C453.5,1044.2,454.6,1043,454.6,1041.6z"/>
	<circle class="st1" cx="423.2" cy="665.9" r="2.6"/>
	<path class="st1" d="M425.7,694.8c0-1.4-1.1-2.6-2.6-2.6c-1.4,0-2.6,1.1-2.6,2.6s1.1,2.6,2.6,2.6
		C424.6,697.3,425.7,696.2,425.7,694.8z"/>
	<path class="st1" d="M425.7,723.7c0-1.4-1.1-2.6-2.6-2.6c-1.4,0-2.6,1.1-2.6,2.6c0,1.4,1.1,2.6,2.6,2.6
		C424.6,726.2,425.7,725.1,425.7,723.7z"/>
	<ellipse class="st1" cx="423.2" cy="752.6" rx="2.6" ry="2.6"/>
	<path class="st1" d="M425.7,781.5c0-1.4-1.1-2.6-2.6-2.6c-1.4,0-2.6,1.1-2.6,2.6c0,1.4,1.1,2.6,2.6,2.6
		C424.6,784.1,425.7,782.9,425.7,781.5z"/>
	<path class="st1" d="M425.7,810.4c0-1.4-1.1-2.6-2.6-2.6c-1.4,0-2.6,1.1-2.6,2.6c0,1.4,1.1,2.6,2.6,2.6
		C424.6,813,425.7,811.8,425.7,810.4z"/>
	<path class="st1" d="M425.7,839.3c0-1.4-1.1-2.6-2.6-2.6c-1.4,0-2.6,1.1-2.6,2.6c0,1.4,1.1,2.6,2.6,2.6
		C424.6,841.9,425.7,840.7,425.7,839.3z"/>
	<path class="st1" d="M425.7,868.2c0-1.4-1.1-2.6-2.6-2.6c-1.4,0-2.6,1.1-2.6,2.6c0,1.4,1.1,2.6,2.6,2.6
		C424.6,870.8,425.7,869.6,425.7,868.2z"/>
	<path class="st1" d="M425.7,897.1c0-1.4-1.1-2.6-2.6-2.6c-1.4,0-2.6,1.1-2.6,2.6c0,1.4,1.1,2.6,2.6,2.6
		C424.6,899.7,425.7,898.5,425.7,897.1z"/>
	<path class="st1" d="M425.7,926c0-1.4-1.1-2.6-2.6-2.6c-1.4,0-2.6,1.1-2.6,2.6c0,1.4,1.1,2.6,2.6,2.6
		C424.6,928.6,425.7,927.4,425.7,926z"/>
	<path class="st1" d="M425.7,954.9c0-1.4-1.1-2.6-2.6-2.6c-1.4,0-2.6,1.2-2.6,2.6c0,1.4,1.1,2.6,2.6,2.6
		C424.6,957.5,425.7,956.3,425.7,954.9z"/>
	<path class="st1" d="M425.7,983.8c0-1.4-1.1-2.6-2.6-2.6c-1.4,0-2.6,1.2-2.6,2.6c0,1.4,1.1,2.6,2.6,2.6
		C424.6,986.4,425.7,985.2,425.7,983.8z"/>
	<path class="st1" d="M425.7,1012.7c0-1.4-1.1-2.6-2.6-2.6c-1.4,0-2.6,1.1-2.6,2.6c0,1.4,1.1,2.6,2.6,2.6
		C424.6,1015.3,425.7,1014.1,425.7,1012.7z"/>
	<path class="st1" d="M425.7,1041.6c0-1.4-1.1-2.6-2.6-2.6c-1.4,0-2.6,1.2-2.6,2.6s1.1,2.6,2.6,2.6
		C424.6,1044.2,425.7,1043,425.7,1041.6z"/>
	<circle class="st1" cx="394.2" cy="665.9" r="2.6"/>
	<path class="st1" d="M396.8,694.8c0-1.4-1.1-2.6-2.6-2.6c-1.4,0-2.6,1.1-2.6,2.6s1.2,2.6,2.6,2.6
		C395.7,697.3,396.8,696.2,396.8,694.8z"/>
	<path class="st1" d="M396.8,723.7c0-1.4-1.1-2.6-2.6-2.6c-1.4,0-2.6,1.1-2.6,2.6c0,1.4,1.2,2.6,2.6,2.6
		C395.7,726.2,396.8,725.1,396.8,723.7z"/>
	<ellipse class="st1" cx="394.2" cy="752.6" rx="2.6" ry="2.6"/>
	<path class="st1" d="M396.8,781.5c0-1.4-1.1-2.6-2.6-2.6c-1.4,0-2.6,1.1-2.6,2.6c0,1.4,1.2,2.6,2.6,2.6
		C395.7,784.1,396.8,782.9,396.8,781.5z"/>
	<path class="st1" d="M396.8,810.4c0-1.4-1.1-2.6-2.6-2.6c-1.4,0-2.6,1.1-2.6,2.6c0,1.4,1.2,2.6,2.6,2.6
		C395.7,813,396.8,811.8,396.8,810.4z"/>
	<path class="st1" d="M396.8,839.3c0-1.4-1.1-2.6-2.6-2.6c-1.4,0-2.6,1.1-2.6,2.6c0,1.4,1.2,2.6,2.6,2.6
		C395.7,841.9,396.8,840.7,396.8,839.3z"/>
	<path class="st1" d="M396.8,868.2c0-1.4-1.1-2.6-2.6-2.6c-1.4,0-2.6,1.1-2.6,2.6c0,1.4,1.2,2.6,2.6,2.6
		C395.7,870.8,396.8,869.6,396.8,868.2z"/>
	<path class="st1" d="M396.8,897.1c0-1.4-1.1-2.6-2.6-2.6c-1.4,0-2.6,1.1-2.6,2.6c0,1.4,1.2,2.6,2.6,2.6
		C395.7,899.7,396.8,898.5,396.8,897.1z"/>
	<path class="st1" d="M396.8,926c0-1.4-1.1-2.6-2.6-2.6c-1.4,0-2.6,1.1-2.6,2.6c0,1.4,1.2,2.6,2.6,2.6
		C395.7,928.6,396.8,927.4,396.8,926z"/>
	<path class="st1" d="M396.8,954.9c0-1.4-1.1-2.6-2.6-2.6c-1.4,0-2.6,1.2-2.6,2.6c0,1.4,1.2,2.6,2.6,2.6
		C395.7,957.5,396.8,956.3,396.8,954.9z"/>
	<path class="st1" d="M396.8,983.8c0-1.4-1.1-2.6-2.6-2.6c-1.4,0-2.6,1.2-2.6,2.6c0,1.4,1.2,2.6,2.6,2.6
		C395.7,986.4,396.8,985.2,396.8,983.8z"/>
	<path class="st1" d="M396.8,1012.7c0-1.4-1.1-2.6-2.6-2.6c-1.4,0-2.6,1.1-2.6,2.6c0,1.4,1.2,2.6,2.6,2.6
		C395.7,1015.3,396.8,1014.1,396.8,1012.7z"/>
	<path class="st1" d="M396.8,1041.6c0-1.4-1.1-2.6-2.6-2.6c-1.4,0-2.6,1.2-2.6,2.6s1.2,2.6,2.6,2.6
		C395.7,1044.2,396.8,1043,396.8,1041.6z"/>
	<path class="st1" d="M367.9,665.9c0-1.4-1.1-2.6-2.6-2.6c-1.4,0-2.6,1.1-2.6,2.6c0,1.4,1.1,2.6,2.6,2.6
		C366.8,668.4,367.9,667.3,367.9,665.9z"/>
	<path class="st1" d="M367.9,694.8c0-1.4-1.1-2.6-2.6-2.6c-1.4,0-2.6,1.1-2.6,2.6s1.1,2.6,2.6,2.6
		C366.8,697.3,367.9,696.2,367.9,694.8z"/>
	<path class="st1" d="M367.9,723.7c0-1.4-1.1-2.6-2.6-2.6c-1.4,0-2.6,1.1-2.6,2.6c0,1.4,1.1,2.6,2.6,2.6
		C366.8,726.2,367.9,725.1,367.9,723.7z"/>
	<path class="st1" d="M367.9,752.6c0-1.4-1.1-2.6-2.6-2.6c-1.4,0-2.6,1.1-2.6,2.6c0,1.4,1.1,2.6,2.6,2.6
		C366.8,755.1,367.9,754,367.9,752.6z"/>
	<path class="st1" d="M367.9,781.5c0-1.4-1.1-2.6-2.6-2.6c-1.4,0-2.6,1.1-2.6,2.6c0,1.4,1.1,2.6,2.6,2.6
		C366.8,784.1,367.9,782.9,367.9,781.5z"/>
	<path class="st1" d="M367.9,810.4c0-1.4-1.1-2.6-2.6-2.6c-1.4,0-2.6,1.1-2.6,2.6c0,1.4,1.1,2.6,2.6,2.6
		C366.8,813,367.9,811.8,367.9,810.4z"/>
	<path class="st1" d="M367.9,839.3c0-1.4-1.1-2.6-2.6-2.6c-1.4,0-2.6,1.1-2.6,2.6c0,1.4,1.1,2.6,2.6,2.6
		C366.8,841.9,367.9,840.7,367.9,839.3z"/>
	<path class="st1" d="M367.9,868.2c0-1.4-1.1-2.6-2.6-2.6c-1.4,0-2.6,1.1-2.6,2.6c0,1.4,1.1,2.6,2.6,2.6
		C366.8,870.8,367.9,869.6,367.9,868.2z"/>
	<path class="st1" d="M367.9,897.1c0-1.4-1.1-2.6-2.6-2.6c-1.4,0-2.6,1.1-2.6,2.6c0,1.4,1.1,2.6,2.6,2.6
		C366.8,899.7,367.9,898.5,367.9,897.1z"/>
	<path class="st1" d="M367.9,926c0-1.4-1.1-2.6-2.6-2.6c-1.4,0-2.6,1.1-2.6,2.6c0,1.4,1.1,2.6,2.6,2.6
		C366.8,928.6,367.9,927.4,367.9,926z"/>
	<path class="st1" d="M367.9,954.9c0-1.4-1.1-2.6-2.6-2.6c-1.4,0-2.6,1.2-2.6,2.6c0,1.4,1.1,2.6,2.6,2.6
		C366.8,957.5,367.9,956.3,367.9,954.9z"/>
	<path class="st1" d="M367.9,983.8c0-1.4-1.1-2.6-2.6-2.6c-1.4,0-2.6,1.2-2.6,2.6c0,1.4,1.1,2.6,2.6,2.6
		C366.8,986.4,367.9,985.2,367.9,983.8z"/>
	<path class="st1" d="M367.9,1012.7c0-1.4-1.1-2.6-2.6-2.6c-1.4,0-2.6,1.1-2.6,2.6c0,1.4,1.1,2.6,2.6,2.6
		C366.8,1015.3,367.9,1014.1,367.9,1012.7z"/>
	<path class="st1" d="M367.9,1041.6c0-1.4-1.1-2.6-2.6-2.6c-1.4,0-2.6,1.2-2.6,2.6s1.1,2.6,2.6,2.6
		C366.8,1044.2,367.9,1043,367.9,1041.6z"/>
	<circle class="st1" cx="336.4" cy="665.9" r="2.6"/>
	<path class="st1" d="M339,694.8c0-1.4-1.1-2.6-2.6-2.6c-1.4,0-2.6,1.1-2.6,2.6s1.1,2.6,2.6,2.6C337.9,697.3,339,696.2,339,694.8z"
		/>
	<path class="st1" d="M339,723.7c0-1.4-1.1-2.6-2.6-2.6c-1.4,0-2.6,1.1-2.6,2.6c0,1.4,1.1,2.6,2.6,2.6
		C337.9,726.2,339,725.1,339,723.7z"/>
	<ellipse class="st1" cx="336.4" cy="752.6" rx="2.6" ry="2.6"/>
	<path class="st1" d="M339,781.5c0-1.4-1.1-2.6-2.6-2.6c-1.4,0-2.6,1.1-2.6,2.6c0,1.4,1.1,2.6,2.6,2.6
		C337.9,784.1,339,782.9,339,781.5z"/>
	<path class="st1" d="M339,810.4c0-1.4-1.1-2.6-2.6-2.6c-1.4,0-2.6,1.1-2.6,2.6c0,1.4,1.2,2.6,2.6,2.6
		C337.9,813,339,811.8,339,810.4z"/>
	<path class="st1" d="M339,839.3c0-1.4-1.1-2.6-2.6-2.6c-1.4,0-2.6,1.1-2.6,2.6c0,1.4,1.2,2.6,2.6,2.6
		C337.9,841.9,339,840.7,339,839.3z"/>
	<path class="st1" d="M339,868.2c0-1.4-1.1-2.6-2.6-2.6c-1.4,0-2.6,1.1-2.6,2.6c0,1.4,1.2,2.6,2.6,2.6
		C337.9,870.8,339,869.6,339,868.2z"/>
	<path class="st1" d="M339,897.1c0-1.4-1.1-2.6-2.6-2.6c-1.4,0-2.6,1.1-2.6,2.6c0,1.4,1.2,2.6,2.6,2.6
		C337.9,899.7,339,898.5,339,897.1z"/>
	<path class="st1" d="M339,926c0-1.4-1.1-2.6-2.6-2.6c-1.4,0-2.6,1.1-2.6,2.6c0,1.4,1.2,2.6,2.6,2.6C337.9,928.6,339,927.4,339,926z
		"/>
	<path class="st1" d="M339,954.9c0-1.4-1.1-2.6-2.6-2.6c-1.4,0-2.6,1.2-2.6,2.6c0,1.4,1.2,2.6,2.6,2.6
		C337.9,957.5,339,956.3,339,954.9z"/>
	<path class="st1" d="M339,983.8c0-1.4-1.1-2.6-2.6-2.6c-1.4,0-2.6,1.2-2.6,2.6c0,1.4,1.2,2.6,2.6,2.6
		C337.9,986.4,339,985.2,339,983.8z"/>
	<path class="st1" d="M339,1012.7c0-1.4-1.1-2.6-2.6-2.6c-1.4,0-2.6,1.1-2.6,2.6c0,1.4,1.2,2.6,2.6,2.6
		C337.9,1015.3,339,1014.1,339,1012.7z"/>
	<path class="st1" d="M339,1041.6c0-1.4-1.1-2.6-2.6-2.6c-1.4,0-2.6,1.2-2.6,2.6s1.2,2.6,2.6,2.6C337.9,1044.2,339,1043,339,1041.6z
		"/>
	<path class="st1" d="M310.1,665.9c0-1.4-1.1-2.6-2.6-2.6c-1.4,0-2.6,1.1-2.6,2.6c0,1.4,1.2,2.6,2.6,2.6
		C309,668.4,310.1,667.3,310.1,665.9z"/>
	<path class="st1" d="M310.1,694.8c0-1.4-1.1-2.6-2.6-2.6c-1.4,0-2.6,1.1-2.6,2.6s1.2,2.6,2.6,2.6
		C309,697.3,310.1,696.2,310.1,694.8z"/>
	<path class="st1" d="M310.1,723.7c0-1.4-1.1-2.6-2.6-2.6c-1.4,0-2.6,1.1-2.6,2.6c0,1.4,1.2,2.6,2.6,2.6
		C309,726.2,310.1,725.1,310.1,723.7z"/>
	<path class="st1" d="M310.1,752.6c0-1.4-1.1-2.6-2.6-2.6c-1.4,0-2.6,1.1-2.6,2.6c0,1.4,1.2,2.6,2.6,2.6
		C309,755.1,310.1,754,310.1,752.6z"/>
	<path class="st1" d="M310.1,781.5c0-1.4-1.1-2.6-2.6-2.6c-1.4,0-2.6,1.1-2.6,2.6c0,1.4,1.2,2.6,2.6,2.6
		C309,784.1,310.1,782.9,310.1,781.5z"/>
	<path class="st1" d="M310.1,810.4c0-1.4-1.1-2.6-2.6-2.6s-2.6,1.1-2.6,2.6c0,1.4,1.2,2.6,2.6,2.6S310.1,811.8,310.1,810.4z"/>
	<ellipse class="st1" cx="307.5" cy="839.3" rx="2.6" ry="2.6"/>
	<circle class="st1" cx="307.5" cy="868.2" r="2.6"/>
	<path class="st1" d="M310.1,897.1c0-1.4-1.1-2.6-2.6-2.6s-2.6,1.1-2.6,2.6c0,1.4,1.2,2.6,2.6,2.6S310.1,898.5,310.1,897.1z"/>
	<path class="st1" d="M310.1,926c0-1.4-1.1-2.6-2.6-2.6s-2.6,1.1-2.6,2.6c0,1.4,1.2,2.6,2.6,2.6S310.1,927.4,310.1,926z"/>
	<ellipse class="st1" cx="307.5" cy="954.9" rx="2.6" ry="2.6"/>
	<path class="st1" d="M310.1,983.8c0-1.4-1.1-2.6-2.6-2.6s-2.6,1.2-2.6,2.6c0,1.4,1.2,2.6,2.6,2.6S310.1,985.2,310.1,983.8z"/>
	<ellipse class="st1" cx="307.5" cy="1012.7" rx="2.6" ry="2.6"/>
	<path class="st1" d="M310.1,1041.6c0-1.4-1.1-2.6-2.6-2.6s-2.6,1.2-2.6,2.6s1.2,2.6,2.6,2.6S310.1,1043,310.1,1041.6z"/>
	<ellipse class="st1" cx="278.6" cy="665.9" rx="2.6" ry="2.6"/>
	<path class="st1" d="M281.2,694.8c0-1.4-1.1-2.6-2.6-2.6c-1.4,0-2.6,1.1-2.6,2.6s1.2,2.6,2.6,2.6
		C280,697.3,281.2,696.2,281.2,694.8z"/>
	<path class="st1" d="M281.2,723.7c0-1.4-1.1-2.6-2.6-2.6c-1.4,0-2.6,1.1-2.6,2.6c0,1.4,1.2,2.6,2.6,2.6
		C280,726.2,281.2,725.1,281.2,723.7z"/>
	<ellipse class="st1" cx="278.6" cy="752.6" rx="2.6" ry="2.6"/>
	<path class="st1" d="M281.2,781.5c0-1.4-1.1-2.6-2.6-2.6c-1.4,0-2.6,1.1-2.6,2.6c0,1.4,1.2,2.6,2.6,2.6
		C280,784.1,281.2,782.9,281.2,781.5z"/>
	<path class="st1" d="M281.2,810.4c0-1.4-1.1-2.6-2.6-2.6c-1.4,0-2.6,1.1-2.6,2.6c0,1.4,1.2,2.6,2.6,2.6
		C280,813,281.2,811.8,281.2,810.4z"/>
	<path class="st1" d="M281.2,839.3c0-1.4-1.1-2.6-2.6-2.6c-1.4,0-2.6,1.1-2.6,2.6c0,1.4,1.2,2.6,2.6,2.6
		C280,841.9,281.2,840.7,281.2,839.3z"/>
	<path class="st1" d="M281.2,868.2c0-1.4-1.1-2.6-2.6-2.6c-1.4,0-2.6,1.1-2.6,2.6c0,1.4,1.2,2.6,2.6,2.6
		C280,870.8,281.2,869.6,281.2,868.2z"/>
	<path class="st1" d="M281.2,897.1c0-1.4-1.1-2.6-2.6-2.6c-1.4,0-2.6,1.1-2.6,2.6c0,1.4,1.2,2.6,2.6,2.6
		C280,899.7,281.2,898.5,281.2,897.1z"/>
	<path class="st1" d="M281.2,926c0-1.4-1.1-2.6-2.6-2.6c-1.4,0-2.6,1.1-2.6,2.6c0,1.4,1.2,2.6,2.6,2.6
		C280,928.6,281.2,927.4,281.2,926z"/>
	<path class="st1" d="M281.2,954.9c0-1.4-1.1-2.6-2.6-2.6c-1.4,0-2.6,1.2-2.6,2.6c0,1.4,1.2,2.6,2.6,2.6
		C280,957.5,281.2,956.3,281.2,954.9z"/>
	<path class="st1" d="M281.2,983.8c0-1.4-1.1-2.6-2.6-2.6c-1.4,0-2.6,1.2-2.6,2.6c0,1.4,1.2,2.6,2.6,2.6
		C280,986.4,281.2,985.2,281.2,983.8z"/>
	<path class="st1" d="M281.2,1012.7c0-1.4-1.1-2.6-2.6-2.6c-1.4,0-2.6,1.1-2.6,2.6c0,1.4,1.2,2.6,2.6,2.6
		C280,1015.3,281.2,1014.1,281.2,1012.7z"/>
	<path class="st1" d="M281.2,1041.6c0-1.4-1.1-2.6-2.6-2.6c-1.4,0-2.6,1.2-2.6,2.6s1.2,2.6,2.6,2.6
		C280,1044.2,281.2,1043,281.2,1041.6z"/>
	<ellipse class="st1" cx="249.7" cy="665.9" rx="2.6" ry="2.6"/>
	<path class="st1" d="M252.3,694.8c0-1.4-1.2-2.6-2.6-2.6c-1.4,0-2.6,1.1-2.6,2.6s1.1,2.6,2.6,2.6
		C251.1,697.3,252.3,696.2,252.3,694.8z"/>
	<path class="st1" d="M252.3,723.7c0-1.4-1.2-2.6-2.6-2.6c-1.4,0-2.6,1.1-2.6,2.6c0,1.4,1.1,2.6,2.6,2.6
		C251.1,726.2,252.3,725.1,252.3,723.7z"/>
	<circle class="st1" cx="249.7" cy="752.6" r="2.6"/>
	<path class="st1" d="M252.3,781.5c0-1.4-1.2-2.6-2.6-2.6c-1.4,0-2.6,1.1-2.6,2.6c0,1.4,1.1,2.6,2.6,2.6
		C251.1,784.1,252.3,782.9,252.3,781.5z"/>
	<path class="st1" d="M252.3,810.4c0-1.4-1.1-2.6-2.6-2.6c-1.4,0-2.6,1.1-2.6,2.6c0,1.4,1.2,2.6,2.6,2.6
		C251.1,813,252.3,811.8,252.3,810.4z"/>
	<path class="st1" d="M252.3,839.3c0-1.4-1.1-2.6-2.6-2.6c-1.4,0-2.6,1.1-2.6,2.6c0,1.4,1.2,2.6,2.6,2.6
		C251.1,841.9,252.3,840.7,252.3,839.3z"/>
	<path class="st1" d="M252.3,868.2c0-1.4-1.1-2.6-2.6-2.6c-1.4,0-2.6,1.1-2.6,2.6c0,1.4,1.2,2.6,2.6,2.6
		C251.1,870.8,252.3,869.6,252.3,868.2z"/>
	<path class="st1" d="M252.3,897.1c0-1.4-1.1-2.6-2.6-2.6c-1.4,0-2.6,1.1-2.6,2.6c0,1.4,1.2,2.6,2.6,2.6
		C251.1,899.7,252.3,898.5,252.3,897.1z"/>
	<path class="st1" d="M252.3,926c0-1.4-1.1-2.6-2.6-2.6c-1.4,0-2.6,1.1-2.6,2.6c0,1.4,1.2,2.6,2.6,2.6
		C251.1,928.6,252.3,927.4,252.3,926z"/>
	<path class="st1" d="M252.3,954.9c0-1.4-1.1-2.6-2.6-2.6c-1.4,0-2.6,1.2-2.6,2.6c0,1.4,1.2,2.6,2.6,2.6
		C251.1,957.5,252.3,956.3,252.3,954.9z"/>
	<path class="st1" d="M252.3,983.8c0-1.4-1.1-2.6-2.6-2.6c-1.4,0-2.6,1.2-2.6,2.6c0,1.4,1.2,2.6,2.6,2.6
		C251.1,986.4,252.3,985.2,252.3,983.8z"/>
	<path class="st1" d="M252.3,1012.7c0-1.4-1.1-2.6-2.6-2.6c-1.4,0-2.6,1.1-2.6,2.6c0,1.4,1.2,2.6,2.6,2.6
		C251.1,1015.3,252.3,1014.1,252.3,1012.7z"/>
	<path class="st1" d="M252.3,1041.6c0-1.4-1.1-2.6-2.6-2.6c-1.4,0-2.6,1.2-2.6,2.6s1.2,2.6,2.6,2.6
		C251.1,1044.2,252.3,1043,252.3,1041.6z"/>
	<circle class="st1" cx="220.8" cy="665.9" r="2.6"/>
	<path class="st1" d="M223.4,694.8c0-1.4-1.1-2.6-2.6-2.6c-1.4,0-2.6,1.1-2.6,2.6s1.2,2.6,2.6,2.6
		C222.2,697.3,223.4,696.2,223.4,694.8z"/>
	<path class="st1" d="M223.4,723.7c0-1.4-1.1-2.6-2.6-2.6c-1.4,0-2.6,1.1-2.6,2.6c0,1.4,1.2,2.6,2.6,2.6
		C222.2,726.2,223.4,725.1,223.4,723.7z"/>
	<ellipse class="st1" cx="220.8" cy="752.6" rx="2.6" ry="2.6"/>
	<path class="st1" d="M223.4,781.5c0-1.4-1.1-2.6-2.6-2.6c-1.4,0-2.6,1.1-2.6,2.6c0,1.4,1.2,2.6,2.6,2.6
		C222.2,784.1,223.4,782.9,223.4,781.5z"/>
	<path class="st1" d="M223.4,810.4c0-1.4-1.1-2.6-2.6-2.6c-1.4,0-2.6,1.1-2.6,2.6c0,1.4,1.2,2.6,2.6,2.6
		C222.2,813,223.4,811.8,223.4,810.4z"/>
	<ellipse class="st1" cx="220.8" cy="839.3" rx="2.6" ry="2.6"/>
	<circle class="st1" cx="220.8" cy="868.2" r="2.6"/>
	<path class="st1" d="M223.4,897.1c0-1.4-1.1-2.6-2.6-2.6c-1.4,0-2.6,1.1-2.6,2.6c0,1.4,1.2,2.6,2.6,2.6
		C222.2,899.7,223.4,898.5,223.4,897.1z"/>
	<path class="st1" d="M223.4,926c0-1.4-1.1-2.6-2.6-2.6c-1.4,0-2.6,1.1-2.6,2.6c0,1.4,1.2,2.6,2.6,2.6
		C222.2,928.6,223.4,927.4,223.4,926z"/>
	<ellipse class="st1" cx="220.8" cy="954.9" rx="2.6" ry="2.6"/>
	<path class="st1" d="M223.4,983.8c0-1.4-1.1-2.6-2.6-2.6c-1.4,0-2.6,1.2-2.6,2.6c0,1.4,1.2,2.6,2.6,2.6
		C222.2,986.4,223.4,985.2,223.4,983.8z"/>
	<ellipse class="st1" cx="220.8" cy="1012.7" rx="2.6" ry="2.6"/>
	<path class="st1" d="M223.4,1041.6c0-1.4-1.1-2.6-2.6-2.6c-1.4,0-2.6,1.2-2.6,2.6s1.2,2.6,2.6,2.6
		C222.2,1044.2,223.4,1043,223.4,1041.6z"/>
	<path class="st1" d="M194.5,665.9c0-1.4-1.1-2.6-2.6-2.6c-1.4,0-2.6,1.1-2.6,2.6c0,1.4,1.1,2.6,2.6,2.6
		C193.3,668.4,194.5,667.3,194.5,665.9z"/>
	<path class="st1" d="M194.5,694.8c0-1.4-1.1-2.6-2.6-2.6c-1.4,0-2.6,1.1-2.6,2.6s1.1,2.6,2.6,2.6
		C193.3,697.3,194.5,696.2,194.5,694.8z"/>
	<path class="st1" d="M194.5,723.7c0-1.4-1.1-2.6-2.6-2.6c-1.4,0-2.6,1.1-2.6,2.6c0,1.4,1.1,2.6,2.6,2.6
		C193.3,726.2,194.5,725.1,194.5,723.7z"/>
	<path class="st1" d="M194.5,752.6c0-1.4-1.1-2.6-2.6-2.6c-1.4,0-2.6,1.1-2.6,2.6c0,1.4,1.1,2.6,2.6,2.6
		C193.3,755.1,194.5,754,194.5,752.6z"/>
	<path class="st1" d="M194.5,781.5c0-1.4-1.1-2.6-2.6-2.6c-1.4,0-2.6,1.1-2.6,2.6c0,1.4,1.1,2.6,2.6,2.6
		C193.3,784.1,194.5,782.9,194.5,781.5z"/>
	<path class="st1" d="M194.5,810.4c0-1.4-1.1-2.6-2.6-2.6c-1.4,0-2.6,1.1-2.6,2.6c0,1.4,1.1,2.6,2.6,2.6
		C193.3,813,194.5,811.8,194.5,810.4z"/>
	<path class="st1" d="M194.5,839.3c0-1.4-1.1-2.6-2.6-2.6c-1.4,0-2.6,1.1-2.6,2.6c0,1.4,1.1,2.6,2.6,2.6
		C193.3,841.9,194.5,840.7,194.5,839.3z"/>
	<path class="st1" d="M194.5,868.2c0-1.4-1.1-2.6-2.6-2.6c-1.4,0-2.6,1.1-2.6,2.6c0,1.4,1.1,2.6,2.6,2.6
		C193.3,870.8,194.5,869.6,194.5,868.2z"/>
	<path class="st1" d="M194.5,897.1c0-1.4-1.1-2.6-2.6-2.6c-1.4,0-2.6,1.1-2.6,2.6c0,1.4,1.1,2.6,2.6,2.6
		C193.3,899.7,194.5,898.5,194.5,897.1z"/>
	<path class="st1" d="M194.5,926c0-1.4-1.1-2.6-2.6-2.6c-1.4,0-2.6,1.1-2.6,2.6c0,1.4,1.1,2.6,2.6,2.6
		C193.3,928.6,194.5,927.4,194.5,926z"/>
	<path class="st1" d="M194.5,954.9c0-1.4-1.1-2.6-2.6-2.6c-1.4,0-2.6,1.2-2.6,2.6c0,1.4,1.1,2.6,2.6,2.6
		C193.3,957.5,194.5,956.3,194.5,954.9z"/>
	<path class="st1" d="M194.5,983.8c0-1.4-1.1-2.6-2.6-2.6c-1.4,0-2.6,1.2-2.6,2.6c0,1.4,1.1,2.6,2.6,2.6
		C193.3,986.4,194.5,985.2,194.5,983.8z"/>
	<path class="st1" d="M194.5,1012.7c0-1.4-1.1-2.6-2.6-2.6c-1.4,0-2.6,1.1-2.6,2.6c0,1.4,1.1,2.6,2.6,2.6
		C193.3,1015.3,194.5,1014.1,194.5,1012.7z"/>
	<path class="st1" d="M194.5,1041.6c0-1.4-1.1-2.6-2.6-2.6c-1.4,0-2.6,1.2-2.6,2.6s1.1,2.6,2.6,2.6
		C193.3,1044.2,194.5,1043,194.5,1041.6z"/>
	<circle class="st1" cx="163" cy="665.9" r="2.6"/>
	<path class="st1" d="M165.6,694.8c0-1.4-1.1-2.6-2.6-2.6c-1.4,0-2.6,1.1-2.6,2.6s1.2,2.6,2.6,2.6
		C164.4,697.3,165.6,696.2,165.6,694.8z"/>
	<path class="st1" d="M165.6,723.7c0-1.4-1.1-2.6-2.6-2.6c-1.4,0-2.6,1.1-2.6,2.6c0,1.4,1.2,2.6,2.6,2.6
		C164.4,726.2,165.6,725.1,165.6,723.7z"/>
	<circle class="st1" cx="163" cy="752.6" r="2.6"/>
	<path class="st1" d="M165.6,781.5c0-1.4-1.1-2.6-2.6-2.6c-1.4,0-2.6,1.1-2.6,2.6c0,1.4,1.2,2.6,2.6,2.6
		C164.4,784.1,165.6,782.9,165.6,781.5z"/>
	<path class="st1" d="M165.6,810.4c0-1.4-1.1-2.6-2.6-2.6c-1.4,0-2.6,1.1-2.6,2.6c0,1.4,1.2,2.6,2.6,2.6
		C164.4,813,165.6,811.8,165.6,810.4z"/>
	<ellipse class="st1" cx="163" cy="839.3" rx="2.6" ry="2.6"/>
	<circle class="st1" cx="163" cy="868.2" r="2.6"/>
	<path class="st1" d="M165.6,897.1c0-1.4-1.1-2.6-2.6-2.6c-1.4,0-2.6,1.1-2.6,2.6c0,1.4,1.2,2.6,2.6,2.6
		C164.4,899.7,165.6,898.5,165.6,897.1z"/>
	<path class="st1" d="M165.6,926c0-1.4-1.1-2.6-2.6-2.6c-1.4,0-2.6,1.1-2.6,2.6c0,1.4,1.2,2.6,2.6,2.6
		C164.4,928.6,165.6,927.4,165.6,926z"/>
	<ellipse class="st1" cx="163" cy="954.9" rx="2.6" ry="2.6"/>
	<path class="st1" d="M165.6,983.8c0-1.4-1.1-2.6-2.6-2.6c-1.4,0-2.6,1.2-2.6,2.6c0,1.4,1.2,2.6,2.6,2.6
		C164.4,986.4,165.6,985.2,165.6,983.8z"/>
	<circle class="st1" cx="163" cy="1012.7" r="2.6"/>
	<path class="st1" d="M165.6,1041.6c0-1.4-1.1-2.6-2.6-2.6c-1.4,0-2.6,1.2-2.6,2.6s1.2,2.6,2.6,2.6
		C164.4,1044.2,165.6,1043,165.6,1041.6z"/>
	<circle class="st1" cx="134.1" cy="665.9" r="2.6"/>
	<path class="st1" d="M136.7,694.8c0-1.4-1.1-2.6-2.6-2.6c-1.4,0-2.6,1.1-2.6,2.6s1.2,2.6,2.6,2.6
		C135.5,697.3,136.7,696.2,136.7,694.8z"/>
	<path class="st1" d="M136.7,723.7c0-1.4-1.1-2.6-2.6-2.6c-1.4,0-2.6,1.1-2.6,2.6c0,1.4,1.2,2.6,2.6,2.6
		C135.5,726.2,136.7,725.1,136.7,723.7z"/>
	<ellipse class="st1" cx="134.1" cy="752.6" rx="2.6" ry="2.6"/>
	<path class="st1" d="M136.7,781.5c0-1.4-1.1-2.6-2.6-2.6c-1.4,0-2.6,1.1-2.6,2.6c0,1.4,1.2,2.6,2.6,2.6
		C135.5,784.1,136.7,782.9,136.7,781.5z"/>
	<path class="st1" d="M136.7,810.4c0-1.4-1.1-2.6-2.6-2.6c-1.4,0-2.6,1.1-2.6,2.6c0,1.4,1.2,2.6,2.6,2.6
		C135.5,813,136.7,811.8,136.7,810.4z"/>
	<ellipse class="st1" cx="134.1" cy="839.3" rx="2.6" ry="2.6"/>
	<circle class="st1" cx="134.1" cy="868.2" r="2.6"/>
	<path class="st1" d="M136.7,897.1c0-1.4-1.1-2.6-2.6-2.6c-1.4,0-2.6,1.1-2.6,2.6c0,1.4,1.2,2.6,2.6,2.6
		C135.5,899.7,136.7,898.5,136.7,897.1z"/>
	<path class="st1" d="M136.7,926c0-1.4-1.1-2.6-2.6-2.6c-1.4,0-2.6,1.1-2.6,2.6c0,1.4,1.2,2.6,2.6,2.6
		C135.5,928.6,136.7,927.4,136.7,926z"/>
	<ellipse class="st1" cx="134.1" cy="954.9" rx="2.6" ry="2.6"/>
	<path class="st1" d="M136.7,983.8c0-1.4-1.1-2.6-2.6-2.6c-1.4,0-2.6,1.2-2.6,2.6c0,1.4,1.2,2.6,2.6,2.6
		C135.5,986.4,136.7,985.2,136.7,983.8z"/>
	<ellipse class="st1" cx="134.1" cy="1012.7" rx="2.6" ry="2.6"/>
	<path class="st1" d="M136.7,1041.6c0-1.4-1.1-2.6-2.6-2.6c-1.4,0-2.6,1.2-2.6,2.6s1.2,2.6,2.6,2.6
		C135.5,1044.2,136.7,1043,136.7,1041.6z"/>
	<ellipse class="st1" cx="105.2" cy="665.9" rx="2.6" ry="2.6"/>
	<path class="st1" d="M107.8,694.8c0-1.4-1.1-2.6-2.6-2.6c-1.4,0-2.6,1.1-2.6,2.6s1.1,2.6,2.6,2.6
		C106.6,697.3,107.8,696.2,107.8,694.8z"/>
	<path class="st1" d="M107.8,723.7c0-1.4-1.1-2.6-2.6-2.6c-1.4,0-2.6,1.1-2.6,2.6c0,1.4,1.1,2.6,2.6,2.6
		C106.6,726.2,107.8,725.1,107.8,723.7z"/>
	<circle class="st1" cx="105.2" cy="752.6" r="2.6"/>
	<path class="st1" d="M107.8,781.5c0-1.4-1.1-2.6-2.6-2.6c-1.4,0-2.6,1.1-2.6,2.6c0,1.4,1.1,2.6,2.6,2.6
		C106.6,784.1,107.8,782.9,107.8,781.5z"/>
	<path class="st1" d="M107.8,810.4c0-1.4-1.1-2.6-2.6-2.6c-1.4,0-2.6,1.1-2.6,2.6c0,1.4,1.1,2.6,2.6,2.6
		C106.6,813,107.8,811.8,107.8,810.4z"/>
	<ellipse class="st1" cx="105.2" cy="839.3" rx="2.6" ry="2.6"/>
	<ellipse class="st1" cx="105.2" cy="868.2" rx="2.6" ry="2.6"/>
	<path class="st1" d="M107.8,897.1c0-1.4-1.1-2.6-2.6-2.6c-1.4,0-2.6,1.1-2.6,2.6c0,1.4,1.1,2.6,2.6,2.6
		C106.6,899.7,107.8,898.5,107.8,897.1z"/>
	<path class="st1" d="M107.8,926c0-1.4-1.1-2.6-2.6-2.6c-1.4,0-2.6,1.1-2.6,2.6c0,1.4,1.1,2.6,2.6,2.6
		C106.6,928.6,107.8,927.4,107.8,926z"/>
	<circle class="st1" cx="105.2" cy="954.9" r="2.6"/>
	<path class="st1" d="M107.8,983.8c0-1.4-1.1-2.6-2.6-2.6c-1.4,0-2.6,1.2-2.6,2.6c0,1.4,1.1,2.6,2.6,2.6
		C106.6,986.4,107.8,985.2,107.8,983.8z"/>
	<circle class="st1" cx="105.2" cy="1012.7" r="2.6"/>
	<path class="st1" d="M107.8,1041.6c0-1.4-1.1-2.6-2.6-2.6c-1.4,0-2.6,1.2-2.6,2.6s1.1,2.6,2.6,2.6
		C106.6,1044.2,107.8,1043,107.8,1041.6z"/>
	<path class="st1" d="M78.9,665.9c0-1.4-1.1-2.6-2.6-2.6c-1.4,0-2.6,1.1-2.6,2.6c0,1.4,1.1,2.6,2.6,2.6
		C77.7,668.4,78.9,667.3,78.9,665.9z"/>
	<path class="st1" d="M78.9,694.8c0-1.4-1.1-2.6-2.6-2.6c-1.4,0-2.6,1.1-2.6,2.6s1.1,2.6,2.6,2.6C77.7,697.3,78.9,696.2,78.9,694.8z
		"/>
	<path class="st1" d="M78.9,723.7c0-1.4-1.1-2.6-2.6-2.6c-1.4,0-2.6,1.1-2.6,2.6c0,1.4,1.1,2.6,2.6,2.6
		C77.7,726.2,78.9,725.1,78.9,723.7z"/>
	<path class="st1" d="M78.9,752.6c0-1.4-1.1-2.6-2.6-2.6c-1.4,0-2.6,1.1-2.6,2.6c0,1.4,1.1,2.6,2.6,2.6
		C77.7,755.1,78.9,754,78.9,752.6z"/>
	<path class="st1" d="M78.9,781.5c0-1.4-1.1-2.6-2.6-2.6c-1.4,0-2.6,1.1-2.6,2.6c0,1.4,1.1,2.6,2.6,2.6
		C77.7,784.1,78.9,782.9,78.9,781.5z"/>
	<path class="st1" d="M78.9,810.4c0-1.4-1.1-2.6-2.6-2.6c-1.4,0-2.6,1.1-2.6,2.6c0,1.4,1.1,2.6,2.6,2.6
		C77.7,813,78.9,811.8,78.9,810.4z"/>
	<path class="st1" d="M78.9,839.3c0-1.4-1.1-2.6-2.6-2.6c-1.4,0-2.6,1.1-2.6,2.6c0,1.4,1.1,2.6,2.6,2.6
		C77.7,841.9,78.9,840.7,78.9,839.3z"/>
	<path class="st1" d="M78.9,868.2c0-1.4-1.1-2.6-2.6-2.6c-1.4,0-2.6,1.1-2.6,2.6c0,1.4,1.1,2.6,2.6,2.6
		C77.7,870.8,78.9,869.6,78.9,868.2z"/>
	<path class="st1" d="M78.9,897.1c0-1.4-1.1-2.6-2.6-2.6c-1.4,0-2.6,1.1-2.6,2.6c0,1.4,1.1,2.6,2.6,2.6
		C77.7,899.7,78.9,898.5,78.9,897.1z"/>
	<path class="st1" d="M78.9,926c0-1.4-1.1-2.6-2.6-2.6c-1.4,0-2.6,1.1-2.6,2.6c0,1.4,1.1,2.6,2.6,2.6
		C77.7,928.6,78.9,927.4,78.9,926z"/>
	<path class="st1" d="M78.9,954.9c0-1.4-1.1-2.6-2.6-2.6c-1.4,0-2.6,1.2-2.6,2.6c0,1.4,1.1,2.6,2.6,2.6
		C77.7,957.5,78.9,956.3,78.9,954.9z"/>
	<path class="st1" d="M78.9,983.8c0-1.4-1.1-2.6-2.6-2.6c-1.4,0-2.6,1.2-2.6,2.6c0,1.4,1.1,2.6,2.6,2.6
		C77.7,986.4,78.9,985.2,78.9,983.8z"/>
	<path class="st1" d="M78.9,1012.7c0-1.4-1.1-2.6-2.6-2.6c-1.4,0-2.6,1.1-2.6,2.6c0,1.4,1.1,2.6,2.6,2.6
		C77.7,1015.3,78.9,1014.1,78.9,1012.7z"/>
	<path class="st1" d="M78.9,1041.6c0-1.4-1.1-2.6-2.6-2.6c-1.4,0-2.6,1.2-2.6,2.6s1.1,2.6,2.6,2.6
		C77.7,1044.2,78.9,1043,78.9,1041.6z"/>
</g>
<g>
	<path class="st1" d="M137.8,305.8L137.8,305.8c4.3,0,8.2,1.8,11.2,5.1c2.3,2.5,5.3,3.9,8.6,3.9l0,0c3.2,0,6.3-1.4,8.6-3.9
		c3-3.3,6.9-5.1,11.2-5.1c0,0,0,0,0,0c4.2,0,8.2,1.8,11.2,5.1c0.7,0.7,0.6,1.9-0.1,2.5c-0.7,0.7-1.9,0.6-2.5-0.1
		c-2.3-2.5-5.3-3.9-8.5-3.9c0,0,0,0,0,0c-3.2,0-6.3,1.4-8.6,3.9c-3,3.3-6.9,5.1-11.2,5.1l0,0c-4.3,0-8.2-1.8-11.2-5.1
		c-2.3-2.5-5.3-3.9-8.5-3.9h0c-3.2,0-6.3,1.4-8.6,3.9c-3,3.3-6.9,5.1-11.2,5.1c0,0,0,0,0,0c-4.2,0-8.2-1.8-11.2-5.1
		c-4.6-5-12.6-5-17.1,0c-3,3.3-6.9,5.1-11.2,5.1h0c-4.2,0-8.2-1.8-11.2-5.1c-2.3-2.5-5.3-3.9-8.6-3.9h0c-3.2,0-6.3,1.4-8.6,3.9
		c-0.7,0.7-1.8,0.8-2.5,0.1c-0.7-0.7-0.8-1.8-0.1-2.5c3-3.3,6.9-5.1,11.2-5.1h0c4.2,0,8.2,1.8,11.2,5.1c2.3,2.5,5.3,3.9,8.6,3.9h0
		c3.2,0,6.3-1.4,8.6-3.9c5.9-6.5,16.4-6.5,22.4,0c2.3,2.5,5.3,3.9,8.6,3.9h0c3.2,0,6.3-1.4,8.6-3.9
		C129.6,307.6,133.6,305.8,137.8,305.8z"/>
</g>
<g>
	<path class="st1" d="M171.2,332.5L171.2,332.5c4.3,0,8.2,1.8,11.2,5.1c2.3,2.5,5.3,3.9,8.6,3.9l0,0c3.2,0,6.3-1.4,8.6-3.9
		c3-3.3,6.9-5.1,11.2-5.1c0,0,0,0,0,0c4.2,0,8.2,1.8,11.2,5.1c0.7,0.7,0.6,1.9-0.1,2.5c-0.7,0.7-1.9,0.6-2.5-0.1
		c-2.3-2.5-5.3-3.9-8.5-3.9c0,0,0,0,0,0c-3.2,0-6.3,1.4-8.6,3.9c-3,3.3-6.9,5.1-11.2,5.1l0,0c-4.3,0-8.2-1.8-11.2-5.1
		c-2.3-2.5-5.3-3.9-8.5-3.9h0c-3.2,0-6.3,1.4-8.6,3.9c-3,3.3-6.9,5.1-11.2,5.1c0,0,0,0,0,0c-4.2,0-8.2-1.8-11.2-5.1
		c-4.6-5-12.6-5-17.1,0c-3,3.3-6.9,5.1-11.2,5.1c0,0,0,0,0,0c-4.2,0-8.2-1.8-11.2-5.1c-2.3-2.5-5.3-3.9-8.6-3.9h0
		c-3.2,0-6.3,1.4-8.6,3.9c-0.7,0.7-1.8,0.8-2.5,0.1c-0.7-0.7-0.8-1.8-0.1-2.5c3-3.3,6.9-5.1,11.2-5.1h0c4.2,0,8.2,1.8,11.2,5.1
		c2.3,2.5,5.3,3.9,8.6,3.9h0c3.2,0,6.3-1.4,8.6-3.9c5.9-6.5,16.4-6.5,22.4,0c2.3,2.5,5.3,3.9,8.6,3.9h0c3.2,0,6.3-1.4,8.6-3.9
		C163,334.3,166.9,332.5,171.2,332.5z"/>
</g>
<g>
	<path class="st2" d="M233.1,499.4c4.7-10.4,16.9-15,27.3-10.4l-3.1,6.9c-6.6-3-14.3,0-17.3,6.6c-3,6.6,0,14.3,6.6,17.3l-3.1,6.9
		C233.1,522.1,228.5,509.8,233.1,499.4z"/>
</g>
<g>
	<circle class="st1" cx="1365.2" cy="255.3" r="2.8"/>
	<circle class="st1" cx="1345.3" cy="106.6" r="2.8"/>
	<circle class="st1" cx="1480" cy="152.1" r="2.8"/>
	<ellipse class="st1" cx="1305.9" cy="308.1" rx="2.8" ry="2.8"/>
	<circle class="st1" cx="1424.4" cy="225.7" r="2.8"/>
	<circle class="st1" cx="1398.2" cy="105" r="2.8"/>
	<circle class="st1" cx="1276.8" cy="50.1" r="2.8"/>
	<circle class="st1" cx="1372.2" cy="36.1" r="2.8"/>
	<circle class="st1" cx="1304.2" cy="162.9" r="2.8"/>
	<circle class="st1" cx="1200.5" cy="220.6" r="2.8"/>
	<circle class="st1" cx="1483.5" cy="120.9" r="2.8"/>
	<circle class="st1" cx="1392.7" cy="81.9" r="2.8"/>
	<circle class="st1" cx="1307.8" cy="57.9" r="2.8"/>
	<circle class="st1" cx="1308.3" cy="115.3" r="2.8"/>
	<ellipse class="st1" cx="1348.3" cy="264.2" rx="2.8" ry="2.8"/>
	<circle class="st1" cx="1493.7" cy="171.3" r="2.8"/>
	<circle class="st1" cx="1287.2" cy="309.5" r="2.8"/>
	<circle class="st1" cx="1423.3" cy="151.7" r="2.8"/>
	<circle class="st1" cx="1364.9" cy="283.3" r="2.8"/>
	<circle class="st1" cx="1412.4" cy="255.7" r="2.8"/>
	<circle class="st1" cx="1242.2" cy="266.6" r="2.8"/>
	<circle class="st1" cx="1261.8" cy="296.9" r="2.8"/>
	<circle class="st1" cx="1402.5" cy="38.1" r="2.8"/>
	<circle class="st1" cx="1308.2" cy="236.2" r="2.8"/>
	<circle class="st1" cx="1365.5" cy="123.8" r="2.8"/>
	<circle class="st1" cx="1293.9" cy="109.7" r="2.8"/>
	<circle class="st1" cx="1363.9" cy="142.7" r="2.8"/>
	<circle class="st1" cx="1400.6" cy="75.2" r="2.8"/>
	<circle class="st1" cx="1197.2" cy="191.9" r="2.8"/>
	<circle class="st1" cx="1353.9" cy="164.6" r="2.8"/>
	<circle class="st1" cx="1384.8" cy="287.6" r="2.8"/>
	<circle class="st1" cx="1326" cy="244.9" r="2.8"/>
	<circle class="st1" cx="1394.9" cy="233.5" r="2.8"/>
	<circle class="st1" cx="1322.4" cy="182.8" r="2.8"/>
	<circle class="st1" cx="1231" cy="104.8" r="2.8"/>
	<circle class="st1" cx="1310.9" cy="22.9" r="2.8"/>
	<circle class="st1" cx="1255.7" cy="95.5" r="2.8"/>
	<circle class="st1" cx="1244.7" cy="210.7" r="2.8"/>
	<circle class="st1" cx="1417.9" cy="176.5" r="2.8"/>
	<circle class="st1" cx="1295.4" cy="90.1" r="2.8"/>
	<circle class="st1" cx="1388.9" cy="164.6" r="2.8"/>
	<circle class="st1" cx="1251.3" cy="118.9" r="2.8"/>
	<circle class="st1" cx="1289.4" cy="167.6" r="2.8"/>
	<circle class="st1" cx="1351.1" cy="87.8" r="2.8"/>
	<circle class="st1" cx="1463.1" cy="121.5" r="2.8"/>
	<circle class="st1" cx="1404.3" cy="62" r="2.8"/>
	<circle class="st1" cx="1207.5" cy="144.1" r="2.8"/>
	<circle class="st1" cx="1433.8" cy="112.9" r="2.8"/>
	<circle class="st1" cx="1464.2" cy="172.2" r="2.8"/>
	<circle class="st1" cx="1235.6" cy="168.5" r="2.8"/>
	<circle class="st1" cx="1377.3" cy="303.9" r="2.8"/>
	<circle class="st1" cx="1414.4" cy="83.4" r="2.8"/>
	<circle class="st1" cx="1334.3" cy="309.9" r="2.8"/>
	<circle class="st1" cx="1405.9" cy="215.8" r="2.8"/>
	<circle class="st1" cx="1485.1" cy="195.7" r="2.8"/>
	<circle class="st1" cx="1327.9" cy="89.6" r="2.8"/>
	<circle class="st1" cx="1247.4" cy="138.7" r="2.8"/>
	<circle class="st1" cx="1321.9" cy="127.8" r="2.8"/>
	<circle class="st1" cx="1424.3" cy="239.9" r="2.8"/>
	<circle class="st1" cx="1267.9" cy="38.1" r="2.8"/>
	<circle class="st1" cx="1220.2" cy="202.8" r="2.8"/>
	<circle class="st1" cx="1364.6" cy="170" r="2.8"/>
	<circle class="st1" cx="1448.3" cy="79.7" r="2.8"/>
	<circle class="st1" cx="1423.9" cy="251.4" r="2.8"/>
	<circle class="st1" cx="1214.1" cy="181.9" r="2.8"/>
	<circle class="st1" cx="1304.8" cy="260.1" r="2.8"/>
	<circle class="st1" cx="1431.6" cy="286" r="2.8"/>
	<circle class="st1" cx="1325.7" cy="65" r="2.8"/>
	<circle class="st1" cx="1360.1" cy="298.2" r="2.8"/>
	<circle class="st1" cx="1445.3" cy="257.5" r="2.8"/>
	<circle class="st1" cx="1194.1" cy="165.9" r="2.8"/>
	<circle class="st1" cx="1400" cy="185.5" r="2.8"/>
	<circle class="st1" cx="1283" cy="72.4" r="2.8"/>
	<circle class="st1" cx="1312.9" cy="36.8" r="2.8"/>
	<circle class="st1" cx="1459.5" cy="143.5" r="2.8"/>
	<circle class="st1" cx="1243.4" cy="240.7" r="2.8"/>
	<circle class="st1" cx="1439.1" cy="184.7" r="2.8"/>
	<circle class="st1" cx="1307.8" cy="200.1" r="2.8"/>
	<circle class="st1" cx="1455.4" cy="195.2" r="2.8"/>
	<circle class="st1" cx="1264.9" cy="254.7" r="2.8"/>
	<circle class="st1" cx="1377.8" cy="77.8" r="2.8"/>
	<circle class="st1" cx="1234.5" cy="221.8" r="2.8"/>
	<circle class="st1" cx="1319.3" cy="298.8" r="2.8"/>
	<circle class="st1" cx="1358.5" cy="131.9" r="2.8"/>
	<circle class="st1" cx="1440.6" cy="165.4" r="2.8"/>
	<circle class="st1" cx="1433.9" cy="62" r="2.8"/>
	<ellipse class="st1" cx="1263.2" cy="78.1" rx="2.8" ry="2.8"/>
	<circle class="st1" cx="1275.2" cy="105" r="2.8"/>
	<circle class="st1" cx="1190.5" cy="136.8" r="2.8"/>
	<circle class="st1" cx="1373.5" cy="146" r="2.8"/>
	<circle class="st1" cx="1371.7" cy="108" r="2.8"/>
	<circle class="st1" cx="1290.4" cy="278.7" r="2.8"/>
	<circle class="st1" cx="1230.4" cy="153.6" r="2.8"/>
	<circle class="st1" cx="1398.5" cy="273" r="2.8"/>
	<circle class="st1" cx="1344.2" cy="131.5" r="2.8"/>
	<circle class="st1" cx="1387.1" cy="24" r="2.8"/>
	<circle class="st1" cx="1393.1" cy="124.3" r="2.8"/>
	<circle class="st1" cx="1271.9" cy="279.8" r="2.8"/>
	<circle class="st1" cx="1339.8" cy="290.3" r="2.8"/>
	<circle class="st1" cx="1265.9" cy="165.1" r="2.8"/>
	<circle class="st1" cx="1421.9" cy="125.9" r="2.8"/>
	<circle class="st1" cx="1387.7" cy="318.6" r="2.8"/>
	<ellipse class="st1" cx="1438.8" cy="141.7" rx="2.8" ry="2.8"/>
	<circle class="st1" cx="1384.3" cy="213.3" r="2.8"/>
	<circle class="st1" cx="1235.2" cy="184.5" r="2.8"/>
	<circle class="st1" cx="1259.5" cy="183.4" r="2.8"/>
	<circle class="st1" cx="1244.5" cy="74.7" r="2.8"/>
	<circle class="st1" cx="1290.5" cy="236.5" r="2.8"/>
	<circle class="st1" cx="1310.2" cy="77.5" r="2.8"/>
	<circle class="st1" cx="1395.6" cy="253.1" r="2.8"/>
	<circle class="st1" cx="1443.4" cy="212.2" r="2.8"/>
	<circle class="st1" cx="1330.8" cy="274.7" r="2.8"/>
	<circle class="st1" cx="1437.6" cy="266.1" r="2.8"/>
	<circle class="st1" cx="1337.2" cy="176.7" r="2.8"/>
	<circle class="st1" cx="1367.9" cy="228.3" r="2.8"/>
	<circle class="st1" cx="1325.5" cy="211.4" r="2.8"/>
	<circle class="st1" cx="1328.4" cy="230.9" r="2.8"/>
	<circle class="st1" cx="1249.6" cy="279.4" r="2.8"/>
	<circle class="st1" cx="1315.1" cy="159.4" r="2.8"/>
	<circle class="st1" cx="1309.4" cy="318.6" r="2.8"/>
	<circle class="st1" cx="1340" cy="56.9" r="2.8"/>
	<circle class="st1" cx="1334.1" cy="28" r="2.8"/>
	<circle class="st1" cx="1485.4" cy="224.5" r="2.8"/>
	<circle class="st1" cx="1215.9" cy="225" r="2.8"/>
	<circle class="st1" cx="1280.4" cy="185.5" r="2.8"/>
	<circle class="st1" cx="1211.8" cy="164.2" r="2.8"/>
	<circle class="st1" cx="1447.5" cy="98.9" r="2.8"/>
	<circle class="st1" cx="1286.5" cy="35.2" r="2.8"/>
	<circle class="st1" cx="1386.7" cy="51.6" r="2.8"/>
	<circle class="st1" cx="1278.5" cy="254.6" r="2.8"/>
	<circle class="st1" cx="1368" cy="207.3" r="2.8"/>
	<circle class="st1" cx="1360.6" cy="72.9" r="2.8"/>
	<circle class="st1" cx="1388.5" cy="202.1" r="2.8"/>
	<circle class="st1" cx="1250.5" cy="55.5" r="2.8"/>
	<circle class="st1" cx="1221.5" cy="125.2" r="2.8"/>
	<circle class="st1" cx="1224.5" cy="86.5" r="2.8"/>
	<circle class="st1" cx="1403.5" cy="152.7" r="2.8"/>
	<circle class="st1" cx="1449" cy="278.4" r="2.8"/>
	<circle class="st1" cx="1235" cy="63.6" r="2.8"/>
	<circle class="st1" cx="1298.9" cy="146.8" r="2.8"/>
	<circle class="st1" cx="1411.4" cy="287.3" r="2.8"/>
	<circle class="st1" cx="1348.9" cy="42.9" r="2.8"/>
	<circle class="st1" cx="1281.9" cy="133.3" r="2.8"/>
	<circle class="st1" cx="1273.1" cy="209.7" r="2.8"/>
	<circle class="st1" cx="1381.9" cy="265.8" r="2.8"/>
	<circle class="st1" cx="1210.7" cy="101.9" r="2.8"/>
	<circle class="st1" cx="1334.3" cy="149.8" r="2.8"/>
	<circle class="st1" cx="1275.6" cy="227.6" r="2.8"/>
	<circle class="st1" cx="1425.6" cy="47.9" r="2.8"/>
	<circle class="st1" cx="1204.1" cy="118.8" r="2.8"/>
	<circle class="st1" cx="1294.6" cy="210" r="2.8"/>
	<circle class="st1" cx="1350" cy="241.4" r="2.8"/>
	<circle class="st1" cx="1466.3" cy="255.6" r="2.8"/>
	<circle class="st1" cx="1354.2" cy="22.8" r="2.8"/>
	<circle class="st1" cx="1475.6" cy="105.4" r="2.8"/>
	<circle class="st1" cx="1485.1" cy="208.5" r="2.8"/>
	<circle class="st1" cx="1217.2" cy="245.8" r="2.8"/>
	<circle class="st1" cx="1351.9" cy="195.3" r="2.8"/>
	<ellipse class="st1" cx="1492.9" cy="142.2" rx="2.8" ry="2.8"/>
	<circle class="st1" cx="1465.3" cy="213.6" r="2.8"/>
	<circle class="st1" cx="1463.2" cy="240.9" r="2.8"/>
	<circle class="st1" cx="1434.1" cy="92" r="2.8"/>
	<circle class="st1" cx="1347.5" cy="218.1" r="2.8"/>
</g>
<g>
	<path class="st2" d="M1092.4,745.1c-0.1,0.1-0.1,0.2-0.2,0.3c-0.1,0.1-0.1,0.2-0.2,0.3c0,0.1,0,0.2,0,0.3c0,0.1,0,0.3,0,0.4
		l26.3,78c0.2,0.5,0.6,0.8,1.1,0.9l81.1,16c0.4,0.1,0.7,0,1-0.3c0.1-0.1,0.2-0.1,0.3-0.2h0l0,0l54-62.1c0.3-0.4,0.4-0.9,0.3-1.4
		l-26.3-78l0,0c0,0,0,0,0,0c-0.1-0.2-0.2-0.4-0.4-0.6c0,0,0,0-0.1,0c0,0-0.1,0-0.1,0c-0.1-0.1-0.3-0.2-0.5-0.2l-81.1-16
		c-0.5-0.1-1,0.1-1.3,0.5L1092.4,745.1z M1120.9,822.8l-25.3-74.9l28,5.5l50,9.9l25.3,74.9L1120.9,822.8z M1253.4,777.7l-51.9,59.6
		l-25.3-74.9l13.6-15.6l38.3-44L1253.4,777.7z M1226,700.9l-44.7,51.4l-7.2,8.3l-78-15.4l51.9-59.7L1226,700.9z"/>
</g>
<g>
	<g>
		<path class="st3" d="M922.8,959.5L922.8,959.5c5.5,0,10.6,2.3,14.5,6.5c3,3.3,6.9,5,11.1,5l0,0c4.2,0,8.1-1.8,11.1-5
			c3.9-4.2,9-6.5,14.5-6.5c0,0,0,0,0,0c5.5,0,10.6,2.3,14.5,6.5c0.9,0.9,0.8,2.4-0.2,3.3c-0.9,0.9-2.4,0.8-3.3-0.2
			c-2.9-3.2-6.9-5-11.1-5c0,0,0,0,0,0c-4.2,0-8.1,1.8-11.1,5c-3.8,4.2-9,6.5-14.5,6.5l0,0c-5.5,0-10.6-2.3-14.5-6.5
			c-3-3.2-6.9-5-11.1-5h0c-4.2,0-8.1,1.8-11.1,5c-3.8,4.2-9,6.5-14.5,6.5l0,0c-5.5,0-10.7-2.3-14.5-6.5c-5.9-6.5-16.3-6.5-22.2,0
			c-3.8,4.2-9,6.5-14.5,6.5l0,0c-5.5,0-10.7-2.3-14.5-6.5c-3-3.3-6.9-5-11.1-5h0c-4.2,0-8.1,1.8-11.1,5c-0.9,0.9-2.3,1-3.3,0.2
			c-0.9-0.9-1-2.3-0.2-3.2c3.8-4.2,9-6.5,14.5-6.5h0c5.5,0,10.7,2.3,14.5,6.5c3,3.3,6.9,5,11.1,5l0,0c4.2,0,8.1-1.8,11.1-5
			c7.7-8.4,21.3-8.4,29,0c3,3.3,6.9,5,11.1,5l0,0c4.2,0,8.1-1.8,11.1-5C912.1,961.8,917.3,959.5,922.8,959.5z"/>
	</g>
	<g>
		<path class="st3" d="M922.8,907.5L922.8,907.5c5.5,0,10.6,2.3,14.5,6.5c3,3.3,6.9,5,11.1,5l0,0c4.2,0,8.1-1.8,11.1-5
			c3.9-4.2,9-6.5,14.5-6.5c0,0,0,0,0,0c5.5,0,10.6,2.3,14.5,6.5c0.9,0.9,0.8,2.4-0.2,3.3c-0.9,0.9-2.4,0.8-3.3-0.2
			c-2.9-3.2-6.9-5-11.1-5c0,0,0,0,0,0c-4.2,0-8.1,1.8-11.1,5c-3.8,4.2-9,6.5-14.5,6.5l0,0c-5.5,0-10.6-2.3-14.5-6.5
			c-3-3.3-6.9-5-11.1-5h0c-4.2,0-8.1,1.8-11.1,5c-3.8,4.2-9,6.5-14.5,6.5l0,0c-5.5,0-10.7-2.3-14.5-6.5c-5.9-6.5-16.3-6.5-22.2,0
			c-3.8,4.2-9,6.5-14.5,6.5l0,0c-5.5,0-10.7-2.3-14.5-6.5c-3-3.3-6.9-5-11.1-5h0c-4.2,0-8.1,1.8-11.1,5c-0.9,0.9-2.3,1-3.3,0.2
			c-0.9-0.9-1-2.3-0.2-3.3c3.8-4.2,9-6.5,14.5-6.5h0c5.5,0,10.7,2.3,14.5,6.5c3,3.3,6.9,5,11.1,5l0,0c4.2,0,8.1-1.8,11.1-5
			c7.7-8.4,21.3-8.4,29,0c3,3.3,6.9,5,11.1,5l0,0c4.2,0,8.1-1.8,11.1-5C912.1,909.8,917.3,907.5,922.8,907.5z"/>
	</g>
	<g>
		<path class="st3" d="M922.8,933.9L922.8,933.9c5.5,0,10.6,2.3,14.5,6.5c3,3.3,6.9,5,11.1,5l0,0c4.2,0,8.1-1.8,11.1-5
			c3.9-4.2,9-6.5,14.5-6.5c0,0,0,0,0,0c5.5,0,10.6,2.3,14.5,6.5c0.9,0.9,0.8,2.4-0.2,3.3c-0.9,0.9-2.4,0.8-3.3-0.2
			c-2.9-3.2-6.9-5-11.1-5c0,0,0,0,0,0c-4.2,0-8.1,1.8-11.1,5c-3.8,4.2-9,6.5-14.5,6.5l0,0c-5.5,0-10.6-2.3-14.5-6.5
			c-3-3.3-6.9-5-11.1-5h0c-4.2,0-8.1,1.8-11.1,5c-3.8,4.2-9,6.5-14.5,6.5l0,0c-5.5,0-10.7-2.3-14.5-6.5c-5.9-6.5-16.3-6.5-22.2,0
			c-3.8,4.2-9,6.5-14.5,6.5l0,0c-5.5,0-10.7-2.3-14.5-6.5c-3-3.3-6.9-5-11.1-5h0c-4.2,0-8.1,1.8-11.1,5c-0.9,0.9-2.3,1-3.3,0.2
			c-0.9-0.9-1-2.3-0.2-3.3c3.8-4.2,9-6.5,14.5-6.5h0c5.5,0,10.7,2.3,14.5,6.5c3,3.3,6.9,5,11.1,5l0,0c4.2,0,8.1-1.8,11.1-5
			c7.7-8.4,21.3-8.4,29,0c3,3.3,6.9,5,11.1,5l0,0c4.2,0,8.1-1.8,11.1-5C912.1,936.2,917.3,933.9,922.8,933.9z"/>
	</g>
</g>
<path class="st3" d="M1459.2,741.7c-2,1.1-2.6,3.6-1.5,5.6c1.1,2,3.6,2.6,5.6,1.5c2-1.1,2.6-3.6,1.5-5.6
	C1463.7,741.3,1461.2,740.6,1459.2,741.7z M1531.1,867.3c-2,1.1-2.6,3.6-1.5,5.6c1.1,2,3.6,2.6,5.6,1.5c2-1.1,2.6-3.6,1.5-5.6
	C1535.5,866.9,1533,866.2,1531.1,867.3z M1508.6,852.4c-2,1.1-2.6,3.6-1.5,5.6c1.1,2,3.6,2.6,5.6,1.5c2-1.1,2.6-3.6,1.5-5.6
	C1513.1,851.9,1510.6,851.3,1508.6,852.4z M1532.6,894.2c-2,1.1-2.6,3.6-1.5,5.6c1.1,2,3.6,2.6,5.6,1.5c2-1.1,2.6-3.6,1.5-5.6
	S1534.6,893.1,1532.6,894.2z M1483.2,783.6c-2,1.1-2.6,3.6-1.5,5.6c1.1,2,3.6,2.6,5.6,1.5c2-1.1,2.6-3.6,1.5-5.6
	C1487.6,783.1,1485.1,782.5,1483.2,783.6z M1505.6,798.5c-2,1.1-2.6,3.6-1.5,5.6c1.1,2,3.6,2.6,5.6,1.5c2-1.1,2.6-3.6,1.5-5.6
	C1510.1,798.1,1507.6,797.4,1505.6,798.5z M1459.5,722.4l-3.2-1.8C1457.1,721.7,1458.2,722.3,1459.5,722.4z M1507.1,825.4
	c-2,1.1-2.6,3.6-1.5,5.6c1.1,2,3.6,2.6,5.6,1.5c2-1.1,2.6-3.6,1.5-5.6C1511.6,825,1509.1,824.3,1507.1,825.4z M1484.7,810.5
	c-2,1.1-2.6,3.6-1.5,5.6c1.1,2,3.6,2.6,5.6,1.5c2-1.1,2.6-3.6,1.5-5.6C1489.1,810.1,1486.6,809.4,1484.7,810.5z M1481.7,756.7
	c-2,1.1-2.6,3.6-1.5,5.6c1.1,2,3.6,2.6,5.6,1.5c2-1.1,2.6-3.6,1.5-5.6C1486.1,756.2,1483.6,755.5,1481.7,756.7z M1460.7,768.6
	c-2,1.1-2.6,3.6-1.5,5.6c1.1,2,3.6,2.6,5.6,1.5c2-1.1,2.6-3.6,1.5-5.6C1465.2,768.2,1462.7,767.5,1460.7,768.6z M1438.3,753.7
	c-2,1.1-2.6,3.6-1.5,5.6c1.1,2,3.6,2.6,5.6,1.5c2-1.1,2.6-3.6,1.5-5.6C1442.7,753.3,1440.2,752.6,1438.3,753.7z M1487.7,864.3
	c-2,1.1-2.6,3.6-1.5,5.6c1.1,2,3.6,2.6,5.6,1.5c2-1.1,2.6-3.6,1.5-5.6C1492.2,863.9,1489.7,863.2,1487.7,864.3z M1511.7,906.2
	c-2,1.1-2.6,3.6-1.5,5.6s3.6,2.6,5.6,1.5c2-1.1,2.6-3.6,1.5-5.6S1513.6,905.1,1511.7,906.2z M1462.2,795.6c-2,1.1-2.6,3.6-1.5,5.6
	c1.1,2,3.6,2.6,5.6,1.5c2-1.1,2.6-3.6,1.5-5.6C1466.7,795.1,1464.2,794.4,1462.2,795.6z M1436.8,726.8c-2,1.1-2.6,3.6-1.5,5.6
	c1.1,2,3.6,2.6,5.6,1.5c2-1.1,2.6-3.6,1.5-5.6C1441.2,726.3,1438.7,725.7,1436.8,726.8z M1424.5,704.3c-2,1.1-2.6,3.6-1.5,5.6
	c1.1,2,3.6,2.6,5.6,1.5c2-1.1,2.6-3.6,1.5-5.6C1428.9,703.8,1426.4,703.2,1424.5,704.3z M1486.2,837.4c-2,1.1-2.6,3.6-1.5,5.6
	c1.1,2,3.6,2.6,5.6,1.5c2-1.1,2.6-3.6,1.5-5.6C1490.7,837,1488.2,836.3,1486.2,837.4z M1510.2,879.3c-2,1.1-2.6,3.6-1.5,5.6
	c1.1,2,3.6,2.6,5.6,1.5c2-1.1,2.6-3.6,1.5-5.6C1514.6,878.8,1512.1,878.2,1510.2,879.3z M1504.1,771.6c-2,1.1-2.6,3.6-1.5,5.6
	c1.1,2,3.6,2.6,5.6,1.5c2-1.1,2.6-3.6,1.5-5.6C1508.6,771.2,1506.1,770.5,1504.1,771.6z M1553.5,882.3c-2,1.1-2.6,3.6-1.5,5.6
	c1.1,2,3.6,2.6,5.6,1.5c2-1.1,2.6-3.6,1.5-5.6S1555.5,881.1,1553.5,882.3z M1595.4,858.3c-2,1.1-2.6,3.6-1.5,5.6
	c1.1,2,3.6,2.6,5.6,1.5c2-1.1,2.6-3.6,1.5-5.6C1599.8,857.9,1597.4,857.2,1595.4,858.3z M1549,801.5c-2,1.1-2.6,3.6-1.5,5.6
	c1.1,2,3.6,2.6,5.6,1.5c2-1.1,2.6-3.6,1.5-5.6C1553.4,801,1551,800.4,1549,801.5z M1529.1,766.7c1-0.6,1.7-1.6,1.9-2.6l-6.7-3.9
	c-1.4,1.3-1.8,3.3-0.8,5C1524.6,767.1,1527.1,767.8,1529.1,766.7z M1659.7,849.3c-2,1.1-2.6,3.6-1.5,5.6c0.8,1.4,2.4,2.2,3.9,2
	l2.9-1.7c0.9-1.3,1.1-3,0.2-4.4C1664.2,848.8,1661.7,848.2,1659.7,849.3z M1550.5,828.4c-2,1.1-2.6,3.6-1.5,5.6
	c1.1,2,3.6,2.6,5.6,1.5c2-1.1,2.6-3.6,1.5-5.6C1555,828,1552.5,827.3,1550.5,828.4z M1429.5,981c-2,1.1-2.6,3.6-1.5,5.6
	c0.8,1.4,2.4,2.2,3.9,2l2.9-1.7c0.9-1.3,1.1-3,0.2-4.4C1433.9,980.6,1431.4,979.9,1429.5,981z M1423.4,873.4c-1.1,0.6-1.8,1.7-2,2.9
	l0,1.3c0.1,0.5,0.2,0.9,0.5,1.4c1.1,2,3.6,2.6,5.6,1.5c2-1.1,2.6-3.6,1.5-5.6C1427.9,872.9,1425.4,872.2,1423.4,873.4z
	 M1571.4,816.4c-2,1.1-2.6,3.6-1.5,5.6c1.1,2,3.6,2.6,5.6,1.5c2-1.1,2.6-3.6,1.5-5.6C1575.9,816,1573.4,815.3,1571.4,816.4z
	 M1573,843.4c-2,1.1-2.6,3.6-1.5,5.6c1.1,2,3.6,2.6,5.6,1.5c2-1.1,2.6-3.6,1.5-5.6C1577.4,842.9,1574.9,842.2,1573,843.4z
	 M1552,855.3c-2,1.1-2.6,3.6-1.5,5.6c1.1,2,3.6,2.6,5.6,1.5c2-1.1,2.6-3.6,1.5-5.6C1556.5,854.9,1554,854.2,1552,855.3z
	 M1463.8,822.5c-2,1.1-2.6,3.6-1.5,5.6c1.1,2,3.6,2.6,5.6,1.5c2-1.1,2.6-3.6,1.5-5.6C1468.2,822,1465.7,821.4,1463.8,822.5z
	 M1574.5,870.3c-2,1.1-2.6,3.6-1.5,5.6c1.1,2,3.6,2.6,5.6,1.5c2-1.1,2.6-3.6,1.5-5.6S1576.4,869.2,1574.5,870.3z M1529.6,840.4
	c-2,1.1-2.6,3.6-1.5,5.6c1.1,2,3.6,2.6,5.6,1.5c2-1.1,2.6-3.6,1.5-5.6C1534,839.9,1531.5,839.3,1529.6,840.4z M1484.2,736.8
	C1484.2,736.8,1484.2,736.8,1484.2,736.8l-6.1-3.6c0,0.7,0.1,1.4,0.5,2.1C1479.8,737.3,1482.2,737.9,1484.2,736.8z M1526.6,786.5
	c-2,1.1-2.6,3.6-1.5,5.6c1.1,2,3.6,2.6,5.6,1.5c2-1.1,2.6-3.6,1.5-5.6C1531,786.1,1528.5,785.4,1526.6,786.5z M1528.1,813.5
	c-2,1.1-2.6,3.6-1.5,5.6c1.1,2,3.6,2.6,5.6,1.5c2-1.1,2.6-3.6,1.5-5.6C1532.5,813,1530,812.3,1528.1,813.5z M1506.6,751.8
	c0.5-0.3,0.9-0.7,1.3-1.2l-7-4.1c-0.5,1.2-0.5,2.5,0.2,3.7C1502.2,752.2,1504.7,752.9,1506.6,751.8z M1638.8,861.3
	c-2,1.1-2.6,3.6-1.5,5.6c0.8,1.4,2.4,2.2,3.9,2l2.9-1.7c0.9-1.3,1.1-3,0.2-4.4C1643.2,860.8,1640.7,860.1,1638.8,861.3z
	 M1534.1,921.1c-2,1.1-2.6,3.6-1.5,5.6c0.8,1.4,2.4,2.2,3.9,2l2.9-1.7c0.9-1.3,1.1-3,0.2-4.4C1538.6,920.7,1536.1,920,1534.1,921.1z
	 M1513.2,933.1c-2,1.1-2.6,3.6-1.5,5.6c0.8,1.4,2.4,2.2,3.9,2l2.9-1.7c0.9-1.3,1.1-3,0.2-4.4C1517.6,932.7,1515.1,932,1513.2,933.1z
	 M1555.1,909.2c-2,1.1-2.6,3.6-1.5,5.6c0.8,1.4,2.4,2.2,3.9,2l2.9-1.7c0.9-1.3,1.1-3,0.2-4.4C1559.5,908.7,1557,908.1,1555.1,909.2z
	 M1576,897.2c-2,1.1-2.6,3.6-1.5,5.6c0.8,1.4,2.4,2.2,3.9,2l2.9-1.7c0.9-1.3,1.1-3,0.2-4.4C1580.4,896.8,1577.9,896.1,1576,897.2z
	 M1471.3,957.1c-2,1.1-2.6,3.6-1.5,5.6c0.8,1.4,2.4,2.2,3.9,2l2.9-1.7c0.9-1.3,1.1-3,0.2-4.4C1475.8,956.7,1473.3,956,1471.3,957.1z
	 M1492.3,945.1c-2,1.1-2.6,3.6-1.5,5.6c0.8,1.4,2.4,2.2,3.9,2l2.9-1.7c0.9-1.3,1.1-3,0.2-4.4C1496.7,944.7,1494.2,944,1492.3,945.1z
	 M1450.4,969.1c-2,1.1-2.6,3.6-1.5,5.6c0.8,1.4,2.4,2.2,3.9,2l2.9-1.7c0.9-1.3,1.1-3,0.2-4.4
	C1454.8,968.6,1452.3,967.9,1450.4,969.1z M1427.9,954.1c-2,1.1-2.6,3.6-1.5,5.6s3.6,2.6,5.6,1.5c2-1.1,2.6-3.6,1.5-5.6
	S1429.9,953,1427.9,954.1z M1596.9,885.2c-2,1.1-2.6,3.6-1.5,5.6c0.8,1.4,2.4,2.2,3.9,2l2.9-1.7c0.9-1.3,1.1-3,0.2-4.4
	C1601.4,884.8,1598.9,884.1,1596.9,885.2z M1637.3,834.3c-2,1.1-2.6,3.6-1.5,5.6c1.1,2,3.6,2.6,5.6,1.5c2-1.1,2.6-3.6,1.5-5.6
	S1639.2,833.2,1637.3,834.3z M1592.4,804.5c-2,1.1-2.6,3.6-1.5,5.6c1.1,2,3.6,2.6,5.6,1.5c2-1.1,2.6-3.6,1.5-5.6
	C1596.8,804,1594.3,803.3,1592.4,804.5z M1614.8,819.4c-2,1.1-2.6,3.6-1.5,5.6c1.1,2,3.6,2.6,5.6,1.5c2-1.1,2.6-3.6,1.5-5.6
	C1619.3,819,1616.8,818.3,1614.8,819.4z M1426.4,927.2c-2,1.1-2.6,3.6-1.5,5.6c1.1,2,3.6,2.6,5.6,1.5c2-1.1,2.6-3.6,1.5-5.6
	C1430.9,926.8,1428.4,926.1,1426.4,927.2z M1617.8,873.2c-2,1.1-2.6,3.6-1.5,5.6c0.8,1.4,2.4,2.2,3.9,2l2.9-1.7
	c0.9-1.3,1.1-3,0.2-4.4C1622.3,872.8,1619.8,872.1,1617.8,873.2z M1551.5,781.7c1.6-0.9,2.3-2.8,1.9-4.5l-5-2.9
	c-0.3,0.1-0.6,0.2-0.9,0.4c-2,1.1-2.6,3.6-1.5,5.6C1547.1,782.1,1549.6,782.8,1551.5,781.7z M1593.9,831.4c-2,1.1-2.6,3.6-1.5,5.6
	c1.1,2,3.6,2.6,5.6,1.5c2-1.1,2.6-3.6,1.5-5.6C1598.3,830.9,1595.8,830.3,1593.9,831.4z M1569.9,789.5c-2,1.1-2.6,3.6-1.5,5.6
	c1.1,2,3.6,2.6,5.6,1.5c2-1.1,2.6-3.6,1.5-5.6C1574.4,789.1,1571.9,788.4,1569.9,789.5z M1616.3,846.3c-2,1.1-2.6,3.6-1.5,5.6
	s3.6,2.6,5.6,1.5c2-1.1,2.6-3.6,1.5-5.6S1618.3,845.2,1616.3,846.3z M1469.8,930.2c-2,1.1-2.6,3.6-1.5,5.6c1.1,2,3.6,2.6,5.6,1.5
	c2-1.1,2.6-3.6,1.5-5.6S1471.8,929,1469.8,930.2z M1442.8,834.5c-2,1.1-2.6,3.6-1.5,5.6c1.1,2,3.6,2.6,5.6,1.5
	c2-1.1,2.6-3.6,1.5-5.6C1447.3,834,1444.8,833.3,1442.8,834.5z M1421.7,800.1c0.4-0.1,0.8-0.2,1.2-0.4c2-1.1,2.6-3.6,1.5-5.6
	c-0.6-1-1.6-1.7-2.7-1.9L1421.7,800.1z M1441.3,807.5c-2,1.1-2.6,3.6-1.5,5.6c1.1,2,3.6,2.6,5.6,1.5c2-1.1,2.6-3.6,1.5-5.6
	C1445.8,807.1,1443.3,806.4,1441.3,807.5z M1490.7,918.2c-2,1.1-2.6,3.6-1.5,5.6c1.1,2,3.6,2.6,5.6,1.5c2-1.1,2.6-3.6,1.5-5.6
	S1492.7,917.1,1490.7,918.2z M1466.8,876.3c-2,1.1-2.6,3.6-1.5,5.6c1.1,2,3.6,2.6,5.6,1.5c2-1.1,2.6-3.6,1.5-5.6
	C1471.2,875.9,1468.7,875.2,1466.8,876.3z M1448.9,942.1c-2,1.1-2.6,3.6-1.5,5.6c1.1,2,3.6,2.6,5.6,1.5c2-1.1,2.6-3.6,1.5-5.6
	S1450.8,941,1448.9,942.1z M1489.2,891.3c-2,1.1-2.6,3.6-1.5,5.6c1.1,2,3.6,2.6,5.6,1.5c2-1.1,2.6-3.6,1.5-5.6
	C1493.7,890.8,1491.2,890.1,1489.2,891.3z M1465.3,849.4c-2,1.1-2.6,3.6-1.5,5.6c1.1,2,3.6,2.6,5.6,1.5c2-1.1,2.6-3.6,1.5-5.6
	C1469.7,849,1467.2,848.3,1465.3,849.4z M1421.8,772.5c1.6-1.2,2.1-3.5,1.1-5.3c-0.3-0.5-0.7-0.9-1.1-1.2L1421.8,772.5z
	 M1445.9,888.3c-2,1.1-2.6,3.6-1.5,5.6c1.1,2,3.6,2.6,5.6,1.5c2-1.1,2.6-3.6,1.5-5.6C1450.3,887.9,1447.8,887.2,1445.9,888.3z
	 M1447.4,915.2c-2,1.1-2.6,3.6-1.5,5.6c1.1,2,3.6,2.6,5.6,1.5c2-1.1,2.6-3.6,1.5-5.6C1451.8,914.8,1449.3,914.1,1447.4,915.2z
	 M1439.8,780.6c-2,1.1-2.6,3.6-1.5,5.6c1.1,2,3.6,2.6,5.6,1.5c2-1.1,2.6-3.6,1.5-5.6C1444.3,780.2,1441.8,779.5,1439.8,780.6z
	 M1424.9,900.3c-2,1.1-2.6,3.6-1.5,5.6c1.1,2,3.6,2.6,5.6,1.5c2-1.1,2.6-3.6,1.5-5.6C1429.4,899.8,1426.9,899.2,1424.9,900.3z
	 M1468.3,903.2c-2,1.1-2.6,3.6-1.5,5.6c1.1,2,3.6,2.6,5.6,1.5c2-1.1,2.6-3.6,1.5-5.6C1472.7,902.8,1470.3,902.1,1468.3,903.2z
	 M1444.3,861.4c-2,1.1-2.6,3.6-1.5,5.6c1.1,2,3.6,2.6,5.6,1.5c2-1.1,2.6-3.6,1.5-5.6C1448.8,860.9,1446.3,860.3,1444.3,861.4z
	 M1421.9,846.4c-0.1,0.1-0.2,0.2-0.4,0.3l0,6.6c1.3,0.9,3,1.1,4.4,0.3c2-1.1,2.6-3.6,1.5-5.6C1426.3,846,1423.9,845.3,1421.9,846.4z
	 M1421.6,819.1l0,8c0.9,0.2,1.9,0.1,2.8-0.4c2-1.1,2.6-3.6,1.5-5.6C1425.1,819.5,1423.3,818.8,1421.6,819.1z"/>
<g>
	<path class="st1" d="M535.6,200.8c0-0.1,0-0.2,0-0.3c0-0.1,0-0.2,0-0.3c0-0.1-0.1-0.2-0.1-0.2c-0.1-0.1-0.1-0.2-0.2-0.3l-48.8-49.5
		c-0.3-0.3-0.7-0.4-1.1-0.3l-67.5,17.8c-0.3,0.1-0.5,0.3-0.7,0.6c0,0.1-0.1,0.2-0.1,0.3l0,0l0,0l-18.1,67.1c-0.1,0.4,0,0.8,0.3,1.1
		l48.8,49.5l0,0c0,0,0,0,0,0c0.1,0.1,0.3,0.3,0.5,0.3c0,0,0,0,0.1,0c0,0,0.1,0,0.1,0c0.1,0,0.3,0,0.4,0l67.5-17.8
		c0.4-0.1,0.7-0.4,0.8-0.8L535.6,200.8z M485.3,152.3l46.9,47.5l-23.3,6.1l-41.6,11l-46.9-47.5L485.3,152.3z M401.4,235.6l17.3-64.5
		l46.9,47.5l-4.5,16.9l-12.8,47.6L401.4,235.6z M450.5,283.7l14.9-55.5l2.4-9l64.9-17.1l-17.4,64.5L450.5,283.7z"/>
</g>
</svg>
