<svg xmlns="http://www.w3.org/2000/svg" viewBox="0 0 308.8 301.4"><title>halo</title><g id="Слой_2" data-name="Слой 2"><g id="Слой_1-2" data-name="Слой 1"><circle cx="177.5" cy="235.3" r="2.8"/><circle cx="157.6" cy="86.6" r="2.8"/><circle cx="292.3" cy="132.1" r="2.8"/><circle cx="118.2" cy="288.1" r="2.8"/><circle cx="236.7" cy="205.7" r="2.8"/><circle cx="210.5" cy="85" r="2.8"/><circle cx="89.1" cy="30.1" r="2.8"/><circle cx="184.5" cy="16.1" r="2.8"/><circle cx="116.5" cy="142.9" r="2.8"/><circle cx="12.8" cy="200.6" r="2.8"/><circle cx="295.8" cy="100.9" r="2.8"/><circle cx="205" cy="61.9" r="2.8"/><circle cx="120.1" cy="37.9" r="2.8"/><circle cx="120.6" cy="95.3" r="2.8"/><circle cx="160.6" cy="244.2" r="2.8"/><circle cx="306" cy="151.3" r="2.8"/><circle cx="99.5" cy="289.5" r="2.8"/><circle cx="235.6" cy="131.7" r="2.8"/><circle cx="177.2" cy="263.3" r="2.8"/><circle cx="224.7" cy="235.7" r="2.8"/><circle cx="54.5" cy="246.6" r="2.8"/><circle cx="74.1" cy="276.9" r="2.8"/><circle cx="214.8" cy="18.1" r="2.8"/><circle cx="120.5" cy="216.2" r="2.8"/><circle cx="177.8" cy="103.8" r="2.8"/><circle cx="106.2" cy="89.7" r="2.8"/><circle cx="176.2" cy="122.7" r="2.8"/><circle cx="212.9" cy="55.2" r="2.8"/><circle cx="9.5" cy="171.9" r="2.8"/><circle cx="166.2" cy="144.6" r="2.8"/><circle cx="197.1" cy="267.6" r="2.8"/><circle cx="138.3" cy="224.9" r="2.8"/><circle cx="207.2" cy="213.5" r="2.8"/><circle cx="134.7" cy="162.8" r="2.8"/><circle cx="43.3" cy="84.8" r="2.8"/><circle cx="123.2" cy="2.9" r="2.8"/><circle cx="68" cy="75.5" r="2.8"/><circle cx="57" cy="190.7" r="2.8"/><circle cx="230.2" cy="156.5" r="2.8"/><circle cx="107.7" cy="70.1" r="2.8"/><circle cx="201.2" cy="144.6" r="2.8"/><circle cx="63.6" cy="98.9" r="2.8"/><circle cx="101.7" cy="147.6" r="2.8"/><circle cx="163.4" cy="67.8" r="2.8"/><circle cx="275.4" cy="101.5" r="2.8"/><circle cx="216.6" cy="42" r="2.8"/><circle cx="19.8" cy="124.1" r="2.8"/><circle cx="246.1" cy="92.9" r="2.8"/><circle cx="276.5" cy="152.2" r="2.8"/><circle cx="47.9" cy="148.5" r="2.8"/><circle cx="189.6" cy="283.9" r="2.8"/><circle cx="226.7" cy="63.4" r="2.8"/><circle cx="146.6" cy="289.9" r="2.8"/><circle cx="218.2" cy="195.8" r="2.8"/><circle cx="297.4" cy="175.7" r="2.8"/><circle cx="140.2" cy="69.6" r="2.8"/><circle cx="59.7" cy="118.7" r="2.8"/><circle cx="134.2" cy="107.8" r="2.8"/><circle cx="236.6" cy="219.9" r="2.8"/><circle cx="80.2" cy="18.1" r="2.8"/><circle cx="32.5" cy="182.8" r="2.8"/><circle cx="176.9" cy="150" r="2.8"/><circle cx="260.6" cy="59.7" r="2.8"/><circle cx="236.2" cy="231.4" r="2.8"/><circle cx="26.4" cy="161.9" r="2.8"/><circle cx="117.1" cy="240.1" r="2.8"/><circle cx="243.9" cy="266" r="2.8"/><circle cx="138" cy="45" r="2.8"/><circle cx="172.4" cy="278.2" r="2.8"/><circle cx="257.6" cy="237.5" r="2.8"/><circle cx="6.4" cy="145.9" r="2.8"/><circle cx="212.3" cy="165.5" r="2.8"/><circle cx="95.3" cy="52.4" r="2.8"/><circle cx="125.2" cy="16.8" r="2.8"/><circle cx="271.8" cy="123.5" r="2.8"/><circle cx="55.7" cy="220.7" r="2.8"/><circle cx="251.4" cy="164.7" r="2.8"/><circle cx="120.1" cy="180.1" r="2.8"/><circle cx="267.7" cy="175.2" r="2.8"/><circle cx="77.2" cy="234.7" r="2.8"/><circle cx="190.1" cy="57.8" r="2.8"/><circle cx="46.8" cy="201.8" r="2.8"/><circle cx="131.6" cy="278.8" r="2.8"/><circle cx="170.8" cy="111.9" r="2.8"/><circle cx="252.9" cy="145.4" r="2.8"/><circle cx="246.2" cy="42" r="2.8"/><circle cx="75.5" cy="58.1" r="2.8"/><circle cx="87.5" cy="85" r="2.8"/><circle cx="2.8" cy="116.8" r="2.8"/><circle cx="185.8" cy="126" r="2.8"/><circle cx="184" cy="88" r="2.8"/><circle cx="102.7" cy="258.7" r="2.8"/><circle cx="42.7" cy="133.6" r="2.8"/><circle cx="210.8" cy="253" r="2.8"/><circle cx="156.5" cy="111.5" r="2.8"/><circle cx="199.4" cy="4" r="2.8"/><circle cx="205.4" cy="104.3" r="2.8"/><circle cx="84.2" cy="259.8" r="2.8"/><circle cx="152.1" cy="270.3" r="2.8"/><circle cx="78.2" cy="145.1" r="2.8"/><circle cx="234.2" cy="105.9" r="2.8"/><circle cx="200" cy="298.6" r="2.8"/><circle cx="251.1" cy="121.7" r="2.8"/><circle cx="196.6" cy="193.3" r="2.8"/><circle cx="47.5" cy="164.5" r="2.8"/><circle cx="71.8" cy="163.4" r="2.8"/><circle cx="56.8" cy="54.7" r="2.8"/><circle cx="102.8" cy="216.5" r="2.8"/><circle cx="122.5" cy="57.5" r="2.8"/><circle cx="207.9" cy="233.1" r="2.8"/><circle cx="255.7" cy="192.2" r="2.8"/><circle cx="143.1" cy="254.7" r="2.8"/><circle cx="249.9" cy="246.1" r="2.8"/><circle cx="149.5" cy="156.7" r="2.8"/><circle cx="180.2" cy="208.3" r="2.8"/><circle cx="137.8" cy="191.4" r="2.8"/><circle cx="140.7" cy="210.9" r="2.8"/><circle cx="61.9" cy="259.4" r="2.8"/><circle cx="127.4" cy="139.4" r="2.8"/><circle cx="121.7" cy="298.6" r="2.8"/><circle cx="152.3" cy="36.9" r="2.8"/><circle cx="146.4" cy="8" r="2.8"/><circle cx="297.7" cy="204.5" r="2.8"/><circle cx="28.2" cy="205" r="2.8"/><circle cx="92.7" cy="165.5" r="2.8"/><circle cx="24.1" cy="144.2" r="2.8"/><circle cx="259.8" cy="78.9" r="2.8"/><circle cx="98.8" cy="15.2" r="2.8"/><circle cx="199" cy="31.6" r="2.8"/><circle cx="90.8" cy="234.6" r="2.8"/><circle cx="180.3" cy="187.3" r="2.8"/><circle cx="172.9" cy="52.9" r="2.8"/><circle cx="200.8" cy="182.1" r="2.8"/><circle cx="62.8" cy="35.5" r="2.8"/><circle cx="33.8" cy="105.2" r="2.8"/><circle cx="36.8" cy="66.5" r="2.8"/><circle cx="215.8" cy="132.7" r="2.8"/><circle cx="261.3" cy="258.4" r="2.8"/><circle cx="47.3" cy="43.6" r="2.8"/><circle cx="111.2" cy="126.8" r="2.8"/><circle cx="223.7" cy="267.3" r="2.8"/><circle cx="161.2" cy="22.9" r="2.8"/><circle cx="94.2" cy="113.3" r="2.8"/><circle cx="85.4" cy="189.7" r="2.8"/><circle cx="194.2" cy="245.8" r="2.8"/><circle cx="23" cy="81.9" r="2.8"/><circle cx="146.6" cy="129.8" r="2.8"/><circle cx="87.9" cy="207.6" r="2.8"/><circle cx="237.9" cy="27.9" r="2.8"/><circle cx="16.4" cy="98.8" r="2.8"/><circle cx="106.9" cy="190" r="2.8"/><circle cx="162.3" cy="221.4" r="2.8"/><circle cx="278.6" cy="235.6" r="2.8"/><circle cx="166.5" cy="2.8" r="2.8"/><circle cx="287.9" cy="85.4" r="2.8"/><circle cx="297.4" cy="188.5" r="2.8"/><circle cx="29.5" cy="225.8" r="2.8"/><circle cx="164.2" cy="175.3" r="2.8"/><circle cx="305.2" cy="122.2" r="2.8"/><circle cx="277.6" cy="193.6" r="2.8"/><circle cx="275.5" cy="220.9" r="2.8"/><circle cx="246.4" cy="72" r="2.8"/><circle cx="159.8" cy="198.1" r="2.8"/></g></g></svg>