<?xml version="1.0" encoding="utf-8"?>
<!-- Generator: Adobe Illustrator 21.0.0, SVG Export Plug-In . SVG Version: 6.00 Build 0)  -->
<svg version="1.1" id="Слой_1" xmlns="http://www.w3.org/2000/svg" xmlns:xlink="http://www.w3.org/1999/xlink" x="0px" y="0px"
	 viewBox="0 0 1920 1080" style="enable-background:new 0 0 1920 1080;" xml:space="preserve">
<style type="text/css">
	.st0{fill:none;stroke:#FFFFFF;stroke-width:3;stroke-miterlimit:10;}
	.st1{fill:none;stroke:#808080;stroke-width:5;stroke-miterlimit:10;}
	.st2{fill:#808080;}
	.st3{fill:#FFFFFF;}
</style>
<rect width="1920" height="1080"/>
<g>
	<path class="st0" d="M1006.1,696.3c-14.8,5.1-28.4,13.4-39.6,24.4c-10.3,10.2-18.5,22.5-23.9,36c-5,12.5-7.3,25.8-7.3,39.2
		c0,4.2,0.2,8.5,0,12.7c-0.1,1.7-1,2.9-1.8,4.4c-4.2,8.1-8.5,16.1-12.7,24.2c-4.1,7.9-10.2,16.7-6.2,25.9c3,6.9,10.4,9.7,17.5,9.8
		c1.1,0,2.7-0.4,3.1,0.4c0.4,0.8,0,3,0,3.9c0,8.3,0,16.7,0,25c0,12.3,7.9,23.4,19.9,26.6c8.4,2.2,17.6-0.5,25.9-1.8
		c1-0.1,1.9-0.3,2.9-0.4c0,4.2,0,8.5,0,12.7c0.1,4.7-1.8,9.8,2,13.5c1.3,0.6,3.1,1.3,4.4,1.3c39.6,0,79.3,1.9,118.9-1.3
		c1.3,0,2.5-2.5,2.5-4.4c0-25.8,0-52.2,0-78c6.3-6.9,12-13.8,17.6-22c4.4-6.9,6.3-13.8,9.1-20.9"/>
	<g>
		<path class="st0" d="M1035.8,703.9c0.6,3.5,1.6,7,3,10.2l-5.7,5.7c-1.9,1.9-2,4.8-0.4,6.9l7.6,9.5c1.6,2.1,4.5,2.5,6.8,1.2
			l6.8-4.2c3,2.2,6.2,4,9.7,5.5v8.1c0,2.6,2,4.8,4.6,5.1l12.1,1.4c2.6,0.3,5-1.4,5.6-4l1.8-7.6c3.9-0.6,7.7-1.6,11.4-3.2l5.5,5.4
			c1.9,1.9,4.8,2,6.9,0.4l9.5-7.6c2.1-1.6,2.5-4.5,1.2-6.8l-4-6.5c2.3-3.1,4.3-6.6,5.7-10.2h7.3c2.6,0,4.8-2,5.1-4.6l1.4-12.1
			c0.3-2.6-1.4-5-4-5.6l-7-1.6c-0.6-3.8-1.6-7.5-3.1-11.1l5-5c1.9-1.9,2-4.8,0.4-6.9l-7.6-9.5c-1.6-2.1-4.5-2.5-6.8-1.2l-5.9,3.6
			c-3.3-2.4-6.8-4.4-10.6-5.9v-7c0-2.6-2-4.8-4.6-5.1l-12.1-1.4c-2.6-0.3-5,1.4-5.6,4l-1.6,6.9c-4.1,0.6-8.1,1.8-12,3.5l-5.1-5.1
			c-1.9-1.9-4.8-2-6.9-0.4l-9.5,7.6c-2.1,1.6-2.5,4.5-1.2,6.8l4,6.4c-2.2,3.2-4.1,6.6-5.4,10.2h-7.6c-2.6,0-4.8,2-5.1,4.6l-1.3,12.2
			c-0.3,2.6,1.4,5,4,5.6L1035.8,703.9z M1083.4,676.2c11,1.3,19,11.3,17.7,22.3s-11.3,19-22.3,17.7s-19-11.3-17.7-22.3
			S1072.4,674.9,1083.4,676.2z"/>
		<path class="st0" d="M1207.9,735.1l-5.8-6.1c-1.8-1.9-4.7-2.1-6.7-0.6l-3.9,2.9c-2.8-1.8-5.9-3.2-9.1-4.1l-0.4-5
			c-0.2-2.6-2.4-4.6-4.9-4.7l-8.4-0.2c-2.6-0.1-4.8,1.8-5.2,4.4l-0.7,4.9c-3.3,0.8-6.5,2-9.5,3.7l-3.9-3.3c-2-1.7-4.9-1.6-6.8,0.2
			l-6.1,5.8c-1.9,1.8-2.1,4.7-0.6,6.7l3.2,4.3c-1.6,2.7-2.9,5.6-3.7,8.7l-5.4,0.5c-2.6,0.2-4.6,2.4-4.7,4.9l-0.2,8.4
			c-0.1,2.6,1.8,4.8,4.4,5.2l5.7,0.8c0.7,2.8,1.8,5.6,3.2,8.2l-3.7,4.4c-1.7,2-1.6,4.9,0.2,6.8l5.8,6.1c1.8,1.9,4.7,2.1,6.7,0.6
			l4.6-3.4c2.6,1.6,5.4,2.9,8.3,3.8l0.5,5.8c0.2,2.6,2.4,4.6,4.9,4.7l8.4,0.2c2.6,0.1,4.8-1.8,5.2-4.4l0.8-5.6
			c3.2-0.7,6.2-1.9,9.1-3.4l4.3,3.6c2,1.7,4.9,1.6,6.8-0.2l6.1-5.8c1.9-1.8,2.1-4.7,0.6-6.7l-3.3-4.4c1.7-2.7,3-5.6,3.9-8.7l5.2-0.5
			c2.6-0.2,4.6-2.4,4.7-4.9l0.2-8.4c0.1-2.6-1.8-4.8-4.4-5.2l-5.1-0.7c-0.7-3.1-1.8-6-3.3-8.8l3.3-3.9
			C1209.8,739.9,1209.7,737,1207.9,735.1z M1171.1,779.7c-9.1-0.3-16.3-7.9-16-16.9c0.3-9.1,7.9-16.3,16.9-16
			c9.1,0.3,16.3,7.9,16,16.9C1187.8,772.8,1180.2,779.9,1171.1,779.7z"/>
		<path class="st0" d="M1055.4,782.8c-2.5-0.5-5.1,0.9-5.9,3.4l-1.6,4.9c-0.8,2.5,0.3,5.1,2.7,6.2l3.5,1.6c-0.1,2.4,0.1,4.8,0.6,7.1
			l-3.3,2.1c-2.2,1.4-2.9,4.2-1.8,6.5l2.3,4.6c1.2,2.3,3.9,3.4,6.3,2.5l3.6-1.3c1.7,1.9,3.5,3.5,5.5,4.9l-0.8,3.9
			c-0.5,2.5,0.9,5.1,3.4,5.9l4.9,1.6c2.5,0.8,5.1-0.3,6.2-2.7l1.6-3.4c2.6,0.2,5.3,0,7.9-0.5l2,3.1c1.4,2.2,4.2,2.9,6.5,1.8l4.6-2.3
			c2.3-1.2,3.4-3.9,2.5-6.3l-1.2-3.4c2-1.7,3.7-3.7,5.1-5.8l3.3,0.7c2.5,0.5,5.1-0.9,5.9-3.4l1.6-4.9c0.8-2.5-0.3-5.1-2.7-6.2
			l-3-1.4c0.2-2.6,0-5.1-0.5-7.6l2.7-1.8c2.2-1.4,2.9-4.2,1.8-6.5l-2.3-4.6c-1.2-2.3-3.9-3.4-6.3-2.5l-2.9,1.1
			c-1.8-2-3.8-3.8-6.1-5.3l0.7-3.1c0.5-2.5-0.9-5.1-3.4-5.9l-4.9-1.6c-2.5-0.8-5.1,0.3-6.2,2.7l-1.4,2.9c-2.8-0.2-5.6,0.1-8.3,0.6
			l-1.8-2.8c-1.4-2.2-4.2-2.9-6.5-1.8l-4.6,2.3c-2.3,1.2-3.4,3.9-2.5,6.3l1.2,3.3c-1.9,1.7-3.6,3.7-5,5.9L1055.4,782.8z
			 M1088.9,787.4c7,2.3,10.8,10,8.5,17s-10,10.8-17,8.5s-10.8-10-8.5-17C1074.3,788.8,1081.9,785,1088.9,787.4z"/>
	</g>
	<g>
		<g>
			<path class="st0" d="M990.2,805.9c-2.1-2.7-4.9-5-8-6.5c-3.2-1.6-6.6-2.4-10.1-2.4c-0.1,0-0.5,0-0.6,0c-3.5,0-6.9,0.9-10.1,2.4
				c-3.1,1.5-5.9,3.8-8,6.5c-0.8,1.1-0.8,2.5,0,3.6c2.1,2.7,4.9,5,8,6.5c3.2,1.6,6.6,2.4,10.1,2.4c0.1,0,0.5,0,0.6,0
				c3.5,0,6.9-0.9,10.1-2.4c3.1-1.5,5.9-3.8,8-6.5C991,808.4,991,806.9,990.2,805.9z"/>
			<path class="st0" d="M971.8,804.1c-2,0-3.6,1.6-3.6,3.6s1.6,3.6,3.6,3.6s3.6-1.6,3.6-3.6C975.4,805.7,973.8,804.1,971.8,804.1z"
				/>
			<path class="st0" d="M971.8,818.3c-5.9,0-10.6-4.8-10.6-10.6s4.8-10.6,10.6-10.6s10.6,4.8,10.6,10.6S977.7,818.3,971.8,818.3z"/>
		</g>
	</g>
	<g>
		<path class="st1" d="M599.2,803.7l29.4-28.7c10.5,10.8,21,21.5,31.6,32.3c10.3-10.1,20.7-20.2,31-30.3
			c10.6,10.8,21.2,21.7,31.8,32.5c10.3-10.1,20.5-20.2,30.8-30.3c10.5,10.8,21,21.6,31.6,32.3c10.3-10.1,20.7-20.2,31-30.4l30.3,31"
			/>
		<g>
			<path class="st1" d="M599.8,754.2l29.4-28.7c10.5,10.8,21,21.5,31.6,32.3c10.3-10.1,20.7-20.2,31-30.3
				c10.6,10.8,21.2,21.7,31.8,32.5c10.3-10.1,20.5-20.2,30.8-30.3c10.5,10.8,21,21.6,31.6,32.3c10.3-10.1,20.7-20.2,31-30.4l30.3,31
				"/>
		</g>
		<g>
			<path class="st1" d="M600.3,705.8l29.4-28.7c10.5,10.8,21,21.5,31.6,32.3c10.3-10.1,20.7-20.2,31-30.3
				c10.6,10.8,21.2,21.7,31.8,32.5c10.3-10.1,20.5-20.2,30.8-30.3c10.5,10.8,21,21.6,31.6,32.3c10.3-10.1,20.7-20.2,31-30.4l30.3,31
				"/>
		</g>
	</g>
	<g>
		<path class="st2" d="M458.8,384.6c43,0.3,77.4,35.3,77.4,78.1l-28.5-0.1c0.3-27.3-21.8-49.2-49.1-49.5
			c-27.3-0.3-49.2,21.8-49.5,49.1l-28.5-0.1C380.7,419.2,416,384.6,458.8,384.6z"/>
	</g>
	<g>
		<g>
			<path class="st0" d="M638.4,215.6c7.7-4.2,15.4-8.4,23.1-12.6c7.7,7.9,15.4,15.7,23.1,23.6c7.8-7.9,15.7-15.9,23.5-23.8
				c7.6,4.4,15.2,8.8,22.8,13.2"/>
		</g>
		<g>
			<path class="st0" d="M730.9,172.4c7.7-4.2,15.4-8.4,23.1-12.6c7.7,7.9,15.4,15.7,23.1,23.6c7.8-7.9,15.7-15.9,23.5-23.8
				c7.6,4.4,15.2,8.8,22.8,13.2"/>
		</g>
		<g>
			<path class="st0" d="M823.4,218.4c7.7-4.2,15.4-8.4,23.1-12.6c7.7,7.9,15.4,15.7,23.1,23.6c7.8-7.9,15.7-15.9,23.5-23.8
				c7.6,4.4,15.2,8.8,22.8,13.2"/>
		</g>
	</g>
	<g>
		<path class="st3" d="M1618.4,211.2L1618.4,211.2c4.3,0,8.2,1.8,11.2,5.1c2.3,2.5,5.3,3.9,8.6,3.9l0,0c3.2,0,6.3-1.4,8.6-3.9
			c3-3.3,6.9-5.1,11.2-5.1l0,0c4.2,0,8.2,1.8,11.2,5.1c0.7,0.7,0.6,1.9-0.1,2.5c-0.7,0.7-1.9,0.6-2.5-0.1c-2.3-2.5-5.3-3.9-8.5-3.9
			l0,0c-3.2,0-6.3,1.4-8.6,3.9c-3,3.3-6.9,5.1-11.2,5.1l0,0c-4.3,0-8.2-1.8-11.2-5.1c-2.3-2.5-5.3-3.9-8.5-3.9l0,0
			c-3.2,0-6.3,1.4-8.6,3.9c-3,3.3-6.9,5.1-11.2,5.1l0,0c-4.2,0-8.2-1.8-11.2-5.1c-4.6-5-12.6-5-17.1,0c-3,3.3-6.9,5.1-11.2,5.1l0,0
			c-4.2,0-8.2-1.8-11.2-5.1c-2.3-2.5-5.3-3.9-8.6-3.9l0,0c-3.2,0-6.3,1.4-8.6,3.9c-0.7,0.7-1.8,0.8-2.5,0.1s-0.8-1.8-0.1-2.5
			c3-3.3,6.9-5.1,11.2-5.1l0,0c4.2,0,8.2,1.8,11.2,5.1c2.3,2.5,5.3,3.9,8.6,3.9l0,0c3.2,0,6.3-1.4,8.6-3.9c5.9-6.5,16.4-6.5,22.4,0
			c2.3,2.5,5.3,3.9,8.6,3.9l0,0c3.2,0,6.3-1.4,8.6-3.9C1610.2,213,1614.2,211.2,1618.4,211.2z"/>
	</g>
	<g>
		<circle class="st3" cx="399.3" cy="576.8" r="2.6"/>
		<circle class="st3" cx="399.3" cy="605.7" r="2.6"/>
		<path class="st3" d="M399.3,632c-1.4,0-2.6,1.2-2.6,2.6c0,1.4,1.1,2.6,2.6,2.6c1.4-0.1,2.6-1.2,2.6-2.6S400.8,632,399.3,632z"/>
		<circle class="st3" cx="399.3" cy="663.5" r="2.6"/>
		<circle class="st3" cx="399.3" cy="692.4" r="2.6"/>
		<circle class="st3" cx="399.3" cy="721.3" r="2.6"/>
		<path class="st3" d="M399.3,747.5c-1.4,0-2.6,1.2-2.6,2.6c0,1.4,1.1,2.6,2.6,2.6c1.4,0,2.6-1.2,2.6-2.6S400.7,747.5,399.3,747.5z"
			/>
		<circle class="st3" cx="399.3" cy="779" r="2.6"/>
		<path class="st3" d="M399.3,805.4c-1.4,0-2.6,1.1-2.6,2.6c0,1.4,1.1,2.6,2.6,2.6c1.4,0,2.6-1.2,2.6-2.6S400.7,805.4,399.3,805.4z"
			/>
		<circle class="st3" cx="399.3" cy="836.9" r="2.6"/>
		<circle class="st3" cx="399.3" cy="865.8" r="2.6"/>
		<circle class="st3" cx="399.3" cy="894.7" r="2.6"/>
		<circle class="st3" cx="399.3" cy="923.5" r="2.6"/>
		<path class="st3" d="M399.3,949.9c-1.4,0-2.6,1.2-2.6,2.6s1.1,2.6,2.6,2.6c1.4,0,2.6-1.2,2.6-2.6S400.7,949.9,399.3,949.9z"/>
		<circle class="st3" cx="370.4" cy="576.8" r="2.6"/>
		<circle class="st3" cx="370.4" cy="605.7" r="2.6"/>
		<path class="st3" d="M370.4,632c-1.4,0-2.6,1.2-2.6,2.6c0,1.4,1.1,2.6,2.6,2.6c1.4-0.1,2.6-1.2,2.6-2.6S371.9,632,370.4,632z"/>
		<circle class="st3" cx="370.4" cy="663.5" r="2.6"/>
		<circle class="st3" cx="370.4" cy="692.4" r="2.6"/>
		<circle class="st3" cx="370.4" cy="721.3" r="2.6"/>
		<path class="st3" d="M370.4,747.5c-1.4,0-2.6,1.2-2.6,2.6c0,1.4,1.1,2.6,2.6,2.6c1.4,0,2.6-1.2,2.6-2.6S371.9,747.5,370.4,747.5z"
			/>
		<circle class="st3" cx="370.4" cy="779" r="2.6"/>
		<path class="st3" d="M370.4,805.4c-1.4,0-2.6,1.1-2.6,2.6c0,1.4,1.1,2.6,2.6,2.6c1.4,0,2.6-1.2,2.6-2.6S371.9,805.4,370.4,805.4z"
			/>
		<circle class="st3" cx="370.4" cy="836.9" r="2.6"/>
		<circle class="st3" cx="370.4" cy="865.8" r="2.6"/>
		<circle class="st3" cx="370.4" cy="894.7" r="2.6"/>
		<circle class="st3" cx="370.4" cy="923.5" r="2.6"/>
		<path class="st3" d="M370.4,949.9c-1.4,0-2.6,1.2-2.6,2.6s1.1,2.6,2.6,2.6c1.4,0,2.6-1.2,2.6-2.6S371.9,949.9,370.4,949.9z"/>
		<circle class="st3" cx="341.5" cy="576.8" r="2.6"/>
		<path class="st3" d="M341.4,608.3c1.5-0.1,2.6-1.2,2.6-2.6c0-1.4-1.1-2.6-2.6-2.6c-1.4,0-2.6,1.1-2.6,2.6S340,608.3,341.4,608.3z"
			/>
		<path class="st3" d="M341.4,637.2c1.5-0.1,2.6-1.2,2.6-2.6s-1.1-2.6-2.6-2.6c-1.4,0-2.6,1.1-2.6,2.6
			C338.8,636,340,637.2,341.4,637.2z"/>
		<circle class="st3" cx="341.5" cy="663.5" r="2.6"/>
		<path class="st3" d="M341.4,695c1.5,0,2.6-1.2,2.6-2.6c0-1.4-1.1-2.6-2.6-2.6c-1.4,0-2.6,1.1-2.6,2.6
			C338.8,693.8,340,695,341.4,695z"/>
		<path class="st3" d="M341.5,718.7c-1.4,0-2.6,1.1-2.6,2.6c0,1.4,1.1,2.6,2.6,2.6c1.4,0,2.6-1.2,2.6-2.6S342.9,718.7,341.5,718.7z"
			/>
		<circle class="st3" cx="341.5" cy="750.2" r="2.6"/>
		<circle class="st3" cx="341.5" cy="779" r="2.6"/>
		<path class="st3" d="M341.5,805.4c-1.4,0-2.6,1.1-2.6,2.6c0,1.4,1.1,2.6,2.6,2.6c1.4,0,2.6-1.2,2.6-2.6S342.9,805.4,341.5,805.4z"
			/>
		<path class="st3" d="M341.5,834.3c-1.4,0-2.6,1.1-2.6,2.6c0,1.4,1.1,2.6,2.6,2.6c1.4,0,2.6-1.2,2.6-2.6
			C344.1,835.5,342.9,834.3,341.5,834.3z"/>
		<circle class="st3" cx="341.5" cy="865.8" r="2.6"/>
		<path class="st3" d="M341.5,892c-1.4,0-2.6,1.2-2.6,2.6c0,1.4,1.1,2.6,2.6,2.6c1.4,0,2.6-1.2,2.6-2.6
			C344.1,893.3,342.9,892,341.5,892z"/>
		<circle class="st3" cx="341.5" cy="923.5" r="2.6"/>
		<path class="st3" d="M341.5,949.9c-1.4,0-2.6,1.2-2.6,2.6s1.1,2.6,2.6,2.6c1.4,0,2.6-1.2,2.6-2.6S342.9,949.9,341.5,949.9z"/>
		<path class="st3" d="M312.5,574.2c-1.4,0-2.6,1.1-2.6,2.6c0,1.4,1.1,2.6,2.6,2.6c1.5-0.1,2.6-1.2,2.6-2.6
			C315.1,575.4,314,574.2,312.5,574.2z"/>
		<path class="st3" d="M312.5,603c-1.4,0-2.6,1.1-2.6,2.6s1.1,2.6,2.6,2.6c1.5-0.1,2.6-1.2,2.6-2.6S314,603,312.5,603z"/>
		<path class="st3" d="M312.5,632c-1.4,0-2.6,1.1-2.6,2.6c0,1.4,1.1,2.6,2.6,2.6c1.5-0.1,2.6-1.2,2.6-2.6S314,632,312.5,632z"/>
		<path class="st3" d="M312.5,660.9c-1.4,0-2.6,1.1-2.6,2.6c0,1.4,1.1,2.6,2.6,2.6c1.5-0.1,2.6-1.2,2.6-2.6S314,660.9,312.5,660.9z"
			/>
		<path class="st3" d="M312.5,689.8c-1.4,0-2.6,1.1-2.6,2.6c0,1.4,1.1,2.6,2.6,2.6s2.6-1.2,2.6-2.6S314,689.8,312.5,689.8z"/>
		<path class="st3" d="M312.5,718.7c-1.4,0-2.6,1.1-2.6,2.6c0,1.4,1.1,2.6,2.6,2.6s2.6-1.2,2.6-2.6S314,718.7,312.5,718.7z"/>
		<path class="st3" d="M312.5,747.5c-1.4,0-2.6,1.1-2.6,2.6c0,1.4,1.1,2.6,2.6,2.6s2.6-1.2,2.6-2.6S314,747.5,312.5,747.5z"/>
		<path class="st3" d="M312.5,776.5c-1.4,0-2.6,1.1-2.6,2.6c0,1.4,1.1,2.6,2.6,2.6s2.6-1.2,2.6-2.6S314,776.5,312.5,776.5z"/>
		<path class="st3" d="M312.5,805.4c-1.4,0-2.6,1.1-2.6,2.6c0,1.4,1.1,2.6,2.6,2.6s2.6-1.2,2.6-2.6S314,805.4,312.5,805.4z"/>
		<path class="st3" d="M312.5,834.3c-1.4,0-2.6,1.1-2.6,2.6c0,1.4,1.1,2.6,2.6,2.6s2.6-1.2,2.6-2.6S314,834.3,312.5,834.3z"/>
		<path class="st3" d="M312.5,863.2c-1.4,0-2.6,1.2-2.6,2.6c0,1.4,1.1,2.6,2.6,2.6s2.6-1.2,2.6-2.6S314,863.2,312.5,863.2z"/>
		<path class="st3" d="M312.5,892c-1.4,0-2.6,1.2-2.6,2.6c0,1.4,1.1,2.6,2.6,2.6s2.6-1.2,2.6-2.6S314,892,312.5,892z"/>
		<path class="st3" d="M312.5,921c-1.4,0-2.6,1.1-2.6,2.6c0,1.4,1.1,2.6,2.6,2.6s2.6-1.2,2.6-2.6S314,921,312.5,921z"/>
		<path class="st3" d="M312.5,949.9c-1.4,0-2.6,1.2-2.6,2.6s1.1,2.6,2.6,2.6s2.6-1.2,2.6-2.6S314,949.9,312.5,949.9z"/>
		<circle class="st3" cx="283.7" cy="576.8" r="2.6"/>
		<path class="st3" d="M286.2,605.7c0-1.4-1.1-2.6-2.6-2.6c-1.4,0-2.6,1.1-2.6,2.6s1.1,2.6,2.6,2.6
			C285.1,608.2,286.2,607,286.2,605.7z"/>
		<path class="st3" d="M283.6,637.2c1.5-0.1,2.6-1.2,2.6-2.6s-1.1-2.6-2.6-2.6c-1.4,0-2.6,1.1-2.6,2.6
			C281,636,282.1,637.2,283.6,637.2z"/>
		<circle class="st3" cx="283.7" cy="663.5" r="2.6"/>
		<path class="st3" d="M283.6,695c1.5,0,2.6-1.2,2.6-2.6c0-1.4-1.1-2.6-2.6-2.6c-1.4,0-2.6,1.1-2.6,2.6
			C281,693.8,282.1,695,283.6,695z"/>
		<path class="st3" d="M283.6,723.9c1.5,0,2.6-1.2,2.6-2.6s-1.2-2.6-2.6-2.6s-2.6,1.1-2.6,2.6C281,722.7,282.1,723.9,283.6,723.9z"
			/>
		<circle class="st3" cx="283.7" cy="750.2" r="2.6"/>
		<circle class="st3" cx="283.7" cy="779" r="2.6"/>
		<path class="st3" d="M283.6,810.5c1.5,0,2.6-1.2,2.6-2.6s-1.2-2.6-2.6-2.6s-2.6,1.1-2.6,2.6C281,809.4,282.1,810.5,283.6,810.5z"
			/>
		<path class="st3" d="M283.6,839.5c1.5,0,2.6-1.2,2.6-2.6c0-1.4-1.2-2.6-2.6-2.6s-2.6,1.1-2.6,2.6
			C281,838.3,282.1,839.5,283.6,839.5z"/>
		<circle class="st3" cx="283.7" cy="865.8" r="2.6"/>
		<path class="st3" d="M283.6,897.3c1.5,0,2.6-1.2,2.6-2.6c0-1.4-1.2-2.6-2.6-2.6s-2.6,1.2-2.6,2.6S282.1,897.3,283.6,897.3z"/>
		<circle class="st3" cx="283.7" cy="923.5" r="2.6"/>
		<path class="st3" d="M283.6,949.9c-1.4,0-2.6,1.2-2.6,2.6s1.1,2.6,2.6,2.6s2.6-1.2,2.6-2.6S285,949.9,283.6,949.9z"/>
		<circle class="st3" cx="254.8" cy="576.8" r="2.6"/>
		<path class="st3" d="M254.7,608.3c1.4,0,2.6-1.2,2.6-2.6c0-1.4-1.2-2.6-2.6-2.6s-2.6,1.1-2.6,2.6S253.3,608.3,254.7,608.3z"/>
		<path class="st3" d="M254.7,637.2c1.4,0,2.6-1.2,2.6-2.6s-1.2-2.6-2.6-2.6s-2.6,1.1-2.6,2.6C252.1,636,253.3,637.2,254.7,637.2z"
			/>
		<circle class="st3" cx="254.8" cy="663.5" r="2.6"/>
		<path class="st3" d="M254.7,695c1.4,0,2.6-1.2,2.6-2.6c0-1.4-1.2-2.6-2.6-2.6s-2.6,1.1-2.6,2.6C252.1,693.8,253.3,695,254.7,695z"
			/>
		<path class="st3" d="M254.7,723.9c1.4,0,2.6-1.2,2.6-2.6s-1.2-2.6-2.6-2.6s-2.6,1.1-2.6,2.6C252.1,722.7,253.3,723.9,254.7,723.9z
			"/>
		<circle class="st3" cx="254.8" cy="750.2" r="2.6"/>
		<circle class="st3" cx="254.8" cy="779" r="2.6"/>
		<path class="st3" d="M254.7,810.5c1.4,0,2.6-1.2,2.6-2.6s-1.2-2.6-2.6-2.6s-2.6,1.1-2.6,2.6C252.1,809.4,253.3,810.5,254.7,810.5z
			"/>
		<path class="st3" d="M254.7,839.5c1.4,0,2.6-1.2,2.6-2.6c0-1.4-1.2-2.6-2.6-2.6s-2.6,1.1-2.6,2.6
			C252.1,838.3,253.3,839.5,254.7,839.5z"/>
		<circle class="st3" cx="254.8" cy="865.8" r="2.6"/>
		<path class="st3" d="M254.7,897.3c1.4,0,2.6-1.2,2.6-2.6c0-1.4-1.2-2.6-2.6-2.6s-2.6,1.2-2.6,2.6
			C252.1,896,253.3,897.3,254.7,897.3z"/>
		<circle class="st3" cx="254.8" cy="923.5" r="2.6"/>
		<path class="st3" d="M254.7,949.9c-1.4,0-2.6,1.2-2.6,2.6s1.2,2.6,2.6,2.6s2.6-1.2,2.6-2.6S256.1,949.9,254.7,949.9z"/>
		<circle class="st3" cx="225.9" cy="576.8" r="2.6"/>
		<path class="st3" d="M225.8,608.3c1.5,0,2.6-1.2,2.6-2.6c0-1.4-1.1-2.6-2.6-2.6s-2.6,1.1-2.6,2.6S224.3,608.3,225.8,608.3z"/>
		<path class="st3" d="M225.8,637.2c1.5,0,2.6-1.2,2.6-2.6s-1.1-2.6-2.6-2.6s-2.6,1.1-2.6,2.6C223.2,636,224.3,637.2,225.8,637.2z"
			/>
		<circle class="st3" cx="225.9" cy="663.5" r="2.6"/>
		<path class="st3" d="M225.8,695c1.5,0,2.6-1.2,2.6-2.6c0-1.4-1.1-2.6-2.6-2.6s-2.6,1.1-2.6,2.6C223.2,693.8,224.3,695,225.8,695z"
			/>
		<path class="st3" d="M225.8,723.9c1.5,0,2.6-1.2,2.6-2.6s-1.1-2.6-2.6-2.6c-1.4,0-2.6,1.1-2.6,2.6
			C223.2,722.7,224.3,723.9,225.8,723.9z"/>
		<circle class="st3" cx="225.9" cy="750.2" r="2.6"/>
		<circle class="st3" cx="225.9" cy="779" r="2.6"/>
		<path class="st3" d="M225.8,810.5c1.5,0,2.6-1.2,2.6-2.6s-1.1-2.6-2.6-2.6c-1.4,0-2.6,1.1-2.6,2.6
			C223.2,809.4,224.3,810.5,225.8,810.5z"/>
		<path class="st3" d="M225.8,839.5c1.5,0,2.6-1.2,2.6-2.6c0-1.4-1.1-2.6-2.6-2.6c-1.4,0-2.6,1.1-2.6,2.6
			C223.2,838.3,224.3,839.5,225.8,839.5z"/>
		<circle class="st3" cx="225.9" cy="865.8" r="2.6"/>
		<path class="st3" d="M225.8,897.3c1.5,0,2.6-1.2,2.6-2.6c0-1.4-1.1-2.6-2.6-2.6c-1.4,0-2.6,1.2-2.6,2.6S224.3,897.3,225.8,897.3z"
			/>
		<circle class="st3" cx="225.9" cy="923.5" r="2.6"/>
		<path class="st3" d="M225.8,949.9c-1.4,0-2.6,1.2-2.6,2.6s1.1,2.6,2.6,2.6s2.6-1.2,2.6-2.6S227.3,949.9,225.8,949.9z"/>
		<circle class="st3" cx="197" cy="576.8" r="2.6"/>
		<path class="st3" d="M196.9,608.3c1.5-0.1,2.6-1.2,2.6-2.6c0-1.4-1.2-2.6-2.6-2.6s-2.6,1.1-2.6,2.6S195.5,608.3,196.9,608.3z"/>
		<path class="st3" d="M196.9,637.2c1.5-0.1,2.6-1.2,2.6-2.6s-1.2-2.6-2.6-2.6s-2.6,1.1-2.6,2.6C194.3,636,195.5,637.2,196.9,637.2z
			"/>
		<circle class="st3" cx="197" cy="663.5" r="2.6"/>
		<path class="st3" d="M196.9,695c1.5,0,2.6-1.2,2.6-2.6c0-1.4-1.2-2.6-2.6-2.6s-2.6,1.1-2.6,2.6C194.3,693.8,195.5,695,196.9,695z"
			/>
		<path class="st3" d="M196.9,723.9c1.5,0,2.6-1.2,2.6-2.6s-1.2-2.6-2.6-2.6s-2.6,1.1-2.6,2.6C194.3,722.7,195.5,723.9,196.9,723.9z
			"/>
		<circle class="st3" cx="197" cy="750.2" r="2.6"/>
		<circle class="st3" cx="197" cy="779" r="2.6"/>
		<path class="st3" d="M196.9,810.5c1.5,0,2.6-1.2,2.6-2.6s-1.2-2.6-2.6-2.6s-2.6,1.1-2.6,2.6C194.3,809.4,195.5,810.5,196.9,810.5z
			"/>
		<path class="st3" d="M196.9,839.5c1.5,0,2.6-1.2,2.6-2.6c0-1.4-1.2-2.6-2.6-2.6s-2.6,1.1-2.6,2.6
			C194.3,838.3,195.5,839.5,196.9,839.5z"/>
		<circle class="st3" cx="197" cy="865.8" r="2.6"/>
		<path class="st3" d="M196.9,897.3c1.5,0,2.6-1.2,2.6-2.6c0-1.4-1.2-2.6-2.6-2.6s-2.6,1.2-2.6,2.6S195.5,897.3,196.9,897.3z"/>
		<circle class="st3" cx="197" cy="923.5" r="2.6"/>
		<path class="st3" d="M196.9,949.9c-1.4,0-2.6,1.2-2.6,2.6s1.2,2.6,2.6,2.6c1.5,0,2.6-1.2,2.6-2.6S198.3,949.9,196.9,949.9z"/>
		<circle class="st3" cx="168.1" cy="576.8" r="2.6"/>
		<path class="st3" d="M168,608.3c1.5,0,2.6-1.2,2.6-2.6c0-1.4-1.1-2.6-2.6-2.6s-2.6,1.1-2.6,2.6S166.5,608.3,168,608.3z"/>
		<path class="st3" d="M168,637.2c1.5,0,2.6-1.2,2.6-2.6s-1.1-2.6-2.6-2.6s-2.6,1.1-2.6,2.6C165.4,636,166.5,637.2,168,637.2z"/>
		<circle class="st3" cx="168.1" cy="663.5" r="2.6"/>
		<path class="st3" d="M168,695c1.5,0,2.6-1.2,2.6-2.6c0-1.4-1.1-2.6-2.6-2.6s-2.6,1.1-2.6,2.6C165.4,693.8,166.5,695,168,695z"/>
		<path class="st3" d="M168,723.9c1.5,0,2.6-1.2,2.6-2.6s-1.2-2.6-2.6-2.6s-2.6,1.1-2.6,2.6C165.4,722.7,166.5,723.9,168,723.9z"/>
		<circle class="st3" cx="168.1" cy="750.2" r="2.6"/>
		<circle class="st3" cx="168.1" cy="779" r="2.6"/>
		<path class="st3" d="M168,810.5c1.5,0,2.6-1.2,2.6-2.6s-1.2-2.6-2.6-2.6s-2.6,1.1-2.6,2.6C165.4,809.4,166.5,810.5,168,810.5z"/>
		<path class="st3" d="M168,839.5c1.5,0,2.6-1.2,2.6-2.6c0-1.4-1.2-2.6-2.6-2.6s-2.6,1.1-2.6,2.6C165.4,838.3,166.5,839.5,168,839.5
			z"/>
		<circle class="st3" cx="168.1" cy="865.8" r="2.6"/>
		<path class="st3" d="M168,897.3c1.5,0,2.6-1.2,2.6-2.6c0-1.4-1.2-2.6-2.6-2.6s-2.6,1.2-2.6,2.6S166.5,897.3,168,897.3z"/>
		<circle class="st3" cx="168.1" cy="923.5" r="2.6"/>
		<path class="st3" d="M168,949.9c-1.4,0-2.6,1.2-2.6,2.6s1.1,2.6,2.6,2.6s2.6-1.2,2.6-2.6S169.4,949.9,168,949.9z"/>
		<circle class="st3" cx="139.2" cy="576.8" r="2.6"/>
		<path class="st3" d="M141.7,605.7c0-1.4-1.1-2.6-2.6-2.6c-1.4,0-2.6,1.1-2.6,2.6s1.1,2.6,2.6,2.6
			C140.6,608.2,141.7,607,141.7,605.7z"/>
		<path class="st3" d="M139.1,637.2c1.5-0.1,2.6-1.2,2.6-2.6s-1.1-2.6-2.6-2.6c-1.4,0-2.6,1.1-2.6,2.6
			C136.5,636,137.6,637.2,139.1,637.2z"/>
		<circle class="st3" cx="139.2" cy="663.5" r="2.6"/>
		<path class="st3" d="M139.1,689.8c-1.4,0-2.6,1.1-2.6,2.6c0,1.4,1.1,2.6,2.6,2.6s2.6-1.2,2.6-2.6
			C141.7,691,140.6,689.8,139.1,689.8z"/>
		<path class="st3" d="M139.1,718.7c-1.4,0-2.6,1.1-2.6,2.6c0,1.4,1.1,2.6,2.6,2.6s2.6-1.2,2.6-2.6S140.6,718.7,139.1,718.7z"/>
		<path class="st3" d="M139.1,747.5c-1.4,0-2.6,1.1-2.6,2.6c0,1.4,1.1,2.6,2.6,2.6s2.6-1.2,2.6-2.6
			C141.7,748.8,140.6,747.5,139.1,747.5z"/>
		<path class="st3" d="M139.1,776.5c-1.4,0-2.6,1.1-2.6,2.6c0,1.4,1.1,2.6,2.6,2.6s2.6-1.2,2.6-2.6S140.6,776.5,139.1,776.5z"/>
		<path class="st3" d="M139.1,805.4c-1.4,0-2.6,1.1-2.6,2.6c0,1.4,1.1,2.6,2.6,2.6s2.6-1.2,2.6-2.6S140.6,805.4,139.1,805.4z"/>
		<path class="st3" d="M139.1,834.3c-1.4,0-2.6,1.1-2.6,2.6c0,1.4,1.1,2.6,2.6,2.6s2.6-1.2,2.6-2.6
			C141.7,835.5,140.6,834.3,139.1,834.3z"/>
		<path class="st3" d="M139.1,863.2c-1.4,0-2.6,1.2-2.6,2.6c0,1.4,1.1,2.6,2.6,2.6s2.6-1.2,2.6-2.6S140.6,863.2,139.1,863.2z"/>
		<path class="st3" d="M139.1,892c-1.4,0-2.6,1.2-2.6,2.6c0,1.4,1.1,2.6,2.6,2.6s2.6-1.2,2.6-2.6C141.7,893.3,140.6,892,139.1,892z"
			/>
		<path class="st3" d="M139.1,921c-1.4,0-2.6,1.1-2.6,2.6c0,1.4,1.1,2.6,2.6,2.6s2.6-1.2,2.6-2.6S140.6,921,139.1,921z"/>
		<path class="st3" d="M139.1,949.9c-1.4,0-2.6,1.2-2.6,2.6s1.1,2.6,2.6,2.6s2.6-1.2,2.6-2.6S140.6,949.9,139.1,949.9z"/>
		<circle class="st3" cx="110.2" cy="576.8" r="2.6"/>
		<path class="st3" d="M110.2,603c-1.4,0-2.6,1.1-2.6,2.6s1.2,2.6,2.6,2.6c1.5-0.1,2.6-1.2,2.6-2.6S111.7,603,110.2,603z"/>
		<path class="st3" d="M110.2,632c-1.4,0-2.6,1.1-2.6,2.6c0,1.4,1.2,2.6,2.6,2.6c1.5-0.1,2.6-1.2,2.6-2.6S111.7,632,110.2,632z"/>
		<circle class="st3" cx="110.2" cy="663.5" r="2.6"/>
		<path class="st3" d="M110.2,689.8c-1.4,0-2.6,1.1-2.6,2.6c0,1.4,1.2,2.6,2.6,2.6c1.5,0,2.6-1.2,2.6-2.6S111.7,689.8,110.2,689.8z"
			/>
		<path class="st3" d="M110.2,718.7c-1.4,0-2.6,1.1-2.6,2.6c0,1.4,1.2,2.6,2.6,2.6c1.5,0,2.6-1.2,2.6-2.6S111.7,718.7,110.2,718.7z"
			/>
		<path class="st3" d="M110.2,747.5c-1.4,0-2.6,1.1-2.6,2.6c0,1.4,1.2,2.6,2.6,2.6c1.5,0,2.6-1.2,2.6-2.6S111.7,747.5,110.2,747.5z"
			/>
		<path class="st3" d="M110.2,776.5c-1.4,0-2.6,1.1-2.6,2.6c0,1.4,1.2,2.6,2.6,2.6c1.5,0,2.6-1.2,2.6-2.6S111.7,776.5,110.2,776.5z"
			/>
		<path class="st3" d="M110.2,805.4c-1.4,0-2.6,1.1-2.6,2.6c0,1.4,1.2,2.6,2.6,2.6c1.5,0,2.6-1.2,2.6-2.6S111.7,805.4,110.2,805.4z"
			/>
		<path class="st3" d="M110.2,834.3c-1.4,0-2.6,1.1-2.6,2.6c0,1.4,1.2,2.6,2.6,2.6c1.5,0,2.6-1.2,2.6-2.6S111.7,834.3,110.2,834.3z"
			/>
		<path class="st3" d="M110.2,863.2c-1.4,0-2.6,1.2-2.6,2.6c0,1.4,1.2,2.6,2.6,2.6c1.5,0,2.6-1.2,2.6-2.6S111.7,863.2,110.2,863.2z"
			/>
		<path class="st3" d="M110.2,892c-1.4,0-2.6,1.2-2.6,2.6c0,1.4,1.2,2.6,2.6,2.6c1.5,0,2.6-1.2,2.6-2.6S111.7,892,110.2,892z"/>
		<path class="st3" d="M110.2,921c-1.4,0-2.6,1.1-2.6,2.6c0,1.4,1.2,2.6,2.6,2.6c1.5,0,2.6-1.2,2.6-2.6S111.7,921,110.2,921z"/>
		<path class="st3" d="M110.2,949.9c-1.4,0-2.6,1.2-2.6,2.6s1.2,2.6,2.6,2.6c1.5,0,2.6-1.2,2.6-2.6S111.7,949.9,110.2,949.9z"/>
		<path class="st3" d="M81.3,574.2c-1.4,0-2.6,1.1-2.6,2.6c0,1.4,1.1,2.6,2.6,2.6c1.5-0.1,2.6-1.2,2.6-2.6
			C83.9,575.4,82.8,574.2,81.3,574.2z"/>
		<path class="st3" d="M81.3,603c-1.4,0-2.6,1.1-2.6,2.6s1.1,2.6,2.6,2.6c1.5-0.1,2.6-1.2,2.6-2.6S82.8,603,81.3,603z"/>
		<path class="st3" d="M81.3,632c-1.4,0-2.6,1.1-2.6,2.6c0,1.4,1.1,2.6,2.6,2.6c1.5-0.1,2.6-1.2,2.6-2.6S82.8,632,81.3,632z"/>
		<path class="st3" d="M81.3,660.9c-1.4,0-2.6,1.1-2.6,2.6c0,1.4,1.1,2.6,2.6,2.6c1.5-0.1,2.6-1.2,2.6-2.6S82.8,660.9,81.3,660.9z"
			/>
		<path class="st3" d="M81.3,689.8c-1.4,0-2.6,1.1-2.6,2.6c0,1.4,1.1,2.6,2.6,2.6s2.6-1.2,2.6-2.6S82.8,689.8,81.3,689.8z"/>
		<path class="st3" d="M81.3,718.7c-1.4,0-2.6,1.1-2.6,2.6c0,1.4,1.1,2.6,2.6,2.6s2.6-1.2,2.6-2.6S82.8,718.7,81.3,718.7z"/>
		<path class="st3" d="M81.3,747.5c-1.4,0-2.6,1.1-2.6,2.6c0,1.4,1.1,2.6,2.6,2.6s2.6-1.2,2.6-2.6S82.8,747.5,81.3,747.5z"/>
		<path class="st3" d="M81.3,776.5c-1.4,0-2.6,1.1-2.6,2.6c0,1.4,1.1,2.6,2.6,2.6s2.6-1.2,2.6-2.6S82.8,776.5,81.3,776.5z"/>
		<path class="st3" d="M81.3,805.4c-1.4,0-2.6,1.1-2.6,2.6c0,1.4,1.1,2.6,2.6,2.6s2.6-1.2,2.6-2.6S82.8,805.4,81.3,805.4z"/>
		<path class="st3" d="M81.3,834.3c-1.4,0-2.6,1.1-2.6,2.6c0,1.4,1.1,2.6,2.6,2.6s2.6-1.2,2.6-2.6S82.8,834.3,81.3,834.3z"/>
		<path class="st3" d="M81.3,863.2c-1.4,0-2.6,1.2-2.6,2.6c0,1.4,1.1,2.6,2.6,2.6s2.6-1.2,2.6-2.6S82.8,863.2,81.3,863.2z"/>
		<path class="st3" d="M81.3,892c-1.4,0-2.6,1.2-2.6,2.6c0,1.4,1.1,2.6,2.6,2.6s2.6-1.2,2.6-2.6S82.8,892,81.3,892z"/>
		<path class="st3" d="M81.3,921c-1.4,0-2.6,1.1-2.6,2.6c0,1.4,1.1,2.6,2.6,2.6s2.6-1.2,2.6-2.6S82.8,921,81.3,921z"/>
		<path class="st3" d="M81.3,949.9c-1.4,0-2.6,1.2-2.6,2.6s1.1,2.6,2.6,2.6s2.6-1.2,2.6-2.6S82.8,949.9,81.3,949.9z"/>
	</g>
</g>
<rect x="1033.6" y="139.6" transform="matrix(0.7071 -0.7071 0.7071 0.7071 190.7946 803.6608)" class="st3" width="63.8" height="63.8"/>
</svg>
