<?xml version="1.0" encoding="utf-8"?>
<!-- Generator: Adobe Illustrator 21.0.0, SVG Export Plug-In . SVG Version: 6.00 Build 0)  -->
<svg version="1.1" id="Слой_1" xmlns="http://www.w3.org/2000/svg" xmlns:xlink="http://www.w3.org/1999/xlink" x="0px" y="0px"
	 viewBox="0 0 1920 1080" style="enable-background:new 0 0 1920 1080;" xml:space="preserve">
<style type="text/css">
	.st0{display:none;}
	.st1{fill:#FFFFFF;}
	.st2{fill:#857874;}
	.st3{fill:#808080;}
</style>
<rect class="st0" width="1920" height="1080"/>
<g>
	<ellipse class="st1" cx="863" cy="658.3" rx="2.6" ry="2.6"/>
	<ellipse class="st1" cx="863" cy="687.2" rx="2.6" ry="2.6"/>
	<path class="st1" d="M865.6,716.1c0-1.4-1.2-2.6-2.6-2.6c-1.4,0-2.6,1.2-2.6,2.6c0,1.4,1.1,2.6,2.6,2.6
		C864.4,718.6,865.6,717.5,865.6,716.1z"/>
	<circle class="st1" cx="863" cy="745" r="2.6"/>
	<ellipse class="st1" cx="863" cy="773.9" rx="2.6" ry="2.6"/>
	<path class="st1" d="M865.6,802.8c0-1.4-1.1-2.6-2.6-2.6c-1.4,0-2.6,1.1-2.6,2.6c0,1.4,1.1,2.6,2.6,2.6
		C864.4,805.4,865.6,804.2,865.6,802.8z"/>
	<path class="st1" d="M865.6,831.7c0-1.4-1.1-2.6-2.6-2.6c-1.4,0-2.6,1.2-2.6,2.6c0,1.4,1.1,2.6,2.6,2.6
		C864.4,834.3,865.6,833.1,865.6,831.7z"/>
	<path class="st1" d="M865.6,860.6c0-1.4-1.1-2.6-2.6-2.6c-1.4,0-2.6,1.1-2.6,2.6c0,1.4,1.1,2.6,2.6,2.6
		C864.4,863.2,865.6,862,865.6,860.6z"/>
	<path class="st1" d="M865.6,889.5c0-1.4-1.1-2.6-2.6-2.6c-1.4,0-2.6,1.1-2.6,2.6c0,1.4,1.1,2.6,2.6,2.6
		C864.4,892.1,865.6,890.9,865.6,889.5z"/>
	<path class="st1" d="M865.6,918.4c0-1.4-1.1-2.6-2.6-2.6c-1.4,0-2.6,1.1-2.6,2.6c0,1.4,1.1,2.6,2.6,2.6
		C864.4,921,865.6,919.8,865.6,918.4z"/>
	<path class="st1" d="M865.6,947.3c0-1.4-1.1-2.6-2.6-2.6c-1.4,0-2.6,1.1-2.6,2.6c0,1.4,1.1,2.6,2.6,2.6
		C864.4,949.9,865.6,948.7,865.6,947.3z"/>
	<path class="st1" d="M865.6,976.2c0-1.4-1.1-2.6-2.6-2.6c-1.4,0-2.6,1.2-2.6,2.6c0,1.4,1.1,2.6,2.6,2.6
		C864.4,978.8,865.6,977.6,865.6,976.2z"/>
	<path class="st1" d="M865.6,1005.1c0-1.4-1.1-2.6-2.6-2.6c-1.4,0-2.6,1.1-2.6,2.6c0,1.4,1.1,2.6,2.6,2.6
		C864.4,1007.7,865.6,1006.5,865.6,1005.1z"/>
	<path class="st1" d="M860.5,1034c0,1.4,1.1,2.6,2.6,2.6c1.4,0,2.6-1.2,2.6-2.6s-1.1-2.6-2.6-2.6
		C861.6,1031.5,860.5,1032.6,860.5,1034z"/>
	<circle class="st1" cx="834.1" cy="658.3" r="2.6"/>
	<circle class="st1" cx="834.1" cy="687.2" r="2.6"/>
	<path class="st1" d="M836.7,716.1c0-1.4-1.1-2.6-2.6-2.6c-1.4,0-2.6,1.2-2.6,2.6c0,1.4,1.1,2.6,2.6,2.6
		C835.5,718.6,836.7,717.5,836.7,716.1z"/>
	<ellipse class="st1" cx="834.1" cy="745" rx="2.6" ry="2.6"/>
	<ellipse class="st1" cx="834.1" cy="773.9" rx="2.6" ry="2.6"/>
	<path class="st1" d="M836.7,802.8c0-1.4-1.1-2.6-2.6-2.6c-1.4,0-2.6,1.1-2.6,2.6c0,1.4,1.1,2.6,2.6,2.6
		C835.5,805.4,836.7,804.2,836.7,802.8z"/>
	<path class="st1" d="M836.7,831.7c0-1.4-1.1-2.6-2.6-2.6c-1.4,0-2.6,1.2-2.6,2.6c0,1.4,1.1,2.6,2.6,2.6
		C835.5,834.3,836.7,833.1,836.7,831.7z"/>
	<path class="st1" d="M836.7,860.6c0-1.4-1.1-2.6-2.6-2.6c-1.4,0-2.6,1.1-2.6,2.6c0,1.4,1.1,2.6,2.6,2.6
		C835.5,863.2,836.7,862,836.7,860.6z"/>
	<path class="st1" d="M836.7,889.5c0-1.4-1.1-2.6-2.6-2.6c-1.4,0-2.6,1.1-2.6,2.6c0,1.4,1.1,2.6,2.6,2.6
		C835.5,892.1,836.7,890.9,836.7,889.5z"/>
	<path class="st1" d="M836.7,918.4c0-1.4-1.1-2.6-2.6-2.6c-1.4,0-2.6,1.1-2.6,2.6c0,1.4,1.1,2.6,2.6,2.6
		C835.5,921,836.7,919.8,836.7,918.4z"/>
	<path class="st1" d="M836.7,947.3c0-1.4-1.1-2.6-2.6-2.6c-1.4,0-2.6,1.1-2.6,2.6c0,1.4,1.1,2.6,2.6,2.6
		C835.5,949.9,836.7,948.7,836.7,947.3z"/>
	<path class="st1" d="M836.7,976.2c0-1.4-1.1-2.6-2.6-2.6c-1.4,0-2.6,1.2-2.6,2.6c0,1.4,1.1,2.6,2.6,2.6
		C835.5,978.8,836.7,977.6,836.7,976.2z"/>
	<path class="st1" d="M836.7,1005.1c0-1.4-1.1-2.6-2.6-2.6c-1.4,0-2.6,1.1-2.6,2.6c0,1.4,1.1,2.6,2.6,2.6
		C835.5,1007.7,836.7,1006.5,836.7,1005.1z"/>
	<path class="st1" d="M836.7,1034c0-1.4-1.1-2.6-2.6-2.6c-1.4,0-2.6,1.2-2.6,2.6s1.1,2.6,2.6,2.6
		C835.5,1036.6,836.7,1035.4,836.7,1034z"/>
	<ellipse class="st1" cx="805.2" cy="658.3" rx="2.6" ry="2.6"/>
	<ellipse class="st1" cx="805.2" cy="687.2" rx="2.6" ry="2.6"/>
	<path class="st1" d="M807.8,716.1c0-1.4-1.1-2.6-2.6-2.6c-1.4,0-2.6,1.2-2.6,2.6c0,1.4,1.1,2.6,2.6,2.6
		C806.6,718.6,807.8,717.5,807.8,716.1z"/>
	<circle class="st1" cx="805.2" cy="745" r="2.6"/>
	<circle class="st1" cx="805.2" cy="773.9" r="2.6"/>
	<path class="st1" d="M807.8,802.8c0-1.4-1.1-2.6-2.6-2.6c-1.4,0-2.6,1.1-2.6,2.6c0,1.4,1.1,2.6,2.6,2.6
		C806.6,805.4,807.8,804.2,807.8,802.8z"/>
	<path class="st1" d="M807.8,831.7c0-1.4-1.1-2.6-2.6-2.6c-1.4,0-2.6,1.2-2.6,2.6c0,1.4,1.1,2.6,2.6,2.6
		C806.6,834.3,807.8,833.1,807.8,831.7z"/>
	<path class="st1" d="M807.8,860.6c0-1.4-1.1-2.6-2.6-2.6c-1.4,0-2.6,1.1-2.6,2.6c0,1.4,1.1,2.6,2.6,2.6
		C806.6,863.2,807.8,862,807.8,860.6z"/>
	<path class="st1" d="M807.8,889.5c0-1.4-1.1-2.6-2.6-2.6c-1.4,0-2.6,1.1-2.6,2.6c0,1.4,1.1,2.6,2.6,2.6
		C806.6,892.1,807.8,890.9,807.8,889.5z"/>
	<path class="st1" d="M807.8,918.4c0-1.4-1.1-2.6-2.6-2.6c-1.4,0-2.6,1.1-2.6,2.6c0,1.4,1.1,2.6,2.6,2.6
		C806.6,921,807.8,919.8,807.8,918.4z"/>
	<path class="st1" d="M807.8,947.3c0-1.4-1.1-2.6-2.6-2.6c-1.4,0-2.6,1.1-2.6,2.6c0,1.4,1.1,2.6,2.6,2.6
		C806.6,949.9,807.8,948.7,807.8,947.3z"/>
	<path class="st1" d="M807.8,976.2c0-1.4-1.1-2.6-2.6-2.6c-1.4,0-2.6,1.2-2.6,2.6c0,1.4,1.1,2.6,2.6,2.6
		C806.6,978.8,807.8,977.6,807.8,976.2z"/>
	<path class="st1" d="M807.8,1005.1c0-1.4-1.1-2.6-2.6-2.6c-1.4,0-2.6,1.1-2.6,2.6c0,1.4,1.1,2.6,2.6,2.6
		C806.6,1007.7,807.8,1006.5,807.8,1005.1z"/>
	<path class="st1" d="M807.8,1034c0-1.4-1.1-2.6-2.6-2.6c-1.4,0-2.6,1.2-2.6,2.6s1.1,2.6,2.6,2.6
		C806.6,1036.6,807.8,1035.4,807.8,1034z"/>
	<circle class="st1" cx="776.3" cy="658.3" r="2.6"/>
	<circle class="st1" cx="776.3" cy="687.2" r="2.6"/>
	<path class="st1" d="M778.9,716.1c0-1.4-1.1-2.6-2.6-2.6c-1.4,0-2.6,1.2-2.6,2.6c0,1.4,1.1,2.6,2.6,2.6
		C777.7,718.6,778.9,717.5,778.9,716.1z"/>
	<ellipse class="st1" cx="776.3" cy="745" rx="2.6" ry="2.6"/>
	<circle class="st1" cx="776.3" cy="773.9" r="2.6"/>
	<path class="st1" d="M778.9,802.8c0-1.4-1.1-2.6-2.6-2.6c-1.4,0-2.6,1.1-2.6,2.6c0,1.4,1.1,2.6,2.6,2.6
		C777.7,805.4,778.9,804.2,778.9,802.8z"/>
	<path class="st1" d="M778.9,831.7c0-1.4-1.1-2.6-2.6-2.6c-1.4,0-2.6,1.2-2.6,2.6c0,1.4,1.1,2.6,2.6,2.6
		C777.7,834.3,778.9,833.1,778.9,831.7z"/>
	<path class="st1" d="M778.9,860.6c0-1.4-1.1-2.6-2.6-2.6c-1.4,0-2.6,1.1-2.6,2.6c0,1.4,1.1,2.6,2.6,2.6
		C777.7,863.2,778.9,862,778.9,860.6z"/>
	<path class="st1" d="M778.9,889.5c0-1.4-1.1-2.6-2.6-2.6c-1.4,0-2.6,1.1-2.6,2.6c0,1.4,1.1,2.6,2.6,2.6
		C777.7,892.1,778.9,890.9,778.9,889.5z"/>
	<path class="st1" d="M778.9,918.4c0-1.4-1.1-2.6-2.6-2.6c-1.4,0-2.6,1.1-2.6,2.6c0,1.4,1.1,2.6,2.6,2.6
		C777.7,921,778.9,919.8,778.9,918.4z"/>
	<path class="st1" d="M778.9,947.3c0-1.4-1.1-2.6-2.6-2.6c-1.4,0-2.6,1.1-2.6,2.6c0,1.4,1.1,2.6,2.6,2.6
		C777.7,949.9,778.9,948.7,778.9,947.3z"/>
	<path class="st1" d="M778.9,976.2c0-1.4-1.1-2.6-2.6-2.6c-1.4,0-2.6,1.2-2.6,2.6c0,1.4,1.1,2.6,2.6,2.6
		C777.7,978.8,778.9,977.6,778.9,976.2z"/>
	<path class="st1" d="M778.9,1005.1c0-1.4-1.1-2.6-2.6-2.6c-1.4,0-2.6,1.1-2.6,2.6c0,1.4,1.1,2.6,2.6,2.6
		C777.7,1007.7,778.9,1006.5,778.9,1005.1z"/>
	<path class="st1" d="M778.9,1034c0-1.4-1.1-2.6-2.6-2.6c-1.4,0-2.6,1.2-2.6,2.6s1.1,2.6,2.6,2.6
		C777.7,1036.6,778.9,1035.4,778.9,1034z"/>
	<path class="st1" d="M750,658.3c0-1.4-1.2-2.6-2.6-2.6c-1.4,0-2.6,1.1-2.6,2.6c0,1.4,1.1,2.6,2.6,2.6
		C748.8,660.8,750,659.7,750,658.3z"/>
	<path class="st1" d="M750,687.2c0-1.4-1.2-2.6-2.6-2.6c-1.4,0-2.6,1.1-2.6,2.6s1.1,2.6,2.6,2.6C748.8,689.7,750,688.6,750,687.2z"
		/>
	<path class="st1" d="M750,716.1c0-1.4-1.2-2.6-2.6-2.6c-1.4,0-2.6,1.2-2.6,2.6c0,1.4,1.1,2.6,2.6,2.6
		C748.8,718.6,750,717.5,750,716.1z"/>
	<path class="st1" d="M750,745c0-1.4-1.2-2.6-2.6-2.6c-1.4,0-2.6,1.2-2.6,2.6c0,1.4,1.1,2.6,2.6,2.6C748.8,747.5,750,746.4,750,745z
		"/>
	<path class="st1" d="M750,773.9c0-1.4-1.2-2.6-2.6-2.6c-1.4,0-2.6,1.2-2.6,2.6c0,1.4,1.1,2.6,2.6,2.6
		C748.8,776.4,750,775.3,750,773.9z"/>
	<path class="st1" d="M750,802.8c0-1.4-1.1-2.6-2.6-2.6c-1.4,0-2.6,1.1-2.6,2.6c0,1.4,1.1,2.6,2.6,2.6
		C748.8,805.4,750,804.2,750,802.8z"/>
	<path class="st1" d="M750,831.7c0-1.4-1.1-2.6-2.6-2.6c-1.4,0-2.6,1.2-2.6,2.6c0,1.4,1.1,2.6,2.6,2.6
		C748.8,834.3,750,833.1,750,831.7z"/>
	<path class="st1" d="M750,860.6c0-1.4-1.1-2.6-2.6-2.6c-1.4,0-2.6,1.1-2.6,2.6c0,1.4,1.1,2.6,2.6,2.6
		C748.8,863.2,750,862,750,860.6z"/>
	<path class="st1" d="M750,889.5c0-1.4-1.1-2.6-2.6-2.6c-1.4,0-2.6,1.1-2.6,2.6c0,1.4,1.1,2.6,2.6,2.6
		C748.8,892.1,750,890.9,750,889.5z"/>
	<path class="st1" d="M750,918.4c0-1.4-1.1-2.6-2.6-2.6c-1.4,0-2.6,1.1-2.6,2.6c0,1.4,1.1,2.6,2.6,2.6
		C748.8,921,750,919.8,750,918.4z"/>
	<path class="st1" d="M750,947.3c0-1.4-1.1-2.6-2.6-2.6c-1.4,0-2.6,1.1-2.6,2.6c0,1.4,1.1,2.6,2.6,2.6
		C748.8,949.9,750,948.7,750,947.3z"/>
	<path class="st1" d="M750,976.2c0-1.4-1.1-2.6-2.6-2.6c-1.4,0-2.6,1.2-2.6,2.6c0,1.4,1.1,2.6,2.6,2.6
		C748.8,978.8,750,977.6,750,976.2z"/>
	<path class="st1" d="M750,1005.1c0-1.4-1.1-2.6-2.6-2.6c-1.4,0-2.6,1.1-2.6,2.6c0,1.4,1.1,2.6,2.6,2.6
		C748.8,1007.7,750,1006.5,750,1005.1z"/>
	<path class="st1" d="M750,1034c0-1.4-1.1-2.6-2.6-2.6c-1.4,0-2.6,1.2-2.6,2.6s1.1,2.6,2.6,2.6C748.8,1036.6,750,1035.4,750,1034z"
		/>
	<ellipse class="st1" cx="718.5" cy="658.3" rx="2.6" ry="2.6"/>
	<ellipse class="st1" cx="718.5" cy="687.2" rx="2.6" ry="2.6"/>
	<path class="st1" d="M721.1,716.1c0-1.4-1.1-2.6-2.6-2.6c-1.4,0-2.6,1.2-2.6,2.6c0,1.4,1.1,2.6,2.6,2.6
		C719.9,718.6,721.1,717.5,721.1,716.1z"/>
	<ellipse class="st1" cx="718.5" cy="745" rx="2.6" ry="2.6"/>
	<ellipse class="st1" cx="718.5" cy="773.9" rx="2.6" ry="2.6"/>
	<ellipse class="st1" cx="718.5" cy="802.8" rx="2.6" ry="2.6"/>
	<path class="st1" d="M721.1,831.7c0-1.4-1.1-2.6-2.6-2.6c-1.4,0-2.6,1.2-2.6,2.6c0,1.4,1.1,2.6,2.6,2.6
		C719.9,834.3,721.1,833.1,721.1,831.7z"/>
	<ellipse class="st1" cx="718.5" cy="860.6" rx="2.6" ry="2.6"/>
	<path class="st1" d="M721.1,889.5c0-1.4-1.1-2.6-2.6-2.6c-1.4,0-2.6,1.1-2.6,2.6c0,1.4,1.1,2.6,2.6,2.6
		C719.9,892.1,721.1,890.9,721.1,889.5z"/>
	<ellipse class="st1" cx="718.5" cy="918.4" rx="2.6" ry="2.6"/>
	<ellipse class="st1" cx="718.5" cy="947.3" rx="2.6" ry="2.6"/>
	<ellipse class="st1" cx="718.5" cy="976.2" rx="2.6" ry="2.6"/>
	<ellipse class="st1" cx="718.5" cy="1005.1" rx="2.6" ry="2.6"/>
	<path class="st1" d="M721.1,1034c0-1.4-1.1-2.6-2.6-2.6c-1.4,0-2.6,1.2-2.6,2.6s1.1,2.6,2.6,2.6
		C719.9,1036.6,721.1,1035.4,721.1,1034z"/>
	<path class="st1" d="M692.2,658.3c0-1.4-1.2-2.6-2.6-2.6c-1.4,0-2.6,1.1-2.6,2.6c0,1.4,1.2,2.6,2.6,2.6
		C691,660.8,692.2,659.7,692.2,658.3z"/>
	<path class="st1" d="M692.2,687.2c0-1.4-1.2-2.6-2.6-2.6c-1.4,0-2.6,1.1-2.6,2.6s1.2,2.6,2.6,2.6
		C691,689.7,692.2,688.6,692.2,687.2z"/>
	<path class="st1" d="M692.2,716.1c0-1.4-1.2-2.6-2.6-2.6c-1.4,0-2.6,1.2-2.6,2.6c0,1.4,1.2,2.6,2.6,2.6
		C691,718.6,692.2,717.5,692.2,716.1z"/>
	<path class="st1" d="M692.2,745c0-1.4-1.2-2.6-2.6-2.6c-1.4,0-2.6,1.2-2.6,2.6c0,1.4,1.2,2.6,2.6,2.6
		C691,747.5,692.2,746.4,692.2,745z"/>
	<path class="st1" d="M692.2,773.9c0-1.4-1.2-2.6-2.6-2.6c-1.4,0-2.6,1.2-2.6,2.6c0,1.4,1.2,2.6,2.6,2.6
		C691,776.4,692.2,775.3,692.2,773.9z"/>
	<ellipse class="st1" cx="689.6" cy="802.8" rx="2.6" ry="2.6"/>
	<path class="st1" d="M692.2,831.7c0-1.4-1.1-2.6-2.6-2.6c-1.4,0-2.6,1.2-2.6,2.6c0,1.4,1.1,2.6,2.6,2.6
		C691,834.3,692.2,833.1,692.2,831.7z"/>
	<ellipse class="st1" cx="689.6" cy="860.6" rx="2.6" ry="2.6"/>
	<path class="st1" d="M692.2,889.5c0-1.4-1.1-2.6-2.6-2.6c-1.4,0-2.6,1.1-2.6,2.6c0,1.4,1.1,2.6,2.6,2.6
		C691,892.1,692.2,890.9,692.2,889.5z"/>
	<ellipse class="st1" cx="689.6" cy="918.4" rx="2.6" ry="2.6"/>
	<ellipse class="st1" cx="689.6" cy="947.3" rx="2.6" ry="2.6"/>
	<ellipse class="st1" cx="689.6" cy="976.2" rx="2.6" ry="2.6"/>
	<ellipse class="st1" cx="689.6" cy="1005.1" rx="2.6" ry="2.6"/>
	<path class="st1" d="M692.2,1034c0-1.4-1.1-2.6-2.6-2.6c-1.4,0-2.6,1.2-2.6,2.6s1.1,2.6,2.6,2.6
		C691,1036.6,692.2,1035.4,692.2,1034z"/>
	<circle class="st1" cx="660.7" cy="658.3" r="2.6"/>
	<circle class="st1" cx="660.7" cy="687.2" r="2.6"/>
	<path class="st1" d="M663.3,716.1c0-1.4-1.1-2.6-2.6-2.6c-1.4,0-2.6,1.2-2.6,2.6c0,1.4,1.2,2.6,2.6,2.6
		C662.1,718.6,663.3,717.5,663.3,716.1z"/>
	<ellipse class="st1" cx="660.7" cy="745" rx="2.6" ry="2.6"/>
	<circle class="st1" cx="660.7" cy="773.9" r="2.6"/>
	<path class="st1" d="M663.3,802.8c0-1.4-1.1-2.6-2.6-2.6c-1.4,0-2.6,1.1-2.6,2.6c0,1.4,1.1,2.6,2.6,2.6
		C662.1,805.4,663.3,804.2,663.3,802.8z"/>
	<path class="st1" d="M663.3,831.7c0-1.4-1.1-2.6-2.6-2.6c-1.4,0-2.6,1.2-2.6,2.6c0,1.4,1.1,2.6,2.6,2.6
		C662.1,834.3,663.3,833.1,663.3,831.7z"/>
	<path class="st1" d="M663.3,860.6c0-1.4-1.1-2.6-2.6-2.6c-1.4,0-2.6,1.1-2.6,2.6c0,1.4,1.1,2.6,2.6,2.6
		C662.1,863.2,663.3,862,663.3,860.6z"/>
	<path class="st1" d="M663.3,889.5c0-1.4-1.1-2.6-2.6-2.6c-1.4,0-2.6,1.1-2.6,2.6c0,1.4,1.1,2.6,2.6,2.6
		C662.1,892.1,663.3,890.9,663.3,889.5z"/>
	<path class="st1" d="M663.3,918.4c0-1.4-1.1-2.6-2.6-2.6c-1.4,0-2.6,1.1-2.6,2.6c0,1.4,1.1,2.6,2.6,2.6
		C662.1,921,663.3,919.8,663.3,918.4z"/>
	<path class="st1" d="M663.3,947.3c0-1.4-1.1-2.6-2.6-2.6c-1.4,0-2.6,1.1-2.6,2.6c0,1.4,1.1,2.6,2.6,2.6
		C662.1,949.9,663.3,948.7,663.3,947.3z"/>
	<path class="st1" d="M663.3,976.2c0-1.4-1.1-2.6-2.6-2.6c-1.4,0-2.6,1.2-2.6,2.6c0,1.4,1.1,2.6,2.6,2.6
		C662.1,978.8,663.3,977.6,663.3,976.2z"/>
	<path class="st1" d="M663.3,1005.1c0-1.4-1.1-2.6-2.6-2.6c-1.4,0-2.6,1.1-2.6,2.6c0,1.4,1.1,2.6,2.6,2.6
		C662.1,1007.7,663.3,1006.5,663.3,1005.1z"/>
	<path class="st1" d="M663.3,1034c0-1.4-1.1-2.6-2.6-2.6c-1.4,0-2.6,1.2-2.6,2.6s1.1,2.6,2.6,2.6
		C662.1,1036.6,663.3,1035.4,663.3,1034z"/>
	<ellipse class="st1" cx="631.8" cy="658.3" rx="2.6" ry="2.6"/>
	<ellipse class="st1" cx="631.8" cy="687.2" rx="2.6" ry="2.6"/>
	<path class="st1" d="M634.4,716.1c0-1.4-1.2-2.6-2.6-2.6c-1.4,0-2.6,1.2-2.6,2.6c0,1.4,1.2,2.6,2.6,2.6
		C633.2,718.6,634.4,717.5,634.4,716.1z"/>
	<ellipse class="st1" cx="631.8" cy="745" rx="2.6" ry="2.6"/>
	<ellipse class="st1" cx="631.8" cy="773.9" rx="2.6" ry="2.6"/>
	<path class="st1" d="M634.4,802.8c0-1.4-1.2-2.6-2.6-2.6c-1.4,0-2.6,1.1-2.6,2.6c0,1.4,1.2,2.6,2.6,2.6S634.4,804.2,634.4,802.8z"
		/>
	<path class="st1" d="M634.4,831.7c0-1.4-1.2-2.6-2.6-2.6c-1.4,0-2.6,1.2-2.6,2.6c0,1.4,1.2,2.6,2.6,2.6
		C633.2,834.3,634.4,833.1,634.4,831.7z"/>
	<path class="st1" d="M634.4,860.6c0-1.4-1.2-2.6-2.6-2.6c-1.4,0-2.6,1.1-2.6,2.6c0,1.4,1.2,2.6,2.6,2.6S634.4,862,634.4,860.6z"/>
	<path class="st1" d="M634.4,889.5c0-1.4-1.2-2.6-2.6-2.6c-1.4,0-2.6,1.1-2.6,2.6c0,1.4,1.2,2.6,2.6,2.6
		C633.2,892.1,634.4,890.9,634.4,889.5z"/>
	<path class="st1" d="M634.4,918.4c0-1.4-1.2-2.6-2.6-2.6c-1.4,0-2.6,1.1-2.6,2.6c0,1.4,1.2,2.6,2.6,2.6S634.4,919.8,634.4,918.4z"
		/>
	<path class="st1" d="M634.4,947.3c0-1.4-1.2-2.6-2.6-2.6c-1.4,0-2.6,1.1-2.6,2.6c0,1.4,1.2,2.6,2.6,2.6S634.4,948.7,634.4,947.3z"
		/>
	<path class="st1" d="M634.4,976.2c0-1.4-1.2-2.6-2.6-2.6c-1.4,0-2.6,1.2-2.6,2.6c0,1.4,1.2,2.6,2.6,2.6
		C633.2,978.8,634.4,977.6,634.4,976.2z"/>
	<path class="st1" d="M634.4,1005.1c0-1.4-1.2-2.6-2.6-2.6c-1.4,0-2.6,1.1-2.6,2.6c0,1.4,1.2,2.6,2.6,2.6S634.4,1006.5,634.4,1005.1
		z"/>
	<path class="st1" d="M634.4,1034c0-1.4-1.2-2.6-2.6-2.6c-1.4,0-2.6,1.2-2.6,2.6s1.2,2.6,2.6,2.6S634.4,1035.4,634.4,1034z"/>
	<circle class="st1" cx="602.9" cy="658.3" r="2.6"/>
	<circle class="st1" cx="602.9" cy="687.2" r="2.6"/>
	<path class="st1" d="M605.5,716.1c0-1.4-1.1-2.6-2.6-2.6c-1.4,0-2.6,1.2-2.6,2.6c0,1.4,1.1,2.6,2.6,2.6
		C604.3,718.6,605.5,717.5,605.5,716.1z"/>
	<circle class="st1" cx="602.9" cy="745" r="2.6"/>
	<circle class="st1" cx="602.9" cy="773.9" r="2.6"/>
	<ellipse class="st1" cx="602.9" cy="802.8" rx="2.6" ry="2.6"/>
	<path class="st1" d="M605.5,831.7c0-1.4-1.2-2.6-2.6-2.6c-1.4,0-2.6,1.2-2.6,2.6c0,1.4,1.1,2.6,2.6,2.6
		C604.3,834.3,605.5,833.1,605.5,831.7z"/>
	<ellipse class="st1" cx="602.9" cy="860.6" rx="2.6" ry="2.6"/>
	<path class="st1" d="M605.5,889.5c0-1.4-1.2-2.6-2.6-2.6c-1.4,0-2.6,1.1-2.6,2.6c0,1.4,1.1,2.6,2.6,2.6
		C604.3,892.1,605.5,890.9,605.5,889.5z"/>
	<circle class="st1" cx="602.9" cy="918.4" r="2.6"/>
	<circle class="st1" cx="602.9" cy="947.3" r="2.6"/>
	<circle class="st1" cx="602.9" cy="976.2" r="2.6"/>
	<circle class="st1" cx="602.9" cy="1005.1" r="2.6"/>
	<path class="st1" d="M605.5,1034c0-1.4-1.2-2.6-2.6-2.6c-1.4,0-2.6,1.2-2.6,2.6s1.1,2.6,2.6,2.6
		C604.3,1036.6,605.5,1035.4,605.5,1034z"/>
	<ellipse class="st1" cx="574" cy="658.3" rx="2.6" ry="2.6"/>
	<ellipse class="st1" cx="574" cy="687.2" rx="2.6" ry="2.6"/>
	<path class="st1" d="M576.6,716.1c0-1.4-1.1-2.6-2.6-2.6c-1.4,0-2.6,1.2-2.6,2.6c0,1.4,1.1,2.6,2.6,2.6
		C575.4,718.6,576.6,717.5,576.6,716.1z"/>
	<ellipse class="st1" cx="574" cy="745" rx="2.6" ry="2.6"/>
	<ellipse class="st1" cx="574" cy="773.9" rx="2.6" ry="2.6"/>
	<ellipse class="st1" cx="574" cy="802.8" rx="2.6" ry="2.6"/>
	<path class="st1" d="M576.6,831.7c0-1.4-1.1-2.6-2.6-2.6c-1.4,0-2.6,1.2-2.6,2.6c0,1.4,1.1,2.6,2.6,2.6
		C575.4,834.3,576.6,833.1,576.6,831.7z"/>
	<ellipse class="st1" cx="574" cy="860.6" rx="2.6" ry="2.6"/>
	<path class="st1" d="M576.6,889.5c0-1.4-1.1-2.6-2.6-2.6c-1.4,0-2.6,1.1-2.6,2.6c0,1.4,1.1,2.6,2.6,2.6
		C575.4,892.1,576.6,890.9,576.6,889.5z"/>
	<ellipse class="st1" cx="574" cy="918.4" rx="2.6" ry="2.6"/>
	<circle class="st1" cx="574" cy="947.3" r="2.6"/>
	<circle class="st1" cx="574" cy="976.2" r="2.6"/>
	<ellipse class="st1" cx="574" cy="1005.1" rx="2.6" ry="2.6"/>
	<path class="st1" d="M576.6,1034c0-1.4-1.1-2.6-2.6-2.6c-1.4,0-2.6,1.2-2.6,2.6s1.1,2.6,2.6,2.6
		C575.4,1036.6,576.6,1035.4,576.6,1034z"/>
	<ellipse class="st1" cx="545.1" cy="658.3" rx="2.6" ry="2.6"/>
	<path class="st1" d="M547.6,687.2c0-1.4-1.1-2.6-2.6-2.6c-1.4,0-2.6,1.1-2.6,2.6s1.2,2.6,2.6,2.6
		C546.5,689.7,547.6,688.6,547.6,687.2z"/>
	<path class="st1" d="M547.6,716.1c0-1.4-1.1-2.6-2.6-2.6c-1.4,0-2.6,1.1-2.6,2.6c0,1.4,1.2,2.6,2.6,2.6
		C546.5,718.6,547.6,717.5,547.6,716.1z"/>
	<circle class="st1" cx="545.1" cy="745" r="2.6"/>
	<path class="st1" d="M547.6,773.9c0-1.4-1.1-2.6-2.6-2.6c-1.4,0-2.6,1.1-2.6,2.6c0,1.4,1.2,2.6,2.6,2.6
		C546.5,776.5,547.6,775.3,547.6,773.9z"/>
	<path class="st1" d="M547.7,802.8c0-1.4-1.2-2.6-2.6-2.6c-1.4,0-2.6,1.1-2.6,2.6c0,1.4,1.1,2.6,2.6,2.6
		C546.5,805.4,547.7,804.2,547.7,802.8z"/>
	<ellipse class="st1" cx="545.1" cy="831.7" rx="2.6" ry="2.6"/>
	<ellipse class="st1" cx="545.1" cy="860.6" rx="2.6" ry="2.6"/>
	<path class="st1" d="M547.7,889.5c0-1.4-1.2-2.6-2.6-2.6c-1.4,0-2.6,1.1-2.6,2.6c0,1.4,1.1,2.6,2.6,2.6
		C546.5,892.1,547.7,890.9,547.7,889.5z"/>
	<path class="st1" d="M547.7,918.4c0-1.4-1.2-2.6-2.6-2.6c-1.4,0-2.6,1.1-2.6,2.6c0,1.4,1.1,2.6,2.6,2.6
		C546.5,921,547.7,919.8,547.7,918.4z"/>
	<circle class="st1" cx="545.1" cy="947.3" r="2.6"/>
	<path class="st1" d="M547.7,976.2c0-1.4-1.2-2.6-2.6-2.6c-1.4,0-2.6,1.2-2.6,2.6c0,1.4,1.1,2.6,2.6,2.6
		C546.5,978.8,547.7,977.6,547.7,976.2z"/>
	<circle class="st1" cx="545.1" cy="1005.1" r="2.6"/>
	<path class="st1" d="M547.7,1034c0-1.4-1.2-2.6-2.6-2.6c-1.4,0-2.6,1.2-2.6,2.6s1.1,2.6,2.6,2.6
		C546.5,1036.6,547.7,1035.4,547.7,1034z"/>
	<path class="st1" d="M518.7,658.3c0-1.4-1.1-2.6-2.6-2.6c-1.4,0-2.6,1.1-2.6,2.6c0,1.4,1.1,2.6,2.6,2.6
		C517.6,660.8,518.7,659.7,518.7,658.3z"/>
	<path class="st1" d="M518.7,687.2c0-1.4-1.1-2.6-2.6-2.6c-1.4,0-2.6,1.1-2.6,2.6s1.1,2.6,2.6,2.6
		C517.6,689.7,518.7,688.6,518.7,687.2z"/>
	<path class="st1" d="M518.7,716.1c0-1.4-1.1-2.6-2.6-2.6c-1.4,0-2.6,1.1-2.6,2.6c0,1.4,1.1,2.6,2.6,2.6
		C517.6,718.6,518.7,717.5,518.7,716.1z"/>
	<path class="st1" d="M518.7,745c0-1.4-1.1-2.6-2.6-2.6c-1.4,0-2.6,1.1-2.6,2.6c0,1.4,1.1,2.6,2.6,2.6
		C517.6,747.5,518.7,746.4,518.7,745z"/>
	<path class="st1" d="M518.7,773.9c0-1.4-1.1-2.6-2.6-2.6c-1.4,0-2.6,1.1-2.6,2.6c0,1.4,1.1,2.6,2.6,2.6S518.7,775.3,518.7,773.9z"
		/>
	<path class="st1" d="M518.7,802.8c0-1.4-1.1-2.6-2.6-2.6c-1.4,0-2.6,1.1-2.6,2.6c0,1.4,1.1,2.6,2.6,2.6S518.7,804.2,518.7,802.8z"
		/>
	<path class="st1" d="M518.7,831.7c0-1.4-1.1-2.6-2.6-2.6c-1.4,0-2.6,1.1-2.6,2.6c0,1.4,1.1,2.6,2.6,2.6
		C517.6,834.3,518.7,833.1,518.7,831.7z"/>
	<path class="st1" d="M518.7,860.6c0-1.4-1.1-2.6-2.6-2.6c-1.4,0-2.6,1.1-2.6,2.6c0,1.4,1.1,2.6,2.6,2.6S518.7,862,518.7,860.6z"/>
	<path class="st1" d="M518.7,889.5c0-1.4-1.1-2.6-2.6-2.6c-1.4,0-2.6,1.1-2.6,2.6c0,1.4,1.1,2.6,2.6,2.6
		C517.6,892.1,518.7,890.9,518.7,889.5z"/>
	<path class="st1" d="M518.7,918.4c0-1.4-1.1-2.6-2.6-2.6c-1.4,0-2.6,1.1-2.6,2.6c0,1.4,1.1,2.6,2.6,2.6S518.7,919.8,518.7,918.4z"
		/>
	<path class="st1" d="M518.7,947.3c0-1.4-1.1-2.6-2.6-2.6c-1.4,0-2.6,1.2-2.6,2.6c0,1.4,1.1,2.6,2.6,2.6S518.7,948.7,518.7,947.3z"
		/>
	<path class="st1" d="M518.7,976.2c0-1.4-1.1-2.6-2.6-2.6c-1.4,0-2.6,1.2-2.6,2.6c0,1.4,1.1,2.6,2.6,2.6
		C517.6,978.8,518.7,977.6,518.7,976.2z"/>
	<path class="st1" d="M518.7,1005.1c0-1.4-1.1-2.6-2.6-2.6c-1.4,0-2.6,1.1-2.6,2.6c0,1.4,1.1,2.6,2.6,2.6S518.7,1006.5,518.7,1005.1
		z"/>
	<path class="st1" d="M518.7,1034c0-1.4-1.1-2.6-2.6-2.6c-1.4,0-2.6,1.2-2.6,2.6s1.1,2.6,2.6,2.6S518.7,1035.4,518.7,1034z"/>
	<ellipse class="st1" cx="487.3" cy="658.3" rx="2.6" ry="2.6"/>
	<path class="st1" d="M489.8,687.2c0-1.4-1.1-2.6-2.6-2.6c-1.4,0-2.6,1.1-2.6,2.6s1.1,2.6,2.6,2.6
		C488.7,689.7,489.8,688.6,489.8,687.2z"/>
	<path class="st1" d="M489.8,716.1c0-1.4-1.1-2.6-2.6-2.6c-1.4,0-2.6,1.1-2.6,2.6c0,1.4,1.1,2.6,2.6,2.6
		C488.7,718.6,489.8,717.5,489.8,716.1z"/>
	<circle class="st1" cx="487.3" cy="745" r="2.6"/>
	<path class="st1" d="M489.8,773.9c0-1.4-1.1-2.6-2.6-2.6c-1.4,0-2.6,1.1-2.6,2.6c0,1.4,1.1,2.6,2.6,2.6
		C488.7,776.5,489.8,775.3,489.8,773.9z"/>
	<path class="st1" d="M489.8,802.8c0-1.4-1.2-2.6-2.6-2.6c-1.4,0-2.6,1.1-2.6,2.6c0,1.4,1.1,2.6,2.6,2.6
		C488.7,805.4,489.8,804.2,489.8,802.8z"/>
	<ellipse class="st1" cx="487.3" cy="831.7" rx="2.6" ry="2.6"/>
	<ellipse class="st1" cx="487.3" cy="860.6" rx="2.6" ry="2.6"/>
	<path class="st1" d="M489.8,889.5c0-1.4-1.2-2.6-2.6-2.6c-1.4,0-2.6,1.1-2.6,2.6c0,1.4,1.1,2.6,2.6,2.6
		C488.7,892.1,489.8,890.9,489.8,889.5z"/>
	<path class="st1" d="M489.8,918.4c0-1.4-1.2-2.6-2.6-2.6c-1.4,0-2.6,1.1-2.6,2.6c0,1.4,1.1,2.6,2.6,2.6
		C488.7,921,489.8,919.8,489.8,918.4z"/>
	<circle class="st1" cx="487.3" cy="947.3" r="2.6"/>
	<path class="st1" d="M489.8,976.2c0-1.4-1.2-2.6-2.6-2.6c-1.4,0-2.6,1.2-2.6,2.6c0,1.4,1.1,2.6,2.6,2.6
		C488.7,978.8,489.8,977.6,489.8,976.2z"/>
	<circle class="st1" cx="487.3" cy="1005.1" r="2.6"/>
	<path class="st1" d="M489.8,1034c0-1.4-1.2-2.6-2.6-2.6c-1.4,0-2.6,1.2-2.6,2.6s1.1,2.6,2.6,2.6
		C488.7,1036.6,489.8,1035.4,489.8,1034z"/>
	<ellipse class="st1" cx="458.4" cy="658.3" rx="2.6" ry="2.6"/>
	<path class="st1" d="M460.9,687.2c0-1.4-1.2-2.6-2.6-2.6s-2.6,1.1-2.6,2.6s1.2,2.6,2.6,2.6S460.9,688.6,460.9,687.2z"/>
	<path class="st1" d="M460.9,716.1c0-1.4-1.2-2.6-2.6-2.6s-2.6,1.1-2.6,2.6c0,1.4,1.2,2.6,2.6,2.6S460.9,717.5,460.9,716.1z"/>
	<circle class="st1" cx="458.4" cy="745" r="2.6"/>
	<path class="st1" d="M460.9,773.9c0-1.4-1.2-2.6-2.6-2.6s-2.6,1.1-2.6,2.6c0,1.4,1.2,2.6,2.6,2.6S460.9,775.3,460.9,773.9z"/>
	<path class="st1" d="M460.9,802.8c0-1.4-1.2-2.6-2.6-2.6s-2.6,1.1-2.6,2.6c0,1.4,1.2,2.6,2.6,2.6S460.9,804.2,460.9,802.8z"/>
	<ellipse class="st1" cx="458.4" cy="831.7" rx="2.6" ry="2.6"/>
	<ellipse class="st1" cx="458.4" cy="860.6" rx="2.6" ry="2.6"/>
	<path class="st1" d="M460.9,889.5c0-1.4-1.2-2.6-2.6-2.6s-2.6,1.1-2.6,2.6c0,1.4,1.2,2.6,2.6,2.6S460.9,890.9,460.9,889.5z"/>
	<path class="st1" d="M460.9,918.4c0-1.4-1.2-2.6-2.6-2.6s-2.6,1.1-2.6,2.6c0,1.4,1.2,2.6,2.6,2.6S460.9,919.8,460.9,918.4z"/>
	<circle class="st1" cx="458.4" cy="947.3" r="2.6"/>
	<path class="st1" d="M460.9,976.2c0-1.4-1.2-2.6-2.6-2.6s-2.6,1.2-2.6,2.6c0,1.4,1.2,2.6,2.6,2.6S460.9,977.6,460.9,976.2z"/>
	<ellipse class="st1" cx="458.4" cy="1005.1" rx="2.6" ry="2.6"/>
	<path class="st1" d="M460.9,1034c0-1.4-1.2-2.6-2.6-2.6s-2.6,1.2-2.6,2.6s1.2,2.6,2.6,2.6S460.9,1035.4,460.9,1034z"/>
	<circle class="st1" cx="429.5" cy="658.3" r="2.6"/>
	<path class="st1" d="M432,687.2c0-1.4-1.1-2.6-2.6-2.6s-2.6,1.1-2.6,2.6s1.1,2.6,2.6,2.6S432,688.6,432,687.2z"/>
	<path class="st1" d="M432,716.1c0-1.4-1.1-2.6-2.6-2.6s-2.6,1.1-2.6,2.6c0,1.4,1.1,2.6,2.6,2.6S432,717.5,432,716.1z"/>
	<circle class="st1" cx="429.5" cy="745" r="2.6"/>
	<path class="st1" d="M432,773.9c0-1.4-1.1-2.6-2.6-2.6s-2.6,1.1-2.6,2.6c0,1.4,1.1,2.6,2.6,2.6S432,775.3,432,773.9z"/>
	<path class="st1" d="M432,802.8c0-1.4-1.1-2.6-2.6-2.6c-1.4,0-2.6,1.1-2.6,2.6c0,1.4,1.1,2.6,2.6,2.6
		C430.9,805.4,432,804.2,432,802.8z"/>
	<ellipse class="st1" cx="429.5" cy="831.7" rx="2.6" ry="2.6"/>
	<ellipse class="st1" cx="429.5" cy="860.6" rx="2.6" ry="2.6"/>
	<path class="st1" d="M432,889.5c0-1.4-1.1-2.6-2.6-2.6c-1.4,0-2.6,1.1-2.6,2.6c0,1.4,1.1,2.6,2.6,2.6
		C430.9,892.1,432,890.9,432,889.5z"/>
	<path class="st1" d="M432,918.4c0-1.4-1.1-2.6-2.6-2.6c-1.4,0-2.6,1.1-2.6,2.6c0,1.4,1.1,2.6,2.6,2.6
		C430.9,921,432,919.8,432,918.4z"/>
	<circle class="st1" cx="429.5" cy="947.3" r="2.6"/>
	<path class="st1" d="M432,976.2c0-1.4-1.1-2.6-2.6-2.6c-1.4,0-2.6,1.2-2.6,2.6c0,1.4,1.1,2.6,2.6,2.6
		C430.9,978.8,432,977.6,432,976.2z"/>
	<circle class="st1" cx="429.5" cy="1005.1" r="2.6"/>
	<path class="st1" d="M432,1034c0-1.4-1.1-2.6-2.6-2.6c-1.4,0-2.6,1.2-2.6,2.6s1.1,2.6,2.6,2.6C430.9,1036.6,432,1035.4,432,1034z"
		/>
	<ellipse class="st1" cx="400.6" cy="658.3" rx="2.6" ry="2.6"/>
	<path class="st1" d="M403.1,687.2c0-1.4-1.2-2.6-2.6-2.6s-2.6,1.1-2.6,2.6s1.2,2.6,2.6,2.6C402,689.7,403.1,688.6,403.1,687.2z"/>
	<path class="st1" d="M403.1,716.1c0-1.4-1.2-2.6-2.6-2.6s-2.6,1.1-2.6,2.6c0,1.4,1.2,2.6,2.6,2.6
		C402,718.6,403.1,717.5,403.1,716.1z"/>
	<circle class="st1" cx="400.6" cy="745" r="2.6"/>
	<path class="st1" d="M403.1,773.9c0-1.4-1.2-2.6-2.6-2.6s-2.6,1.1-2.6,2.6c0,1.4,1.2,2.6,2.6,2.6
		C402,776.5,403.1,775.3,403.1,773.9z"/>
	<path class="st1" d="M403.1,802.8c0-1.4-1.2-2.6-2.6-2.6s-2.6,1.1-2.6,2.6c0,1.4,1.2,2.6,2.6,2.6
		C402,805.4,403.1,804.2,403.1,802.8z"/>
	<ellipse class="st1" cx="400.6" cy="831.7" rx="2.6" ry="2.6"/>
	<ellipse class="st1" cx="400.6" cy="860.6" rx="2.6" ry="2.6"/>
	<path class="st1" d="M403.1,889.5c0-1.4-1.2-2.6-2.6-2.6s-2.6,1.1-2.6,2.6c0,1.4,1.2,2.6,2.6,2.6
		C402,892.1,403.1,890.9,403.1,889.5z"/>
	<path class="st1" d="M403.1,918.4c0-1.4-1.2-2.6-2.6-2.6s-2.6,1.1-2.6,2.6c0,1.4,1.2,2.6,2.6,2.6C402,921,403.1,919.8,403.1,918.4z
		"/>
	<circle class="st1" cx="400.6" cy="947.3" r="2.6"/>
	<path class="st1" d="M403.1,976.2c0-1.4-1.2-2.6-2.6-2.6s-2.6,1.2-2.6,2.6c0,1.4,1.2,2.6,2.6,2.6
		C402,978.8,403.1,977.6,403.1,976.2z"/>
	<ellipse class="st1" cx="400.6" cy="1005.1" rx="2.6" ry="2.6"/>
	<path class="st1" d="M403.1,1034c0-1.4-1.2-2.6-2.6-2.6s-2.6,1.2-2.6,2.6s1.2,2.6,2.6,2.6C402,1036.6,403.1,1035.4,403.1,1034z"/>
	<ellipse class="st1" cx="371.7" cy="658.3" rx="2.6" ry="2.6"/>
	<path class="st1" d="M374.2,687.2c0-1.4-1.1-2.6-2.6-2.6s-2.6,1.1-2.6,2.6s1.1,2.6,2.6,2.6S374.2,688.6,374.2,687.2z"/>
	<path class="st1" d="M374.2,716.1c0-1.4-1.1-2.6-2.6-2.6s-2.6,1.1-2.6,2.6c0,1.4,1.1,2.6,2.6,2.6S374.2,717.5,374.2,716.1z"/>
	<ellipse class="st1" cx="371.7" cy="745" rx="2.6" ry="2.6"/>
	<path class="st1" d="M374.2,773.9c0-1.4-1.1-2.6-2.6-2.6s-2.6,1.1-2.6,2.6c0,1.4,1.1,2.6,2.6,2.6S374.2,775.3,374.2,773.9z"/>
	<path class="st1" d="M374.2,802.8c0-1.4-1.2-2.6-2.6-2.6s-2.6,1.1-2.6,2.6c0,1.4,1.1,2.6,2.6,2.6S374.2,804.2,374.2,802.8z"/>
	<ellipse class="st1" cx="371.7" cy="831.7" rx="2.6" ry="2.6"/>
	<ellipse class="st1" cx="371.7" cy="860.6" rx="2.6" ry="2.6"/>
	<path class="st1" d="M374.2,889.5c0-1.4-1.2-2.6-2.6-2.6s-2.6,1.1-2.6,2.6c0,1.4,1.1,2.6,2.6,2.6
		C373.1,892.1,374.2,890.9,374.2,889.5z"/>
	<path class="st1" d="M374.2,918.4c0-1.4-1.2-2.6-2.6-2.6s-2.6,1.1-2.6,2.6c0,1.4,1.1,2.6,2.6,2.6S374.2,919.8,374.2,918.4z"/>
	<circle class="st1" cx="371.7" cy="947.3" r="2.6"/>
	<path class="st1" d="M374.2,976.2c0-1.4-1.2-2.6-2.6-2.6s-2.6,1.2-2.6,2.6c0,1.4,1.1,2.6,2.6,2.6
		C373.1,978.8,374.2,977.6,374.2,976.2z"/>
	<circle class="st1" cx="371.7" cy="1005.1" r="2.6"/>
	<path class="st1" d="M374.2,1034c0-1.4-1.2-2.6-2.6-2.6s-2.6,1.2-2.6,2.6s1.1,2.6,2.6,2.6S374.2,1035.4,374.2,1034z"/>
	<circle class="st1" cx="342.8" cy="658.3" r="2.6"/>
	<path class="st1" d="M345.3,687.2c0-1.4-1.1-2.6-2.6-2.6c-1.4,0-2.6,1.1-2.6,2.6s1.1,2.6,2.6,2.6
		C344.2,689.7,345.3,688.6,345.3,687.2z"/>
	<path class="st1" d="M345.3,716.1c0-1.4-1.1-2.6-2.6-2.6c-1.4,0-2.6,1.1-2.6,2.6c0,1.4,1.1,2.6,2.6,2.6
		C344.2,718.6,345.3,717.5,345.3,716.1z"/>
	<ellipse class="st1" cx="342.8" cy="745" rx="2.6" ry="2.6"/>
	<path class="st1" d="M345.3,773.9c0-1.4-1.1-2.6-2.6-2.6c-1.4,0-2.6,1.1-2.6,2.6c0,1.4,1.1,2.6,2.6,2.6S345.3,775.3,345.3,773.9z"
		/>
	<path class="st1" d="M345.3,802.8c0-1.4-1.1-2.6-2.6-2.6c-1.4,0-2.6,1.1-2.6,2.6c0,1.4,1.1,2.6,2.6,2.6S345.3,804.2,345.3,802.8z"
		/>
	<path class="st1" d="M345.3,831.7c0-1.4-1.1-2.6-2.6-2.6c-1.4,0-2.6,1.1-2.6,2.6c0,1.4,1.1,2.6,2.6,2.6
		C344.2,834.3,345.3,833.1,345.3,831.7z"/>
	<path class="st1" d="M345.3,860.6c0-1.4-1.1-2.6-2.6-2.6c-1.4,0-2.6,1.1-2.6,2.6c0,1.4,1.1,2.6,2.6,2.6S345.3,862,345.3,860.6z"/>
	<path class="st1" d="M345.3,889.5c0-1.4-1.1-2.6-2.6-2.6c-1.4,0-2.6,1.1-2.6,2.6c0,1.4,1.1,2.6,2.6,2.6
		C344.2,892.1,345.3,890.9,345.3,889.5z"/>
	<path class="st1" d="M345.3,918.4c0-1.4-1.1-2.6-2.6-2.6c-1.4,0-2.6,1.1-2.6,2.6c0,1.4,1.1,2.6,2.6,2.6S345.3,919.8,345.3,918.4z"
		/>
	<path class="st1" d="M345.3,947.3c0-1.4-1.1-2.6-2.6-2.6c-1.4,0-2.6,1.2-2.6,2.6c0,1.4,1.1,2.6,2.6,2.6S345.3,948.7,345.3,947.3z"
		/>
	<path class="st1" d="M345.3,976.2c0-1.4-1.1-2.6-2.6-2.6c-1.4,0-2.6,1.2-2.6,2.6c0,1.4,1.1,2.6,2.6,2.6
		C344.2,978.8,345.3,977.6,345.3,976.2z"/>
	<path class="st1" d="M345.3,1005.1c0-1.4-1.1-2.6-2.6-2.6c-1.4,0-2.6,1.1-2.6,2.6c0,1.4,1.1,2.6,2.6,2.6S345.3,1006.5,345.3,1005.1
		z"/>
	<path class="st1" d="M345.3,1034c0-1.4-1.1-2.6-2.6-2.6c-1.4,0-2.6,1.2-2.6,2.6s1.1,2.6,2.6,2.6S345.3,1035.4,345.3,1034z"/>
	<circle class="st1" cx="313.8" cy="658.3" r="2.6"/>
	<path class="st1" d="M316.4,687.2c0-1.4-1.1-2.6-2.6-2.6c-1.4,0-2.6,1.1-2.6,2.6s1.2,2.6,2.6,2.6
		C315.3,689.7,316.4,688.6,316.4,687.2z"/>
	<path class="st1" d="M316.4,716.1c0-1.4-1.1-2.6-2.6-2.6c-1.4,0-2.6,1.1-2.6,2.6c0,1.4,1.2,2.6,2.6,2.6
		C315.3,718.6,316.4,717.5,316.4,716.1z"/>
	<ellipse class="st1" cx="313.8" cy="745" rx="2.6" ry="2.6"/>
	<path class="st1" d="M316.4,773.9c0-1.4-1.1-2.6-2.6-2.6c-1.4,0-2.6,1.1-2.6,2.6c0,1.4,1.2,2.6,2.6,2.6
		C315.3,776.5,316.4,775.3,316.4,773.9z"/>
	<path class="st1" d="M316.4,802.8c0-1.4-1.1-2.6-2.6-2.6c-1.4,0-2.6,1.1-2.6,2.6c0,1.4,1.2,2.6,2.6,2.6
		C315.3,805.4,316.4,804.2,316.4,802.8z"/>
	<path class="st1" d="M316.4,831.7c0-1.4-1.1-2.6-2.6-2.6c-1.4,0-2.6,1.1-2.6,2.6c0,1.4,1.2,2.6,2.6,2.6
		C315.3,834.3,316.4,833.1,316.4,831.7z"/>
	<path class="st1" d="M316.4,860.6c0-1.4-1.1-2.6-2.6-2.6c-1.4,0-2.6,1.1-2.6,2.6c0,1.4,1.2,2.6,2.6,2.6
		C315.3,863.2,316.4,862,316.4,860.6z"/>
	<path class="st1" d="M316.4,889.5c0-1.4-1.1-2.6-2.6-2.6c-1.4,0-2.6,1.1-2.6,2.6c0,1.4,1.2,2.6,2.6,2.6
		C315.3,892.1,316.4,890.9,316.4,889.5z"/>
	<path class="st1" d="M316.4,918.4c0-1.4-1.1-2.6-2.6-2.6c-1.4,0-2.6,1.1-2.6,2.6c0,1.4,1.2,2.6,2.6,2.6
		C315.3,921,316.4,919.8,316.4,918.4z"/>
	<path class="st1" d="M316.4,947.3c0-1.4-1.1-2.6-2.6-2.6c-1.4,0-2.6,1.2-2.6,2.6c0,1.4,1.2,2.6,2.6,2.6
		C315.3,949.9,316.4,948.7,316.4,947.3z"/>
	<path class="st1" d="M316.4,976.2c0-1.4-1.1-2.6-2.6-2.6c-1.4,0-2.6,1.2-2.6,2.6c0,1.4,1.2,2.6,2.6,2.6
		C315.3,978.8,316.4,977.6,316.4,976.2z"/>
	<path class="st1" d="M316.4,1005.1c0-1.4-1.1-2.6-2.6-2.6c-1.4,0-2.6,1.1-2.6,2.6c0,1.4,1.2,2.6,2.6,2.6
		C315.3,1007.7,316.4,1006.5,316.4,1005.1z"/>
	<path class="st1" d="M316.4,1034c0-1.4-1.1-2.6-2.6-2.6c-1.4,0-2.6,1.2-2.6,2.6s1.2,2.6,2.6,2.6
		C315.3,1036.6,316.4,1035.4,316.4,1034z"/>
	<path class="st1" d="M287.5,658.3c0-1.4-1.1-2.6-2.6-2.6c-1.4,0-2.6,1.1-2.6,2.6c0,1.4,1.1,2.6,2.6,2.6
		C286.4,660.8,287.5,659.7,287.5,658.3z"/>
	<path class="st1" d="M287.5,687.2c0-1.4-1.1-2.6-2.6-2.6c-1.4,0-2.6,1.1-2.6,2.6s1.1,2.6,2.6,2.6
		C286.4,689.7,287.5,688.6,287.5,687.2z"/>
	<path class="st1" d="M287.5,716.1c0-1.4-1.1-2.6-2.6-2.6c-1.4,0-2.6,1.1-2.6,2.6c0,1.4,1.1,2.6,2.6,2.6
		C286.4,718.6,287.5,717.5,287.5,716.1z"/>
	<path class="st1" d="M287.5,745c0-1.4-1.1-2.6-2.6-2.6c-1.4,0-2.6,1.1-2.6,2.6c0,1.4,1.1,2.6,2.6,2.6
		C286.4,747.5,287.5,746.4,287.5,745z"/>
	<path class="st1" d="M287.5,773.9c0-1.4-1.1-2.6-2.6-2.6c-1.4,0-2.6,1.1-2.6,2.6c0,1.4,1.1,2.6,2.6,2.6S287.5,775.3,287.5,773.9z"
		/>
	<path class="st1" d="M287.5,802.8c0-1.4-1.1-2.6-2.6-2.6c-1.4,0-2.6,1.1-2.6,2.6c0,1.4,1.1,2.6,2.6,2.6S287.5,804.2,287.5,802.8z"
		/>
	<path class="st1" d="M287.5,831.7c0-1.4-1.1-2.6-2.6-2.6c-1.4,0-2.6,1.1-2.6,2.6c0,1.4,1.1,2.6,2.6,2.6
		C286.4,834.3,287.5,833.1,287.5,831.7z"/>
	<path class="st1" d="M287.5,860.6c0-1.4-1.1-2.6-2.6-2.6c-1.4,0-2.6,1.1-2.6,2.6c0,1.4,1.1,2.6,2.6,2.6S287.5,862,287.5,860.6z"/>
	<path class="st1" d="M287.5,889.5c0-1.4-1.1-2.6-2.6-2.6c-1.4,0-2.6,1.1-2.6,2.6c0,1.4,1.1,2.6,2.6,2.6
		C286.4,892.1,287.5,890.9,287.5,889.5z"/>
	<path class="st1" d="M287.5,918.4c0-1.4-1.1-2.6-2.6-2.6c-1.4,0-2.6,1.1-2.6,2.6c0,1.4,1.1,2.6,2.6,2.6S287.5,919.8,287.5,918.4z"
		/>
	<path class="st1" d="M287.5,947.3c0-1.4-1.1-2.6-2.6-2.6c-1.4,0-2.6,1.2-2.6,2.6c0,1.4,1.1,2.6,2.6,2.6S287.5,948.7,287.5,947.3z"
		/>
	<path class="st1" d="M287.5,976.2c0-1.4-1.1-2.6-2.6-2.6c-1.4,0-2.6,1.2-2.6,2.6c0,1.4,1.1,2.6,2.6,2.6
		C286.4,978.8,287.5,977.6,287.5,976.2z"/>
	<path class="st1" d="M287.5,1005.1c0-1.4-1.1-2.6-2.6-2.6c-1.4,0-2.6,1.1-2.6,2.6c0,1.4,1.1,2.6,2.6,2.6S287.5,1006.5,287.5,1005.1
		z"/>
	<path class="st1" d="M287.5,1034c0-1.4-1.1-2.6-2.6-2.6c-1.4,0-2.6,1.2-2.6,2.6s1.1,2.6,2.6,2.6S287.5,1035.4,287.5,1034z"/>
	<circle class="st1" cx="256" cy="658.3" r="2.6"/>
	<path class="st1" d="M258.6,687.2c0-1.4-1.1-2.6-2.6-2.6c-1.4,0-2.6,1.1-2.6,2.6s1.1,2.6,2.6,2.6
		C257.5,689.7,258.6,688.6,258.6,687.2z"/>
	<path class="st1" d="M258.6,716.1c0-1.4-1.1-2.6-2.6-2.6c-1.4,0-2.6,1.1-2.6,2.6c0,1.4,1.1,2.6,2.6,2.6
		C257.5,718.6,258.6,717.5,258.6,716.1z"/>
	<ellipse class="st1" cx="256" cy="745" rx="2.6" ry="2.6"/>
	<path class="st1" d="M258.6,773.9c0-1.4-1.1-2.6-2.6-2.6c-1.4,0-2.6,1.1-2.6,2.6c0,1.4,1.1,2.6,2.6,2.6
		C257.5,776.5,258.6,775.3,258.6,773.9z"/>
	<path class="st1" d="M258.6,802.8c0-1.4-1.1-2.6-2.6-2.6c-1.4,0-2.6,1.1-2.6,2.6c0,1.4,1.2,2.6,2.6,2.6
		C257.5,805.4,258.6,804.2,258.6,802.8z"/>
	<path class="st1" d="M258.6,831.7c0-1.4-1.1-2.6-2.6-2.6c-1.4,0-2.6,1.1-2.6,2.6c0,1.4,1.2,2.6,2.6,2.6
		C257.5,834.3,258.6,833.1,258.6,831.7z"/>
	<path class="st1" d="M258.6,860.6c0-1.4-1.1-2.6-2.6-2.6c-1.4,0-2.6,1.1-2.6,2.6c0,1.4,1.2,2.6,2.6,2.6
		C257.5,863.2,258.6,862,258.6,860.6z"/>
	<path class="st1" d="M258.6,889.5c0-1.4-1.1-2.6-2.6-2.6c-1.4,0-2.6,1.1-2.6,2.6c0,1.4,1.2,2.6,2.6,2.6
		C257.5,892.1,258.6,890.9,258.6,889.5z"/>
	<path class="st1" d="M258.6,918.4c0-1.4-1.1-2.6-2.6-2.6c-1.4,0-2.6,1.1-2.6,2.6c0,1.4,1.2,2.6,2.6,2.6
		C257.5,921,258.6,919.8,258.6,918.4z"/>
	<path class="st1" d="M258.6,947.3c0-1.4-1.1-2.6-2.6-2.6c-1.4,0-2.6,1.2-2.6,2.6c0,1.4,1.2,2.6,2.6,2.6
		C257.5,949.9,258.6,948.7,258.6,947.3z"/>
	<path class="st1" d="M258.6,976.2c0-1.4-1.1-2.6-2.6-2.6c-1.4,0-2.6,1.2-2.6,2.6c0,1.4,1.2,2.6,2.6,2.6
		C257.5,978.8,258.6,977.6,258.6,976.2z"/>
	<path class="st1" d="M258.6,1005.1c0-1.4-1.1-2.6-2.6-2.6c-1.4,0-2.6,1.1-2.6,2.6c0,1.4,1.2,2.6,2.6,2.6
		C257.5,1007.7,258.6,1006.5,258.6,1005.1z"/>
	<path class="st1" d="M258.6,1034c0-1.4-1.1-2.6-2.6-2.6c-1.4,0-2.6,1.2-2.6,2.6s1.2,2.6,2.6,2.6
		C257.5,1036.6,258.6,1035.4,258.6,1034z"/>
	<path class="st1" d="M229.7,658.3c0-1.4-1.1-2.6-2.6-2.6c-1.4,0-2.6,1.1-2.6,2.6c0,1.4,1.2,2.6,2.6,2.6
		C228.6,660.8,229.7,659.7,229.7,658.3z"/>
	<path class="st1" d="M229.7,687.2c0-1.4-1.1-2.6-2.6-2.6c-1.4,0-2.6,1.1-2.6,2.6s1.2,2.6,2.6,2.6
		C228.6,689.7,229.7,688.6,229.7,687.2z"/>
	<path class="st1" d="M229.7,716.1c0-1.4-1.1-2.6-2.6-2.6c-1.4,0-2.6,1.1-2.6,2.6c0,1.4,1.2,2.6,2.6,2.6
		C228.6,718.6,229.7,717.5,229.7,716.1z"/>
	<path class="st1" d="M229.7,745c0-1.4-1.1-2.6-2.6-2.6c-1.4,0-2.6,1.1-2.6,2.6c0,1.4,1.2,2.6,2.6,2.6
		C228.6,747.5,229.7,746.4,229.7,745z"/>
	<path class="st1" d="M229.7,773.9c0-1.4-1.1-2.6-2.6-2.6c-1.4,0-2.6,1.1-2.6,2.6c0,1.4,1.2,2.6,2.6,2.6
		C228.6,776.5,229.7,775.3,229.7,773.9z"/>
	<path class="st1" d="M229.7,802.8c0-1.4-1.1-2.6-2.6-2.6s-2.6,1.1-2.6,2.6c0,1.4,1.2,2.6,2.6,2.6S229.7,804.2,229.7,802.8z"/>
	<ellipse class="st1" cx="227.1" cy="831.7" rx="2.6" ry="2.6"/>
	<circle class="st1" cx="227.1" cy="860.6" r="2.6"/>
	<path class="st1" d="M229.7,889.5c0-1.4-1.1-2.6-2.6-2.6s-2.6,1.1-2.6,2.6c0,1.4,1.2,2.6,2.6,2.6S229.7,890.9,229.7,889.5z"/>
	<path class="st1" d="M229.7,918.4c0-1.4-1.1-2.6-2.6-2.6s-2.6,1.1-2.6,2.6c0,1.4,1.2,2.6,2.6,2.6S229.7,919.8,229.7,918.4z"/>
	<ellipse class="st1" cx="227.1" cy="947.3" rx="2.6" ry="2.6"/>
	<path class="st1" d="M229.7,976.2c0-1.4-1.1-2.6-2.6-2.6s-2.6,1.2-2.6,2.6c0,1.4,1.2,2.6,2.6,2.6S229.7,977.6,229.7,976.2z"/>
	<ellipse class="st1" cx="227.1" cy="1005.1" rx="2.6" ry="2.6"/>
	<path class="st1" d="M229.7,1034c0-1.4-1.1-2.6-2.6-2.6s-2.6,1.2-2.6,2.6s1.2,2.6,2.6,2.6S229.7,1035.4,229.7,1034z"/>
	<ellipse class="st1" cx="198.2" cy="658.3" rx="2.6" ry="2.6"/>
	<path class="st1" d="M200.8,687.2c0-1.4-1.1-2.6-2.6-2.6c-1.4,0-2.6,1.1-2.6,2.6s1.2,2.6,2.6,2.6
		C199.6,689.7,200.8,688.6,200.8,687.2z"/>
	<path class="st1" d="M200.8,716.1c0-1.4-1.1-2.6-2.6-2.6c-1.4,0-2.6,1.1-2.6,2.6c0,1.4,1.2,2.6,2.6,2.6
		C199.6,718.6,200.8,717.5,200.8,716.1z"/>
	<ellipse class="st1" cx="198.2" cy="745" rx="2.6" ry="2.6"/>
	<path class="st1" d="M200.8,773.9c0-1.4-1.1-2.6-2.6-2.6c-1.4,0-2.6,1.1-2.6,2.6c0,1.4,1.2,2.6,2.6,2.6S200.8,775.3,200.8,773.9z"
		/>
	<path class="st1" d="M200.8,802.8c0-1.4-1.1-2.6-2.6-2.6c-1.4,0-2.6,1.1-2.6,2.6c0,1.4,1.2,2.6,2.6,2.6S200.8,804.2,200.8,802.8z"
		/>
	<path class="st1" d="M200.8,831.7c0-1.4-1.1-2.6-2.6-2.6c-1.4,0-2.6,1.1-2.6,2.6c0,1.4,1.2,2.6,2.6,2.6
		C199.6,834.3,200.8,833.1,200.8,831.7z"/>
	<path class="st1" d="M200.8,860.6c0-1.4-1.1-2.6-2.6-2.6c-1.4,0-2.6,1.1-2.6,2.6c0,1.4,1.2,2.6,2.6,2.6S200.8,862,200.8,860.6z"/>
	<path class="st1" d="M200.8,889.5c0-1.4-1.1-2.6-2.6-2.6c-1.4,0-2.6,1.1-2.6,2.6c0,1.4,1.2,2.6,2.6,2.6
		C199.6,892.1,200.8,890.9,200.8,889.5z"/>
	<path class="st1" d="M200.8,918.4c0-1.4-1.1-2.6-2.6-2.6c-1.4,0-2.6,1.1-2.6,2.6c0,1.4,1.2,2.6,2.6,2.6S200.8,919.8,200.8,918.4z"
		/>
	<path class="st1" d="M200.8,947.3c0-1.4-1.1-2.6-2.6-2.6c-1.4,0-2.6,1.2-2.6,2.6c0,1.4,1.2,2.6,2.6,2.6S200.8,948.7,200.8,947.3z"
		/>
	<path class="st1" d="M200.8,976.2c0-1.4-1.1-2.6-2.6-2.6c-1.4,0-2.6,1.2-2.6,2.6c0,1.4,1.2,2.6,2.6,2.6
		C199.6,978.8,200.8,977.6,200.8,976.2z"/>
	<path class="st1" d="M200.8,1005.1c0-1.4-1.1-2.6-2.6-2.6c-1.4,0-2.6,1.1-2.6,2.6c0,1.4,1.2,2.6,2.6,2.6S200.8,1006.5,200.8,1005.1
		z"/>
	<path class="st1" d="M200.8,1034c0-1.4-1.1-2.6-2.6-2.6c-1.4,0-2.6,1.2-2.6,2.6s1.2,2.6,2.6,2.6S200.8,1035.4,200.8,1034z"/>
	<ellipse class="st1" cx="169.3" cy="658.3" rx="2.6" ry="2.6"/>
	<path class="st1" d="M171.9,687.2c0-1.4-1.2-2.6-2.6-2.6c-1.4,0-2.6,1.1-2.6,2.6s1.1,2.6,2.6,2.6
		C170.7,689.7,171.9,688.6,171.9,687.2z"/>
	<path class="st1" d="M171.9,716.1c0-1.4-1.2-2.6-2.6-2.6c-1.4,0-2.6,1.1-2.6,2.6c0,1.4,1.1,2.6,2.6,2.6
		C170.7,718.6,171.9,717.5,171.9,716.1z"/>
	<circle class="st1" cx="169.3" cy="745" r="2.6"/>
	<path class="st1" d="M171.9,773.9c0-1.4-1.2-2.6-2.6-2.6c-1.4,0-2.6,1.1-2.6,2.6c0,1.4,1.1,2.6,2.6,2.6
		C170.7,776.5,171.9,775.3,171.9,773.9z"/>
	<path class="st1" d="M171.9,802.8c0-1.4-1.1-2.6-2.6-2.6c-1.4,0-2.6,1.1-2.6,2.6c0,1.4,1.2,2.6,2.6,2.6S171.9,804.2,171.9,802.8z"
		/>
	<path class="st1" d="M171.9,831.7c0-1.4-1.1-2.6-2.6-2.6c-1.4,0-2.6,1.1-2.6,2.6c0,1.4,1.2,2.6,2.6,2.6
		C170.7,834.3,171.9,833.1,171.9,831.7z"/>
	<path class="st1" d="M171.9,860.6c0-1.4-1.1-2.6-2.6-2.6c-1.4,0-2.6,1.1-2.6,2.6c0,1.4,1.2,2.6,2.6,2.6S171.9,862,171.9,860.6z"/>
	<path class="st1" d="M171.9,889.5c0-1.4-1.1-2.6-2.6-2.6c-1.4,0-2.6,1.1-2.6,2.6c0,1.4,1.2,2.6,2.6,2.6
		C170.7,892.1,171.9,890.9,171.9,889.5z"/>
	<path class="st1" d="M171.9,918.4c0-1.4-1.1-2.6-2.6-2.6c-1.4,0-2.6,1.1-2.6,2.6c0,1.4,1.2,2.6,2.6,2.6S171.9,919.8,171.9,918.4z"
		/>
	<path class="st1" d="M171.9,947.3c0-1.4-1.1-2.6-2.6-2.6c-1.4,0-2.6,1.2-2.6,2.6c0,1.4,1.2,2.6,2.6,2.6S171.9,948.7,171.9,947.3z"
		/>
	<path class="st1" d="M171.9,976.2c0-1.4-1.1-2.6-2.6-2.6c-1.4,0-2.6,1.2-2.6,2.6c0,1.4,1.2,2.6,2.6,2.6
		C170.7,978.8,171.9,977.6,171.9,976.2z"/>
	<path class="st1" d="M171.9,1005.1c0-1.4-1.1-2.6-2.6-2.6c-1.4,0-2.6,1.1-2.6,2.6c0,1.4,1.2,2.6,2.6,2.6S171.9,1006.5,171.9,1005.1
		z"/>
	<path class="st1" d="M171.9,1034c0-1.4-1.1-2.6-2.6-2.6c-1.4,0-2.6,1.2-2.6,2.6s1.2,2.6,2.6,2.6S171.9,1035.4,171.9,1034z"/>
	<circle class="st1" cx="140.4" cy="658.3" r="2.6"/>
	<path class="st1" d="M143,687.2c0-1.4-1.1-2.6-2.6-2.6c-1.4,0-2.6,1.1-2.6,2.6s1.2,2.6,2.6,2.6C141.8,689.7,143,688.6,143,687.2z"
		/>
	<path class="st1" d="M143,716.1c0-1.4-1.1-2.6-2.6-2.6c-1.4,0-2.6,1.1-2.6,2.6c0,1.4,1.2,2.6,2.6,2.6
		C141.8,718.6,143,717.5,143,716.1z"/>
	<ellipse class="st1" cx="140.4" cy="745" rx="2.6" ry="2.6"/>
	<path class="st1" d="M143,773.9c0-1.4-1.1-2.6-2.6-2.6c-1.4,0-2.6,1.1-2.6,2.6c0,1.4,1.2,2.6,2.6,2.6S143,775.3,143,773.9z"/>
	<path class="st1" d="M143,802.8c0-1.4-1.1-2.6-2.6-2.6c-1.4,0-2.6,1.1-2.6,2.6c0,1.4,1.2,2.6,2.6,2.6S143,804.2,143,802.8z"/>
	<ellipse class="st1" cx="140.4" cy="831.7" rx="2.6" ry="2.6"/>
	<circle class="st1" cx="140.4" cy="860.6" r="2.6"/>
	<path class="st1" d="M143,889.5c0-1.4-1.1-2.6-2.6-2.6c-1.4,0-2.6,1.1-2.6,2.6c0,1.4,1.2,2.6,2.6,2.6
		C141.8,892.1,143,890.9,143,889.5z"/>
	<path class="st1" d="M143,918.4c0-1.4-1.1-2.6-2.6-2.6c-1.4,0-2.6,1.1-2.6,2.6c0,1.4,1.2,2.6,2.6,2.6S143,919.8,143,918.4z"/>
	<ellipse class="st1" cx="140.4" cy="947.3" rx="2.6" ry="2.6"/>
	<path class="st1" d="M143,976.2c0-1.4-1.1-2.6-2.6-2.6c-1.4,0-2.6,1.2-2.6,2.6c0,1.4,1.2,2.6,2.6,2.6
		C141.8,978.8,143,977.6,143,976.2z"/>
	<ellipse class="st1" cx="140.4" cy="1005.1" rx="2.6" ry="2.6"/>
	<path class="st1" d="M143,1034c0-1.4-1.1-2.6-2.6-2.6c-1.4,0-2.6,1.2-2.6,2.6s1.2,2.6,2.6,2.6S143,1035.4,143,1034z"/>
	<path class="st1" d="M114.1,658.3c0-1.4-1.1-2.6-2.6-2.6c-1.4,0-2.6,1.1-2.6,2.6c0,1.4,1.1,2.6,2.6,2.6
		C112.9,660.8,114.1,659.7,114.1,658.3z"/>
	<path class="st1" d="M114.1,687.2c0-1.4-1.1-2.6-2.6-2.6c-1.4,0-2.6,1.1-2.6,2.6s1.1,2.6,2.6,2.6
		C112.9,689.7,114.1,688.6,114.1,687.2z"/>
	<path class="st1" d="M114.1,716.1c0-1.4-1.1-2.6-2.6-2.6c-1.4,0-2.6,1.1-2.6,2.6c0,1.4,1.1,2.6,2.6,2.6
		C112.9,718.6,114.1,717.5,114.1,716.1z"/>
	<path class="st1" d="M114.1,745c0-1.4-1.1-2.6-2.6-2.6c-1.4,0-2.6,1.1-2.6,2.6c0,1.4,1.1,2.6,2.6,2.6
		C112.9,747.5,114.1,746.4,114.1,745z"/>
	<path class="st1" d="M114.1,773.9c0-1.4-1.1-2.6-2.6-2.6c-1.4,0-2.6,1.1-2.6,2.6c0,1.4,1.1,2.6,2.6,2.6
		C112.9,776.5,114.1,775.3,114.1,773.9z"/>
	<path class="st1" d="M114.1,802.8c0-1.4-1.1-2.6-2.6-2.6c-1.4,0-2.6,1.1-2.6,2.6c0,1.4,1.1,2.6,2.6,2.6
		C112.9,805.4,114.1,804.2,114.1,802.8z"/>
	<path class="st1" d="M114.1,831.7c0-1.4-1.1-2.6-2.6-2.6c-1.4,0-2.6,1.1-2.6,2.6c0,1.4,1.1,2.6,2.6,2.6
		C112.9,834.3,114.1,833.1,114.1,831.7z"/>
	<path class="st1" d="M114.1,860.6c0-1.4-1.1-2.6-2.6-2.6c-1.4,0-2.6,1.1-2.6,2.6c0,1.4,1.1,2.6,2.6,2.6
		C112.9,863.2,114.1,862,114.1,860.6z"/>
	<path class="st1" d="M114.1,889.5c0-1.4-1.1-2.6-2.6-2.6c-1.4,0-2.6,1.1-2.6,2.6c0,1.4,1.1,2.6,2.6,2.6
		C112.9,892.1,114.1,890.9,114.1,889.5z"/>
	<path class="st1" d="M114.1,918.4c0-1.4-1.1-2.6-2.6-2.6c-1.4,0-2.6,1.1-2.6,2.6c0,1.4,1.1,2.6,2.6,2.6
		C112.9,921,114.1,919.8,114.1,918.4z"/>
	<path class="st1" d="M114.1,947.3c0-1.4-1.1-2.6-2.6-2.6c-1.4,0-2.6,1.2-2.6,2.6c0,1.4,1.1,2.6,2.6,2.6
		C112.9,949.9,114.1,948.7,114.1,947.3z"/>
	<path class="st1" d="M114.1,976.2c0-1.4-1.1-2.6-2.6-2.6c-1.4,0-2.6,1.2-2.6,2.6c0,1.4,1.1,2.6,2.6,2.6
		C112.9,978.8,114.1,977.6,114.1,976.2z"/>
	<path class="st1" d="M114.1,1005.1c0-1.4-1.1-2.6-2.6-2.6c-1.4,0-2.6,1.1-2.6,2.6c0,1.4,1.1,2.6,2.6,2.6
		C112.9,1007.7,114.1,1006.5,114.1,1005.1z"/>
	<path class="st1" d="M114.1,1034c0-1.4-1.1-2.6-2.6-2.6c-1.4,0-2.6,1.2-2.6,2.6s1.1,2.6,2.6,2.6
		C112.9,1036.6,114.1,1035.4,114.1,1034z"/>
	<circle class="st1" cx="82.6" cy="658.3" r="2.6"/>
	<path class="st1" d="M85.2,687.2c0-1.4-1.1-2.6-2.6-2.6c-1.4,0-2.6,1.1-2.6,2.6s1.2,2.6,2.6,2.6C84,689.7,85.2,688.6,85.2,687.2z"
		/>
	<path class="st1" d="M85.2,716.1c0-1.4-1.1-2.6-2.6-2.6c-1.4,0-2.6,1.1-2.6,2.6c0,1.4,1.2,2.6,2.6,2.6
		C84,718.6,85.2,717.5,85.2,716.1z"/>
	<circle class="st1" cx="82.6" cy="745" r="2.6"/>
	<path class="st1" d="M85.2,773.9c0-1.4-1.1-2.6-2.6-2.6c-1.4,0-2.6,1.1-2.6,2.6c0,1.4,1.2,2.6,2.6,2.6
		C84,776.5,85.2,775.3,85.2,773.9z"/>
	<path class="st1" d="M85.2,802.8c0-1.4-1.1-2.6-2.6-2.6c-1.4,0-2.6,1.1-2.6,2.6c0,1.4,1.2,2.6,2.6,2.6
		C84,805.4,85.2,804.2,85.2,802.8z"/>
	<ellipse class="st1" cx="82.6" cy="831.7" rx="2.6" ry="2.6"/>
	<circle class="st1" cx="82.6" cy="860.6" r="2.6"/>
	<path class="st1" d="M85.2,889.5c0-1.4-1.1-2.6-2.6-2.6c-1.4,0-2.6,1.1-2.6,2.6c0,1.4,1.2,2.6,2.6,2.6
		C84,892.1,85.2,890.9,85.2,889.5z"/>
	<path class="st1" d="M85.2,918.4c0-1.4-1.1-2.6-2.6-2.6c-1.4,0-2.6,1.1-2.6,2.6c0,1.4,1.2,2.6,2.6,2.6
		C84,921,85.2,919.8,85.2,918.4z"/>
	<ellipse class="st1" cx="82.6" cy="947.3" rx="2.6" ry="2.6"/>
	<path class="st1" d="M85.2,976.2c0-1.4-1.1-2.6-2.6-2.6c-1.4,0-2.6,1.2-2.6,2.6c0,1.4,1.2,2.6,2.6,2.6
		C84,978.8,85.2,977.6,85.2,976.2z"/>
	<circle class="st1" cx="82.6" cy="1005.1" r="2.6"/>
	<path class="st1" d="M85.2,1034c0-1.4-1.1-2.6-2.6-2.6c-1.4,0-2.6,1.2-2.6,2.6s1.2,2.6,2.6,2.6C84,1036.6,85.2,1035.4,85.2,1034z"
		/>
	<circle class="st1" cx="53.7" cy="658.3" r="2.6"/>
	<path class="st1" d="M56.3,687.2c0-1.4-1.1-2.6-2.6-2.6c-1.4,0-2.6,1.1-2.6,2.6s1.2,2.6,2.6,2.6C55.1,689.7,56.3,688.6,56.3,687.2z
		"/>
	<path class="st1" d="M56.3,716.1c0-1.4-1.1-2.6-2.6-2.6c-1.4,0-2.6,1.1-2.6,2.6c0,1.4,1.2,2.6,2.6,2.6
		C55.1,718.6,56.3,717.5,56.3,716.1z"/>
	<ellipse class="st1" cx="53.7" cy="745" rx="2.6" ry="2.6"/>
	<path class="st1" d="M56.3,773.9c0-1.4-1.1-2.6-2.6-2.6c-1.4,0-2.6,1.1-2.6,2.6c0,1.4,1.2,2.6,2.6,2.6S56.3,775.3,56.3,773.9z"/>
	<path class="st1" d="M56.3,802.8c0-1.4-1.1-2.6-2.6-2.6c-1.4,0-2.6,1.1-2.6,2.6c0,1.4,1.2,2.6,2.6,2.6S56.3,804.2,56.3,802.8z"/>
	<ellipse class="st1" cx="53.7" cy="831.7" rx="2.6" ry="2.6"/>
	<circle class="st1" cx="53.7" cy="860.6" r="2.6"/>
	<path class="st1" d="M56.3,889.5c0-1.4-1.1-2.6-2.6-2.6c-1.4,0-2.6,1.1-2.6,2.6c0,1.4,1.2,2.6,2.6,2.6
		C55.1,892.1,56.3,890.9,56.3,889.5z"/>
	<path class="st1" d="M56.3,918.4c0-1.4-1.1-2.6-2.6-2.6c-1.4,0-2.6,1.1-2.6,2.6c0,1.4,1.2,2.6,2.6,2.6S56.3,919.8,56.3,918.4z"/>
	<ellipse class="st1" cx="53.7" cy="947.3" rx="2.6" ry="2.6"/>
	<path class="st1" d="M56.3,976.2c0-1.4-1.1-2.6-2.6-2.6c-1.4,0-2.6,1.2-2.6,2.6c0,1.4,1.2,2.6,2.6,2.6
		C55.1,978.8,56.3,977.6,56.3,976.2z"/>
	<ellipse class="st1" cx="53.7" cy="1005.1" rx="2.6" ry="2.6"/>
	<path class="st1" d="M56.3,1034c0-1.4-1.1-2.6-2.6-2.6c-1.4,0-2.6,1.2-2.6,2.6s1.2,2.6,2.6,2.6S56.3,1035.4,56.3,1034z"/>
	<ellipse class="st1" cx="24.8" cy="658.3" rx="2.6" ry="2.6"/>
	<path class="st1" d="M27.4,687.2c0-1.4-1.1-2.6-2.6-2.6c-1.4,0-2.6,1.1-2.6,2.6s1.1,2.6,2.6,2.6C26.2,689.7,27.4,688.6,27.4,687.2z
		"/>
	<path class="st1" d="M27.4,716.1c0-1.4-1.1-2.6-2.6-2.6c-1.4,0-2.6,1.1-2.6,2.6c0,1.4,1.1,2.6,2.6,2.6
		C26.2,718.6,27.4,717.5,27.4,716.1z"/>
	<circle class="st1" cx="24.8" cy="745" r="2.6"/>
	<path class="st1" d="M27.4,773.9c0-1.4-1.1-2.6-2.6-2.6c-1.4,0-2.6,1.1-2.6,2.6c0,1.4,1.1,2.6,2.6,2.6
		C26.2,776.5,27.4,775.3,27.4,773.9z"/>
	<path class="st1" d="M27.4,802.8c0-1.4-1.1-2.6-2.6-2.6c-1.4,0-2.6,1.1-2.6,2.6c0,1.4,1.1,2.6,2.6,2.6
		C26.2,805.4,27.4,804.2,27.4,802.8z"/>
	<ellipse class="st1" cx="24.8" cy="831.7" rx="2.6" ry="2.6"/>
	<ellipse class="st1" cx="24.8" cy="860.6" rx="2.6" ry="2.6"/>
	<path class="st1" d="M27.4,889.5c0-1.4-1.1-2.6-2.6-2.6c-1.4,0-2.6,1.1-2.6,2.6c0,1.4,1.1,2.6,2.6,2.6
		C26.2,892.1,27.4,890.9,27.4,889.5z"/>
	<path class="st1" d="M27.4,918.4c0-1.4-1.1-2.6-2.6-2.6c-1.4,0-2.6,1.1-2.6,2.6c0,1.4,1.1,2.6,2.6,2.6
		C26.2,921,27.4,919.8,27.4,918.4z"/>
	<circle class="st1" cx="24.8" cy="947.3" r="2.6"/>
	<path class="st1" d="M27.4,976.2c0-1.4-1.1-2.6-2.6-2.6c-1.4,0-2.6,1.2-2.6,2.6c0,1.4,1.1,2.6,2.6,2.6
		C26.2,978.8,27.4,977.6,27.4,976.2z"/>
	<circle class="st1" cx="24.8" cy="1005.1" r="2.6"/>
	<path class="st1" d="M27.4,1034c0-1.4-1.1-2.6-2.6-2.6c-1.4,0-2.6,1.2-2.6,2.6s1.1,2.6,2.6,2.6C26.2,1036.6,27.4,1035.4,27.4,1034z
		"/>
	<path class="st1" d="M-1.5,658.3c0-1.4-1.1-2.6-2.6-2.6c-1.4,0-2.6,1.1-2.6,2.6c0,1.4,1.1,2.6,2.6,2.6
		C-2.7,660.8-1.5,659.7-1.5,658.3z"/>
	<path class="st1" d="M-1.5,687.2c0-1.4-1.1-2.6-2.6-2.6c-1.4,0-2.6,1.1-2.6,2.6s1.1,2.6,2.6,2.6C-2.7,689.7-1.5,688.6-1.5,687.2z"
		/>
	<path class="st1" d="M-1.5,716.1c0-1.4-1.1-2.6-2.6-2.6c-1.4,0-2.6,1.1-2.6,2.6c0,1.4,1.1,2.6,2.6,2.6
		C-2.7,718.6-1.5,717.5-1.5,716.1z"/>
	<path class="st1" d="M-1.5,745c0-1.4-1.1-2.6-2.6-2.6c-1.4,0-2.6,1.1-2.6,2.6c0,1.4,1.1,2.6,2.6,2.6C-2.7,747.5-1.5,746.4-1.5,745z
		"/>
	<path class="st1" d="M-1.5,773.9c0-1.4-1.1-2.6-2.6-2.6c-1.4,0-2.6,1.1-2.6,2.6c0,1.4,1.1,2.6,2.6,2.6
		C-2.7,776.5-1.5,775.3-1.5,773.9z"/>
	<path class="st1" d="M-1.5,802.8c0-1.4-1.1-2.6-2.6-2.6c-1.4,0-2.6,1.1-2.6,2.6c0,1.4,1.1,2.6,2.6,2.6
		C-2.7,805.4-1.5,804.2-1.5,802.8z"/>
	<path class="st1" d="M-1.5,831.7c0-1.4-1.1-2.6-2.6-2.6c-1.4,0-2.6,1.1-2.6,2.6c0,1.4,1.1,2.6,2.6,2.6
		C-2.7,834.3-1.5,833.1-1.5,831.7z"/>
	<path class="st1" d="M-1.5,860.6c0-1.4-1.1-2.6-2.6-2.6c-1.4,0-2.6,1.1-2.6,2.6c0,1.4,1.1,2.6,2.6,2.6
		C-2.7,863.2-1.5,862-1.5,860.6z"/>
	<path class="st1" d="M-1.5,889.5c0-1.4-1.1-2.6-2.6-2.6c-1.4,0-2.6,1.1-2.6,2.6c0,1.4,1.1,2.6,2.6,2.6
		C-2.7,892.1-1.5,890.9-1.5,889.5z"/>
	<path class="st1" d="M-1.5,918.4c0-1.4-1.1-2.6-2.6-2.6c-1.4,0-2.6,1.1-2.6,2.6c0,1.4,1.1,2.6,2.6,2.6
		C-2.7,921-1.5,919.8-1.5,918.4z"/>
	<path class="st1" d="M-1.5,947.3c0-1.4-1.1-2.6-2.6-2.6c-1.4,0-2.6,1.2-2.6,2.6c0,1.4,1.1,2.6,2.6,2.6
		C-2.7,949.9-1.5,948.7-1.5,947.3z"/>
	<path class="st1" d="M-1.5,976.2c0-1.4-1.1-2.6-2.6-2.6c-1.4,0-2.6,1.2-2.6,2.6c0,1.4,1.1,2.6,2.6,2.6
		C-2.7,978.8-1.5,977.6-1.5,976.2z"/>
	<path class="st1" d="M-1.5,1005.1c0-1.4-1.1-2.6-2.6-2.6c-1.4,0-2.6,1.1-2.6,2.6c0,1.4,1.1,2.6,2.6,2.6
		C-2.7,1007.7-1.5,1006.5-1.5,1005.1z"/>
	<path class="st1" d="M-1.5,1034c0-1.4-1.1-2.6-2.6-2.6c-1.4,0-2.6,1.2-2.6,2.6s1.1,2.6,2.6,2.6C-2.7,1036.6-1.5,1035.4-1.5,1034z"
		/>
</g>
<g>
	<path class="st1" d="M137.8,305.8L137.8,305.8c4.3,0,8.2,1.8,11.2,5.1c2.3,2.5,5.3,3.9,8.6,3.9l0,0c3.2,0,6.3-1.4,8.6-3.9
		c3-3.3,6.9-5.1,11.2-5.1l0,0c4.2,0,8.2,1.8,11.2,5.1c0.7,0.7,0.6,1.9-0.1,2.5c-0.7,0.7-1.9,0.6-2.5-0.1c-2.3-2.5-5.3-3.9-8.5-3.9
		l0,0c-3.2,0-6.3,1.4-8.6,3.9c-3,3.3-6.9,5.1-11.2,5.1l0,0c-4.3,0-8.2-1.8-11.2-5.1c-2.3-2.5-5.3-3.9-8.5-3.9l0,0
		c-3.2,0-6.3,1.4-8.6,3.9c-3,3.3-6.9,5.1-11.2,5.1l0,0c-4.2,0-8.2-1.8-11.2-5.1c-4.6-5-12.6-5-17.1,0c-3,3.3-6.9,5.1-11.2,5.1l0,0
		c-4.2,0-8.2-1.8-11.2-5.1c-2.3-2.5-5.3-3.9-8.6-3.9l0,0c-3.2,0-6.3,1.4-8.6,3.9c-0.7,0.7-1.8,0.8-2.5,0.1c-0.7-0.7-0.8-1.8-0.1-2.5
		c3-3.3,6.9-5.1,11.2-5.1l0,0c4.2,0,8.2,1.8,11.2,5.1c2.3,2.5,5.3,3.9,8.6,3.9l0,0c3.2,0,6.3-1.4,8.6-3.9c5.9-6.5,16.4-6.5,22.4,0
		c2.3,2.5,5.3,3.9,8.6,3.9l0,0c3.2,0,6.3-1.4,8.6-3.9C129.6,307.6,133.6,305.8,137.8,305.8z"/>
</g>
<g>
	<path class="st1" d="M171.2,332.5L171.2,332.5c4.3,0,8.2,1.8,11.2,5.1c2.3,2.5,5.3,3.9,8.6,3.9l0,0c3.2,0,6.3-1.4,8.6-3.9
		c3-3.3,6.9-5.1,11.2-5.1l0,0c4.2,0,8.2,1.8,11.2,5.1c0.7,0.7,0.6,1.9-0.1,2.5c-0.7,0.7-1.9,0.6-2.5-0.1c-2.3-2.5-5.3-3.9-8.5-3.9
		l0,0c-3.2,0-6.3,1.4-8.6,3.9c-3,3.3-6.9,5.1-11.2,5.1l0,0c-4.3,0-8.2-1.8-11.2-5.1c-2.3-2.5-5.3-3.9-8.5-3.9l0,0
		c-3.2,0-6.3,1.4-8.6,3.9c-3,3.3-6.9,5.1-11.2,5.1l0,0c-4.2,0-8.2-1.8-11.2-5.1c-4.6-5-12.6-5-17.1,0c-3,3.3-6.9,5.1-11.2,5.1l0,0
		c-4.2,0-8.2-1.8-11.2-5.1c-2.3-2.5-5.3-3.9-8.6-3.9l0,0c-3.2,0-6.3,1.4-8.6,3.9c-0.7,0.7-1.8,0.8-2.5,0.1c-0.7-0.7-0.8-1.8-0.1-2.5
		c3-3.3,6.9-5.1,11.2-5.1l0,0c4.2,0,8.2,1.8,11.2,5.1c2.3,2.5,5.3,3.9,8.6,3.9l0,0c3.2,0,6.3-1.4,8.6-3.9c5.9-6.5,16.4-6.5,22.4,0
		c2.3,2.5,5.3,3.9,8.6,3.9l0,0c3.2,0,6.3-1.4,8.6-3.9C163,334.3,166.9,332.5,171.2,332.5z"/>
</g>
<g>
	<path class="st2" d="M233.1,499.4c4.7-10.4,16.9-15,27.3-10.4l-3.1,6.9c-6.6-3-14.3,0-17.3,6.6s0,14.3,6.6,17.3l-3.1,6.9
		C233.1,522.1,228.5,509.8,233.1,499.4z"/>
</g>
<g>
	<circle class="st1" cx="1365.2" cy="255.3" r="2.8"/>
	<circle class="st1" cx="1345.3" cy="106.6" r="2.8"/>
	<circle class="st1" cx="1480" cy="152.1" r="2.8"/>
	<ellipse class="st1" cx="1305.9" cy="308.1" rx="2.8" ry="2.8"/>
	<circle class="st1" cx="1424.4" cy="225.7" r="2.8"/>
	<circle class="st1" cx="1398.2" cy="105" r="2.8"/>
	<circle class="st1" cx="1276.8" cy="50.1" r="2.8"/>
	<circle class="st1" cx="1372.2" cy="36.1" r="2.8"/>
	<circle class="st1" cx="1304.2" cy="162.9" r="2.8"/>
	<circle class="st1" cx="1200.5" cy="220.6" r="2.8"/>
	<circle class="st1" cx="1483.5" cy="120.9" r="2.8"/>
	<circle class="st1" cx="1392.7" cy="81.9" r="2.8"/>
	<circle class="st1" cx="1307.8" cy="57.9" r="2.8"/>
	<circle class="st1" cx="1308.3" cy="115.3" r="2.8"/>
	<ellipse class="st1" cx="1348.3" cy="264.2" rx="2.8" ry="2.8"/>
	<circle class="st1" cx="1493.7" cy="171.3" r="2.8"/>
	<circle class="st1" cx="1287.2" cy="309.5" r="2.8"/>
	<circle class="st1" cx="1423.3" cy="151.7" r="2.8"/>
	<circle class="st1" cx="1364.9" cy="283.3" r="2.8"/>
	<circle class="st1" cx="1412.4" cy="255.7" r="2.8"/>
	<circle class="st1" cx="1242.2" cy="266.6" r="2.8"/>
	<circle class="st1" cx="1261.8" cy="296.9" r="2.8"/>
	<circle class="st1" cx="1402.5" cy="38.1" r="2.8"/>
	<circle class="st1" cx="1308.2" cy="236.2" r="2.8"/>
	<circle class="st1" cx="1365.5" cy="123.8" r="2.8"/>
	<circle class="st1" cx="1293.9" cy="109.7" r="2.8"/>
	<circle class="st1" cx="1363.9" cy="142.7" r="2.8"/>
	<circle class="st1" cx="1400.6" cy="75.2" r="2.8"/>
	<circle class="st1" cx="1197.2" cy="191.9" r="2.8"/>
	<circle class="st1" cx="1353.9" cy="164.6" r="2.8"/>
	<circle class="st1" cx="1384.8" cy="287.6" r="2.8"/>
	<circle class="st1" cx="1326" cy="244.9" r="2.8"/>
	<circle class="st1" cx="1394.9" cy="233.5" r="2.8"/>
	<circle class="st1" cx="1322.4" cy="182.8" r="2.8"/>
	<circle class="st1" cx="1231" cy="104.8" r="2.8"/>
	<circle class="st1" cx="1310.9" cy="22.9" r="2.8"/>
	<circle class="st1" cx="1255.7" cy="95.5" r="2.8"/>
	<circle class="st1" cx="1244.7" cy="210.7" r="2.8"/>
	<circle class="st1" cx="1417.9" cy="176.5" r="2.8"/>
	<circle class="st1" cx="1295.4" cy="90.1" r="2.8"/>
	<circle class="st1" cx="1388.9" cy="164.6" r="2.8"/>
	<circle class="st1" cx="1251.3" cy="118.9" r="2.8"/>
	<circle class="st1" cx="1289.4" cy="167.6" r="2.8"/>
	<circle class="st1" cx="1351.1" cy="87.8" r="2.8"/>
	<circle class="st1" cx="1463.1" cy="121.5" r="2.8"/>
	<circle class="st1" cx="1404.3" cy="62" r="2.8"/>
	<circle class="st1" cx="1207.5" cy="144.1" r="2.8"/>
	<circle class="st1" cx="1433.8" cy="112.9" r="2.8"/>
	<circle class="st1" cx="1464.2" cy="172.2" r="2.8"/>
	<circle class="st1" cx="1235.6" cy="168.5" r="2.8"/>
	<circle class="st1" cx="1377.3" cy="303.9" r="2.8"/>
	<circle class="st1" cx="1414.4" cy="83.4" r="2.8"/>
	<circle class="st1" cx="1334.3" cy="309.9" r="2.8"/>
	<circle class="st1" cx="1405.9" cy="215.8" r="2.8"/>
	<circle class="st1" cx="1485.1" cy="195.7" r="2.8"/>
	<circle class="st1" cx="1327.9" cy="89.6" r="2.8"/>
	<circle class="st1" cx="1247.4" cy="138.7" r="2.8"/>
	<circle class="st1" cx="1321.9" cy="127.8" r="2.8"/>
	<circle class="st1" cx="1424.3" cy="239.9" r="2.8"/>
	<circle class="st1" cx="1267.9" cy="38.1" r="2.8"/>
	<circle class="st1" cx="1220.2" cy="202.8" r="2.8"/>
	<circle class="st1" cx="1364.6" cy="170" r="2.8"/>
	<circle class="st1" cx="1448.3" cy="79.7" r="2.8"/>
	<circle class="st1" cx="1423.9" cy="251.4" r="2.8"/>
	<circle class="st1" cx="1214.1" cy="181.9" r="2.8"/>
	<circle class="st1" cx="1304.8" cy="260.1" r="2.8"/>
	<circle class="st1" cx="1431.6" cy="286" r="2.8"/>
	<circle class="st1" cx="1325.7" cy="65" r="2.8"/>
	<circle class="st1" cx="1360.1" cy="298.2" r="2.8"/>
	<circle class="st1" cx="1445.3" cy="257.5" r="2.8"/>
	<circle class="st1" cx="1194.1" cy="165.9" r="2.8"/>
	<circle class="st1" cx="1400" cy="185.5" r="2.8"/>
	<circle class="st1" cx="1283" cy="72.4" r="2.8"/>
	<circle class="st1" cx="1312.9" cy="36.8" r="2.8"/>
	<circle class="st1" cx="1459.5" cy="143.5" r="2.8"/>
	<circle class="st1" cx="1243.4" cy="240.7" r="2.8"/>
	<circle class="st1" cx="1439.1" cy="184.7" r="2.8"/>
	<circle class="st1" cx="1307.8" cy="200.1" r="2.8"/>
	<circle class="st1" cx="1455.4" cy="195.2" r="2.8"/>
	<circle class="st1" cx="1264.9" cy="254.7" r="2.8"/>
	<circle class="st1" cx="1377.8" cy="77.8" r="2.8"/>
	<circle class="st1" cx="1234.5" cy="221.8" r="2.8"/>
	<circle class="st1" cx="1319.3" cy="298.8" r="2.8"/>
	<circle class="st1" cx="1358.5" cy="131.9" r="2.8"/>
	<circle class="st1" cx="1440.6" cy="165.4" r="2.8"/>
	<circle class="st1" cx="1433.9" cy="62" r="2.8"/>
	<ellipse class="st1" cx="1263.2" cy="78.1" rx="2.8" ry="2.8"/>
	<circle class="st1" cx="1275.2" cy="105" r="2.8"/>
	<circle class="st1" cx="1190.5" cy="136.8" r="2.8"/>
	<circle class="st1" cx="1373.5" cy="146" r="2.8"/>
	<circle class="st1" cx="1371.7" cy="108" r="2.8"/>
	<circle class="st1" cx="1290.4" cy="278.7" r="2.8"/>
	<circle class="st1" cx="1230.4" cy="153.6" r="2.8"/>
	<circle class="st1" cx="1398.5" cy="273" r="2.8"/>
	<circle class="st1" cx="1344.2" cy="131.5" r="2.8"/>
	<circle class="st1" cx="1387.1" cy="24" r="2.8"/>
	<circle class="st1" cx="1393.1" cy="124.3" r="2.8"/>
	<circle class="st1" cx="1271.9" cy="279.8" r="2.8"/>
	<circle class="st1" cx="1339.8" cy="290.3" r="2.8"/>
	<circle class="st1" cx="1265.9" cy="165.1" r="2.8"/>
	<circle class="st1" cx="1421.9" cy="125.9" r="2.8"/>
	<circle class="st1" cx="1387.7" cy="318.6" r="2.8"/>
	<ellipse class="st1" cx="1438.8" cy="141.7" rx="2.8" ry="2.8"/>
	<circle class="st1" cx="1384.3" cy="213.3" r="2.8"/>
	<circle class="st1" cx="1235.2" cy="184.5" r="2.8"/>
	<circle class="st1" cx="1259.5" cy="183.4" r="2.8"/>
	<circle class="st1" cx="1244.5" cy="74.7" r="2.8"/>
	<circle class="st1" cx="1290.5" cy="236.5" r="2.8"/>
	<circle class="st1" cx="1310.2" cy="77.5" r="2.8"/>
	<circle class="st1" cx="1395.6" cy="253.1" r="2.8"/>
	<circle class="st1" cx="1443.4" cy="212.2" r="2.8"/>
	<circle class="st1" cx="1330.8" cy="274.7" r="2.8"/>
	<circle class="st1" cx="1437.6" cy="266.1" r="2.8"/>
	<circle class="st1" cx="1337.2" cy="176.7" r="2.8"/>
	<circle class="st1" cx="1367.9" cy="228.3" r="2.8"/>
	<circle class="st1" cx="1325.5" cy="211.4" r="2.8"/>
	<circle class="st1" cx="1328.4" cy="230.9" r="2.8"/>
	<circle class="st1" cx="1249.6" cy="279.4" r="2.8"/>
	<circle class="st1" cx="1315.1" cy="159.4" r="2.8"/>
	<circle class="st1" cx="1309.4" cy="318.6" r="2.8"/>
	<circle class="st1" cx="1340" cy="56.9" r="2.8"/>
	<circle class="st1" cx="1334.1" cy="28" r="2.8"/>
	<circle class="st1" cx="1485.4" cy="224.5" r="2.8"/>
	<circle class="st1" cx="1215.9" cy="225" r="2.8"/>
	<circle class="st1" cx="1280.4" cy="185.5" r="2.8"/>
	<circle class="st1" cx="1211.8" cy="164.2" r="2.8"/>
	<circle class="st1" cx="1447.5" cy="98.9" r="2.8"/>
	<circle class="st1" cx="1286.5" cy="35.2" r="2.8"/>
	<circle class="st1" cx="1386.7" cy="51.6" r="2.8"/>
	<circle class="st1" cx="1278.5" cy="254.6" r="2.8"/>
	<circle class="st1" cx="1368" cy="207.3" r="2.8"/>
	<circle class="st1" cx="1360.6" cy="72.9" r="2.8"/>
	<circle class="st1" cx="1388.5" cy="202.1" r="2.8"/>
	<circle class="st1" cx="1250.5" cy="55.5" r="2.8"/>
	<circle class="st1" cx="1221.5" cy="125.2" r="2.8"/>
	<circle class="st1" cx="1224.5" cy="86.5" r="2.8"/>
	<circle class="st1" cx="1403.5" cy="152.7" r="2.8"/>
	<circle class="st1" cx="1449" cy="278.4" r="2.8"/>
	<circle class="st1" cx="1235" cy="63.6" r="2.8"/>
	<circle class="st1" cx="1298.9" cy="146.8" r="2.8"/>
	<circle class="st1" cx="1411.4" cy="287.3" r="2.8"/>
	<circle class="st1" cx="1348.9" cy="42.9" r="2.8"/>
	<circle class="st1" cx="1281.9" cy="133.3" r="2.8"/>
	<circle class="st1" cx="1273.1" cy="209.7" r="2.8"/>
	<circle class="st1" cx="1381.9" cy="265.8" r="2.8"/>
	<circle class="st1" cx="1210.7" cy="101.9" r="2.8"/>
	<circle class="st1" cx="1334.3" cy="149.8" r="2.8"/>
	<circle class="st1" cx="1275.6" cy="227.6" r="2.8"/>
	<circle class="st1" cx="1425.6" cy="47.9" r="2.8"/>
	<circle class="st1" cx="1204.1" cy="118.8" r="2.8"/>
	<circle class="st1" cx="1294.6" cy="210" r="2.8"/>
	<circle class="st1" cx="1350" cy="241.4" r="2.8"/>
	<circle class="st1" cx="1466.3" cy="255.6" r="2.8"/>
	<circle class="st1" cx="1354.2" cy="22.8" r="2.8"/>
	<circle class="st1" cx="1475.6" cy="105.4" r="2.8"/>
	<circle class="st1" cx="1485.1" cy="208.5" r="2.8"/>
	<circle class="st1" cx="1217.2" cy="245.8" r="2.8"/>
	<circle class="st1" cx="1351.9" cy="195.3" r="2.8"/>
	<ellipse class="st1" cx="1492.9" cy="142.2" rx="2.8" ry="2.8"/>
	<circle class="st1" cx="1465.3" cy="213.6" r="2.8"/>
	<circle class="st1" cx="1463.2" cy="240.9" r="2.8"/>
	<circle class="st1" cx="1434.1" cy="92" r="2.8"/>
	<circle class="st1" cx="1347.5" cy="218.1" r="2.8"/>
</g>
<g>
	<path class="st2" d="M1092.4,745.1c-0.1,0.1-0.1,0.2-0.2,0.3s-0.1,0.2-0.2,0.3c0,0.1,0,0.2,0,0.3s0,0.3,0,0.4l26.3,78
		c0.2,0.5,0.6,0.8,1.1,0.9l81.1,16c0.4,0.1,0.7,0,1-0.3c0.1-0.1,0.2-0.1,0.3-0.2l0,0l0,0l54-62.1c0.3-0.4,0.4-0.9,0.3-1.4l-26.3-78
		l0,0l0,0c-0.1-0.2-0.2-0.4-0.4-0.6c0,0,0,0-0.1,0h-0.1c-0.1-0.1-0.3-0.2-0.5-0.2l-81.1-16c-0.5-0.1-1,0.1-1.3,0.5L1092.4,745.1z
		 M1120.9,822.8l-25.3-74.9l28,5.5l50,9.9l25.3,74.9L1120.9,822.8z M1253.4,777.7l-51.9,59.6l-25.3-74.9l13.6-15.6l38.3-44
		L1253.4,777.7z M1226,700.9l-44.7,51.4l-7.2,8.3l-78-15.4l51.9-59.7L1226,700.9z"/>
</g>
<g>
	<g>
		<path class="st3" d="M839.1,777.7L839.1,777.7c5.5,0,10.6,2.3,14.5,6.5c3,3.3,6.9,5,11.1,5l0,0c4.2,0,8.1-1.8,11.1-5
			c3.9-4.2,9-6.5,14.5-6.5l0,0c5.5,0,10.6,2.3,14.5,6.5c0.9,0.9,0.8,2.4-0.2,3.3c-0.9,0.9-2.4,0.8-3.3-0.2c-2.9-3.2-6.9-5-11.1-5
			l0,0c-4.2,0-8.1,1.8-11.1,5c-3.8,4.2-9,6.5-14.5,6.5l0,0c-5.5,0-10.6-2.3-14.5-6.5c-3-3.2-6.9-5-11.1-5l0,0c-4.2,0-8.1,1.8-11.1,5
			c-3.8,4.2-9,6.5-14.5,6.5l0,0c-5.5,0-10.7-2.3-14.5-6.5c-5.9-6.5-16.3-6.5-22.2,0c-3.8,4.2-9,6.5-14.5,6.5l0,0
			c-5.5,0-10.7-2.3-14.5-6.5c-3-3.3-6.9-5-11.1-5l0,0c-4.2,0-8.1,1.8-11.1,5c-0.9,0.9-2.3,1-3.3,0.2c-0.9-0.9-1-2.3-0.2-3.2
			c3.8-4.2,9-6.5,14.5-6.5l0,0c5.5,0,10.7,2.3,14.5,6.5c3,3.3,6.9,5,11.1,5l0,0c4.2,0,8.1-1.8,11.1-5c7.7-8.4,21.3-8.4,29,0
			c3,3.3,6.9,5,11.1,5l0,0c4.2,0,8.1-1.8,11.1-5C828.4,780,833.6,777.7,839.1,777.7z"/>
	</g>
	<g>
		<path class="st3" d="M839.1,725.7L839.1,725.7c5.5,0,10.6,2.3,14.5,6.5c3,3.3,6.9,5,11.1,5l0,0c4.2,0,8.1-1.8,11.1-5
			c3.9-4.2,9-6.5,14.5-6.5l0,0c5.5,0,10.6,2.3,14.5,6.5c0.9,0.9,0.8,2.4-0.2,3.3c-0.9,0.9-2.4,0.8-3.3-0.2c-2.9-3.2-6.9-5-11.1-5
			l0,0c-4.2,0-8.1,1.8-11.1,5c-3.8,4.2-9,6.5-14.5,6.5l0,0c-5.5,0-10.6-2.3-14.5-6.5c-3-3.3-6.9-5-11.1-5l0,0c-4.2,0-8.1,1.8-11.1,5
			c-3.8,4.2-9,6.5-14.5,6.5l0,0c-5.5,0-10.7-2.3-14.5-6.5c-5.9-6.5-16.3-6.5-22.2,0c-3.8,4.2-9,6.5-14.5,6.5l0,0
			c-5.5,0-10.7-2.3-14.5-6.5c-3-3.3-6.9-5-11.1-5l0,0c-4.2,0-8.1,1.8-11.1,5c-0.9,0.9-2.3,1-3.3,0.2c-0.9-0.9-1-2.3-0.2-3.3
			c3.8-4.2,9-6.5,14.5-6.5l0,0c5.5,0,10.7,2.3,14.5,6.5c3,3.3,6.9,5,11.1,5l0,0c4.2,0,8.1-1.8,11.1-5c7.7-8.4,21.3-8.4,29,0
			c3,3.3,6.9,5,11.1,5l0,0c4.2,0,8.1-1.8,11.1-5C828.4,728,833.6,725.7,839.1,725.7z"/>
	</g>
	<g>
		<path class="st3" d="M839.1,752.1L839.1,752.1c5.5,0,10.6,2.3,14.5,6.5c3,3.3,6.9,5,11.1,5l0,0c4.2,0,8.1-1.8,11.1-5
			c3.9-4.2,9-6.5,14.5-6.5l0,0c5.5,0,10.6,2.3,14.5,6.5c0.9,0.9,0.8,2.4-0.2,3.3c-0.9,0.9-2.4,0.8-3.3-0.2c-2.9-3.2-6.9-5-11.1-5
			l0,0c-4.2,0-8.1,1.8-11.1,5c-3.8,4.2-9,6.5-14.5,6.5l0,0c-5.5,0-10.6-2.3-14.5-6.5c-3-3.3-6.9-5-11.1-5l0,0c-4.2,0-8.1,1.8-11.1,5
			c-3.8,4.2-9,6.5-14.5,6.5l0,0c-5.5,0-10.7-2.3-14.5-6.5c-5.9-6.5-16.3-6.5-22.2,0c-3.8,4.2-9,6.5-14.5,6.5l0,0
			c-5.5,0-10.7-2.3-14.5-6.5c-3-3.3-6.9-5-11.1-5l0,0c-4.2,0-8.1,1.8-11.1,5c-0.9,0.9-2.3,1-3.3,0.2c-0.9-0.9-1-2.3-0.2-3.3
			c3.8-4.2,9-6.5,14.5-6.5l0,0c5.5,0,10.7,2.3,14.5,6.5c3,3.3,6.9,5,11.1,5l0,0c4.2,0,8.1-1.8,11.1-5c7.7-8.4,21.3-8.4,29,0
			c3,3.3,6.9,5,11.1,5l0,0c4.2,0,8.1-1.8,11.1-5C828.4,754.4,833.6,752.1,839.1,752.1z"/>
	</g>
</g>
<path class="st3" d="M1459.2,741.7c-2,1.1-2.6,3.6-1.5,5.6s3.6,2.6,5.6,1.5s2.6-3.6,1.5-5.6C1463.7,741.3,1461.2,740.6,1459.2,741.7
	z M1531.1,867.3c-2,1.1-2.6,3.6-1.5,5.6s3.6,2.6,5.6,1.5s2.6-3.6,1.5-5.6C1535.5,866.9,1533,866.2,1531.1,867.3z M1508.6,852.4
	c-2,1.1-2.6,3.6-1.5,5.6s3.6,2.6,5.6,1.5s2.6-3.6,1.5-5.6S1510.6,851.3,1508.6,852.4z M1532.6,894.2c-2,1.1-2.6,3.6-1.5,5.6
	s3.6,2.6,5.6,1.5s2.6-3.6,1.5-5.6S1534.6,893.1,1532.6,894.2z M1483.2,783.6c-2,1.1-2.6,3.6-1.5,5.6s3.6,2.6,5.6,1.5
	s2.6-3.6,1.5-5.6C1487.6,783.1,1485.1,782.5,1483.2,783.6z M1505.6,798.5c-2,1.1-2.6,3.6-1.5,5.6s3.6,2.6,5.6,1.5s2.6-3.6,1.5-5.6
	C1510.1,798.1,1507.6,797.4,1505.6,798.5z M1459.5,722.4l-3.2-1.8C1457.1,721.7,1458.2,722.3,1459.5,722.4z M1507.1,825.4
	c-2,1.1-2.6,3.6-1.5,5.6s3.6,2.6,5.6,1.5s2.6-3.6,1.5-5.6C1511.6,825,1509.1,824.3,1507.1,825.4z M1484.7,810.5
	c-2,1.1-2.6,3.6-1.5,5.6s3.6,2.6,5.6,1.5s2.6-3.6,1.5-5.6C1489.1,810.1,1486.6,809.4,1484.7,810.5z M1481.7,756.7
	c-2,1.1-2.6,3.6-1.5,5.6s3.6,2.6,5.6,1.5s2.6-3.6,1.5-5.6C1486.1,756.2,1483.6,755.5,1481.7,756.7z M1460.7,768.6
	c-2,1.1-2.6,3.6-1.5,5.6s3.6,2.6,5.6,1.5s2.6-3.6,1.5-5.6C1465.2,768.2,1462.7,767.5,1460.7,768.6z M1438.3,753.7
	c-2,1.1-2.6,3.6-1.5,5.6s3.6,2.6,5.6,1.5s2.6-3.6,1.5-5.6C1442.7,753.3,1440.2,752.6,1438.3,753.7z M1487.7,864.3
	c-2,1.1-2.6,3.6-1.5,5.6s3.6,2.6,5.6,1.5s2.6-3.6,1.5-5.6C1492.2,863.9,1489.7,863.2,1487.7,864.3z M1511.7,906.2
	c-2,1.1-2.6,3.6-1.5,5.6s3.6,2.6,5.6,1.5s2.6-3.6,1.5-5.6S1513.6,905.1,1511.7,906.2z M1462.2,795.6c-2,1.1-2.6,3.6-1.5,5.6
	s3.6,2.6,5.6,1.5s2.6-3.6,1.5-5.6S1464.2,794.4,1462.2,795.6z M1436.8,726.8c-2,1.1-2.6,3.6-1.5,5.6s3.6,2.6,5.6,1.5
	s2.6-3.6,1.5-5.6C1441.2,726.3,1438.7,725.7,1436.8,726.8z M1424.5,704.3c-2,1.1-2.6,3.6-1.5,5.6s3.6,2.6,5.6,1.5s2.6-3.6,1.5-5.6
	C1428.9,703.8,1426.4,703.2,1424.5,704.3z M1486.2,837.4c-2,1.1-2.6,3.6-1.5,5.6s3.6,2.6,5.6,1.5s2.6-3.6,1.5-5.6
	C1490.7,837,1488.2,836.3,1486.2,837.4z M1510.2,879.3c-2,1.1-2.6,3.6-1.5,5.6s3.6,2.6,5.6,1.5s2.6-3.6,1.5-5.6
	C1514.6,878.8,1512.1,878.2,1510.2,879.3z M1504.1,771.6c-2,1.1-2.6,3.6-1.5,5.6s3.6,2.6,5.6,1.5s2.6-3.6,1.5-5.6
	C1508.6,771.2,1506.1,770.5,1504.1,771.6z M1553.5,882.3c-2,1.1-2.6,3.6-1.5,5.6s3.6,2.6,5.6,1.5s2.6-3.6,1.5-5.6
	S1555.5,881.1,1553.5,882.3z M1595.4,858.3c-2,1.1-2.6,3.6-1.5,5.6s3.6,2.6,5.6,1.5s2.6-3.6,1.5-5.6
	C1599.8,857.9,1597.4,857.2,1595.4,858.3z M1549,801.5c-2,1.1-2.6,3.6-1.5,5.6s3.6,2.6,5.6,1.5s2.6-3.6,1.5-5.6
	C1553.4,801,1551,800.4,1549,801.5z M1529.1,766.7c1-0.6,1.7-1.6,1.9-2.6l-6.7-3.9c-1.4,1.3-1.8,3.3-0.8,5
	C1524.6,767.1,1527.1,767.8,1529.1,766.7z M1659.7,849.3c-2,1.1-2.6,3.6-1.5,5.6c0.8,1.4,2.4,2.2,3.9,2l2.9-1.7
	c0.9-1.3,1.1-3,0.2-4.4C1664.2,848.8,1661.7,848.2,1659.7,849.3z M1550.5,828.4c-2,1.1-2.6,3.6-1.5,5.6s3.6,2.6,5.6,1.5
	s2.6-3.6,1.5-5.6C1555,828,1552.5,827.3,1550.5,828.4z M1429.5,981c-2,1.1-2.6,3.6-1.5,5.6c0.8,1.4,2.4,2.2,3.9,2l2.9-1.7
	c0.9-1.3,1.1-3,0.2-4.4C1433.9,980.6,1431.4,979.9,1429.5,981z M1423.4,873.4c-1.1,0.6-1.8,1.7-2,2.9v1.3c0.1,0.5,0.2,0.9,0.5,1.4
	c1.1,2,3.6,2.6,5.6,1.5s2.6-3.6,1.5-5.6C1427.9,872.9,1425.4,872.2,1423.4,873.4z M1571.4,816.4c-2,1.1-2.6,3.6-1.5,5.6
	s3.6,2.6,5.6,1.5s2.6-3.6,1.5-5.6C1575.9,816,1573.4,815.3,1571.4,816.4z M1573,843.4c-2,1.1-2.6,3.6-1.5,5.6s3.6,2.6,5.6,1.5
	s2.6-3.6,1.5-5.6C1577.4,842.9,1574.9,842.2,1573,843.4z M1552,855.3c-2,1.1-2.6,3.6-1.5,5.6s3.6,2.6,5.6,1.5s2.6-3.6,1.5-5.6
	C1556.5,854.9,1554,854.2,1552,855.3z M1463.8,822.5c-2,1.1-2.6,3.6-1.5,5.6s3.6,2.6,5.6,1.5s2.6-3.6,1.5-5.6
	C1468.2,822,1465.7,821.4,1463.8,822.5z M1574.5,870.3c-2,1.1-2.6,3.6-1.5,5.6s3.6,2.6,5.6,1.5s2.6-3.6,1.5-5.6
	S1576.4,869.2,1574.5,870.3z M1529.6,840.4c-2,1.1-2.6,3.6-1.5,5.6s3.6,2.6,5.6,1.5s2.6-3.6,1.5-5.6
	C1534,839.9,1531.5,839.3,1529.6,840.4z M1484.2,736.8L1484.2,736.8l-6.1-3.6c0,0.7,0.1,1.4,0.5,2.1
	C1479.8,737.3,1482.2,737.9,1484.2,736.8z M1526.6,786.5c-2,1.1-2.6,3.6-1.5,5.6s3.6,2.6,5.6,1.5s2.6-3.6,1.5-5.6
	C1531,786.1,1528.5,785.4,1526.6,786.5z M1528.1,813.5c-2,1.1-2.6,3.6-1.5,5.6s3.6,2.6,5.6,1.5s2.6-3.6,1.5-5.6
	C1532.5,813,1530,812.3,1528.1,813.5z M1506.6,751.8c0.5-0.3,0.9-0.7,1.3-1.2l-7-4.1c-0.5,1.2-0.5,2.5,0.2,3.7
	C1502.2,752.2,1504.7,752.9,1506.6,751.8z M1638.8,861.3c-2,1.1-2.6,3.6-1.5,5.6c0.8,1.4,2.4,2.2,3.9,2l2.9-1.7
	c0.9-1.3,1.1-3,0.2-4.4C1643.2,860.8,1640.7,860.1,1638.8,861.3z M1534.1,921.1c-2,1.1-2.6,3.6-1.5,5.6c0.8,1.4,2.4,2.2,3.9,2
	l2.9-1.7c0.9-1.3,1.1-3,0.2-4.4C1538.6,920.7,1536.1,920,1534.1,921.1z M1513.2,933.1c-2,1.1-2.6,3.6-1.5,5.6c0.8,1.4,2.4,2.2,3.9,2
	l2.9-1.7c0.9-1.3,1.1-3,0.2-4.4C1517.6,932.7,1515.1,932,1513.2,933.1z M1555.1,909.2c-2,1.1-2.6,3.6-1.5,5.6c0.8,1.4,2.4,2.2,3.9,2
	l2.9-1.7c0.9-1.3,1.1-3,0.2-4.4C1559.5,908.7,1557,908.1,1555.1,909.2z M1576,897.2c-2,1.1-2.6,3.6-1.5,5.6c0.8,1.4,2.4,2.2,3.9,2
	l2.9-1.7c0.9-1.3,1.1-3,0.2-4.4C1580.4,896.8,1577.9,896.1,1576,897.2z M1471.3,957.1c-2,1.1-2.6,3.6-1.5,5.6c0.8,1.4,2.4,2.2,3.9,2
	l2.9-1.7c0.9-1.3,1.1-3,0.2-4.4C1475.8,956.7,1473.3,956,1471.3,957.1z M1492.3,945.1c-2,1.1-2.6,3.6-1.5,5.6c0.8,1.4,2.4,2.2,3.9,2
	l2.9-1.7c0.9-1.3,1.1-3,0.2-4.4C1496.7,944.7,1494.2,944,1492.3,945.1z M1450.4,969.1c-2,1.1-2.6,3.6-1.5,5.6c0.8,1.4,2.4,2.2,3.9,2
	l2.9-1.7c0.9-1.3,1.1-3,0.2-4.4C1454.8,968.6,1452.3,967.9,1450.4,969.1z M1427.9,954.1c-2,1.1-2.6,3.6-1.5,5.6s3.6,2.6,5.6,1.5
	s2.6-3.6,1.5-5.6S1429.9,953,1427.9,954.1z M1596.9,885.2c-2,1.1-2.6,3.6-1.5,5.6c0.8,1.4,2.4,2.2,3.9,2l2.9-1.7
	c0.9-1.3,1.1-3,0.2-4.4C1601.4,884.8,1598.9,884.1,1596.9,885.2z M1637.3,834.3c-2,1.1-2.6,3.6-1.5,5.6s3.6,2.6,5.6,1.5
	s2.6-3.6,1.5-5.6S1639.2,833.2,1637.3,834.3z M1592.4,804.5c-2,1.1-2.6,3.6-1.5,5.6s3.6,2.6,5.6,1.5s2.6-3.6,1.5-5.6
	C1596.8,804,1594.3,803.3,1592.4,804.5z M1614.8,819.4c-2,1.1-2.6,3.6-1.5,5.6s3.6,2.6,5.6,1.5s2.6-3.6,1.5-5.6
	C1619.3,819,1616.8,818.3,1614.8,819.4z M1426.4,927.2c-2,1.1-2.6,3.6-1.5,5.6s3.6,2.6,5.6,1.5s2.6-3.6,1.5-5.6
	C1430.9,926.8,1428.4,926.1,1426.4,927.2z M1617.8,873.2c-2,1.1-2.6,3.6-1.5,5.6c0.8,1.4,2.4,2.2,3.9,2l2.9-1.7
	c0.9-1.3,1.1-3,0.2-4.4C1622.3,872.8,1619.8,872.1,1617.8,873.2z M1551.5,781.7c1.6-0.9,2.3-2.8,1.9-4.5l-5-2.9
	c-0.3,0.1-0.6,0.2-0.9,0.4c-2,1.1-2.6,3.6-1.5,5.6C1547.1,782.1,1549.6,782.8,1551.5,781.7z M1593.9,831.4c-2,1.1-2.6,3.6-1.5,5.6
	s3.6,2.6,5.6,1.5s2.6-3.6,1.5-5.6C1598.3,830.9,1595.8,830.3,1593.9,831.4z M1569.9,789.5c-2,1.1-2.6,3.6-1.5,5.6s3.6,2.6,5.6,1.5
	s2.6-3.6,1.5-5.6C1574.4,789.1,1571.9,788.4,1569.9,789.5z M1616.3,846.3c-2,1.1-2.6,3.6-1.5,5.6s3.6,2.6,5.6,1.5s2.6-3.6,1.5-5.6
	S1618.3,845.2,1616.3,846.3z M1469.8,930.2c-2,1.1-2.6,3.6-1.5,5.6s3.6,2.6,5.6,1.5s2.6-3.6,1.5-5.6S1471.8,929,1469.8,930.2z
	 M1442.8,834.5c-2,1.1-2.6,3.6-1.5,5.6s3.6,2.6,5.6,1.5s2.6-3.6,1.5-5.6S1444.8,833.3,1442.8,834.5z M1421.7,800.1
	c0.4-0.1,0.8-0.2,1.2-0.4c2-1.1,2.6-3.6,1.5-5.6c-0.6-1-1.6-1.7-2.7-1.9V800.1z M1441.3,807.5c-2,1.1-2.6,3.6-1.5,5.6
	s3.6,2.6,5.6,1.5s2.6-3.6,1.5-5.6C1445.8,807.1,1443.3,806.4,1441.3,807.5z M1490.7,918.2c-2,1.1-2.6,3.6-1.5,5.6s3.6,2.6,5.6,1.5
	s2.6-3.6,1.5-5.6S1492.7,917.1,1490.7,918.2z M1466.8,876.3c-2,1.1-2.6,3.6-1.5,5.6s3.6,2.6,5.6,1.5s2.6-3.6,1.5-5.6
	C1471.2,875.9,1468.7,875.2,1466.8,876.3z M1448.9,942.1c-2,1.1-2.6,3.6-1.5,5.6s3.6,2.6,5.6,1.5s2.6-3.6,1.5-5.6
	S1450.8,941,1448.9,942.1z M1489.2,891.3c-2,1.1-2.6,3.6-1.5,5.6s3.6,2.6,5.6,1.5s2.6-3.6,1.5-5.6S1491.2,890.1,1489.2,891.3z
	 M1465.3,849.4c-2,1.1-2.6,3.6-1.5,5.6s3.6,2.6,5.6,1.5s2.6-3.6,1.5-5.6C1469.7,849,1467.2,848.3,1465.3,849.4z M1421.8,772.5
	c1.6-1.2,2.1-3.5,1.1-5.3c-0.3-0.5-0.7-0.9-1.1-1.2V772.5z M1445.9,888.3c-2,1.1-2.6,3.6-1.5,5.6s3.6,2.6,5.6,1.5s2.6-3.6,1.5-5.6
	C1450.3,887.9,1447.8,887.2,1445.9,888.3z M1447.4,915.2c-2,1.1-2.6,3.6-1.5,5.6s3.6,2.6,5.6,1.5s2.6-3.6,1.5-5.6
	C1451.8,914.8,1449.3,914.1,1447.4,915.2z M1439.8,780.6c-2,1.1-2.6,3.6-1.5,5.6s3.6,2.6,5.6,1.5s2.6-3.6,1.5-5.6
	C1444.3,780.2,1441.8,779.5,1439.8,780.6z M1424.9,900.3c-2,1.1-2.6,3.6-1.5,5.6s3.6,2.6,5.6,1.5s2.6-3.6,1.5-5.6
	S1426.9,899.2,1424.9,900.3z M1468.3,903.2c-2,1.1-2.6,3.6-1.5,5.6s3.6,2.6,5.6,1.5s2.6-3.6,1.5-5.6
	C1472.7,902.8,1470.3,902.1,1468.3,903.2z M1444.3,861.4c-2,1.1-2.6,3.6-1.5,5.6s3.6,2.6,5.6,1.5s2.6-3.6,1.5-5.6
	S1446.3,860.3,1444.3,861.4z M1421.9,846.4c-0.1,0.1-0.2,0.2-0.4,0.3v6.6c1.3,0.9,3,1.1,4.4,0.3c2-1.1,2.6-3.6,1.5-5.6
	S1423.9,845.3,1421.9,846.4z M1421.6,819.1v8c0.9,0.2,1.9,0.1,2.8-0.4c2-1.1,2.6-3.6,1.5-5.6
	C1425.1,819.5,1423.3,818.8,1421.6,819.1z"/>
<g>
	<path class="st1" d="M535.6,200.8c0-0.1,0-0.2,0-0.3s0-0.2,0-0.3s-0.1-0.2-0.1-0.2c-0.1-0.1-0.1-0.2-0.2-0.3l-48.8-49.5
		c-0.3-0.3-0.7-0.4-1.1-0.3l-67.5,17.8c-0.3,0.1-0.5,0.3-0.7,0.6c0,0.1-0.1,0.2-0.1,0.3l0,0l0,0L399,235.7c-0.1,0.4,0,0.8,0.3,1.1
		l48.8,49.5l0,0l0,0c0.1,0.1,0.3,0.3,0.5,0.3c0,0,0,0,0.1,0h0.1c0.1,0,0.3,0,0.4,0l67.5-17.8c0.4-0.1,0.7-0.4,0.8-0.8L535.6,200.8z
		 M485.3,152.3l46.9,47.5l-23.3,6.1l-41.6,11l-46.9-47.5L485.3,152.3z M401.4,235.6l17.3-64.5l46.9,47.5l-4.5,16.9l-12.8,47.6
		L401.4,235.6z M450.5,283.7l14.9-55.5l2.4-9l64.9-17.1l-17.4,64.5L450.5,283.7z"/>
</g>
</svg>
