<?xml version="1.0" encoding="utf-8"?>
<!-- Generator: Adobe Illustrator 21.0.0, SVG Export Plug-In . SVG Version: 6.00 Build 0)  -->
<svg version="1.1" id="Слой_1" xmlns="http://www.w3.org/2000/svg" xmlns:xlink="http://www.w3.org/1999/xlink" x="0px" y="0px"
	 viewBox="0 0 1920 1080" style="enable-background:new 0 0 1920 1080;" xml:space="preserve">
<style type="text/css">
	.st0{display:none;}
	.st1{display:inline;fill:#FFFFFF;}
	.st2{display:inline;fill:#857874;}
	.st3{display:inline;}
	.st4{fill:#808080;}
	.st5{display:none;fill:#808080;}
	.st6{fill:#FFFFFF;}
	.st7{fill:none;stroke:#000000;stroke-width:3;stroke-miterlimit:10;}
	.st8{fill:#857874;}
</style>
<rect class="st0" width="1920" height="1080"/>
<g class="st0">
	<ellipse class="st1" cx="863" cy="658.3" rx="2.6" ry="2.6"/>
	<ellipse class="st1" cx="863" cy="687.2" rx="2.6" ry="2.6"/>
	<path class="st1" d="M865.6,716.1c0-1.4-1.2-2.6-2.6-2.6c-1.4,0-2.6,1.2-2.6,2.6c0,1.4,1.1,2.6,2.6,2.6
		C864.4,718.6,865.6,717.5,865.6,716.1z"/>
	<circle class="st1" cx="863" cy="745" r="2.6"/>
	<ellipse class="st1" cx="863" cy="773.9" rx="2.6" ry="2.6"/>
	<path class="st1" d="M865.6,802.8c0-1.4-1.1-2.6-2.6-2.6c-1.4,0-2.6,1.1-2.6,2.6c0,1.4,1.1,2.6,2.6,2.6
		C864.4,805.4,865.6,804.2,865.6,802.8z"/>
	<path class="st1" d="M865.6,831.7c0-1.4-1.1-2.6-2.6-2.6c-1.4,0-2.6,1.2-2.6,2.6c0,1.4,1.1,2.6,2.6,2.6
		C864.4,834.3,865.6,833.1,865.6,831.7z"/>
	<path class="st1" d="M865.6,860.6c0-1.4-1.1-2.6-2.6-2.6c-1.4,0-2.6,1.1-2.6,2.6c0,1.4,1.1,2.6,2.6,2.6
		C864.4,863.2,865.6,862,865.6,860.6z"/>
	<path class="st1" d="M865.6,889.5c0-1.4-1.1-2.6-2.6-2.6c-1.4,0-2.6,1.1-2.6,2.6c0,1.4,1.1,2.6,2.6,2.6
		C864.4,892.1,865.6,890.9,865.6,889.5z"/>
	<path class="st1" d="M865.6,918.4c0-1.4-1.1-2.6-2.6-2.6c-1.4,0-2.6,1.1-2.6,2.6c0,1.4,1.1,2.6,2.6,2.6
		C864.4,921,865.6,919.8,865.6,918.4z"/>
	<path class="st1" d="M865.6,947.3c0-1.4-1.1-2.6-2.6-2.6c-1.4,0-2.6,1.1-2.6,2.6c0,1.4,1.1,2.6,2.6,2.6
		C864.4,949.9,865.6,948.7,865.6,947.3z"/>
	<path class="st1" d="M865.6,976.2c0-1.4-1.1-2.6-2.6-2.6c-1.4,0-2.6,1.2-2.6,2.6c0,1.4,1.1,2.6,2.6,2.6
		C864.4,978.8,865.6,977.6,865.6,976.2z"/>
	<path class="st1" d="M865.6,1005.1c0-1.4-1.1-2.6-2.6-2.6c-1.4,0-2.6,1.1-2.6,2.6c0,1.4,1.1,2.6,2.6,2.6
		C864.4,1007.7,865.6,1006.5,865.6,1005.1z"/>
	<path class="st1" d="M860.5,1034c0,1.4,1.1,2.6,2.6,2.6c1.4,0,2.6-1.2,2.6-2.6s-1.1-2.6-2.6-2.6
		C861.6,1031.5,860.5,1032.6,860.5,1034z"/>
	<circle class="st1" cx="834.1" cy="658.3" r="2.6"/>
	<circle class="st1" cx="834.1" cy="687.2" r="2.6"/>
	<path class="st1" d="M836.7,716.1c0-1.4-1.1-2.6-2.6-2.6c-1.4,0-2.6,1.2-2.6,2.6c0,1.4,1.1,2.6,2.6,2.6
		C835.5,718.6,836.7,717.5,836.7,716.1z"/>
	<ellipse class="st1" cx="834.1" cy="745" rx="2.6" ry="2.6"/>
	<ellipse class="st1" cx="834.1" cy="773.9" rx="2.6" ry="2.6"/>
	<path class="st1" d="M836.7,802.8c0-1.4-1.1-2.6-2.6-2.6c-1.4,0-2.6,1.1-2.6,2.6c0,1.4,1.1,2.6,2.6,2.6
		C835.5,805.4,836.7,804.2,836.7,802.8z"/>
	<path class="st1" d="M836.7,831.7c0-1.4-1.1-2.6-2.6-2.6c-1.4,0-2.6,1.2-2.6,2.6c0,1.4,1.1,2.6,2.6,2.6
		C835.5,834.3,836.7,833.1,836.7,831.7z"/>
	<path class="st1" d="M836.7,860.6c0-1.4-1.1-2.6-2.6-2.6c-1.4,0-2.6,1.1-2.6,2.6c0,1.4,1.1,2.6,2.6,2.6
		C835.5,863.2,836.7,862,836.7,860.6z"/>
	<path class="st1" d="M836.7,889.5c0-1.4-1.1-2.6-2.6-2.6c-1.4,0-2.6,1.1-2.6,2.6c0,1.4,1.1,2.6,2.6,2.6
		C835.5,892.1,836.7,890.9,836.7,889.5z"/>
	<path class="st1" d="M836.7,918.4c0-1.4-1.1-2.6-2.6-2.6c-1.4,0-2.6,1.1-2.6,2.6c0,1.4,1.1,2.6,2.6,2.6
		C835.5,921,836.7,919.8,836.7,918.4z"/>
	<path class="st1" d="M836.7,947.3c0-1.4-1.1-2.6-2.6-2.6c-1.4,0-2.6,1.1-2.6,2.6c0,1.4,1.1,2.6,2.6,2.6
		C835.5,949.9,836.7,948.7,836.7,947.3z"/>
	<path class="st1" d="M836.7,976.2c0-1.4-1.1-2.6-2.6-2.6c-1.4,0-2.6,1.2-2.6,2.6c0,1.4,1.1,2.6,2.6,2.6
		C835.5,978.8,836.7,977.6,836.7,976.2z"/>
	<path class="st1" d="M836.7,1005.1c0-1.4-1.1-2.6-2.6-2.6c-1.4,0-2.6,1.1-2.6,2.6c0,1.4,1.1,2.6,2.6,2.6
		C835.5,1007.7,836.7,1006.5,836.7,1005.1z"/>
	<path class="st1" d="M836.7,1034c0-1.4-1.1-2.6-2.6-2.6c-1.4,0-2.6,1.2-2.6,2.6s1.1,2.6,2.6,2.6
		C835.5,1036.6,836.7,1035.4,836.7,1034z"/>
	<ellipse class="st1" cx="805.2" cy="658.3" rx="2.6" ry="2.6"/>
	<ellipse class="st1" cx="805.2" cy="687.2" rx="2.6" ry="2.6"/>
	<path class="st1" d="M807.8,716.1c0-1.4-1.1-2.6-2.6-2.6c-1.4,0-2.6,1.2-2.6,2.6c0,1.4,1.1,2.6,2.6,2.6
		C806.6,718.6,807.8,717.5,807.8,716.1z"/>
	<circle class="st1" cx="805.2" cy="745" r="2.6"/>
	<circle class="st1" cx="805.2" cy="773.9" r="2.6"/>
	<path class="st1" d="M807.8,802.8c0-1.4-1.1-2.6-2.6-2.6c-1.4,0-2.6,1.1-2.6,2.6c0,1.4,1.1,2.6,2.6,2.6
		C806.6,805.4,807.8,804.2,807.8,802.8z"/>
	<path class="st1" d="M807.8,831.7c0-1.4-1.1-2.6-2.6-2.6c-1.4,0-2.6,1.2-2.6,2.6c0,1.4,1.1,2.6,2.6,2.6
		C806.6,834.3,807.8,833.1,807.8,831.7z"/>
	<path class="st1" d="M807.8,860.6c0-1.4-1.1-2.6-2.6-2.6c-1.4,0-2.6,1.1-2.6,2.6c0,1.4,1.1,2.6,2.6,2.6
		C806.6,863.2,807.8,862,807.8,860.6z"/>
	<path class="st1" d="M807.8,889.5c0-1.4-1.1-2.6-2.6-2.6c-1.4,0-2.6,1.1-2.6,2.6c0,1.4,1.1,2.6,2.6,2.6
		C806.6,892.1,807.8,890.9,807.8,889.5z"/>
	<path class="st1" d="M807.8,918.4c0-1.4-1.1-2.6-2.6-2.6c-1.4,0-2.6,1.1-2.6,2.6c0,1.4,1.1,2.6,2.6,2.6
		C806.6,921,807.8,919.8,807.8,918.4z"/>
	<path class="st1" d="M807.8,947.3c0-1.4-1.1-2.6-2.6-2.6c-1.4,0-2.6,1.1-2.6,2.6c0,1.4,1.1,2.6,2.6,2.6
		C806.6,949.9,807.8,948.7,807.8,947.3z"/>
	<path class="st1" d="M807.8,976.2c0-1.4-1.1-2.6-2.6-2.6c-1.4,0-2.6,1.2-2.6,2.6c0,1.4,1.1,2.6,2.6,2.6
		C806.6,978.8,807.8,977.6,807.8,976.2z"/>
	<path class="st1" d="M807.8,1005.1c0-1.4-1.1-2.6-2.6-2.6c-1.4,0-2.6,1.1-2.6,2.6c0,1.4,1.1,2.6,2.6,2.6
		C806.6,1007.7,807.8,1006.5,807.8,1005.1z"/>
	<path class="st1" d="M807.8,1034c0-1.4-1.1-2.6-2.6-2.6c-1.4,0-2.6,1.2-2.6,2.6s1.1,2.6,2.6,2.6
		C806.6,1036.6,807.8,1035.4,807.8,1034z"/>
	<circle class="st1" cx="776.3" cy="658.3" r="2.6"/>
	<circle class="st1" cx="776.3" cy="687.2" r="2.6"/>
	<path class="st1" d="M778.9,716.1c0-1.4-1.1-2.6-2.6-2.6c-1.4,0-2.6,1.2-2.6,2.6c0,1.4,1.1,2.6,2.6,2.6
		C777.7,718.6,778.9,717.5,778.9,716.1z"/>
	<ellipse class="st1" cx="776.3" cy="745" rx="2.6" ry="2.6"/>
	<circle class="st1" cx="776.3" cy="773.9" r="2.6"/>
	<path class="st1" d="M778.9,802.8c0-1.4-1.1-2.6-2.6-2.6c-1.4,0-2.6,1.1-2.6,2.6c0,1.4,1.1,2.6,2.6,2.6
		C777.7,805.4,778.9,804.2,778.9,802.8z"/>
	<path class="st1" d="M778.9,831.7c0-1.4-1.1-2.6-2.6-2.6c-1.4,0-2.6,1.2-2.6,2.6c0,1.4,1.1,2.6,2.6,2.6
		C777.7,834.3,778.9,833.1,778.9,831.7z"/>
	<path class="st1" d="M778.9,860.6c0-1.4-1.1-2.6-2.6-2.6c-1.4,0-2.6,1.1-2.6,2.6c0,1.4,1.1,2.6,2.6,2.6
		C777.7,863.2,778.9,862,778.9,860.6z"/>
	<path class="st1" d="M778.9,889.5c0-1.4-1.1-2.6-2.6-2.6c-1.4,0-2.6,1.1-2.6,2.6c0,1.4,1.1,2.6,2.6,2.6
		C777.7,892.1,778.9,890.9,778.9,889.5z"/>
	<path class="st1" d="M778.9,918.4c0-1.4-1.1-2.6-2.6-2.6c-1.4,0-2.6,1.1-2.6,2.6c0,1.4,1.1,2.6,2.6,2.6
		C777.7,921,778.9,919.8,778.9,918.4z"/>
	<path class="st1" d="M778.9,947.3c0-1.4-1.1-2.6-2.6-2.6c-1.4,0-2.6,1.1-2.6,2.6c0,1.4,1.1,2.6,2.6,2.6
		C777.7,949.9,778.9,948.7,778.9,947.3z"/>
	<path class="st1" d="M778.9,976.2c0-1.4-1.1-2.6-2.6-2.6c-1.4,0-2.6,1.2-2.6,2.6c0,1.4,1.1,2.6,2.6,2.6
		C777.7,978.8,778.9,977.6,778.9,976.2z"/>
	<path class="st1" d="M778.9,1005.1c0-1.4-1.1-2.6-2.6-2.6c-1.4,0-2.6,1.1-2.6,2.6c0,1.4,1.1,2.6,2.6,2.6
		C777.7,1007.7,778.9,1006.5,778.9,1005.1z"/>
	<path class="st1" d="M778.9,1034c0-1.4-1.1-2.6-2.6-2.6c-1.4,0-2.6,1.2-2.6,2.6s1.1,2.6,2.6,2.6
		C777.7,1036.6,778.9,1035.4,778.9,1034z"/>
	<path class="st1" d="M750,658.3c0-1.4-1.2-2.6-2.6-2.6c-1.4,0-2.6,1.1-2.6,2.6c0,1.4,1.1,2.6,2.6,2.6
		C748.8,660.8,750,659.7,750,658.3z"/>
	<path class="st1" d="M750,687.2c0-1.4-1.2-2.6-2.6-2.6c-1.4,0-2.6,1.1-2.6,2.6s1.1,2.6,2.6,2.6C748.8,689.7,750,688.6,750,687.2z"
		/>
	<path class="st1" d="M750,716.1c0-1.4-1.2-2.6-2.6-2.6c-1.4,0-2.6,1.2-2.6,2.6c0,1.4,1.1,2.6,2.6,2.6
		C748.8,718.6,750,717.5,750,716.1z"/>
	<path class="st1" d="M750,745c0-1.4-1.2-2.6-2.6-2.6c-1.4,0-2.6,1.2-2.6,2.6c0,1.4,1.1,2.6,2.6,2.6C748.8,747.5,750,746.4,750,745z
		"/>
	<path class="st1" d="M750,773.9c0-1.4-1.2-2.6-2.6-2.6c-1.4,0-2.6,1.2-2.6,2.6c0,1.4,1.1,2.6,2.6,2.6
		C748.8,776.4,750,775.3,750,773.9z"/>
	<path class="st1" d="M750,802.8c0-1.4-1.1-2.6-2.6-2.6c-1.4,0-2.6,1.1-2.6,2.6c0,1.4,1.1,2.6,2.6,2.6
		C748.8,805.4,750,804.2,750,802.8z"/>
	<path class="st1" d="M750,831.7c0-1.4-1.1-2.6-2.6-2.6c-1.4,0-2.6,1.2-2.6,2.6c0,1.4,1.1,2.6,2.6,2.6
		C748.8,834.3,750,833.1,750,831.7z"/>
	<path class="st1" d="M750,860.6c0-1.4-1.1-2.6-2.6-2.6c-1.4,0-2.6,1.1-2.6,2.6c0,1.4,1.1,2.6,2.6,2.6
		C748.8,863.2,750,862,750,860.6z"/>
	<path class="st1" d="M750,889.5c0-1.4-1.1-2.6-2.6-2.6c-1.4,0-2.6,1.1-2.6,2.6c0,1.4,1.1,2.6,2.6,2.6
		C748.8,892.1,750,890.9,750,889.5z"/>
	<path class="st1" d="M750,918.4c0-1.4-1.1-2.6-2.6-2.6c-1.4,0-2.6,1.1-2.6,2.6c0,1.4,1.1,2.6,2.6,2.6
		C748.8,921,750,919.8,750,918.4z"/>
	<path class="st1" d="M750,947.3c0-1.4-1.1-2.6-2.6-2.6c-1.4,0-2.6,1.1-2.6,2.6c0,1.4,1.1,2.6,2.6,2.6
		C748.8,949.9,750,948.7,750,947.3z"/>
	<path class="st1" d="M750,976.2c0-1.4-1.1-2.6-2.6-2.6c-1.4,0-2.6,1.2-2.6,2.6c0,1.4,1.1,2.6,2.6,2.6
		C748.8,978.8,750,977.6,750,976.2z"/>
	<path class="st1" d="M750,1005.1c0-1.4-1.1-2.6-2.6-2.6c-1.4,0-2.6,1.1-2.6,2.6c0,1.4,1.1,2.6,2.6,2.6
		C748.8,1007.7,750,1006.5,750,1005.1z"/>
	<path class="st1" d="M750,1034c0-1.4-1.1-2.6-2.6-2.6c-1.4,0-2.6,1.2-2.6,2.6s1.1,2.6,2.6,2.6C748.8,1036.6,750,1035.4,750,1034z"
		/>
	<ellipse class="st1" cx="718.5" cy="658.3" rx="2.6" ry="2.6"/>
	<ellipse class="st1" cx="718.5" cy="687.2" rx="2.6" ry="2.6"/>
	<path class="st1" d="M721.1,716.1c0-1.4-1.1-2.6-2.6-2.6c-1.4,0-2.6,1.2-2.6,2.6c0,1.4,1.1,2.6,2.6,2.6
		C719.9,718.6,721.1,717.5,721.1,716.1z"/>
	<ellipse class="st1" cx="718.5" cy="745" rx="2.6" ry="2.6"/>
	<ellipse class="st1" cx="718.5" cy="773.9" rx="2.6" ry="2.6"/>
	<ellipse class="st1" cx="718.5" cy="802.8" rx="2.6" ry="2.6"/>
	<path class="st1" d="M721.1,831.7c0-1.4-1.1-2.6-2.6-2.6c-1.4,0-2.6,1.2-2.6,2.6c0,1.4,1.1,2.6,2.6,2.6
		C719.9,834.3,721.1,833.1,721.1,831.7z"/>
	<ellipse class="st1" cx="718.5" cy="860.6" rx="2.6" ry="2.6"/>
	<path class="st1" d="M721.1,889.5c0-1.4-1.1-2.6-2.6-2.6c-1.4,0-2.6,1.1-2.6,2.6c0,1.4,1.1,2.6,2.6,2.6
		C719.9,892.1,721.1,890.9,721.1,889.5z"/>
	<ellipse class="st1" cx="718.5" cy="918.4" rx="2.6" ry="2.6"/>
	<ellipse class="st1" cx="718.5" cy="947.3" rx="2.6" ry="2.6"/>
	<ellipse class="st1" cx="718.5" cy="976.2" rx="2.6" ry="2.6"/>
	<ellipse class="st1" cx="718.5" cy="1005.1" rx="2.6" ry="2.6"/>
	<path class="st1" d="M721.1,1034c0-1.4-1.1-2.6-2.6-2.6c-1.4,0-2.6,1.2-2.6,2.6s1.1,2.6,2.6,2.6
		C719.9,1036.6,721.1,1035.4,721.1,1034z"/>
	<path class="st1" d="M692.2,658.3c0-1.4-1.2-2.6-2.6-2.6c-1.4,0-2.6,1.1-2.6,2.6c0,1.4,1.2,2.6,2.6,2.6
		C691,660.8,692.2,659.7,692.2,658.3z"/>
	<path class="st1" d="M692.2,687.2c0-1.4-1.2-2.6-2.6-2.6c-1.4,0-2.6,1.1-2.6,2.6s1.2,2.6,2.6,2.6
		C691,689.7,692.2,688.6,692.2,687.2z"/>
	<path class="st1" d="M692.2,716.1c0-1.4-1.2-2.6-2.6-2.6c-1.4,0-2.6,1.2-2.6,2.6c0,1.4,1.2,2.6,2.6,2.6
		C691,718.6,692.2,717.5,692.2,716.1z"/>
	<path class="st1" d="M692.2,745c0-1.4-1.2-2.6-2.6-2.6c-1.4,0-2.6,1.2-2.6,2.6c0,1.4,1.2,2.6,2.6,2.6
		C691,747.5,692.2,746.4,692.2,745z"/>
	<path class="st1" d="M692.2,773.9c0-1.4-1.2-2.6-2.6-2.6c-1.4,0-2.6,1.2-2.6,2.6c0,1.4,1.2,2.6,2.6,2.6
		C691,776.4,692.2,775.3,692.2,773.9z"/>
	<ellipse class="st1" cx="689.6" cy="802.8" rx="2.6" ry="2.6"/>
	<path class="st1" d="M692.2,831.7c0-1.4-1.1-2.6-2.6-2.6c-1.4,0-2.6,1.2-2.6,2.6c0,1.4,1.1,2.6,2.6,2.6
		C691,834.3,692.2,833.1,692.2,831.7z"/>
	<ellipse class="st1" cx="689.6" cy="860.6" rx="2.6" ry="2.6"/>
	<path class="st1" d="M692.2,889.5c0-1.4-1.1-2.6-2.6-2.6c-1.4,0-2.6,1.1-2.6,2.6c0,1.4,1.1,2.6,2.6,2.6
		C691,892.1,692.2,890.9,692.2,889.5z"/>
	<ellipse class="st1" cx="689.6" cy="918.4" rx="2.6" ry="2.6"/>
	<ellipse class="st1" cx="689.6" cy="947.3" rx="2.6" ry="2.6"/>
	<ellipse class="st1" cx="689.6" cy="976.2" rx="2.6" ry="2.6"/>
	<ellipse class="st1" cx="689.6" cy="1005.1" rx="2.6" ry="2.6"/>
	<path class="st1" d="M692.2,1034c0-1.4-1.1-2.6-2.6-2.6c-1.4,0-2.6,1.2-2.6,2.6s1.1,2.6,2.6,2.6
		C691,1036.6,692.2,1035.4,692.2,1034z"/>
	<circle class="st1" cx="660.7" cy="658.3" r="2.6"/>
	<circle class="st1" cx="660.7" cy="687.2" r="2.6"/>
	<path class="st1" d="M663.3,716.1c0-1.4-1.1-2.6-2.6-2.6c-1.4,0-2.6,1.2-2.6,2.6c0,1.4,1.2,2.6,2.6,2.6
		C662.1,718.6,663.3,717.5,663.3,716.1z"/>
	<ellipse class="st1" cx="660.7" cy="745" rx="2.6" ry="2.6"/>
	<circle class="st1" cx="660.7" cy="773.9" r="2.6"/>
	<path class="st1" d="M663.3,802.8c0-1.4-1.1-2.6-2.6-2.6c-1.4,0-2.6,1.1-2.6,2.6c0,1.4,1.1,2.6,2.6,2.6
		C662.1,805.4,663.3,804.2,663.3,802.8z"/>
	<path class="st1" d="M663.3,831.7c0-1.4-1.1-2.6-2.6-2.6c-1.4,0-2.6,1.2-2.6,2.6c0,1.4,1.1,2.6,2.6,2.6
		C662.1,834.3,663.3,833.1,663.3,831.7z"/>
	<path class="st1" d="M663.3,860.6c0-1.4-1.1-2.6-2.6-2.6c-1.4,0-2.6,1.1-2.6,2.6c0,1.4,1.1,2.6,2.6,2.6
		C662.1,863.2,663.3,862,663.3,860.6z"/>
	<path class="st1" d="M663.3,889.5c0-1.4-1.1-2.6-2.6-2.6c-1.4,0-2.6,1.1-2.6,2.6c0,1.4,1.1,2.6,2.6,2.6
		C662.1,892.1,663.3,890.9,663.3,889.5z"/>
	<path class="st1" d="M663.3,918.4c0-1.4-1.1-2.6-2.6-2.6c-1.4,0-2.6,1.1-2.6,2.6c0,1.4,1.1,2.6,2.6,2.6
		C662.1,921,663.3,919.8,663.3,918.4z"/>
	<path class="st1" d="M663.3,947.3c0-1.4-1.1-2.6-2.6-2.6c-1.4,0-2.6,1.1-2.6,2.6c0,1.4,1.1,2.6,2.6,2.6
		C662.1,949.9,663.3,948.7,663.3,947.3z"/>
	<path class="st1" d="M663.3,976.2c0-1.4-1.1-2.6-2.6-2.6c-1.4,0-2.6,1.2-2.6,2.6c0,1.4,1.1,2.6,2.6,2.6
		C662.1,978.8,663.3,977.6,663.3,976.2z"/>
	<path class="st1" d="M663.3,1005.1c0-1.4-1.1-2.6-2.6-2.6c-1.4,0-2.6,1.1-2.6,2.6c0,1.4,1.1,2.6,2.6,2.6
		C662.1,1007.7,663.3,1006.5,663.3,1005.1z"/>
	<path class="st1" d="M663.3,1034c0-1.4-1.1-2.6-2.6-2.6c-1.4,0-2.6,1.2-2.6,2.6s1.1,2.6,2.6,2.6
		C662.1,1036.6,663.3,1035.4,663.3,1034z"/>
	<ellipse class="st1" cx="631.8" cy="658.3" rx="2.6" ry="2.6"/>
	<ellipse class="st1" cx="631.8" cy="687.2" rx="2.6" ry="2.6"/>
	<path class="st1" d="M634.4,716.1c0-1.4-1.2-2.6-2.6-2.6c-1.4,0-2.6,1.2-2.6,2.6c0,1.4,1.2,2.6,2.6,2.6
		C633.2,718.6,634.4,717.5,634.4,716.1z"/>
	<ellipse class="st1" cx="631.8" cy="745" rx="2.6" ry="2.6"/>
	<ellipse class="st1" cx="631.8" cy="773.9" rx="2.6" ry="2.6"/>
	<path class="st1" d="M634.4,802.8c0-1.4-1.2-2.6-2.6-2.6c-1.4,0-2.6,1.1-2.6,2.6c0,1.4,1.2,2.6,2.6,2.6S634.4,804.2,634.4,802.8z"
		/>
	<path class="st1" d="M634.4,831.7c0-1.4-1.2-2.6-2.6-2.6c-1.4,0-2.6,1.2-2.6,2.6c0,1.4,1.2,2.6,2.6,2.6S634.4,833.1,634.4,831.7z"
		/>
	<path class="st1" d="M634.4,860.6c0-1.4-1.2-2.6-2.6-2.6c-1.4,0-2.6,1.1-2.6,2.6c0,1.4,1.2,2.6,2.6,2.6S634.4,862,634.4,860.6z"/>
	<path class="st1" d="M634.4,889.5c0-1.4-1.2-2.6-2.6-2.6c-1.4,0-2.6,1.1-2.6,2.6c0,1.4,1.2,2.6,2.6,2.6S634.4,890.9,634.4,889.5z"
		/>
	<path class="st1" d="M634.4,918.4c0-1.4-1.2-2.6-2.6-2.6c-1.4,0-2.6,1.1-2.6,2.6c0,1.4,1.2,2.6,2.6,2.6S634.4,919.8,634.4,918.4z"
		/>
	<path class="st1" d="M634.4,947.3c0-1.4-1.2-2.6-2.6-2.6c-1.4,0-2.6,1.1-2.6,2.6c0,1.4,1.2,2.6,2.6,2.6S634.4,948.7,634.4,947.3z"
		/>
	<path class="st1" d="M634.4,976.2c0-1.4-1.2-2.6-2.6-2.6c-1.4,0-2.6,1.2-2.6,2.6c0,1.4,1.2,2.6,2.6,2.6S634.4,977.6,634.4,976.2z"
		/>
	<path class="st1" d="M634.4,1005.1c0-1.4-1.2-2.6-2.6-2.6c-1.4,0-2.6,1.1-2.6,2.6c0,1.4,1.2,2.6,2.6,2.6S634.4,1006.5,634.4,1005.1
		z"/>
	<path class="st1" d="M634.4,1034c0-1.4-1.2-2.6-2.6-2.6c-1.4,0-2.6,1.2-2.6,2.6s1.2,2.6,2.6,2.6S634.4,1035.4,634.4,1034z"/>
	<circle class="st1" cx="602.9" cy="658.3" r="2.6"/>
	<circle class="st1" cx="602.9" cy="687.2" r="2.6"/>
	<path class="st1" d="M605.5,716.1c0-1.4-1.1-2.6-2.6-2.6c-1.4,0-2.6,1.2-2.6,2.6c0,1.4,1.1,2.6,2.6,2.6
		C604.3,718.6,605.5,717.5,605.5,716.1z"/>
	<circle class="st1" cx="602.9" cy="745" r="2.6"/>
	<circle class="st1" cx="602.9" cy="773.9" r="2.6"/>
	<ellipse class="st1" cx="602.9" cy="802.8" rx="2.6" ry="2.6"/>
	<path class="st1" d="M605.5,831.7c0-1.4-1.2-2.6-2.6-2.6c-1.4,0-2.6,1.2-2.6,2.6c0,1.4,1.1,2.6,2.6,2.6
		C604.3,834.3,605.5,833.1,605.5,831.7z"/>
	<ellipse class="st1" cx="602.9" cy="860.6" rx="2.6" ry="2.6"/>
	<path class="st1" d="M605.5,889.5c0-1.4-1.2-2.6-2.6-2.6c-1.4,0-2.6,1.1-2.6,2.6c0,1.4,1.1,2.6,2.6,2.6
		C604.3,892.1,605.5,890.9,605.5,889.5z"/>
	<circle class="st1" cx="602.9" cy="918.4" r="2.6"/>
	<circle class="st1" cx="602.9" cy="947.3" r="2.6"/>
	<circle class="st1" cx="602.9" cy="976.2" r="2.6"/>
	<circle class="st1" cx="602.9" cy="1005.1" r="2.6"/>
	<path class="st1" d="M605.5,1034c0-1.4-1.2-2.6-2.6-2.6c-1.4,0-2.6,1.2-2.6,2.6s1.1,2.6,2.6,2.6
		C604.3,1036.6,605.5,1035.4,605.5,1034z"/>
	<ellipse class="st1" cx="574" cy="658.3" rx="2.6" ry="2.6"/>
	<ellipse class="st1" cx="574" cy="687.2" rx="2.6" ry="2.6"/>
	<path class="st1" d="M576.6,716.1c0-1.4-1.1-2.6-2.6-2.6c-1.4,0-2.6,1.2-2.6,2.6c0,1.4,1.1,2.6,2.6,2.6
		C575.4,718.6,576.6,717.5,576.6,716.1z"/>
	<ellipse class="st1" cx="574" cy="745" rx="2.6" ry="2.6"/>
	<ellipse class="st1" cx="574" cy="773.9" rx="2.6" ry="2.6"/>
	<ellipse class="st1" cx="574" cy="802.8" rx="2.6" ry="2.6"/>
	<path class="st1" d="M576.6,831.7c0-1.4-1.1-2.6-2.6-2.6c-1.4,0-2.6,1.2-2.6,2.6c0,1.4,1.1,2.6,2.6,2.6
		C575.4,834.3,576.6,833.1,576.6,831.7z"/>
	<ellipse class="st1" cx="574" cy="860.6" rx="2.6" ry="2.6"/>
	<path class="st1" d="M576.6,889.5c0-1.4-1.1-2.6-2.6-2.6c-1.4,0-2.6,1.1-2.6,2.6c0,1.4,1.1,2.6,2.6,2.6
		C575.4,892.1,576.6,890.9,576.6,889.5z"/>
	<ellipse class="st1" cx="574" cy="918.4" rx="2.6" ry="2.6"/>
	<circle class="st1" cx="574" cy="947.3" r="2.6"/>
	<circle class="st1" cx="574" cy="976.2" r="2.6"/>
	<ellipse class="st1" cx="574" cy="1005.1" rx="2.6" ry="2.6"/>
	<path class="st1" d="M576.6,1034c0-1.4-1.1-2.6-2.6-2.6c-1.4,0-2.6,1.2-2.6,2.6s1.1,2.6,2.6,2.6
		C575.4,1036.6,576.6,1035.4,576.6,1034z"/>
	<ellipse class="st1" cx="545.1" cy="658.3" rx="2.6" ry="2.6"/>
	<path class="st1" d="M547.6,687.2c0-1.4-1.1-2.6-2.6-2.6c-1.4,0-2.6,1.1-2.6,2.6s1.2,2.6,2.6,2.6
		C546.5,689.7,547.6,688.6,547.6,687.2z"/>
	<path class="st1" d="M547.6,716.1c0-1.4-1.1-2.6-2.6-2.6c-1.4,0-2.6,1.1-2.6,2.6c0,1.4,1.2,2.6,2.6,2.6
		C546.5,718.6,547.6,717.5,547.6,716.1z"/>
	<circle class="st1" cx="545.1" cy="745" r="2.6"/>
	<path class="st1" d="M547.6,773.9c0-1.4-1.1-2.6-2.6-2.6c-1.4,0-2.6,1.1-2.6,2.6c0,1.4,1.2,2.6,2.6,2.6
		C546.5,776.5,547.6,775.3,547.6,773.9z"/>
	<path class="st1" d="M547.7,802.8c0-1.4-1.2-2.6-2.6-2.6c-1.4,0-2.6,1.1-2.6,2.6c0,1.4,1.1,2.6,2.6,2.6
		C546.5,805.4,547.7,804.2,547.7,802.8z"/>
	<ellipse class="st1" cx="545.1" cy="831.7" rx="2.6" ry="2.6"/>
	<ellipse class="st1" cx="545.1" cy="860.6" rx="2.6" ry="2.6"/>
	<path class="st1" d="M547.7,889.5c0-1.4-1.2-2.6-2.6-2.6c-1.4,0-2.6,1.1-2.6,2.6c0,1.4,1.1,2.6,2.6,2.6
		C546.5,892.1,547.7,890.9,547.7,889.5z"/>
	<path class="st1" d="M547.7,918.4c0-1.4-1.2-2.6-2.6-2.6c-1.4,0-2.6,1.1-2.6,2.6c0,1.4,1.1,2.6,2.6,2.6
		C546.5,921,547.7,919.8,547.7,918.4z"/>
	<circle class="st1" cx="545.1" cy="947.3" r="2.6"/>
	<path class="st1" d="M547.7,976.2c0-1.4-1.2-2.6-2.6-2.6c-1.4,0-2.6,1.2-2.6,2.6c0,1.4,1.1,2.6,2.6,2.6
		C546.5,978.8,547.7,977.6,547.7,976.2z"/>
	<circle class="st1" cx="545.1" cy="1005.1" r="2.6"/>
	<path class="st1" d="M547.7,1034c0-1.4-1.2-2.6-2.6-2.6c-1.4,0-2.6,1.2-2.6,2.6s1.1,2.6,2.6,2.6
		C546.5,1036.6,547.7,1035.4,547.7,1034z"/>
	<path class="st1" d="M518.7,658.3c0-1.4-1.1-2.6-2.6-2.6c-1.4,0-2.6,1.1-2.6,2.6c0,1.4,1.1,2.6,2.6,2.6
		C517.6,660.8,518.7,659.7,518.7,658.3z"/>
	<path class="st1" d="M518.7,687.2c0-1.4-1.1-2.6-2.6-2.6c-1.4,0-2.6,1.1-2.6,2.6s1.1,2.6,2.6,2.6
		C517.6,689.7,518.7,688.6,518.7,687.2z"/>
	<path class="st1" d="M518.7,716.1c0-1.4-1.1-2.6-2.6-2.6c-1.4,0-2.6,1.1-2.6,2.6c0,1.4,1.1,2.6,2.6,2.6
		C517.6,718.6,518.7,717.5,518.7,716.1z"/>
	<path class="st1" d="M518.7,745c0-1.4-1.1-2.6-2.6-2.6c-1.4,0-2.6,1.1-2.6,2.6c0,1.4,1.1,2.6,2.6,2.6
		C517.6,747.5,518.7,746.4,518.7,745z"/>
	<path class="st1" d="M518.7,773.9c0-1.4-1.1-2.6-2.6-2.6c-1.4,0-2.6,1.1-2.6,2.6c0,1.4,1.1,2.6,2.6,2.6S518.7,775.3,518.7,773.9z"
		/>
	<path class="st1" d="M518.7,802.8c0-1.4-1.1-2.6-2.6-2.6c-1.4,0-2.6,1.1-2.6,2.6c0,1.4,1.1,2.6,2.6,2.6S518.7,804.2,518.7,802.8z"
		/>
	<path class="st1" d="M518.7,831.7c0-1.4-1.1-2.6-2.6-2.6c-1.4,0-2.6,1.1-2.6,2.6c0,1.4,1.1,2.6,2.6,2.6
		C517.6,834.3,518.7,833.1,518.7,831.7z"/>
	<path class="st1" d="M518.7,860.6c0-1.4-1.1-2.6-2.6-2.6c-1.4,0-2.6,1.1-2.6,2.6c0,1.4,1.1,2.6,2.6,2.6S518.7,862,518.7,860.6z"/>
	<path class="st1" d="M518.7,889.5c0-1.4-1.1-2.6-2.6-2.6c-1.4,0-2.6,1.1-2.6,2.6c0,1.4,1.1,2.6,2.6,2.6
		C517.6,892.1,518.7,890.9,518.7,889.5z"/>
	<path class="st1" d="M518.7,918.4c0-1.4-1.1-2.6-2.6-2.6c-1.4,0-2.6,1.1-2.6,2.6c0,1.4,1.1,2.6,2.6,2.6S518.7,919.8,518.7,918.4z"
		/>
	<path class="st1" d="M518.7,947.3c0-1.4-1.1-2.6-2.6-2.6c-1.4,0-2.6,1.2-2.6,2.6c0,1.4,1.1,2.6,2.6,2.6S518.7,948.7,518.7,947.3z"
		/>
	<path class="st1" d="M518.7,976.2c0-1.4-1.1-2.6-2.6-2.6c-1.4,0-2.6,1.2-2.6,2.6c0,1.4,1.1,2.6,2.6,2.6
		C517.6,978.8,518.7,977.6,518.7,976.2z"/>
	<path class="st1" d="M518.7,1005.1c0-1.4-1.1-2.6-2.6-2.6c-1.4,0-2.6,1.1-2.6,2.6c0,1.4,1.1,2.6,2.6,2.6S518.7,1006.5,518.7,1005.1
		z"/>
	<path class="st1" d="M518.7,1034c0-1.4-1.1-2.6-2.6-2.6c-1.4,0-2.6,1.2-2.6,2.6s1.1,2.6,2.6,2.6S518.7,1035.4,518.7,1034z"/>
	<ellipse class="st1" cx="487.3" cy="658.3" rx="2.6" ry="2.6"/>
	<path class="st1" d="M489.8,687.2c0-1.4-1.1-2.6-2.6-2.6c-1.4,0-2.6,1.1-2.6,2.6s1.1,2.6,2.6,2.6
		C488.7,689.7,489.8,688.6,489.8,687.2z"/>
	<path class="st1" d="M489.8,716.1c0-1.4-1.1-2.6-2.6-2.6c-1.4,0-2.6,1.1-2.6,2.6c0,1.4,1.1,2.6,2.6,2.6
		C488.7,718.6,489.8,717.5,489.8,716.1z"/>
	<circle class="st1" cx="487.3" cy="745" r="2.6"/>
	<path class="st1" d="M489.8,773.9c0-1.4-1.1-2.6-2.6-2.6c-1.4,0-2.6,1.1-2.6,2.6c0,1.4,1.1,2.6,2.6,2.6
		C488.7,776.5,489.8,775.3,489.8,773.9z"/>
	<path class="st1" d="M489.8,802.8c0-1.4-1.2-2.6-2.6-2.6s-2.6,1.1-2.6,2.6c0,1.4,1.1,2.6,2.6,2.6
		C488.7,805.4,489.8,804.2,489.8,802.8z"/>
	<ellipse class="st1" cx="487.3" cy="831.7" rx="2.6" ry="2.6"/>
	<ellipse class="st1" cx="487.3" cy="860.6" rx="2.6" ry="2.6"/>
	<path class="st1" d="M489.8,889.5c0-1.4-1.2-2.6-2.6-2.6s-2.6,1.1-2.6,2.6c0,1.4,1.1,2.6,2.6,2.6
		C488.7,892.1,489.8,890.9,489.8,889.5z"/>
	<path class="st1" d="M489.8,918.4c0-1.4-1.2-2.6-2.6-2.6s-2.6,1.1-2.6,2.6c0,1.4,1.1,2.6,2.6,2.6
		C488.7,921,489.8,919.8,489.8,918.4z"/>
	<circle class="st1" cx="487.3" cy="947.3" r="2.6"/>
	<path class="st1" d="M489.8,976.2c0-1.4-1.2-2.6-2.6-2.6s-2.6,1.2-2.6,2.6c0,1.4,1.1,2.6,2.6,2.6
		C488.7,978.8,489.8,977.6,489.8,976.2z"/>
	<circle class="st1" cx="487.3" cy="1005.1" r="2.6"/>
	<path class="st1" d="M489.8,1034c0-1.4-1.2-2.6-2.6-2.6s-2.6,1.2-2.6,2.6s1.1,2.6,2.6,2.6C488.7,1036.6,489.8,1035.4,489.8,1034z"
		/>
	<ellipse class="st1" cx="458.4" cy="658.3" rx="2.6" ry="2.6"/>
	<path class="st1" d="M460.9,687.2c0-1.4-1.2-2.6-2.6-2.6s-2.6,1.1-2.6,2.6s1.2,2.6,2.6,2.6S460.9,688.6,460.9,687.2z"/>
	<path class="st1" d="M460.9,716.1c0-1.4-1.2-2.6-2.6-2.6s-2.6,1.1-2.6,2.6c0,1.4,1.2,2.6,2.6,2.6S460.9,717.5,460.9,716.1z"/>
	<circle class="st1" cx="458.4" cy="745" r="2.6"/>
	<path class="st1" d="M460.9,773.9c0-1.4-1.2-2.6-2.6-2.6s-2.6,1.1-2.6,2.6c0,1.4,1.2,2.6,2.6,2.6S460.9,775.3,460.9,773.9z"/>
	<path class="st1" d="M460.9,802.8c0-1.4-1.2-2.6-2.6-2.6s-2.6,1.1-2.6,2.6c0,1.4,1.2,2.6,2.6,2.6S460.9,804.2,460.9,802.8z"/>
	<ellipse class="st1" cx="458.4" cy="831.7" rx="2.6" ry="2.6"/>
	<ellipse class="st1" cx="458.4" cy="860.6" rx="2.6" ry="2.6"/>
	<path class="st1" d="M460.9,889.5c0-1.4-1.2-2.6-2.6-2.6s-2.6,1.1-2.6,2.6c0,1.4,1.2,2.6,2.6,2.6S460.9,890.9,460.9,889.5z"/>
	<path class="st1" d="M460.9,918.4c0-1.4-1.2-2.6-2.6-2.6s-2.6,1.1-2.6,2.6c0,1.4,1.2,2.6,2.6,2.6S460.9,919.8,460.9,918.4z"/>
	<circle class="st1" cx="458.4" cy="947.3" r="2.6"/>
	<path class="st1" d="M460.9,976.2c0-1.4-1.2-2.6-2.6-2.6s-2.6,1.2-2.6,2.6c0,1.4,1.2,2.6,2.6,2.6S460.9,977.6,460.9,976.2z"/>
	<ellipse class="st1" cx="458.4" cy="1005.1" rx="2.6" ry="2.6"/>
	<path class="st1" d="M460.9,1034c0-1.4-1.2-2.6-2.6-2.6s-2.6,1.2-2.6,2.6s1.2,2.6,2.6,2.6S460.9,1035.4,460.9,1034z"/>
	<circle class="st1" cx="429.5" cy="658.3" r="2.6"/>
	<path class="st1" d="M432,687.2c0-1.4-1.1-2.6-2.6-2.6s-2.6,1.1-2.6,2.6s1.1,2.6,2.6,2.6S432,688.6,432,687.2z"/>
	<path class="st1" d="M432,716.1c0-1.4-1.1-2.6-2.6-2.6s-2.6,1.1-2.6,2.6c0,1.4,1.1,2.6,2.6,2.6S432,717.5,432,716.1z"/>
	<circle class="st1" cx="429.5" cy="745" r="2.6"/>
	<path class="st1" d="M432,773.9c0-1.4-1.1-2.6-2.6-2.6s-2.6,1.1-2.6,2.6c0,1.4,1.1,2.6,2.6,2.6S432,775.3,432,773.9z"/>
	<path class="st1" d="M432,802.8c0-1.4-1.1-2.6-2.6-2.6c-1.4,0-2.6,1.1-2.6,2.6c0,1.4,1.1,2.6,2.6,2.6
		C430.9,805.4,432,804.2,432,802.8z"/>
	<ellipse class="st1" cx="429.5" cy="831.7" rx="2.6" ry="2.6"/>
	<ellipse class="st1" cx="429.5" cy="860.6" rx="2.6" ry="2.6"/>
	<path class="st1" d="M432,889.5c0-1.4-1.1-2.6-2.6-2.6c-1.4,0-2.6,1.1-2.6,2.6c0,1.4,1.1,2.6,2.6,2.6S432,890.9,432,889.5z"/>
	<path class="st1" d="M432,918.4c0-1.4-1.1-2.6-2.6-2.6c-1.4,0-2.6,1.1-2.6,2.6c0,1.4,1.1,2.6,2.6,2.6S432,919.8,432,918.4z"/>
	<circle class="st1" cx="429.5" cy="947.3" r="2.6"/>
	<path class="st1" d="M432,976.2c0-1.4-1.1-2.6-2.6-2.6c-1.4,0-2.6,1.2-2.6,2.6c0,1.4,1.1,2.6,2.6,2.6S432,977.6,432,976.2z"/>
	<circle class="st1" cx="429.5" cy="1005.1" r="2.6"/>
	<path class="st1" d="M432,1034c0-1.4-1.1-2.6-2.6-2.6c-1.4,0-2.6,1.2-2.6,2.6s1.1,2.6,2.6,2.6S432,1035.4,432,1034z"/>
	<ellipse class="st1" cx="400.6" cy="658.3" rx="2.6" ry="2.6"/>
	<path class="st1" d="M403.1,687.2c0-1.4-1.2-2.6-2.6-2.6s-2.6,1.1-2.6,2.6s1.2,2.6,2.6,2.6C402,689.7,403.1,688.6,403.1,687.2z"/>
	<path class="st1" d="M403.1,716.1c0-1.4-1.2-2.6-2.6-2.6s-2.6,1.1-2.6,2.6c0,1.4,1.2,2.6,2.6,2.6
		C402,718.6,403.1,717.5,403.1,716.1z"/>
	<circle class="st1" cx="400.6" cy="745" r="2.6"/>
	<path class="st1" d="M403.1,773.9c0-1.4-1.2-2.6-2.6-2.6s-2.6,1.1-2.6,2.6c0,1.4,1.2,2.6,2.6,2.6
		C402,776.5,403.1,775.3,403.1,773.9z"/>
	<path class="st1" d="M403.1,802.8c0-1.4-1.2-2.6-2.6-2.6s-2.6,1.1-2.6,2.6c0,1.4,1.2,2.6,2.6,2.6
		C402,805.4,403.1,804.2,403.1,802.8z"/>
	<ellipse class="st1" cx="400.6" cy="831.7" rx="2.6" ry="2.6"/>
	<ellipse class="st1" cx="400.6" cy="860.6" rx="2.6" ry="2.6"/>
	<path class="st1" d="M403.1,889.5c0-1.4-1.2-2.6-2.6-2.6s-2.6,1.1-2.6,2.6c0,1.4,1.2,2.6,2.6,2.6
		C402,892.1,403.1,890.9,403.1,889.5z"/>
	<path class="st1" d="M403.1,918.4c0-1.4-1.2-2.6-2.6-2.6s-2.6,1.1-2.6,2.6c0,1.4,1.2,2.6,2.6,2.6C402,921,403.1,919.8,403.1,918.4z
		"/>
	<circle class="st1" cx="400.6" cy="947.3" r="2.6"/>
	<path class="st1" d="M403.1,976.2c0-1.4-1.2-2.6-2.6-2.6s-2.6,1.2-2.6,2.6c0,1.4,1.2,2.6,2.6,2.6
		C402,978.8,403.1,977.6,403.1,976.2z"/>
	<ellipse class="st1" cx="400.6" cy="1005.1" rx="2.6" ry="2.6"/>
	<path class="st1" d="M403.1,1034c0-1.4-1.2-2.6-2.6-2.6s-2.6,1.2-2.6,2.6s1.2,2.6,2.6,2.6C402,1036.6,403.1,1035.4,403.1,1034z"/>
	<ellipse class="st1" cx="371.7" cy="658.3" rx="2.6" ry="2.6"/>
	<path class="st1" d="M374.2,687.2c0-1.4-1.1-2.6-2.6-2.6s-2.6,1.1-2.6,2.6s1.1,2.6,2.6,2.6S374.2,688.6,374.2,687.2z"/>
	<path class="st1" d="M374.2,716.1c0-1.4-1.1-2.6-2.6-2.6s-2.6,1.1-2.6,2.6c0,1.4,1.1,2.6,2.6,2.6S374.2,717.5,374.2,716.1z"/>
	<ellipse class="st1" cx="371.7" cy="745" rx="2.6" ry="2.6"/>
	<path class="st1" d="M374.2,773.9c0-1.4-1.1-2.6-2.6-2.6s-2.6,1.1-2.6,2.6c0,1.4,1.1,2.6,2.6,2.6S374.2,775.3,374.2,773.9z"/>
	<path class="st1" d="M374.2,802.8c0-1.4-1.2-2.6-2.6-2.6s-2.6,1.1-2.6,2.6c0,1.4,1.1,2.6,2.6,2.6S374.2,804.2,374.2,802.8z"/>
	<ellipse class="st1" cx="371.7" cy="831.7" rx="2.6" ry="2.6"/>
	<ellipse class="st1" cx="371.7" cy="860.6" rx="2.6" ry="2.6"/>
	<path class="st1" d="M374.2,889.5c0-1.4-1.2-2.6-2.6-2.6s-2.6,1.1-2.6,2.6c0,1.4,1.1,2.6,2.6,2.6S374.2,890.9,374.2,889.5z"/>
	<path class="st1" d="M374.2,918.4c0-1.4-1.2-2.6-2.6-2.6s-2.6,1.1-2.6,2.6c0,1.4,1.1,2.6,2.6,2.6S374.2,919.8,374.2,918.4z"/>
	<circle class="st1" cx="371.7" cy="947.3" r="2.6"/>
	<path class="st1" d="M374.2,976.2c0-1.4-1.2-2.6-2.6-2.6s-2.6,1.2-2.6,2.6c0,1.4,1.1,2.6,2.6,2.6S374.2,977.6,374.2,976.2z"/>
	<circle class="st1" cx="371.7" cy="1005.1" r="2.6"/>
	<path class="st1" d="M374.2,1034c0-1.4-1.2-2.6-2.6-2.6s-2.6,1.2-2.6,2.6s1.1,2.6,2.6,2.6S374.2,1035.4,374.2,1034z"/>
	<circle class="st1" cx="342.8" cy="658.3" r="2.6"/>
	<path class="st1" d="M345.3,687.2c0-1.4-1.1-2.6-2.6-2.6c-1.4,0-2.6,1.1-2.6,2.6s1.1,2.6,2.6,2.6
		C344.2,689.7,345.3,688.6,345.3,687.2z"/>
	<path class="st1" d="M345.3,716.1c0-1.4-1.1-2.6-2.6-2.6c-1.4,0-2.6,1.1-2.6,2.6c0,1.4,1.1,2.6,2.6,2.6
		C344.2,718.6,345.3,717.5,345.3,716.1z"/>
	<ellipse class="st1" cx="342.8" cy="745" rx="2.6" ry="2.6"/>
	<path class="st1" d="M345.3,773.9c0-1.4-1.1-2.6-2.6-2.6c-1.4,0-2.6,1.1-2.6,2.6c0,1.4,1.1,2.6,2.6,2.6S345.3,775.3,345.3,773.9z"
		/>
	<path class="st1" d="M345.3,802.8c0-1.4-1.1-2.6-2.6-2.6c-1.4,0-2.6,1.1-2.6,2.6c0,1.4,1.1,2.6,2.6,2.6S345.3,804.2,345.3,802.8z"
		/>
	<path class="st1" d="M345.3,831.7c0-1.4-1.1-2.6-2.6-2.6c-1.4,0-2.6,1.1-2.6,2.6c0,1.4,1.1,2.6,2.6,2.6
		C344.2,834.3,345.3,833.1,345.3,831.7z"/>
	<path class="st1" d="M345.3,860.6c0-1.4-1.1-2.6-2.6-2.6c-1.4,0-2.6,1.1-2.6,2.6c0,1.4,1.1,2.6,2.6,2.6S345.3,862,345.3,860.6z"/>
	<path class="st1" d="M345.3,889.5c0-1.4-1.1-2.6-2.6-2.6c-1.4,0-2.6,1.1-2.6,2.6c0,1.4,1.1,2.6,2.6,2.6
		C344.2,892.1,345.3,890.9,345.3,889.5z"/>
	<path class="st1" d="M345.3,918.4c0-1.4-1.1-2.6-2.6-2.6c-1.4,0-2.6,1.1-2.6,2.6c0,1.4,1.1,2.6,2.6,2.6S345.3,919.8,345.3,918.4z"
		/>
	<path class="st1" d="M345.3,947.3c0-1.4-1.1-2.6-2.6-2.6c-1.4,0-2.6,1.2-2.6,2.6c0,1.4,1.1,2.6,2.6,2.6S345.3,948.7,345.3,947.3z"
		/>
	<path class="st1" d="M345.3,976.2c0-1.4-1.1-2.6-2.6-2.6c-1.4,0-2.6,1.2-2.6,2.6c0,1.4,1.1,2.6,2.6,2.6
		C344.2,978.8,345.3,977.6,345.3,976.2z"/>
	<path class="st1" d="M345.3,1005.1c0-1.4-1.1-2.6-2.6-2.6c-1.4,0-2.6,1.1-2.6,2.6c0,1.4,1.1,2.6,2.6,2.6S345.3,1006.5,345.3,1005.1
		z"/>
	<path class="st1" d="M345.3,1034c0-1.4-1.1-2.6-2.6-2.6c-1.4,0-2.6,1.2-2.6,2.6s1.1,2.6,2.6,2.6S345.3,1035.4,345.3,1034z"/>
	<circle class="st1" cx="313.8" cy="658.3" r="2.6"/>
	<path class="st1" d="M316.4,687.2c0-1.4-1.1-2.6-2.6-2.6c-1.4,0-2.6,1.1-2.6,2.6s1.2,2.6,2.6,2.6
		C315.3,689.7,316.4,688.6,316.4,687.2z"/>
	<path class="st1" d="M316.4,716.1c0-1.4-1.1-2.6-2.6-2.6c-1.4,0-2.6,1.1-2.6,2.6c0,1.4,1.2,2.6,2.6,2.6
		C315.3,718.6,316.4,717.5,316.4,716.1z"/>
	<ellipse class="st1" cx="313.8" cy="745" rx="2.6" ry="2.6"/>
	<path class="st1" d="M316.4,773.9c0-1.4-1.1-2.6-2.6-2.6c-1.4,0-2.6,1.1-2.6,2.6c0,1.4,1.2,2.6,2.6,2.6
		C315.3,776.5,316.4,775.3,316.4,773.9z"/>
	<path class="st1" d="M316.4,802.8c0-1.4-1.1-2.6-2.6-2.6c-1.4,0-2.6,1.1-2.6,2.6c0,1.4,1.2,2.6,2.6,2.6
		C315.3,805.4,316.4,804.2,316.4,802.8z"/>
	<path class="st1" d="M316.4,831.7c0-1.4-1.1-2.6-2.6-2.6c-1.4,0-2.6,1.1-2.6,2.6c0,1.4,1.2,2.6,2.6,2.6
		C315.3,834.3,316.4,833.1,316.4,831.7z"/>
	<path class="st1" d="M316.4,860.6c0-1.4-1.1-2.6-2.6-2.6c-1.4,0-2.6,1.1-2.6,2.6c0,1.4,1.2,2.6,2.6,2.6
		C315.3,863.2,316.4,862,316.4,860.6z"/>
	<path class="st1" d="M316.4,889.5c0-1.4-1.1-2.6-2.6-2.6c-1.4,0-2.6,1.1-2.6,2.6c0,1.4,1.2,2.6,2.6,2.6
		C315.3,892.1,316.4,890.9,316.4,889.5z"/>
	<path class="st1" d="M316.4,918.4c0-1.4-1.1-2.6-2.6-2.6c-1.4,0-2.6,1.1-2.6,2.6c0,1.4,1.2,2.6,2.6,2.6
		C315.3,921,316.4,919.8,316.4,918.4z"/>
	<path class="st1" d="M316.4,947.3c0-1.4-1.1-2.6-2.6-2.6c-1.4,0-2.6,1.2-2.6,2.6c0,1.4,1.2,2.6,2.6,2.6
		C315.3,949.9,316.4,948.7,316.4,947.3z"/>
	<path class="st1" d="M316.4,976.2c0-1.4-1.1-2.6-2.6-2.6c-1.4,0-2.6,1.2-2.6,2.6c0,1.4,1.2,2.6,2.6,2.6
		C315.3,978.8,316.4,977.6,316.4,976.2z"/>
	<path class="st1" d="M316.4,1005.1c0-1.4-1.1-2.6-2.6-2.6c-1.4,0-2.6,1.1-2.6,2.6c0,1.4,1.2,2.6,2.6,2.6
		C315.3,1007.7,316.4,1006.5,316.4,1005.1z"/>
	<path class="st1" d="M316.4,1034c0-1.4-1.1-2.6-2.6-2.6c-1.4,0-2.6,1.2-2.6,2.6s1.2,2.6,2.6,2.6
		C315.3,1036.6,316.4,1035.4,316.4,1034z"/>
	<path class="st1" d="M287.5,658.3c0-1.4-1.1-2.6-2.6-2.6c-1.4,0-2.6,1.1-2.6,2.6c0,1.4,1.1,2.6,2.6,2.6
		C286.4,660.8,287.5,659.7,287.5,658.3z"/>
	<path class="st1" d="M287.5,687.2c0-1.4-1.1-2.6-2.6-2.6c-1.4,0-2.6,1.1-2.6,2.6s1.1,2.6,2.6,2.6
		C286.4,689.7,287.5,688.6,287.5,687.2z"/>
	<path class="st1" d="M287.5,716.1c0-1.4-1.1-2.6-2.6-2.6c-1.4,0-2.6,1.1-2.6,2.6c0,1.4,1.1,2.6,2.6,2.6
		C286.4,718.6,287.5,717.5,287.5,716.1z"/>
	<path class="st1" d="M287.5,745c0-1.4-1.1-2.6-2.6-2.6c-1.4,0-2.6,1.1-2.6,2.6c0,1.4,1.1,2.6,2.6,2.6
		C286.4,747.5,287.5,746.4,287.5,745z"/>
	<path class="st1" d="M287.5,773.9c0-1.4-1.1-2.6-2.6-2.6c-1.4,0-2.6,1.1-2.6,2.6c0,1.4,1.1,2.6,2.6,2.6S287.5,775.3,287.5,773.9z"
		/>
	<path class="st1" d="M287.5,802.8c0-1.4-1.1-2.6-2.6-2.6c-1.4,0-2.6,1.1-2.6,2.6c0,1.4,1.1,2.6,2.6,2.6S287.5,804.2,287.5,802.8z"
		/>
	<path class="st1" d="M287.5,831.7c0-1.4-1.1-2.6-2.6-2.6c-1.4,0-2.6,1.1-2.6,2.6c0,1.4,1.1,2.6,2.6,2.6S287.5,833.1,287.5,831.7z"
		/>
	<path class="st1" d="M287.5,860.6c0-1.4-1.1-2.6-2.6-2.6c-1.4,0-2.6,1.1-2.6,2.6c0,1.4,1.1,2.6,2.6,2.6S287.5,862,287.5,860.6z"/>
	<path class="st1" d="M287.5,889.5c0-1.4-1.1-2.6-2.6-2.6c-1.4,0-2.6,1.1-2.6,2.6c0,1.4,1.1,2.6,2.6,2.6S287.5,890.9,287.5,889.5z"
		/>
	<path class="st1" d="M287.5,918.4c0-1.4-1.1-2.6-2.6-2.6c-1.4,0-2.6,1.1-2.6,2.6c0,1.4,1.1,2.6,2.6,2.6S287.5,919.8,287.5,918.4z"
		/>
	<path class="st1" d="M287.5,947.3c0-1.4-1.1-2.6-2.6-2.6c-1.4,0-2.6,1.2-2.6,2.6c0,1.4,1.1,2.6,2.6,2.6S287.5,948.7,287.5,947.3z"
		/>
	<path class="st1" d="M287.5,976.2c0-1.4-1.1-2.6-2.6-2.6c-1.4,0-2.6,1.2-2.6,2.6c0,1.4,1.1,2.6,2.6,2.6S287.5,977.6,287.5,976.2z"
		/>
	<path class="st1" d="M287.5,1005.1c0-1.4-1.1-2.6-2.6-2.6c-1.4,0-2.6,1.1-2.6,2.6c0,1.4,1.1,2.6,2.6,2.6S287.5,1006.5,287.5,1005.1
		z"/>
	<path class="st1" d="M287.5,1034c0-1.4-1.1-2.6-2.6-2.6c-1.4,0-2.6,1.2-2.6,2.6s1.1,2.6,2.6,2.6S287.5,1035.4,287.5,1034z"/>
	<circle class="st1" cx="256" cy="658.3" r="2.6"/>
	<path class="st1" d="M258.6,687.2c0-1.4-1.1-2.6-2.6-2.6c-1.4,0-2.6,1.1-2.6,2.6s1.1,2.6,2.6,2.6
		C257.5,689.7,258.6,688.6,258.6,687.2z"/>
	<path class="st1" d="M258.6,716.1c0-1.4-1.1-2.6-2.6-2.6c-1.4,0-2.6,1.1-2.6,2.6c0,1.4,1.1,2.6,2.6,2.6
		C257.5,718.6,258.6,717.5,258.6,716.1z"/>
	<ellipse class="st1" cx="256" cy="745" rx="2.6" ry="2.6"/>
	<path class="st1" d="M258.6,773.9c0-1.4-1.1-2.6-2.6-2.6c-1.4,0-2.6,1.1-2.6,2.6c0,1.4,1.1,2.6,2.6,2.6S258.6,775.3,258.6,773.9z"
		/>
	<path class="st1" d="M258.6,802.8c0-1.4-1.1-2.6-2.6-2.6c-1.4,0-2.6,1.1-2.6,2.6c0,1.4,1.2,2.6,2.6,2.6
		C257.5,805.4,258.6,804.2,258.6,802.8z"/>
	<path class="st1" d="M258.6,831.7c0-1.4-1.1-2.6-2.6-2.6c-1.4,0-2.6,1.1-2.6,2.6c0,1.4,1.2,2.6,2.6,2.6
		C257.5,834.3,258.6,833.1,258.6,831.7z"/>
	<path class="st1" d="M258.6,860.6c0-1.4-1.1-2.6-2.6-2.6c-1.4,0-2.6,1.1-2.6,2.6c0,1.4,1.2,2.6,2.6,2.6
		C257.5,863.2,258.6,862,258.6,860.6z"/>
	<path class="st1" d="M258.6,889.5c0-1.4-1.1-2.6-2.6-2.6c-1.4,0-2.6,1.1-2.6,2.6c0,1.4,1.2,2.6,2.6,2.6
		C257.5,892.1,258.6,890.9,258.6,889.5z"/>
	<path class="st1" d="M258.6,918.4c0-1.4-1.1-2.6-2.6-2.6c-1.4,0-2.6,1.1-2.6,2.6c0,1.4,1.2,2.6,2.6,2.6
		C257.5,921,258.6,919.8,258.6,918.4z"/>
	<path class="st1" d="M258.6,947.3c0-1.4-1.1-2.6-2.6-2.6c-1.4,0-2.6,1.2-2.6,2.6c0,1.4,1.2,2.6,2.6,2.6
		C257.5,949.9,258.6,948.7,258.6,947.3z"/>
	<path class="st1" d="M258.6,976.2c0-1.4-1.1-2.6-2.6-2.6c-1.4,0-2.6,1.2-2.6,2.6c0,1.4,1.2,2.6,2.6,2.6
		C257.5,978.8,258.6,977.6,258.6,976.2z"/>
	<path class="st1" d="M258.6,1005.1c0-1.4-1.1-2.6-2.6-2.6c-1.4,0-2.6,1.1-2.6,2.6c0,1.4,1.2,2.6,2.6,2.6
		C257.5,1007.7,258.6,1006.5,258.6,1005.1z"/>
	<path class="st1" d="M258.6,1034c0-1.4-1.1-2.6-2.6-2.6c-1.4,0-2.6,1.2-2.6,2.6s1.2,2.6,2.6,2.6
		C257.5,1036.6,258.6,1035.4,258.6,1034z"/>
	<path class="st1" d="M229.7,658.3c0-1.4-1.1-2.6-2.6-2.6c-1.4,0-2.6,1.1-2.6,2.6c0,1.4,1.2,2.6,2.6,2.6
		C228.6,660.8,229.7,659.7,229.7,658.3z"/>
	<path class="st1" d="M229.7,687.2c0-1.4-1.1-2.6-2.6-2.6c-1.4,0-2.6,1.1-2.6,2.6s1.2,2.6,2.6,2.6
		C228.6,689.7,229.7,688.6,229.7,687.2z"/>
	<path class="st1" d="M229.7,716.1c0-1.4-1.1-2.6-2.6-2.6c-1.4,0-2.6,1.1-2.6,2.6c0,1.4,1.2,2.6,2.6,2.6
		C228.6,718.6,229.7,717.5,229.7,716.1z"/>
	<path class="st1" d="M229.7,745c0-1.4-1.1-2.6-2.6-2.6c-1.4,0-2.6,1.1-2.6,2.6c0,1.4,1.2,2.6,2.6,2.6
		C228.6,747.5,229.7,746.4,229.7,745z"/>
	<path class="st1" d="M229.7,773.9c0-1.4-1.1-2.6-2.6-2.6c-1.4,0-2.6,1.1-2.6,2.6c0,1.4,1.2,2.6,2.6,2.6
		C228.6,776.5,229.7,775.3,229.7,773.9z"/>
	<path class="st1" d="M229.7,802.8c0-1.4-1.1-2.6-2.6-2.6s-2.6,1.1-2.6,2.6c0,1.4,1.2,2.6,2.6,2.6S229.7,804.2,229.7,802.8z"/>
	<ellipse class="st1" cx="227.1" cy="831.7" rx="2.6" ry="2.6"/>
	<circle class="st1" cx="227.1" cy="860.6" r="2.6"/>
	<path class="st1" d="M229.7,889.5c0-1.4-1.1-2.6-2.6-2.6s-2.6,1.1-2.6,2.6c0,1.4,1.2,2.6,2.6,2.6S229.7,890.9,229.7,889.5z"/>
	<path class="st1" d="M229.7,918.4c0-1.4-1.1-2.6-2.6-2.6s-2.6,1.1-2.6,2.6c0,1.4,1.2,2.6,2.6,2.6S229.7,919.8,229.7,918.4z"/>
	<ellipse class="st1" cx="227.1" cy="947.3" rx="2.6" ry="2.6"/>
	<path class="st1" d="M229.7,976.2c0-1.4-1.1-2.6-2.6-2.6s-2.6,1.2-2.6,2.6c0,1.4,1.2,2.6,2.6,2.6S229.7,977.6,229.7,976.2z"/>
	<ellipse class="st1" cx="227.1" cy="1005.1" rx="2.6" ry="2.6"/>
	<path class="st1" d="M229.7,1034c0-1.4-1.1-2.6-2.6-2.6s-2.6,1.2-2.6,2.6s1.2,2.6,2.6,2.6S229.7,1035.4,229.7,1034z"/>
	<ellipse class="st1" cx="198.2" cy="658.3" rx="2.6" ry="2.6"/>
	<path class="st1" d="M200.8,687.2c0-1.4-1.1-2.6-2.6-2.6c-1.4,0-2.6,1.1-2.6,2.6s1.2,2.6,2.6,2.6
		C199.6,689.7,200.8,688.6,200.8,687.2z"/>
	<path class="st1" d="M200.8,716.1c0-1.4-1.1-2.6-2.6-2.6c-1.4,0-2.6,1.1-2.6,2.6c0,1.4,1.2,2.6,2.6,2.6
		C199.6,718.6,200.8,717.5,200.8,716.1z"/>
	<ellipse class="st1" cx="198.2" cy="745" rx="2.6" ry="2.6"/>
	<path class="st1" d="M200.8,773.9c0-1.4-1.1-2.6-2.6-2.6c-1.4,0-2.6,1.1-2.6,2.6c0,1.4,1.2,2.6,2.6,2.6S200.8,775.3,200.8,773.9z"
		/>
	<path class="st1" d="M200.8,802.8c0-1.4-1.1-2.6-2.6-2.6c-1.4,0-2.6,1.1-2.6,2.6c0,1.4,1.2,2.6,2.6,2.6S200.8,804.2,200.8,802.8z"
		/>
	<path class="st1" d="M200.8,831.7c0-1.4-1.1-2.6-2.6-2.6c-1.4,0-2.6,1.1-2.6,2.6c0,1.4,1.2,2.6,2.6,2.6S200.8,833.1,200.8,831.7z"
		/>
	<path class="st1" d="M200.8,860.6c0-1.4-1.1-2.6-2.6-2.6c-1.4,0-2.6,1.1-2.6,2.6c0,1.4,1.2,2.6,2.6,2.6S200.8,862,200.8,860.6z"/>
	<path class="st1" d="M200.8,889.5c0-1.4-1.1-2.6-2.6-2.6c-1.4,0-2.6,1.1-2.6,2.6c0,1.4,1.2,2.6,2.6,2.6S200.8,890.9,200.8,889.5z"
		/>
	<path class="st1" d="M200.8,918.4c0-1.4-1.1-2.6-2.6-2.6c-1.4,0-2.6,1.1-2.6,2.6c0,1.4,1.2,2.6,2.6,2.6S200.8,919.8,200.8,918.4z"
		/>
	<path class="st1" d="M200.8,947.3c0-1.4-1.1-2.6-2.6-2.6c-1.4,0-2.6,1.2-2.6,2.6c0,1.4,1.2,2.6,2.6,2.6S200.8,948.7,200.8,947.3z"
		/>
	<path class="st1" d="M200.8,976.2c0-1.4-1.1-2.6-2.6-2.6c-1.4,0-2.6,1.2-2.6,2.6c0,1.4,1.2,2.6,2.6,2.6S200.8,977.6,200.8,976.2z"
		/>
	<path class="st1" d="M200.8,1005.1c0-1.4-1.1-2.6-2.6-2.6c-1.4,0-2.6,1.1-2.6,2.6c0,1.4,1.2,2.6,2.6,2.6S200.8,1006.5,200.8,1005.1
		z"/>
	<path class="st1" d="M200.8,1034c0-1.4-1.1-2.6-2.6-2.6c-1.4,0-2.6,1.2-2.6,2.6s1.2,2.6,2.6,2.6S200.8,1035.4,200.8,1034z"/>
	<ellipse class="st1" cx="169.3" cy="658.3" rx="2.6" ry="2.6"/>
	<path class="st1" d="M171.9,687.2c0-1.4-1.2-2.6-2.6-2.6c-1.4,0-2.6,1.1-2.6,2.6s1.1,2.6,2.6,2.6
		C170.7,689.7,171.9,688.6,171.9,687.2z"/>
	<path class="st1" d="M171.9,716.1c0-1.4-1.2-2.6-2.6-2.6c-1.4,0-2.6,1.1-2.6,2.6c0,1.4,1.1,2.6,2.6,2.6
		C170.7,718.6,171.9,717.5,171.9,716.1z"/>
	<circle class="st1" cx="169.3" cy="745" r="2.6"/>
	<path class="st1" d="M171.9,773.9c0-1.4-1.2-2.6-2.6-2.6c-1.4,0-2.6,1.1-2.6,2.6c0,1.4,1.1,2.6,2.6,2.6
		C170.7,776.5,171.9,775.3,171.9,773.9z"/>
	<path class="st1" d="M171.9,802.8c0-1.4-1.1-2.6-2.6-2.6c-1.4,0-2.6,1.1-2.6,2.6c0,1.4,1.2,2.6,2.6,2.6S171.9,804.2,171.9,802.8z"
		/>
	<path class="st1" d="M171.9,831.7c0-1.4-1.1-2.6-2.6-2.6c-1.4,0-2.6,1.1-2.6,2.6c0,1.4,1.2,2.6,2.6,2.6S171.9,833.1,171.9,831.7z"
		/>
	<path class="st1" d="M171.9,860.6c0-1.4-1.1-2.6-2.6-2.6c-1.4,0-2.6,1.1-2.6,2.6c0,1.4,1.2,2.6,2.6,2.6S171.9,862,171.9,860.6z"/>
	<path class="st1" d="M171.9,889.5c0-1.4-1.1-2.6-2.6-2.6c-1.4,0-2.6,1.1-2.6,2.6c0,1.4,1.2,2.6,2.6,2.6S171.9,890.9,171.9,889.5z"
		/>
	<path class="st1" d="M171.9,918.4c0-1.4-1.1-2.6-2.6-2.6c-1.4,0-2.6,1.1-2.6,2.6c0,1.4,1.2,2.6,2.6,2.6S171.9,919.8,171.9,918.4z"
		/>
	<path class="st1" d="M171.9,947.3c0-1.4-1.1-2.6-2.6-2.6c-1.4,0-2.6,1.2-2.6,2.6c0,1.4,1.2,2.6,2.6,2.6S171.9,948.7,171.9,947.3z"
		/>
	<path class="st1" d="M171.9,976.2c0-1.4-1.1-2.6-2.6-2.6c-1.4,0-2.6,1.2-2.6,2.6c0,1.4,1.2,2.6,2.6,2.6S171.9,977.6,171.9,976.2z"
		/>
	<path class="st1" d="M171.9,1005.1c0-1.4-1.1-2.6-2.6-2.6c-1.4,0-2.6,1.1-2.6,2.6c0,1.4,1.2,2.6,2.6,2.6S171.9,1006.5,171.9,1005.1
		z"/>
	<path class="st1" d="M171.9,1034c0-1.4-1.1-2.6-2.6-2.6c-1.4,0-2.6,1.2-2.6,2.6s1.2,2.6,2.6,2.6S171.9,1035.4,171.9,1034z"/>
	<circle class="st1" cx="140.4" cy="658.3" r="2.6"/>
	<path class="st1" d="M143,687.2c0-1.4-1.1-2.6-2.6-2.6c-1.4,0-2.6,1.1-2.6,2.6s1.2,2.6,2.6,2.6C141.8,689.7,143,688.6,143,687.2z"
		/>
	<path class="st1" d="M143,716.1c0-1.4-1.1-2.6-2.6-2.6c-1.4,0-2.6,1.1-2.6,2.6c0,1.4,1.2,2.6,2.6,2.6
		C141.8,718.6,143,717.5,143,716.1z"/>
	<ellipse class="st1" cx="140.4" cy="745" rx="2.6" ry="2.6"/>
	<path class="st1" d="M143,773.9c0-1.4-1.1-2.6-2.6-2.6c-1.4,0-2.6,1.1-2.6,2.6c0,1.4,1.2,2.6,2.6,2.6S143,775.3,143,773.9z"/>
	<path class="st1" d="M143,802.8c0-1.4-1.1-2.6-2.6-2.6c-1.4,0-2.6,1.1-2.6,2.6c0,1.4,1.2,2.6,2.6,2.6S143,804.2,143,802.8z"/>
	<ellipse class="st1" cx="140.4" cy="831.7" rx="2.6" ry="2.6"/>
	<circle class="st1" cx="140.4" cy="860.6" r="2.6"/>
	<path class="st1" d="M143,889.5c0-1.4-1.1-2.6-2.6-2.6c-1.4,0-2.6,1.1-2.6,2.6c0,1.4,1.2,2.6,2.6,2.6S143,890.9,143,889.5z"/>
	<path class="st1" d="M143,918.4c0-1.4-1.1-2.6-2.6-2.6c-1.4,0-2.6,1.1-2.6,2.6c0,1.4,1.2,2.6,2.6,2.6S143,919.8,143,918.4z"/>
	<ellipse class="st1" cx="140.4" cy="947.3" rx="2.6" ry="2.6"/>
	<path class="st1" d="M143,976.2c0-1.4-1.1-2.6-2.6-2.6c-1.4,0-2.6,1.2-2.6,2.6c0,1.4,1.2,2.6,2.6,2.6S143,977.6,143,976.2z"/>
	<ellipse class="st1" cx="140.4" cy="1005.1" rx="2.6" ry="2.6"/>
	<path class="st1" d="M143,1034c0-1.4-1.1-2.6-2.6-2.6c-1.4,0-2.6,1.2-2.6,2.6s1.2,2.6,2.6,2.6S143,1035.4,143,1034z"/>
	<path class="st1" d="M114.1,658.3c0-1.4-1.1-2.6-2.6-2.6c-1.4,0-2.6,1.1-2.6,2.6c0,1.4,1.1,2.6,2.6,2.6
		C112.9,660.8,114.1,659.7,114.1,658.3z"/>
	<path class="st1" d="M114.1,687.2c0-1.4-1.1-2.6-2.6-2.6c-1.4,0-2.6,1.1-2.6,2.6s1.1,2.6,2.6,2.6
		C112.9,689.7,114.1,688.6,114.1,687.2z"/>
	<path class="st1" d="M114.1,716.1c0-1.4-1.1-2.6-2.6-2.6c-1.4,0-2.6,1.1-2.6,2.6c0,1.4,1.1,2.6,2.6,2.6
		C112.9,718.6,114.1,717.5,114.1,716.1z"/>
	<path class="st1" d="M114.1,745c0-1.4-1.1-2.6-2.6-2.6c-1.4,0-2.6,1.1-2.6,2.6c0,1.4,1.1,2.6,2.6,2.6
		C112.9,747.5,114.1,746.4,114.1,745z"/>
	<path class="st1" d="M114.1,773.9c0-1.4-1.1-2.6-2.6-2.6c-1.4,0-2.6,1.1-2.6,2.6c0,1.4,1.1,2.6,2.6,2.6
		C112.9,776.5,114.1,775.3,114.1,773.9z"/>
	<path class="st1" d="M114.1,802.8c0-1.4-1.1-2.6-2.6-2.6c-1.4,0-2.6,1.1-2.6,2.6c0,1.4,1.1,2.6,2.6,2.6
		C112.9,805.4,114.1,804.2,114.1,802.8z"/>
	<path class="st1" d="M114.1,831.7c0-1.4-1.1-2.6-2.6-2.6c-1.4,0-2.6,1.1-2.6,2.6c0,1.4,1.1,2.6,2.6,2.6
		C112.9,834.3,114.1,833.1,114.1,831.7z"/>
	<path class="st1" d="M114.1,860.6c0-1.4-1.1-2.6-2.6-2.6c-1.4,0-2.6,1.1-2.6,2.6c0,1.4,1.1,2.6,2.6,2.6
		C112.9,863.2,114.1,862,114.1,860.6z"/>
	<path class="st1" d="M114.1,889.5c0-1.4-1.1-2.6-2.6-2.6c-1.4,0-2.6,1.1-2.6,2.6c0,1.4,1.1,2.6,2.6,2.6
		C112.9,892.1,114.1,890.9,114.1,889.5z"/>
	<path class="st1" d="M114.1,918.4c0-1.4-1.1-2.6-2.6-2.6c-1.4,0-2.6,1.1-2.6,2.6c0,1.4,1.1,2.6,2.6,2.6
		C112.9,921,114.1,919.8,114.1,918.4z"/>
	<path class="st1" d="M114.1,947.3c0-1.4-1.1-2.6-2.6-2.6c-1.4,0-2.6,1.2-2.6,2.6c0,1.4,1.1,2.6,2.6,2.6
		C112.9,949.9,114.1,948.7,114.1,947.3z"/>
	<path class="st1" d="M114.1,976.2c0-1.4-1.1-2.6-2.6-2.6c-1.4,0-2.6,1.2-2.6,2.6c0,1.4,1.1,2.6,2.6,2.6
		C112.9,978.8,114.1,977.6,114.1,976.2z"/>
	<path class="st1" d="M114.1,1005.1c0-1.4-1.1-2.6-2.6-2.6c-1.4,0-2.6,1.1-2.6,2.6c0,1.4,1.1,2.6,2.6,2.6
		C112.9,1007.7,114.1,1006.5,114.1,1005.1z"/>
	<path class="st1" d="M114.1,1034c0-1.4-1.1-2.6-2.6-2.6c-1.4,0-2.6,1.2-2.6,2.6s1.1,2.6,2.6,2.6
		C112.9,1036.6,114.1,1035.4,114.1,1034z"/>
	<circle class="st1" cx="82.6" cy="658.3" r="2.6"/>
	<path class="st1" d="M85.2,687.2c0-1.4-1.1-2.6-2.6-2.6c-1.4,0-2.6,1.1-2.6,2.6s1.2,2.6,2.6,2.6C84,689.7,85.2,688.6,85.2,687.2z"
		/>
	<path class="st1" d="M85.2,716.1c0-1.4-1.1-2.6-2.6-2.6c-1.4,0-2.6,1.1-2.6,2.6c0,1.4,1.2,2.6,2.6,2.6
		C84,718.6,85.2,717.5,85.2,716.1z"/>
	<circle class="st1" cx="82.6" cy="745" r="2.6"/>
	<path class="st1" d="M85.2,773.9c0-1.4-1.1-2.6-2.6-2.6c-1.4,0-2.6,1.1-2.6,2.6c0,1.4,1.2,2.6,2.6,2.6S85.2,775.3,85.2,773.9z"/>
	<path class="st1" d="M85.2,802.8c0-1.4-1.1-2.6-2.6-2.6c-1.4,0-2.6,1.1-2.6,2.6c0,1.4,1.2,2.6,2.6,2.6
		C84,805.4,85.2,804.2,85.2,802.8z"/>
	<ellipse class="st1" cx="82.6" cy="831.7" rx="2.6" ry="2.6"/>
	<circle class="st1" cx="82.6" cy="860.6" r="2.6"/>
	<path class="st1" d="M85.2,889.5c0-1.4-1.1-2.6-2.6-2.6c-1.4,0-2.6,1.1-2.6,2.6c0,1.4,1.2,2.6,2.6,2.6S85.2,890.9,85.2,889.5z"/>
	<path class="st1" d="M85.2,918.4c0-1.4-1.1-2.6-2.6-2.6c-1.4,0-2.6,1.1-2.6,2.6c0,1.4,1.2,2.6,2.6,2.6S85.2,919.8,85.2,918.4z"/>
	<ellipse class="st1" cx="82.6" cy="947.3" rx="2.6" ry="2.6"/>
	<path class="st1" d="M85.2,976.2c0-1.4-1.1-2.6-2.6-2.6c-1.4,0-2.6,1.2-2.6,2.6c0,1.4,1.2,2.6,2.6,2.6S85.2,977.6,85.2,976.2z"/>
	<circle class="st1" cx="82.6" cy="1005.1" r="2.6"/>
	<path class="st1" d="M85.2,1034c0-1.4-1.1-2.6-2.6-2.6c-1.4,0-2.6,1.2-2.6,2.6s1.2,2.6,2.6,2.6S85.2,1035.4,85.2,1034z"/>
	<circle class="st1" cx="53.7" cy="658.3" r="2.6"/>
	<path class="st1" d="M56.3,687.2c0-1.4-1.1-2.6-2.6-2.6c-1.4,0-2.6,1.1-2.6,2.6s1.2,2.6,2.6,2.6C55.1,689.7,56.3,688.6,56.3,687.2z
		"/>
	<path class="st1" d="M56.3,716.1c0-1.4-1.1-2.6-2.6-2.6c-1.4,0-2.6,1.1-2.6,2.6c0,1.4,1.2,2.6,2.6,2.6
		C55.1,718.6,56.3,717.5,56.3,716.1z"/>
	<ellipse class="st1" cx="53.7" cy="745" rx="2.6" ry="2.6"/>
	<path class="st1" d="M56.3,773.9c0-1.4-1.1-2.6-2.6-2.6c-1.4,0-2.6,1.1-2.6,2.6c0,1.4,1.2,2.6,2.6,2.6S56.3,775.3,56.3,773.9z"/>
	<path class="st1" d="M56.3,802.8c0-1.4-1.1-2.6-2.6-2.6c-1.4,0-2.6,1.1-2.6,2.6c0,1.4,1.2,2.6,2.6,2.6S56.3,804.2,56.3,802.8z"/>
	<ellipse class="st1" cx="53.7" cy="831.7" rx="2.6" ry="2.6"/>
	<circle class="st1" cx="53.7" cy="860.6" r="2.6"/>
	<path class="st1" d="M56.3,889.5c0-1.4-1.1-2.6-2.6-2.6c-1.4,0-2.6,1.1-2.6,2.6c0,1.4,1.2,2.6,2.6,2.6S56.3,890.9,56.3,889.5z"/>
	<path class="st1" d="M56.3,918.4c0-1.4-1.1-2.6-2.6-2.6c-1.4,0-2.6,1.1-2.6,2.6c0,1.4,1.2,2.6,2.6,2.6S56.3,919.8,56.3,918.4z"/>
	<ellipse class="st1" cx="53.7" cy="947.3" rx="2.6" ry="2.6"/>
	<path class="st1" d="M56.3,976.2c0-1.4-1.1-2.6-2.6-2.6c-1.4,0-2.6,1.2-2.6,2.6c0,1.4,1.2,2.6,2.6,2.6S56.3,977.6,56.3,976.2z"/>
	<ellipse class="st1" cx="53.7" cy="1005.1" rx="2.6" ry="2.6"/>
	<path class="st1" d="M56.3,1034c0-1.4-1.1-2.6-2.6-2.6c-1.4,0-2.6,1.2-2.6,2.6s1.2,2.6,2.6,2.6S56.3,1035.4,56.3,1034z"/>
	<ellipse class="st1" cx="24.8" cy="658.3" rx="2.6" ry="2.6"/>
	<path class="st1" d="M27.4,687.2c0-1.4-1.1-2.6-2.6-2.6c-1.4,0-2.6,1.1-2.6,2.6s1.1,2.6,2.6,2.6C26.2,689.7,27.4,688.6,27.4,687.2z
		"/>
	<path class="st1" d="M27.4,716.1c0-1.4-1.1-2.6-2.6-2.6c-1.4,0-2.6,1.1-2.6,2.6c0,1.4,1.1,2.6,2.6,2.6
		C26.2,718.6,27.4,717.5,27.4,716.1z"/>
	<circle class="st1" cx="24.8" cy="745" r="2.6"/>
	<path class="st1" d="M27.4,773.9c0-1.4-1.1-2.6-2.6-2.6c-1.4,0-2.6,1.1-2.6,2.6c0,1.4,1.1,2.6,2.6,2.6
		C26.2,776.5,27.4,775.3,27.4,773.9z"/>
	<path class="st1" d="M27.4,802.8c0-1.4-1.1-2.6-2.6-2.6c-1.4,0-2.6,1.1-2.6,2.6c0,1.4,1.1,2.6,2.6,2.6
		C26.2,805.4,27.4,804.2,27.4,802.8z"/>
	<ellipse class="st1" cx="24.8" cy="831.7" rx="2.6" ry="2.6"/>
	<ellipse class="st1" cx="24.8" cy="860.6" rx="2.6" ry="2.6"/>
	<path class="st1" d="M27.4,889.5c0-1.4-1.1-2.6-2.6-2.6c-1.4,0-2.6,1.1-2.6,2.6c0,1.4,1.1,2.6,2.6,2.6
		C26.2,892.1,27.4,890.9,27.4,889.5z"/>
	<path class="st1" d="M27.4,918.4c0-1.4-1.1-2.6-2.6-2.6c-1.4,0-2.6,1.1-2.6,2.6c0,1.4,1.1,2.6,2.6,2.6
		C26.2,921,27.4,919.8,27.4,918.4z"/>
	<circle class="st1" cx="24.8" cy="947.3" r="2.6"/>
	<path class="st1" d="M27.4,976.2c0-1.4-1.1-2.6-2.6-2.6c-1.4,0-2.6,1.2-2.6,2.6c0,1.4,1.1,2.6,2.6,2.6
		C26.2,978.8,27.4,977.6,27.4,976.2z"/>
	<circle class="st1" cx="24.8" cy="1005.1" r="2.6"/>
	<path class="st1" d="M27.4,1034c0-1.4-1.1-2.6-2.6-2.6c-1.4,0-2.6,1.2-2.6,2.6s1.1,2.6,2.6,2.6C26.2,1036.6,27.4,1035.4,27.4,1034z
		"/>
	<path class="st1" d="M-1.5,658.3c0-1.4-1.1-2.6-2.6-2.6c-1.4,0-2.6,1.1-2.6,2.6c0,1.4,1.1,2.6,2.6,2.6
		C-2.7,660.8-1.5,659.7-1.5,658.3z"/>
	<path class="st1" d="M-1.5,687.2c0-1.4-1.1-2.6-2.6-2.6c-1.4,0-2.6,1.1-2.6,2.6s1.1,2.6,2.6,2.6C-2.7,689.7-1.5,688.6-1.5,687.2z"
		/>
	<path class="st1" d="M-1.5,716.1c0-1.4-1.1-2.6-2.6-2.6c-1.4,0-2.6,1.1-2.6,2.6c0,1.4,1.1,2.6,2.6,2.6
		C-2.7,718.6-1.5,717.5-1.5,716.1z"/>
	<path class="st1" d="M-1.5,745c0-1.4-1.1-2.6-2.6-2.6c-1.4,0-2.6,1.1-2.6,2.6c0,1.4,1.1,2.6,2.6,2.6C-2.7,747.5-1.5,746.4-1.5,745z
		"/>
	<path class="st1" d="M-1.5,773.9c0-1.4-1.1-2.6-2.6-2.6c-1.4,0-2.6,1.1-2.6,2.6c0,1.4,1.1,2.6,2.6,2.6
		C-2.7,776.5-1.5,775.3-1.5,773.9z"/>
	<path class="st1" d="M-1.5,802.8c0-1.4-1.1-2.6-2.6-2.6c-1.4,0-2.6,1.1-2.6,2.6c0,1.4,1.1,2.6,2.6,2.6
		C-2.7,805.4-1.5,804.2-1.5,802.8z"/>
	<path class="st1" d="M-1.5,831.7c0-1.4-1.1-2.6-2.6-2.6c-1.4,0-2.6,1.1-2.6,2.6c0,1.4,1.1,2.6,2.6,2.6
		C-2.7,834.3-1.5,833.1-1.5,831.7z"/>
	<path class="st1" d="M-1.5,860.6c0-1.4-1.1-2.6-2.6-2.6c-1.4,0-2.6,1.1-2.6,2.6c0,1.4,1.1,2.6,2.6,2.6
		C-2.7,863.2-1.5,862-1.5,860.6z"/>
	<path class="st1" d="M-1.5,889.5c0-1.4-1.1-2.6-2.6-2.6c-1.4,0-2.6,1.1-2.6,2.6c0,1.4,1.1,2.6,2.6,2.6
		C-2.7,892.1-1.5,890.9-1.5,889.5z"/>
	<path class="st1" d="M-1.5,918.4c0-1.4-1.1-2.6-2.6-2.6c-1.4,0-2.6,1.1-2.6,2.6c0,1.4,1.1,2.6,2.6,2.6
		C-2.7,921-1.5,919.8-1.5,918.4z"/>
	<path class="st1" d="M-1.5,947.3c0-1.4-1.1-2.6-2.6-2.6c-1.4,0-2.6,1.2-2.6,2.6c0,1.4,1.1,2.6,2.6,2.6
		C-2.7,949.9-1.5,948.7-1.5,947.3z"/>
	<path class="st1" d="M-1.5,976.2c0-1.4-1.1-2.6-2.6-2.6c-1.4,0-2.6,1.2-2.6,2.6c0,1.4,1.1,2.6,2.6,2.6
		C-2.7,978.8-1.5,977.6-1.5,976.2z"/>
	<path class="st1" d="M-1.5,1005.1c0-1.4-1.1-2.6-2.6-2.6c-1.4,0-2.6,1.1-2.6,2.6c0,1.4,1.1,2.6,2.6,2.6
		C-2.7,1007.7-1.5,1006.5-1.5,1005.1z"/>
	<path class="st1" d="M-1.5,1034c0-1.4-1.1-2.6-2.6-2.6c-1.4,0-2.6,1.2-2.6,2.6s1.1,2.6,2.6,2.6C-2.7,1036.6-1.5,1035.4-1.5,1034z"
		/>
</g>
<g class="st0">
	<path class="st1" d="M137.8,305.8L137.8,305.8c4.3,0,8.2,1.8,11.2,5.1c2.3,2.5,5.3,3.9,8.6,3.9l0,0c3.2,0,6.3-1.4,8.6-3.9
		c3-3.3,6.9-5.1,11.2-5.1l0,0c4.2,0,8.2,1.8,11.2,5.1c0.7,0.7,0.6,1.9-0.1,2.5c-0.7,0.7-1.9,0.6-2.5-0.1c-2.3-2.5-5.3-3.9-8.5-3.9
		l0,0c-3.2,0-6.3,1.4-8.6,3.9c-3,3.3-6.9,5.1-11.2,5.1l0,0c-4.3,0-8.2-1.8-11.2-5.1c-2.3-2.5-5.3-3.9-8.5-3.9l0,0
		c-3.2,0-6.3,1.4-8.6,3.9c-3,3.3-6.9,5.1-11.2,5.1l0,0c-4.2,0-8.2-1.8-11.2-5.1c-4.6-5-12.6-5-17.1,0c-3,3.3-6.9,5.1-11.2,5.1l0,0
		c-4.2,0-8.2-1.8-11.2-5.1c-2.3-2.5-5.3-3.9-8.6-3.9l0,0c-3.2,0-6.3,1.4-8.6,3.9c-0.7,0.7-1.8,0.8-2.5,0.1c-0.7-0.7-0.8-1.8-0.1-2.5
		c3-3.3,6.9-5.1,11.2-5.1l0,0c4.2,0,8.2,1.8,11.2,5.1c2.3,2.5,5.3,3.9,8.6,3.9l0,0c3.2,0,6.3-1.4,8.6-3.9c5.9-6.5,16.4-6.5,22.4,0
		c2.3,2.5,5.3,3.9,8.6,3.9l0,0c3.2,0,6.3-1.4,8.6-3.9C129.6,307.6,133.6,305.8,137.8,305.8z"/>
</g>
<g class="st0">
	<path class="st1" d="M171.2,332.5L171.2,332.5c4.3,0,8.2,1.8,11.2,5.1c2.3,2.5,5.3,3.9,8.6,3.9l0,0c3.2,0,6.3-1.4,8.6-3.9
		c3-3.3,6.9-5.1,11.2-5.1l0,0c4.2,0,8.2,1.8,11.2,5.1c0.7,0.7,0.6,1.9-0.1,2.5c-0.7,0.7-1.9,0.6-2.5-0.1c-2.3-2.5-5.3-3.9-8.5-3.9
		l0,0c-3.2,0-6.3,1.4-8.6,3.9c-3,3.3-6.9,5.1-11.2,5.1l0,0c-4.3,0-8.2-1.8-11.2-5.1c-2.3-2.5-5.3-3.9-8.5-3.9l0,0
		c-3.2,0-6.3,1.4-8.6,3.9c-3,3.3-6.9,5.1-11.2,5.1l0,0c-4.2,0-8.2-1.8-11.2-5.1c-4.6-5-12.6-5-17.1,0c-3,3.3-6.9,5.1-11.2,5.1l0,0
		c-4.2,0-8.2-1.8-11.2-5.1c-2.3-2.5-5.3-3.9-8.6-3.9l0,0c-3.2,0-6.3,1.4-8.6,3.9c-0.7,0.7-1.8,0.8-2.5,0.1c-0.7-0.7-0.8-1.8-0.1-2.5
		c3-3.3,6.9-5.1,11.2-5.1l0,0c4.2,0,8.2,1.8,11.2,5.1c2.3,2.5,5.3,3.9,8.6,3.9l0,0c3.2,0,6.3-1.4,8.6-3.9c5.9-6.5,16.4-6.5,22.4,0
		c2.3,2.5,5.3,3.9,8.6,3.9l0,0c3.2,0,6.3-1.4,8.6-3.9C163,334.3,166.9,332.5,171.2,332.5z"/>
</g>
<g class="st0">
	<path class="st2" d="M233.1,499.4c4.7-10.4,16.9-15,27.3-10.4l-3.1,6.9c-6.6-3-14.3,0-17.3,6.6s0,14.3,6.6,17.3l-3.1,6.9
		C233.1,522.1,228.5,509.8,233.1,499.4z"/>
</g>
<g class="st0">
	<circle class="st1" cx="1365.2" cy="255.3" r="2.8"/>
	<circle class="st1" cx="1345.3" cy="106.6" r="2.8"/>
	<circle class="st1" cx="1480" cy="152.1" r="2.8"/>
	<ellipse class="st1" cx="1305.9" cy="308.1" rx="2.8" ry="2.8"/>
	<circle class="st1" cx="1424.4" cy="225.7" r="2.8"/>
	<circle class="st1" cx="1398.2" cy="105" r="2.8"/>
	<circle class="st1" cx="1276.8" cy="50.1" r="2.8"/>
	<circle class="st1" cx="1372.2" cy="36.1" r="2.8"/>
	<circle class="st1" cx="1304.2" cy="162.9" r="2.8"/>
	<circle class="st1" cx="1200.5" cy="220.6" r="2.8"/>
	<circle class="st1" cx="1483.5" cy="120.9" r="2.8"/>
	<circle class="st1" cx="1392.7" cy="81.9" r="2.8"/>
	<circle class="st1" cx="1307.8" cy="57.9" r="2.8"/>
	<circle class="st1" cx="1308.3" cy="115.3" r="2.8"/>
	<ellipse class="st1" cx="1348.3" cy="264.2" rx="2.8" ry="2.8"/>
	<circle class="st1" cx="1493.7" cy="171.3" r="2.8"/>
	<circle class="st1" cx="1287.2" cy="309.5" r="2.8"/>
	<circle class="st1" cx="1423.3" cy="151.7" r="2.8"/>
	<circle class="st1" cx="1364.9" cy="283.3" r="2.8"/>
	<circle class="st1" cx="1412.4" cy="255.7" r="2.8"/>
	<circle class="st1" cx="1242.2" cy="266.6" r="2.8"/>
	<circle class="st1" cx="1261.8" cy="296.9" r="2.8"/>
	<circle class="st1" cx="1402.5" cy="38.1" r="2.8"/>
	<circle class="st1" cx="1308.2" cy="236.2" r="2.8"/>
	<circle class="st1" cx="1365.5" cy="123.8" r="2.8"/>
	<circle class="st1" cx="1293.9" cy="109.7" r="2.8"/>
	<circle class="st1" cx="1363.9" cy="142.7" r="2.8"/>
	<circle class="st1" cx="1400.6" cy="75.2" r="2.8"/>
	<circle class="st1" cx="1197.2" cy="191.9" r="2.8"/>
	<circle class="st1" cx="1353.9" cy="164.6" r="2.8"/>
	<circle class="st1" cx="1384.8" cy="287.6" r="2.8"/>
	<circle class="st1" cx="1326" cy="244.9" r="2.8"/>
	<circle class="st1" cx="1394.9" cy="233.5" r="2.8"/>
	<circle class="st1" cx="1322.4" cy="182.8" r="2.8"/>
	<circle class="st1" cx="1231" cy="104.8" r="2.8"/>
	<circle class="st1" cx="1310.9" cy="22.9" r="2.8"/>
	<circle class="st1" cx="1255.7" cy="95.5" r="2.8"/>
	<circle class="st1" cx="1244.7" cy="210.7" r="2.8"/>
	<circle class="st1" cx="1417.9" cy="176.5" r="2.8"/>
	<circle class="st1" cx="1295.4" cy="90.1" r="2.8"/>
	<circle class="st1" cx="1388.9" cy="164.6" r="2.8"/>
	<circle class="st1" cx="1251.3" cy="118.9" r="2.8"/>
	<circle class="st1" cx="1289.4" cy="167.6" r="2.8"/>
	<circle class="st1" cx="1351.1" cy="87.8" r="2.8"/>
	<circle class="st1" cx="1463.1" cy="121.5" r="2.8"/>
	<circle class="st1" cx="1404.3" cy="62" r="2.8"/>
	<circle class="st1" cx="1207.5" cy="144.1" r="2.8"/>
	<circle class="st1" cx="1433.8" cy="112.9" r="2.8"/>
	<circle class="st1" cx="1464.2" cy="172.2" r="2.8"/>
	<circle class="st1" cx="1235.6" cy="168.5" r="2.8"/>
	<circle class="st1" cx="1377.3" cy="303.9" r="2.8"/>
	<circle class="st1" cx="1414.4" cy="83.4" r="2.8"/>
	<circle class="st1" cx="1334.3" cy="309.9" r="2.8"/>
	<circle class="st1" cx="1405.9" cy="215.8" r="2.8"/>
	<circle class="st1" cx="1485.1" cy="195.7" r="2.8"/>
	<circle class="st1" cx="1327.9" cy="89.6" r="2.8"/>
	<circle class="st1" cx="1247.4" cy="138.7" r="2.8"/>
	<circle class="st1" cx="1321.9" cy="127.8" r="2.8"/>
	<circle class="st1" cx="1424.3" cy="239.9" r="2.8"/>
	<circle class="st1" cx="1267.9" cy="38.1" r="2.8"/>
	<circle class="st1" cx="1220.2" cy="202.8" r="2.8"/>
	<circle class="st1" cx="1364.6" cy="170" r="2.8"/>
	<circle class="st1" cx="1448.3" cy="79.7" r="2.8"/>
	<circle class="st1" cx="1423.9" cy="251.4" r="2.8"/>
	<circle class="st1" cx="1214.1" cy="181.9" r="2.8"/>
	<circle class="st1" cx="1304.8" cy="260.1" r="2.8"/>
	<circle class="st1" cx="1431.6" cy="286" r="2.8"/>
	<circle class="st1" cx="1325.7" cy="65" r="2.8"/>
	<circle class="st1" cx="1360.1" cy="298.2" r="2.8"/>
	<circle class="st1" cx="1445.3" cy="257.5" r="2.8"/>
	<circle class="st1" cx="1194.1" cy="165.9" r="2.8"/>
	<circle class="st1" cx="1400" cy="185.5" r="2.8"/>
	<circle class="st1" cx="1283" cy="72.4" r="2.8"/>
	<circle class="st1" cx="1312.9" cy="36.8" r="2.8"/>
	<circle class="st1" cx="1459.5" cy="143.5" r="2.8"/>
	<circle class="st1" cx="1243.4" cy="240.7" r="2.8"/>
	<circle class="st1" cx="1439.1" cy="184.7" r="2.8"/>
	<circle class="st1" cx="1307.8" cy="200.1" r="2.8"/>
	<circle class="st1" cx="1455.4" cy="195.2" r="2.8"/>
	<circle class="st1" cx="1264.9" cy="254.7" r="2.8"/>
	<circle class="st1" cx="1377.8" cy="77.8" r="2.8"/>
	<circle class="st1" cx="1234.5" cy="221.8" r="2.8"/>
	<circle class="st1" cx="1319.3" cy="298.8" r="2.8"/>
	<circle class="st1" cx="1358.5" cy="131.9" r="2.8"/>
	<circle class="st1" cx="1440.6" cy="165.4" r="2.8"/>
	<circle class="st1" cx="1433.9" cy="62" r="2.8"/>
	<ellipse class="st1" cx="1263.2" cy="78.1" rx="2.8" ry="2.8"/>
	<circle class="st1" cx="1275.2" cy="105" r="2.8"/>
	<circle class="st1" cx="1190.5" cy="136.8" r="2.8"/>
	<circle class="st1" cx="1373.5" cy="146" r="2.8"/>
	<circle class="st1" cx="1371.7" cy="108" r="2.8"/>
	<circle class="st1" cx="1290.4" cy="278.7" r="2.8"/>
	<circle class="st1" cx="1230.4" cy="153.6" r="2.8"/>
	<circle class="st1" cx="1398.5" cy="273" r="2.8"/>
	<circle class="st1" cx="1344.2" cy="131.5" r="2.8"/>
	<circle class="st1" cx="1387.1" cy="24" r="2.8"/>
	<circle class="st1" cx="1393.1" cy="124.3" r="2.8"/>
	<circle class="st1" cx="1271.9" cy="279.8" r="2.8"/>
	<circle class="st1" cx="1339.8" cy="290.3" r="2.8"/>
	<circle class="st1" cx="1265.9" cy="165.1" r="2.8"/>
	<circle class="st1" cx="1421.9" cy="125.9" r="2.8"/>
	<circle class="st1" cx="1387.7" cy="318.6" r="2.8"/>
	<ellipse class="st1" cx="1438.8" cy="141.7" rx="2.8" ry="2.8"/>
	<circle class="st1" cx="1384.3" cy="213.3" r="2.8"/>
	<circle class="st1" cx="1235.2" cy="184.5" r="2.8"/>
	<circle class="st1" cx="1259.5" cy="183.4" r="2.8"/>
	<circle class="st1" cx="1244.5" cy="74.7" r="2.8"/>
	<circle class="st1" cx="1290.5" cy="236.5" r="2.8"/>
	<circle class="st1" cx="1310.2" cy="77.5" r="2.8"/>
	<circle class="st1" cx="1395.6" cy="253.1" r="2.8"/>
	<circle class="st1" cx="1443.4" cy="212.2" r="2.8"/>
	<circle class="st1" cx="1330.8" cy="274.7" r="2.8"/>
	<circle class="st1" cx="1437.6" cy="266.1" r="2.8"/>
	<circle class="st1" cx="1337.2" cy="176.7" r="2.8"/>
	<circle class="st1" cx="1367.9" cy="228.3" r="2.8"/>
	<circle class="st1" cx="1325.5" cy="211.4" r="2.8"/>
	<circle class="st1" cx="1328.4" cy="230.9" r="2.8"/>
	<circle class="st1" cx="1249.6" cy="279.4" r="2.8"/>
	<circle class="st1" cx="1315.1" cy="159.4" r="2.8"/>
	<circle class="st1" cx="1309.4" cy="318.6" r="2.8"/>
	<circle class="st1" cx="1340" cy="56.9" r="2.8"/>
	<circle class="st1" cx="1334.1" cy="28" r="2.8"/>
	<circle class="st1" cx="1485.4" cy="224.5" r="2.8"/>
	<circle class="st1" cx="1215.9" cy="225" r="2.8"/>
	<circle class="st1" cx="1280.4" cy="185.5" r="2.8"/>
	<circle class="st1" cx="1211.8" cy="164.2" r="2.8"/>
	<circle class="st1" cx="1447.5" cy="98.9" r="2.8"/>
	<circle class="st1" cx="1286.5" cy="35.2" r="2.8"/>
	<circle class="st1" cx="1386.7" cy="51.6" r="2.8"/>
	<circle class="st1" cx="1278.5" cy="254.6" r="2.8"/>
	<circle class="st1" cx="1368" cy="207.3" r="2.8"/>
	<circle class="st1" cx="1360.6" cy="72.9" r="2.8"/>
	<circle class="st1" cx="1388.5" cy="202.1" r="2.8"/>
	<circle class="st1" cx="1250.5" cy="55.5" r="2.8"/>
	<circle class="st1" cx="1221.5" cy="125.2" r="2.8"/>
	<circle class="st1" cx="1224.5" cy="86.5" r="2.8"/>
	<circle class="st1" cx="1403.5" cy="152.7" r="2.8"/>
	<circle class="st1" cx="1449" cy="278.4" r="2.8"/>
	<circle class="st1" cx="1235" cy="63.6" r="2.8"/>
	<circle class="st1" cx="1298.9" cy="146.8" r="2.8"/>
	<circle class="st1" cx="1411.4" cy="287.3" r="2.8"/>
	<circle class="st1" cx="1348.9" cy="42.9" r="2.8"/>
	<circle class="st1" cx="1281.9" cy="133.3" r="2.8"/>
	<circle class="st1" cx="1273.1" cy="209.7" r="2.8"/>
	<circle class="st1" cx="1381.9" cy="265.8" r="2.8"/>
	<circle class="st1" cx="1210.7" cy="101.9" r="2.8"/>
	<circle class="st1" cx="1334.3" cy="149.8" r="2.8"/>
	<circle class="st1" cx="1275.6" cy="227.6" r="2.8"/>
	<circle class="st1" cx="1425.6" cy="47.9" r="2.8"/>
	<circle class="st1" cx="1204.1" cy="118.8" r="2.8"/>
	<circle class="st1" cx="1294.6" cy="210" r="2.8"/>
	<circle class="st1" cx="1350" cy="241.4" r="2.8"/>
	<circle class="st1" cx="1466.3" cy="255.6" r="2.8"/>
	<circle class="st1" cx="1354.2" cy="22.8" r="2.8"/>
	<circle class="st1" cx="1475.6" cy="105.4" r="2.8"/>
	<circle class="st1" cx="1485.1" cy="208.5" r="2.8"/>
	<circle class="st1" cx="1217.2" cy="245.8" r="2.8"/>
	<circle class="st1" cx="1351.9" cy="195.3" r="2.8"/>
	<ellipse class="st1" cx="1492.9" cy="142.2" rx="2.8" ry="2.8"/>
	<circle class="st1" cx="1465.3" cy="213.6" r="2.8"/>
	<circle class="st1" cx="1463.2" cy="240.9" r="2.8"/>
	<circle class="st1" cx="1434.1" cy="92" r="2.8"/>
	<circle class="st1" cx="1347.5" cy="218.1" r="2.8"/>
</g>
<g class="st0">
	<path class="st2" d="M1092.4,745.1c-0.1,0.1-0.1,0.2-0.2,0.3s-0.1,0.2-0.2,0.3c0,0.1,0,0.2,0,0.3s0,0.3,0,0.4l26.3,78
		c0.2,0.5,0.6,0.8,1.1,0.9l81.1,16c0.4,0.1,0.7,0,1-0.3c0.1-0.1,0.2-0.1,0.3-0.2l0,0l0,0l54-62.1c0.3-0.4,0.4-0.9,0.3-1.4l-26.3-78
		l0,0l0,0c-0.1-0.2-0.2-0.4-0.4-0.6c0,0,0,0-0.1,0h-0.1c-0.1-0.1-0.3-0.2-0.5-0.2l-81.1-16c-0.5-0.1-1,0.1-1.3,0.5L1092.4,745.1z
		 M1120.9,822.8l-25.3-74.9l28,5.5l50,9.9l25.3,74.9L1120.9,822.8z M1253.4,777.7l-51.9,59.6l-25.3-74.9l13.6-15.6l38.3-44
		L1253.4,777.7z M1226,700.9l-44.7,51.4l-7.2,8.3l-78-15.4l51.9-59.7L1226,700.9z"/>
</g>
<g class="st0">
	<g class="st3">
		<path class="st4" d="M839.1,777.7L839.1,777.7c5.5,0,10.6,2.3,14.5,6.5c3,3.3,6.9,5,11.1,5l0,0c4.2,0,8.1-1.8,11.1-5
			c3.9-4.2,9-6.5,14.5-6.5l0,0c5.5,0,10.6,2.3,14.5,6.5c0.9,0.9,0.8,2.4-0.2,3.3c-0.9,0.9-2.4,0.8-3.3-0.2c-2.9-3.2-6.9-5-11.1-5
			l0,0c-4.2,0-8.1,1.8-11.1,5c-3.8,4.2-9,6.5-14.5,6.5l0,0c-5.5,0-10.6-2.3-14.5-6.5c-3-3.2-6.9-5-11.1-5l0,0c-4.2,0-8.1,1.8-11.1,5
			c-3.8,4.2-9,6.5-14.5,6.5l0,0c-5.5,0-10.7-2.3-14.5-6.5c-5.9-6.5-16.3-6.5-22.2,0c-3.8,4.2-9,6.5-14.5,6.5l0,0
			c-5.5,0-10.7-2.3-14.5-6.5c-3-3.3-6.9-5-11.1-5l0,0c-4.2,0-8.1,1.8-11.1,5c-0.9,0.9-2.3,1-3.3,0.2c-0.9-0.9-1-2.3-0.2-3.2
			c3.8-4.2,9-6.5,14.5-6.5l0,0c5.5,0,10.7,2.3,14.5,6.5c3,3.3,6.9,5,11.1,5l0,0c4.2,0,8.1-1.8,11.1-5c7.7-8.4,21.3-8.4,29,0
			c3,3.3,6.9,5,11.1,5l0,0c4.2,0,8.1-1.8,11.1-5C828.4,780,833.6,777.7,839.1,777.7z"/>
	</g>
	<g class="st3">
		<path class="st4" d="M839.1,725.7L839.1,725.7c5.5,0,10.6,2.3,14.5,6.5c3,3.3,6.9,5,11.1,5l0,0c4.2,0,8.1-1.8,11.1-5
			c3.9-4.2,9-6.5,14.5-6.5l0,0c5.5,0,10.6,2.3,14.5,6.5c0.9,0.9,0.8,2.4-0.2,3.3c-0.9,0.9-2.4,0.8-3.3-0.2c-2.9-3.2-6.9-5-11.1-5
			l0,0c-4.2,0-8.1,1.8-11.1,5c-3.8,4.2-9,6.5-14.5,6.5l0,0c-5.5,0-10.6-2.3-14.5-6.5c-3-3.3-6.9-5-11.1-5l0,0c-4.2,0-8.1,1.8-11.1,5
			c-3.8,4.2-9,6.5-14.5,6.5l0,0c-5.5,0-10.7-2.3-14.5-6.5c-5.9-6.5-16.3-6.5-22.2,0c-3.8,4.2-9,6.5-14.5,6.5l0,0
			c-5.5,0-10.7-2.3-14.5-6.5c-3-3.3-6.9-5-11.1-5l0,0c-4.2,0-8.1,1.8-11.1,5c-0.9,0.9-2.3,1-3.3,0.2c-0.9-0.9-1-2.3-0.2-3.3
			c3.8-4.2,9-6.5,14.5-6.5l0,0c5.5,0,10.7,2.3,14.5,6.5c3,3.3,6.9,5,11.1,5l0,0c4.2,0,8.1-1.8,11.1-5c7.7-8.4,21.3-8.4,29,0
			c3,3.3,6.9,5,11.1,5l0,0c4.2,0,8.1-1.8,11.1-5C828.4,728,833.6,725.7,839.1,725.7z"/>
	</g>
	<g class="st3">
		<path class="st4" d="M839.1,752.1L839.1,752.1c5.5,0,10.6,2.3,14.5,6.5c3,3.3,6.9,5,11.1,5l0,0c4.2,0,8.1-1.8,11.1-5
			c3.9-4.2,9-6.5,14.5-6.5l0,0c5.5,0,10.6,2.3,14.5,6.5c0.9,0.9,0.8,2.4-0.2,3.3c-0.9,0.9-2.4,0.8-3.3-0.2c-2.9-3.2-6.9-5-11.1-5
			l0,0c-4.2,0-8.1,1.8-11.1,5c-3.8,4.2-9,6.5-14.5,6.5l0,0c-5.5,0-10.6-2.3-14.5-6.5c-3-3.3-6.9-5-11.1-5l0,0c-4.2,0-8.1,1.8-11.1,5
			c-3.8,4.2-9,6.5-14.5,6.5l0,0c-5.5,0-10.7-2.3-14.5-6.5c-5.9-6.5-16.3-6.5-22.2,0c-3.8,4.2-9,6.5-14.5,6.5l0,0
			c-5.5,0-10.7-2.3-14.5-6.5c-3-3.3-6.9-5-11.1-5l0,0c-4.2,0-8.1,1.8-11.1,5c-0.9,0.9-2.3,1-3.3,0.2c-0.9-0.9-1-2.3-0.2-3.3
			c3.8-4.2,9-6.5,14.5-6.5l0,0c5.5,0,10.7,2.3,14.5,6.5c3,3.3,6.9,5,11.1,5l0,0c4.2,0,8.1-1.8,11.1-5c7.7-8.4,21.3-8.4,29,0
			c3,3.3,6.9,5,11.1,5l0,0c4.2,0,8.1-1.8,11.1-5C828.4,754.4,833.6,752.1,839.1,752.1z"/>
	</g>
</g>
<path class="st5" d="M1459.2,741.7c-2,1.1-2.6,3.6-1.5,5.6s3.6,2.6,5.6,1.5s2.6-3.6,1.5-5.6C1463.7,741.3,1461.2,740.6,1459.2,741.7
	z M1531.1,867.3c-2,1.1-2.6,3.6-1.5,5.6s3.6,2.6,5.6,1.5s2.6-3.6,1.5-5.6C1535.5,866.9,1533,866.2,1531.1,867.3z M1508.6,852.4
	c-2,1.1-2.6,3.6-1.5,5.6s3.6,2.6,5.6,1.5s2.6-3.6,1.5-5.6S1510.6,851.3,1508.6,852.4z M1532.6,894.2c-2,1.1-2.6,3.6-1.5,5.6
	s3.6,2.6,5.6,1.5s2.6-3.6,1.5-5.6S1534.6,893.1,1532.6,894.2z M1483.2,783.6c-2,1.1-2.6,3.6-1.5,5.6s3.6,2.6,5.6,1.5
	s2.6-3.6,1.5-5.6C1487.6,783.1,1485.1,782.5,1483.2,783.6z M1505.6,798.5c-2,1.1-2.6,3.6-1.5,5.6s3.6,2.6,5.6,1.5s2.6-3.6,1.5-5.6
	C1510.1,798.1,1507.6,797.4,1505.6,798.5z M1459.5,722.4l-3.2-1.8C1457.1,721.7,1458.2,722.3,1459.5,722.4z M1507.1,825.4
	c-2,1.1-2.6,3.6-1.5,5.6s3.6,2.6,5.6,1.5s2.6-3.6,1.5-5.6C1511.6,825,1509.1,824.3,1507.1,825.4z M1484.7,810.5
	c-2,1.1-2.6,3.6-1.5,5.6s3.6,2.6,5.6,1.5s2.6-3.6,1.5-5.6C1489.1,810.1,1486.6,809.4,1484.7,810.5z M1481.7,756.7
	c-2,1.1-2.6,3.6-1.5,5.6s3.6,2.6,5.6,1.5s2.6-3.6,1.5-5.6C1486.1,756.2,1483.6,755.5,1481.7,756.7z M1460.7,768.6
	c-2,1.1-2.6,3.6-1.5,5.6s3.6,2.6,5.6,1.5s2.6-3.6,1.5-5.6C1465.2,768.2,1462.7,767.5,1460.7,768.6z M1438.3,753.7
	c-2,1.1-2.6,3.6-1.5,5.6s3.6,2.6,5.6,1.5s2.6-3.6,1.5-5.6C1442.7,753.3,1440.2,752.6,1438.3,753.7z M1487.7,864.3
	c-2,1.1-2.6,3.6-1.5,5.6s3.6,2.6,5.6,1.5s2.6-3.6,1.5-5.6C1492.2,863.9,1489.7,863.2,1487.7,864.3z M1511.7,906.2
	c-2,1.1-2.6,3.6-1.5,5.6s3.6,2.6,5.6,1.5s2.6-3.6,1.5-5.6S1513.6,905.1,1511.7,906.2z M1462.2,795.6c-2,1.1-2.6,3.6-1.5,5.6
	s3.6,2.6,5.6,1.5s2.6-3.6,1.5-5.6S1464.2,794.4,1462.2,795.6z M1436.8,726.8c-2,1.1-2.6,3.6-1.5,5.6s3.6,2.6,5.6,1.5
	s2.6-3.6,1.5-5.6C1441.2,726.3,1438.7,725.7,1436.8,726.8z M1424.5,704.3c-2,1.1-2.6,3.6-1.5,5.6s3.6,2.6,5.6,1.5s2.6-3.6,1.5-5.6
	C1428.9,703.8,1426.4,703.2,1424.5,704.3z M1486.2,837.4c-2,1.1-2.6,3.6-1.5,5.6s3.6,2.6,5.6,1.5s2.6-3.6,1.5-5.6
	C1490.7,837,1488.2,836.3,1486.2,837.4z M1510.2,879.3c-2,1.1-2.6,3.6-1.5,5.6s3.6,2.6,5.6,1.5s2.6-3.6,1.5-5.6
	C1514.6,878.8,1512.1,878.2,1510.2,879.3z M1504.1,771.6c-2,1.1-2.6,3.6-1.5,5.6s3.6,2.6,5.6,1.5s2.6-3.6,1.5-5.6
	C1508.6,771.2,1506.1,770.5,1504.1,771.6z M1553.5,882.3c-2,1.1-2.6,3.6-1.5,5.6s3.6,2.6,5.6,1.5s2.6-3.6,1.5-5.6
	S1555.5,881.1,1553.5,882.3z M1595.4,858.3c-2,1.1-2.6,3.6-1.5,5.6s3.6,2.6,5.6,1.5s2.6-3.6,1.5-5.6
	C1599.8,857.9,1597.4,857.2,1595.4,858.3z M1549,801.5c-2,1.1-2.6,3.6-1.5,5.6s3.6,2.6,5.6,1.5s2.6-3.6,1.5-5.6
	C1553.4,801,1551,800.4,1549,801.5z M1529.1,766.7c1-0.6,1.7-1.6,1.9-2.6l-6.7-3.9c-1.4,1.3-1.8,3.3-0.8,5
	C1524.6,767.1,1527.1,767.8,1529.1,766.7z M1659.7,849.3c-2,1.1-2.6,3.6-1.5,5.6c0.8,1.4,2.4,2.2,3.9,2l2.9-1.7
	c0.9-1.3,1.1-3,0.2-4.4C1664.2,848.8,1661.7,848.2,1659.7,849.3z M1550.5,828.4c-2,1.1-2.6,3.6-1.5,5.6s3.6,2.6,5.6,1.5
	s2.6-3.6,1.5-5.6C1555,828,1552.5,827.3,1550.5,828.4z M1429.5,981c-2,1.1-2.6,3.6-1.5,5.6c0.8,1.4,2.4,2.2,3.9,2l2.9-1.7
	c0.9-1.3,1.1-3,0.2-4.4C1433.9,980.6,1431.4,979.9,1429.5,981z M1423.4,873.4c-1.1,0.6-1.8,1.7-2,2.9v1.3c0.1,0.5,0.2,0.9,0.5,1.4
	c1.1,2,3.6,2.6,5.6,1.5s2.6-3.6,1.5-5.6C1427.9,872.9,1425.4,872.2,1423.4,873.4z M1571.4,816.4c-2,1.1-2.6,3.6-1.5,5.6
	s3.6,2.6,5.6,1.5s2.6-3.6,1.5-5.6C1575.9,816,1573.4,815.3,1571.4,816.4z M1573,843.4c-2,1.1-2.6,3.6-1.5,5.6s3.6,2.6,5.6,1.5
	s2.6-3.6,1.5-5.6C1577.4,842.9,1574.9,842.2,1573,843.4z M1552,855.3c-2,1.1-2.6,3.6-1.5,5.6s3.6,2.6,5.6,1.5s2.6-3.6,1.5-5.6
	C1556.5,854.9,1554,854.2,1552,855.3z M1463.8,822.5c-2,1.1-2.6,3.6-1.5,5.6s3.6,2.6,5.6,1.5s2.6-3.6,1.5-5.6
	C1468.2,822,1465.7,821.4,1463.8,822.5z M1574.5,870.3c-2,1.1-2.6,3.6-1.5,5.6s3.6,2.6,5.6,1.5s2.6-3.6,1.5-5.6
	S1576.4,869.2,1574.5,870.3z M1529.6,840.4c-2,1.1-2.6,3.6-1.5,5.6s3.6,2.6,5.6,1.5s2.6-3.6,1.5-5.6
	C1534,839.9,1531.5,839.3,1529.6,840.4z M1484.2,736.8L1484.2,736.8l-6.1-3.6c0,0.7,0.1,1.4,0.5,2.1
	C1479.8,737.3,1482.2,737.9,1484.2,736.8z M1526.6,786.5c-2,1.1-2.6,3.6-1.5,5.6s3.6,2.6,5.6,1.5s2.6-3.6,1.5-5.6
	C1531,786.1,1528.5,785.4,1526.6,786.5z M1528.1,813.5c-2,1.1-2.6,3.6-1.5,5.6s3.6,2.6,5.6,1.5s2.6-3.6,1.5-5.6
	C1532.5,813,1530,812.3,1528.1,813.5z M1506.6,751.8c0.5-0.3,0.9-0.7,1.3-1.2l-7-4.1c-0.5,1.2-0.5,2.5,0.2,3.7
	C1502.2,752.2,1504.7,752.9,1506.6,751.8z M1638.8,861.3c-2,1.1-2.6,3.6-1.5,5.6c0.8,1.4,2.4,2.2,3.9,2l2.9-1.7
	c0.9-1.3,1.1-3,0.2-4.4C1643.2,860.8,1640.7,860.1,1638.8,861.3z M1534.1,921.1c-2,1.1-2.6,3.6-1.5,5.6c0.8,1.4,2.4,2.2,3.9,2
	l2.9-1.7c0.9-1.3,1.1-3,0.2-4.4C1538.6,920.7,1536.1,920,1534.1,921.1z M1513.2,933.1c-2,1.1-2.6,3.6-1.5,5.6c0.8,1.4,2.4,2.2,3.9,2
	l2.9-1.7c0.9-1.3,1.1-3,0.2-4.4C1517.6,932.7,1515.1,932,1513.2,933.1z M1555.1,909.2c-2,1.1-2.6,3.6-1.5,5.6c0.8,1.4,2.4,2.2,3.9,2
	l2.9-1.7c0.9-1.3,1.1-3,0.2-4.4C1559.5,908.7,1557,908.1,1555.1,909.2z M1576,897.2c-2,1.1-2.6,3.6-1.5,5.6c0.8,1.4,2.4,2.2,3.9,2
	l2.9-1.7c0.9-1.3,1.1-3,0.2-4.4C1580.4,896.8,1577.9,896.1,1576,897.2z M1471.3,957.1c-2,1.1-2.6,3.6-1.5,5.6c0.8,1.4,2.4,2.2,3.9,2
	l2.9-1.7c0.9-1.3,1.1-3,0.2-4.4C1475.8,956.7,1473.3,956,1471.3,957.1z M1492.3,945.1c-2,1.1-2.6,3.6-1.5,5.6c0.8,1.4,2.4,2.2,3.9,2
	l2.9-1.7c0.9-1.3,1.1-3,0.2-4.4C1496.7,944.7,1494.2,944,1492.3,945.1z M1450.4,969.1c-2,1.1-2.6,3.6-1.5,5.6c0.8,1.4,2.4,2.2,3.9,2
	l2.9-1.7c0.9-1.3,1.1-3,0.2-4.4C1454.8,968.6,1452.3,967.9,1450.4,969.1z M1427.9,954.1c-2,1.1-2.6,3.6-1.5,5.6s3.6,2.6,5.6,1.5
	s2.6-3.6,1.5-5.6S1429.9,953,1427.9,954.1z M1596.9,885.2c-2,1.1-2.6,3.6-1.5,5.6c0.8,1.4,2.4,2.2,3.9,2l2.9-1.7
	c0.9-1.3,1.1-3,0.2-4.4C1601.4,884.8,1598.9,884.1,1596.9,885.2z M1637.3,834.3c-2,1.1-2.6,3.6-1.5,5.6s3.6,2.6,5.6,1.5
	s2.6-3.6,1.5-5.6S1639.2,833.2,1637.3,834.3z M1592.4,804.5c-2,1.1-2.6,3.6-1.5,5.6s3.6,2.6,5.6,1.5s2.6-3.6,1.5-5.6
	C1596.8,804,1594.3,803.3,1592.4,804.5z M1614.8,819.4c-2,1.1-2.6,3.6-1.5,5.6s3.6,2.6,5.6,1.5s2.6-3.6,1.5-5.6
	C1619.3,819,1616.8,818.3,1614.8,819.4z M1426.4,927.2c-2,1.1-2.6,3.6-1.5,5.6s3.6,2.6,5.6,1.5s2.6-3.6,1.5-5.6
	C1430.9,926.8,1428.4,926.1,1426.4,927.2z M1617.8,873.2c-2,1.1-2.6,3.6-1.5,5.6c0.8,1.4,2.4,2.2,3.9,2l2.9-1.7
	c0.9-1.3,1.1-3,0.2-4.4C1622.3,872.8,1619.8,872.1,1617.8,873.2z M1551.5,781.7c1.6-0.9,2.3-2.8,1.9-4.5l-5-2.9
	c-0.3,0.1-0.6,0.2-0.9,0.4c-2,1.1-2.6,3.6-1.5,5.6C1547.1,782.1,1549.6,782.8,1551.5,781.7z M1593.9,831.4c-2,1.1-2.6,3.6-1.5,5.6
	s3.6,2.6,5.6,1.5s2.6-3.6,1.5-5.6C1598.3,830.9,1595.8,830.3,1593.9,831.4z M1569.9,789.5c-2,1.1-2.6,3.6-1.5,5.6s3.6,2.6,5.6,1.5
	s2.6-3.6,1.5-5.6C1574.4,789.1,1571.9,788.4,1569.9,789.5z M1616.3,846.3c-2,1.1-2.6,3.6-1.5,5.6s3.6,2.6,5.6,1.5s2.6-3.6,1.5-5.6
	S1618.3,845.2,1616.3,846.3z M1469.8,930.2c-2,1.1-2.6,3.6-1.5,5.6s3.6,2.6,5.6,1.5s2.6-3.6,1.5-5.6S1471.8,929,1469.8,930.2z
	 M1442.8,834.5c-2,1.1-2.6,3.6-1.5,5.6s3.6,2.6,5.6,1.5s2.6-3.6,1.5-5.6S1444.8,833.3,1442.8,834.5z M1421.7,800.1
	c0.4-0.1,0.8-0.2,1.2-0.4c2-1.1,2.6-3.6,1.5-5.6c-0.6-1-1.6-1.7-2.7-1.9V800.1z M1441.3,807.5c-2,1.1-2.6,3.6-1.5,5.6
	s3.6,2.6,5.6,1.5s2.6-3.6,1.5-5.6C1445.8,807.1,1443.3,806.4,1441.3,807.5z M1490.7,918.2c-2,1.1-2.6,3.6-1.5,5.6s3.6,2.6,5.6,1.5
	s2.6-3.6,1.5-5.6S1492.7,917.1,1490.7,918.2z M1466.8,876.3c-2,1.1-2.6,3.6-1.5,5.6s3.6,2.6,5.6,1.5s2.6-3.6,1.5-5.6
	C1471.2,875.9,1468.7,875.2,1466.8,876.3z M1448.9,942.1c-2,1.1-2.6,3.6-1.5,5.6s3.6,2.6,5.6,1.5s2.6-3.6,1.5-5.6
	S1450.8,941,1448.9,942.1z M1489.2,891.3c-2,1.1-2.6,3.6-1.5,5.6s3.6,2.6,5.6,1.5s2.6-3.6,1.5-5.6S1491.2,890.1,1489.2,891.3z
	 M1465.3,849.4c-2,1.1-2.6,3.6-1.5,5.6s3.6,2.6,5.6,1.5s2.6-3.6,1.5-5.6C1469.7,849,1467.2,848.3,1465.3,849.4z M1421.8,772.5
	c1.6-1.2,2.1-3.5,1.1-5.3c-0.3-0.5-0.7-0.9-1.1-1.2V772.5z M1445.9,888.3c-2,1.1-2.6,3.6-1.5,5.6s3.6,2.6,5.6,1.5s2.6-3.6,1.5-5.6
	C1450.3,887.9,1447.8,887.2,1445.9,888.3z M1447.4,915.2c-2,1.1-2.6,3.6-1.5,5.6s3.6,2.6,5.6,1.5s2.6-3.6,1.5-5.6
	C1451.8,914.8,1449.3,914.1,1447.4,915.2z M1439.8,780.6c-2,1.1-2.6,3.6-1.5,5.6s3.6,2.6,5.6,1.5s2.6-3.6,1.5-5.6
	C1444.3,780.2,1441.8,779.5,1439.8,780.6z M1424.9,900.3c-2,1.1-2.6,3.6-1.5,5.6s3.6,2.6,5.6,1.5s2.6-3.6,1.5-5.6
	S1426.9,899.2,1424.9,900.3z M1468.3,903.2c-2,1.1-2.6,3.6-1.5,5.6s3.6,2.6,5.6,1.5s2.6-3.6,1.5-5.6
	C1472.7,902.8,1470.3,902.1,1468.3,903.2z M1444.3,861.4c-2,1.1-2.6,3.6-1.5,5.6s3.6,2.6,5.6,1.5s2.6-3.6,1.5-5.6
	S1446.3,860.3,1444.3,861.4z M1421.9,846.4c-0.1,0.1-0.2,0.2-0.4,0.3v6.6c1.3,0.9,3,1.1,4.4,0.3c2-1.1,2.6-3.6,1.5-5.6
	S1423.9,845.3,1421.9,846.4z M1421.6,819.1v8c0.9,0.2,1.9,0.1,2.8-0.4c2-1.1,2.6-3.6,1.5-5.6
	C1425.1,819.5,1423.3,818.8,1421.6,819.1z"/>
<g class="st0">
	<path class="st1" d="M535.6,200.8c0-0.1,0-0.2,0-0.3s0-0.2,0-0.3s-0.1-0.2-0.1-0.2c-0.1-0.1-0.1-0.2-0.2-0.3l-48.8-49.5
		c-0.3-0.3-0.7-0.4-1.1-0.3l-67.5,17.8c-0.3,0.1-0.5,0.3-0.7,0.6c0,0.1-0.1,0.2-0.1,0.3l0,0l0,0L399,235.7c-0.1,0.4,0,0.8,0.3,1.1
		l48.8,49.5l0,0l0,0c0.1,0.1,0.3,0.3,0.5,0.3c0,0,0,0,0.1,0h0.1c0.1,0,0.3,0,0.4,0l67.5-17.8c0.4-0.1,0.7-0.4,0.8-0.8L535.6,200.8z
		 M485.3,152.3l46.9,47.5l-23.3,6.1l-41.6,11l-46.9-47.5L485.3,152.3z M401.4,235.6l17.3-64.5l46.9,47.5l-4.5,16.9l-12.8,47.6
		L401.4,235.6z M450.5,283.7l14.9-55.5l2.4-9l64.9-17.1l-17.4,64.5L450.5,283.7z"/>
</g>
<g>
	<path class="st6" d="M1618.4,211.2L1618.4,211.2c4.3,0,8.2,1.8,11.2,5.1c2.3,2.5,5.3,3.9,8.6,3.9l0,0c3.2,0,6.3-1.4,8.6-3.9
		c3-3.3,6.9-5.1,11.2-5.1l0,0c4.2,0,8.2,1.8,11.2,5.1c0.7,0.7,0.6,1.9-0.1,2.5c-0.7,0.7-1.9,0.6-2.5-0.1c-2.3-2.5-5.3-3.9-8.5-3.9
		l0,0c-3.2,0-6.3,1.4-8.6,3.9c-3,3.3-6.9,5.1-11.2,5.1l0,0c-4.3,0-8.2-1.8-11.2-5.1c-2.3-2.5-5.3-3.9-8.5-3.9l0,0
		c-3.2,0-6.3,1.4-8.6,3.9c-3,3.3-6.9,5.1-11.2,5.1l0,0c-4.2,0-8.2-1.8-11.2-5.1c-4.6-5-12.6-5-17.1,0c-3,3.3-6.9,5.1-11.2,5.1l0,0
		c-4.2,0-8.2-1.8-11.2-5.1c-2.3-2.5-5.3-3.9-8.6-3.9l0,0c-3.2,0-6.3,1.4-8.6,3.9c-0.7,0.7-1.8,0.8-2.5,0.1c-0.7-0.7-0.8-1.8-0.1-2.5
		c3-3.3,6.9-5.1,11.2-5.1l0,0c4.2,0,8.2,1.8,11.2,5.1c2.3,2.5,5.3,3.9,8.6,3.9l0,0c3.2,0,6.3-1.4,8.6-3.9c5.9-6.5,16.4-6.5,22.4,0
		c2.3,2.5,5.3,3.9,8.6,3.9l0,0c3.2,0,6.3-1.4,8.6-3.9C1610.2,213,1614.2,211.2,1618.4,211.2z"/>
</g>
<g>
	<g>
		<path class="st7" d="M703.2,741.4c0-38.9,31.4-70.4,70.1-70.4c38.7,0,70.1,31.5,70.1,70.4c0,38.9-31.4,70.4-70.1,70.4"/>
		<path class="st7" d="M773.3,826.4c46.7,0,84.6-38.1,84.6-85c0-46.9-37.9-85-84.6-85c-46.7,0-84.6,38.1-84.6,85"/>
		<path class="st7" d="M773.3,811.8c38.7,0,70.1-31.5,70.1-70.4c0-38.9-31.4-70.4-70.1-70.4c-38.7,0-70.1,31.5-70.1,70.4"/>
		<path class="st7" d="M717.7,740.9c0-30.8,24.9-55.9,55.6-55.9c30.7,0,55.6,25,55.6,55.9c0,30.8-24.9,55.9-55.6,55.9"/>
		<path class="st7" d="M732.2,741.4c0-0.1,0-0.2,0-0.2c0-22.8,18.4-41.3,41.1-41.3c22.7,0,41.1,18.5,41.1,41.3
			c0,22.8-18.4,41.3-41.1,41.3"/>
		<path class="st7" d="M773.3,796.8c30.7,0,55.6-25,55.6-55.9c0-30.8-24.9-55.9-55.6-55.9c-30.7,0-55.6,25-55.6,55.9
			c0,0.2,0,0.3,0,0.5"/>
		<path class="st7" d="M746.7,741.4c0-14.8,11.9-26.7,26.6-26.7c14.7,0,26.6,12,26.6,26.7s-11.9,26.7-26.6,26.7"/>
		<path class="st7" d="M773.3,753.1c6.7,0,12.1-5.4,12.1-12.1c0-6.7-5.4-12.1-12.1-12.1s-12.1,5.4-12.1,12.1l0,0.2
			c0,0.9,0,1.8,0,2.7c-1.6,45.6-38.8,82-84.5,82c-46.6,0-84.4-37.9-84.6-84.8"/>
		<path class="st7" d="M732.2,741.4"/>
		<path class="st7" d="M635.6,741.1c0,22.8,18.4,41.3,41.1,41.3c22.7,0,41.1-18.5,41.1-41.3"/>
		<path class="st7" d="M703.2,741.1c-0.1,14.6-12,26.5-26.6,26.5s-26.4-11.8-26.6-26.5"/>
		<path class="st7" d="M650.1,741.1c0.1,14.6,12,26.5,26.6,26.5s26.4-11.8,26.6-26.5"/>
		<path class="st7" d="M688.7,741.1c0,0.1,0,0.2,0,0.2c0,6.7-5.4,12.1-12.1,12.1c-6.7,0-12.1-5.4-12.1-12.1c0-0.1,0-0.2,0-0.2"/>
		<path class="st7" d="M664.6,741.1c0,0.1,0,0.2,0,0.2c0,6.7,5.4,12.1,12.1,12.1c6.7,0,12.1-5.4,12.1-12.1"/>
		<path class="st7" d="M621.1,741.1c0,0.1,0,0.2,0,0.2c0,30.8,24.9,55.9,55.6,55.9c30.7,0,55.6-25,55.6-55.9c0-0.1,0-0.2,0-0.2"/>
		<path class="st7" d="M717.7,741.1c0,22.8-18.4,41.3-41.1,41.3c-22.7,0-41.1-18.5-41.1-41.3"/>
		<path class="st7" d="M746.7,741.1c-0.1,38.8-31.4,70.2-70.1,70.2c-38.6,0-69.9-31.4-70.1-70.2"/>
		<path class="st7" d="M732.2,741.1c0,0.1,0,0.2,0,0.2"/>
		<path class="st7" d="M606.6,741.1c0.1,38.8,31.4,70.2,70.1,70.2c38.6,0,69.9-31.4,70.1-70.2"/>
		<path class="st7" d="M732.2,741.4c0,30.8-24.9,55.9-55.6,55.9c-30.7,0-55.6-25-55.6-55.9c0-0.1,0-0.2,0-0.2"/>
		<g>
			<path class="st7" d="M650.1,741.1c-0.1-38.8-31.4-70.2-70.1-70.2"/>
			<path class="st7" d="M580,685.1c30.7,0,55.6,25,55.6,55.9c0,0.1,0,0.2,0,0.2"/>
			<path class="st7" d="M621.1,741.1c0-22.8-18.4-41.3-41.1-41.3"/>
			<path class="st7" d="M580,714.7c14.6,0,26.4,11.8,26.6,26.4"/>
			<path class="st7" d="M592.1,740.9c0-6.7-5.4-12.1-12.1-12.1"/>
			<polygon points="580,741 580,741 580,741 			"/>
			<path class="st7" d="M664.6,741.4c-0.1-46.8-37.9-84.7-84.6-84.7"/>
		</g>
	</g>
	<line class="st7" x1="932.5" y1="817.2" x2="895.7" y2="817.2"/>
	<path class="st7" d="M747.4,837.5c2.8,7.1,4.7,14,9.1,20.9c5.6,8.2,11.3,15.1,17.6,22c0,25.8,0,52.2,0,78c0,1.9,1.2,4.4,2.5,4.4
		c39.6,3.2,79.3,1.3,118.9,1.3c1.3,0,3.1-0.7,4.4-1.3c3.8-3.7,1.9-8.8,2-13.5c0-4.2,0-8.5,0-12.7c1,0.1,1.9,0.3,2.9,0.4
		c8.3,1.3,17.5,4,25.9,1.8c12-3.2,19.9-14.3,19.9-26.6c0-8.3,0-16.7,0-25c0-0.9-0.4-3.1,0-3.9c0.4-0.8,2-0.4,3.1-0.4
		c7.1-0.1,14.5-2.9,17.5-9.8c4-9.2-2.1-18-6.2-25.9c-4.2-8.1-8.5-16.1-12.7-24.2c-0.8-1.5-1.7-2.7-1.8-4.4c-0.2-4.2,0-8.5,0-12.7
		c0-13.4-2.3-26.7-7.3-39.2c-5.4-13.5-13.6-25.8-23.9-36c-11.2-11-24.8-19.3-39.6-24.4"/>
</g>
<path class="st4" d="M223.1,608.2c-2,1.1-2.6,3.6-1.5,5.6s3.6,2.6,5.6,1.5s2.6-3.6,1.5-5.6C227.6,607.8,225.1,607.1,223.1,608.2z
	 M295,733.8c-2,1.1-2.6,3.6-1.5,5.6s3.6,2.6,5.6,1.5s2.6-3.6,1.5-5.6C299.4,733.4,296.9,732.7,295,733.8z M272.5,718.9
	c-2,1.1-2.6,3.6-1.5,5.6s3.6,2.6,5.6,1.5s2.6-3.6,1.5-5.6S274.5,717.8,272.5,718.9z M296.5,760.7c-2,1.1-2.6,3.6-1.5,5.6
	s3.6,2.6,5.6,1.5s2.6-3.6,1.5-5.6S298.5,759.6,296.5,760.7z M247.1,650.1c-2,1.1-2.6,3.6-1.5,5.6s3.6,2.6,5.6,1.5s2.6-3.6,1.5-5.6
	C251.5,649.6,249,649,247.1,650.1z M269.5,665c-2,1.1-2.6,3.6-1.5,5.6s3.6,2.6,5.6,1.5s2.6-3.6,1.5-5.6
	C274,664.6,271.5,663.9,269.5,665z M223.4,588.9l-3.2-1.8C221,588.2,222.1,588.8,223.4,588.9z M271,691.9c-2,1.1-2.6,3.6-1.5,5.6
	s3.6,2.6,5.6,1.5s2.6-3.6,1.5-5.6C275.5,691.5,273,690.8,271,691.9z M248.6,677c-2,1.1-2.6,3.6-1.5,5.6s3.6,2.6,5.6,1.5
	s2.6-3.6,1.5-5.6C253,676.6,250.5,675.9,248.6,677z M245.6,623.2c-2,1.1-2.6,3.6-1.5,5.6s3.6,2.6,5.6,1.5s2.6-3.6,1.5-5.6
	C250,622.7,247.5,622,245.6,623.2z M224.6,635.1c-2,1.1-2.6,3.6-1.5,5.6s3.6,2.6,5.6,1.5s2.6-3.6,1.5-5.6
	C229.1,634.7,226.6,634,224.6,635.1z M202.2,620.2c-2,1.1-2.6,3.6-1.5,5.6s3.6,2.6,5.6,1.5s2.6-3.6,1.5-5.6
	C206.6,619.8,204.1,619.1,202.2,620.2z M251.6,730.8c-2,1.1-2.6,3.6-1.5,5.6s3.6,2.6,5.6,1.5c2-1.1,2.6-3.6,1.5-5.6
	C256.1,730.4,253.6,729.7,251.6,730.8z M275.6,772.7c-2,1.1-2.6,3.6-1.5,5.6s3.6,2.6,5.6,1.5s2.6-3.6,1.5-5.6
	S277.5,771.6,275.6,772.7z M226.1,662.1c-2,1.1-2.6,3.6-1.5,5.6s3.6,2.6,5.6,1.5s2.6-3.6,1.5-5.6S228.1,660.9,226.1,662.1z
	 M200.7,593.3c-2,1.1-2.6,3.6-1.5,5.6s3.6,2.6,5.6,1.5s2.6-3.6,1.5-5.6C205.1,592.8,202.6,592.2,200.7,593.3z M188.4,570.8
	c-2,1.1-2.6,3.6-1.5,5.6s3.6,2.6,5.6,1.5s2.6-3.6,1.5-5.6C192.8,570.3,190.3,569.7,188.4,570.8z M250.1,703.9
	c-2,1.1-2.6,3.6-1.5,5.6s3.6,2.6,5.6,1.5c2-1.1,2.6-3.6,1.5-5.6C254.6,703.5,252.1,702.8,250.1,703.9z M274.1,745.8
	c-2,1.1-2.6,3.6-1.5,5.6s3.6,2.6,5.6,1.5s2.6-3.6,1.5-5.6C278.5,745.3,276,744.7,274.1,745.8z M268,638.1c-2,1.1-2.6,3.6-1.5,5.6
	s3.6,2.6,5.6,1.5s2.6-3.6,1.5-5.6C272.5,637.7,270,637,268,638.1z M317.4,748.8c-2,1.1-2.6,3.6-1.5,5.6s3.6,2.6,5.6,1.5
	s2.6-3.6,1.5-5.6S319.4,747.6,317.4,748.8z M359.3,724.8c-2,1.1-2.6,3.6-1.5,5.6s3.6,2.6,5.6,1.5s2.6-3.6,1.5-5.6
	C363.7,724.4,361.3,723.7,359.3,724.8z M312.9,668c-2,1.1-2.6,3.6-1.5,5.6s3.6,2.6,5.6,1.5s2.6-3.6,1.5-5.6
	C317.3,667.5,314.9,666.9,312.9,668z M293,633.2c1-0.6,1.7-1.6,1.9-2.6l-6.7-3.9c-1.4,1.3-1.8,3.3-0.8,5
	C288.5,633.6,291,634.3,293,633.2z M423.6,715.8c-2,1.1-2.6,3.6-1.5,5.6c0.8,1.4,2.4,2.2,3.9,2l2.9-1.7c0.9-1.3,1.1-3,0.2-4.4
	C428.1,715.3,425.6,714.7,423.6,715.8z M314.4,694.9c-2,1.1-2.6,3.6-1.5,5.6s3.6,2.6,5.6,1.5s2.6-3.6,1.5-5.6
	C318.9,694.5,316.4,693.8,314.4,694.9z M193.4,847.5c-2,1.1-2.6,3.6-1.5,5.6c0.8,1.4,2.4,2.2,3.9,2l2.9-1.7c0.9-1.3,1.1-3,0.2-4.4
	C197.8,847.1,195.3,846.4,193.4,847.5z M187.3,739.9c-1.1,0.6-1.8,1.7-2,2.9v1.3c0.1,0.5,0.2,0.9,0.5,1.4c1.1,2,3.6,2.6,5.6,1.5
	s2.6-3.6,1.5-5.6C191.8,739.4,189.3,738.7,187.3,739.9z M335.3,682.9c-2,1.1-2.6,3.6-1.5,5.6s3.6,2.6,5.6,1.5s2.6-3.6,1.5-5.6
	C339.8,682.5,337.3,681.8,335.3,682.9z M336.9,709.9c-2,1.1-2.6,3.6-1.5,5.6s3.6,2.6,5.6,1.5s2.6-3.6,1.5-5.6
	C341.3,709.4,338.8,708.7,336.9,709.9z M315.9,721.8c-2,1.1-2.6,3.6-1.5,5.6s3.6,2.6,5.6,1.5s2.6-3.6,1.5-5.6
	C320.4,721.4,317.9,720.7,315.9,721.8z M227.7,689c-2,1.1-2.6,3.6-1.5,5.6s3.6,2.6,5.6,1.5s2.6-3.6,1.5-5.6
	C232.1,688.5,229.6,687.9,227.7,689z M338.4,736.8c-2,1.1-2.6,3.6-1.5,5.6s3.6,2.6,5.6,1.5s2.6-3.6,1.5-5.6S340.3,735.7,338.4,736.8
	z M293.5,706.9c-2,1.1-2.6,3.6-1.5,5.6s3.6,2.6,5.6,1.5s2.6-3.6,1.5-5.6C297.9,706.4,295.4,705.8,293.5,706.9z M248.1,603.3
	L248.1,603.3l-6.1-3.6c0,0.7,0.1,1.4,0.5,2.1C243.7,603.8,246.1,604.4,248.1,603.3z M290.5,653c-2,1.1-2.6,3.6-1.5,5.6
	s3.6,2.6,5.6,1.5s2.6-3.6,1.5-5.6C294.9,652.6,292.4,651.9,290.5,653z M292,680c-2,1.1-2.6,3.6-1.5,5.6s3.6,2.6,5.6,1.5
	s2.6-3.6,1.5-5.6C296.4,679.5,293.9,678.8,292,680z M270.5,618.3c0.5-0.3,0.9-0.7,1.3-1.2l-7-4.1c-0.5,1.2-0.5,2.5,0.2,3.7
	C266.1,618.7,268.6,619.4,270.5,618.3z M402.7,727.8c-2,1.1-2.6,3.6-1.5,5.6c0.8,1.4,2.4,2.2,3.9,2l2.9-1.7c0.9-1.3,1.1-3,0.2-4.4
	C407.1,727.3,404.6,726.6,402.7,727.8z M298,787.6c-2,1.1-2.6,3.6-1.5,5.6c0.8,1.4,2.4,2.2,3.9,2l2.9-1.7c0.9-1.3,1.1-3,0.2-4.4
	C302.5,787.2,300,786.5,298,787.6z M277.1,799.6c-2,1.1-2.6,3.6-1.5,5.6c0.8,1.4,2.4,2.2,3.9,2l2.9-1.7c0.9-1.3,1.1-3,0.2-4.4
	C281.5,799.2,279,798.5,277.1,799.6z M319,775.7c-2,1.1-2.6,3.6-1.5,5.6c0.8,1.4,2.4,2.2,3.9,2l2.9-1.7c0.9-1.3,1.1-3,0.2-4.4
	C323.4,775.2,320.9,774.6,319,775.7z M339.9,763.7c-2,1.1-2.6,3.6-1.5,5.6c0.8,1.4,2.4,2.2,3.9,2l2.9-1.7c0.9-1.3,1.1-3,0.2-4.4
	C344.3,763.3,341.8,762.6,339.9,763.7z M235.2,823.6c-2,1.1-2.6,3.6-1.5,5.6c0.8,1.4,2.4,2.2,3.9,2l2.9-1.7c0.9-1.3,1.1-3,0.2-4.4
	C239.7,823.2,237.2,822.5,235.2,823.6z M256.2,811.6c-2,1.1-2.6,3.6-1.5,5.6c0.8,1.4,2.4,2.2,3.9,2l2.9-1.7c0.9-1.3,1.1-3,0.2-4.4
	C260.6,811.2,258.1,810.5,256.2,811.6z M214.3,835.6c-2,1.1-2.6,3.6-1.5,5.6c0.8,1.4,2.4,2.2,3.9,2l2.9-1.7c0.9-1.3,1.1-3,0.2-4.4
	C218.7,835.1,216.2,834.4,214.3,835.6z M191.8,820.6c-2,1.1-2.6,3.6-1.5,5.6s3.6,2.6,5.6,1.5s2.6-3.6,1.5-5.6
	S193.8,819.5,191.8,820.6z M360.8,751.7c-2,1.1-2.6,3.6-1.5,5.6c0.8,1.4,2.4,2.2,3.9,2l2.9-1.7c0.9-1.3,1.1-3,0.2-4.4
	C365.3,751.3,362.8,750.6,360.8,751.7z M401.2,700.8c-2,1.1-2.6,3.6-1.5,5.6s3.6,2.6,5.6,1.5s2.6-3.6,1.5-5.6
	S403.1,699.7,401.2,700.8z M356.3,671c-2,1.1-2.6,3.6-1.5,5.6s3.6,2.6,5.6,1.5s2.6-3.6,1.5-5.6C360.7,670.5,358.2,669.8,356.3,671z
	 M378.7,685.9c-2,1.1-2.6,3.6-1.5,5.6s3.6,2.6,5.6,1.5s2.6-3.6,1.5-5.6C383.2,685.5,380.7,684.8,378.7,685.9z M190.3,793.7
	c-2,1.1-2.6,3.6-1.5,5.6s3.6,2.6,5.6,1.5s2.6-3.6,1.5-5.6C194.8,793.3,192.3,792.6,190.3,793.7z M381.7,739.7
	c-2,1.1-2.6,3.6-1.5,5.6c0.8,1.4,2.4,2.2,3.9,2l2.9-1.7c0.9-1.3,1.1-3,0.2-4.4C386.2,739.3,383.7,738.6,381.7,739.7z M315.4,648.2
	c1.6-0.9,2.3-2.8,1.9-4.5l-5-2.9c-0.3,0.1-0.6,0.2-0.9,0.4c-2,1.1-2.6,3.6-1.5,5.6C311,648.6,313.5,649.3,315.4,648.2z M357.8,697.9
	c-2,1.1-2.6,3.6-1.5,5.6s3.6,2.6,5.6,1.5s2.6-3.6,1.5-5.6C362.2,697.4,359.7,696.8,357.8,697.9z M333.8,656c-2,1.1-2.6,3.6-1.5,5.6
	s3.6,2.6,5.6,1.5s2.6-3.6,1.5-5.6C338.3,655.6,335.8,654.9,333.8,656z M380.2,712.8c-2,1.1-2.6,3.6-1.5,5.6s3.6,2.6,5.6,1.5
	s2.6-3.6,1.5-5.6S382.2,711.7,380.2,712.8z M233.7,796.7c-2,1.1-2.6,3.6-1.5,5.6s3.6,2.6,5.6,1.5s2.6-3.6,1.5-5.6
	S235.7,795.5,233.7,796.7z M206.7,701c-2,1.1-2.6,3.6-1.5,5.6s3.6,2.6,5.6,1.5s2.6-3.6,1.5-5.6S208.7,699.8,206.7,701z M185.6,666.6
	c0.4-0.1,0.8-0.2,1.2-0.4c2-1.1,2.6-3.6,1.5-5.6c-0.6-1-1.6-1.7-2.7-1.9V666.6z M205.2,674c-2,1.1-2.6,3.6-1.5,5.6s3.6,2.6,5.6,1.5
	s2.6-3.6,1.5-5.6C209.7,673.6,207.2,672.9,205.2,674z M254.6,784.7c-2,1.1-2.6,3.6-1.5,5.6s3.6,2.6,5.6,1.5s2.6-3.6,1.5-5.6
	S256.6,783.6,254.6,784.7z M230.7,742.8c-2,1.1-2.6,3.6-1.5,5.6s3.6,2.6,5.6,1.5s2.6-3.6,1.5-5.6
	C235.1,742.4,232.6,741.7,230.7,742.8z M212.8,808.6c-2,1.1-2.6,3.6-1.5,5.6s3.6,2.6,5.6,1.5s2.6-3.6,1.5-5.6
	S214.7,807.5,212.8,808.6z M253.1,757.8c-2,1.1-2.6,3.6-1.5,5.6s3.6,2.6,5.6,1.5c2-1.1,2.6-3.6,1.5-5.6S255.1,756.6,253.1,757.8z
	 M229.2,715.9c-2,1.1-2.6,3.6-1.5,5.6s3.6,2.6,5.6,1.5s2.6-3.6,1.5-5.6C233.6,715.5,231.1,714.8,229.2,715.9z M185.7,639
	c1.6-1.2,2.1-3.5,1.1-5.3c-0.3-0.5-0.7-0.9-1.1-1.2V639z M209.8,754.8c-2,1.1-2.6,3.6-1.5,5.6s3.6,2.6,5.6,1.5s2.6-3.6,1.5-5.6
	C214.2,754.4,211.7,753.7,209.8,754.8z M211.3,781.7c-2,1.1-2.6,3.6-1.5,5.6s3.6,2.6,5.6,1.5s2.6-3.6,1.5-5.6
	C215.7,781.3,213.2,780.6,211.3,781.7z M203.7,647.1c-2,1.1-2.6,3.6-1.5,5.6s3.6,2.6,5.6,1.5s2.6-3.6,1.5-5.6
	C208.2,646.7,205.7,646,203.7,647.1z M188.8,766.8c-2,1.1-2.6,3.6-1.5,5.6s3.6,2.6,5.6,1.5s2.6-3.6,1.5-5.6S190.8,765.7,188.8,766.8
	z M232.2,769.7c-2,1.1-2.6,3.6-1.5,5.6s3.6,2.6,5.6,1.5s2.6-3.6,1.5-5.6C236.6,769.3,234.2,768.6,232.2,769.7z M208.2,727.9
	c-2,1.1-2.6,3.6-1.5,5.6s3.6,2.6,5.6,1.5s2.6-3.6,1.5-5.6S210.2,726.8,208.2,727.9z M185.8,712.9c-0.1,0.1-0.2,0.2-0.4,0.3v6.6
	c1.3,0.9,3,1.1,4.4,0.3c2-1.1,2.6-3.6,1.5-5.6S187.8,711.8,185.8,712.9z M185.5,685.6v8c0.9,0.2,1.9,0.1,2.8-0.4
	c2-1.1,2.6-3.6,1.5-5.6C189,686,187.2,685.3,185.5,685.6z"/>
<rect x="1033.6" y="139.6" transform="matrix(0.7071 -0.7071 0.7071 0.7071 190.8191 803.6683)" class="st6" width="63.8" height="63.8"/>
<g>
	<path class="st4" d="M1152.2,858.5c40,0,72.5-32.5,72.5-72.5s-32.5-72.5-72.5-72.5v-15c48.3,0,87.5,39.2,87.5,87.5
		c0,48.3-39.2,87.5-87.5,87.5c-48.3,0-87.5-39.2-87.5-87.5h15C1079.7,826,1112.2,858.5,1152.2,858.5z"/>
	<path class="st4" d="M1109.7,786.2c0,23.5,19,42.5,42.5,42.5c23.5,0,42.5-19,42.5-42.5s-19-42.5-42.5-42.5v-14.8
		c31.8,0,57.5,25.7,57.5,57.5s-25.7,57.5-57.5,57.5s-57.5-25.7-57.5-57.5c0-0.2,0-0.3,0-0.5h15
		C1109.7,786.1,1109.7,786.1,1109.7,786.2z"/>
	<path class="st4" d="M1139.7,786.4c0,6.9,5.6,12.5,12.5,12.5s12.5-5.6,12.5-12.5s-5.6-12.5-12.5-12.5v-15.5
		c15.2,0,27.5,12.3,27.5,27.5c0,15.2-12.3,27.5-27.5,27.5c-15.2,0-27.5-12.3-27.5-27.5h15C1139.8,786.1,1139.7,786.3,1139.7,786.4z"
		/>
	<path class="st4" d="M1094.8,786h-15c0-40,32.5-72.5,72.5-72.5v15.5C1120.6,728.9,1095,754.4,1094.8,786z"/>
	<path class="st4" d="M1124.7,786h-15c0.1-23.4,19.1-42.3,42.5-42.3v14.8C1137.1,758.5,1124.7,770.8,1124.7,786z"/>
	<path class="st4" d="M1139.8,786c0.3-6.7,5.7-12,12.5-12v12H1139.8z"/>
</g>
<g>
	<path class="st8" d="M1491.5,212.6c-0.1,0.1-0.1,0.2-0.2,0.3s-0.1,0.2-0.2,0.3c0,0.1,0,0.2,0,0.3s0,0.3,0,0.4l26.3,78
		c0.2,0.5,0.6,0.8,1.1,0.9l81.1,16c0.4,0.1,0.7,0,1-0.3c0.1-0.1,0.2-0.1,0.3-0.2l0,0l0,0l54-62.1c0.3-0.4,0.4-0.9,0.3-1.4l-26.3-78
		l0,0l0,0c-0.1-0.2-0.2-0.4-0.4-0.6c0,0,0,0-0.1,0h-0.1c-0.1-0.1-0.3-0.2-0.5-0.2l-81.1-16c-0.5-0.1-1,0.1-1.3,0.5L1491.5,212.6z
		 M1520,290.3l-25.3-74.9l28,5.5l50,9.9l25.3,74.9L1520,290.3z M1652.5,245.2l-51.9,59.6l-25.3-74.9l13.6-15.6l38.3-44L1652.5,245.2
		z M1625.1,168.4l-44.7,51.4l-7.2,8.3l-78-15.4l51.9-59.7L1625.1,168.4z"/>
</g>
<g>
	<path d="M199.6,139.9L199.6,139.9c4.3,0,8.2,1.8,11.2,5.1c2.3,2.5,5.3,3.9,8.6,3.9l0,0c3.2,0,6.3-1.4,8.6-3.9
		c3-3.3,6.9-5.1,11.2-5.1l0,0c4.2,0,8.2,1.8,11.2,5.1c0.7,0.7,0.6,1.9-0.1,2.5c-0.7,0.7-1.9,0.6-2.5-0.1c-2.3-2.5-5.3-3.9-8.5-3.9
		l0,0c-3.2,0-6.3,1.4-8.6,3.9c-3,3.3-6.9,5.1-11.2,5.1l0,0c-4.3,0-8.2-1.8-11.2-5.1c-2.3-2.5-5.3-3.9-8.5-3.9l0,0
		c-3.2,0-6.3,1.4-8.6,3.9c-3,3.3-6.9,5.1-11.2,5.1l0,0c-4.2,0-8.2-1.8-11.2-5.1c-4.6-5-12.6-5-17.1,0c-3,3.3-6.9,5.1-11.2,5.1l0,0
		c-4.2,0-8.2-1.8-11.2-5.1c-2.3-2.5-5.3-3.9-8.6-3.9l0,0c-3.2,0-6.3,1.4-8.6,3.9c-0.7,0.7-1.8,0.8-2.5,0.1c-0.7-0.7-0.8-1.8-0.1-2.5
		c3-3.3,6.9-5.1,11.2-5.1l0,0c4.2,0,8.2,1.8,11.2,5.1c2.3,2.5,5.3,3.9,8.6,3.9l0,0c3.2,0,6.3-1.4,8.6-3.9c5.9-6.5,16.4-6.5,22.4,0
		c2.3,2.5,5.3,3.9,8.6,3.9l0,0c3.2,0,6.3-1.4,8.6-3.9C191.4,141.7,195.4,139.9,199.6,139.9z"/>
</g>
<g>
	<path d="M233,166.6L233,166.6c4.3,0,8.2,1.8,11.2,5.1c2.3,2.5,5.3,3.9,8.6,3.9l0,0c3.2,0,6.3-1.4,8.6-3.9c3-3.3,6.9-5.1,11.2-5.1
		l0,0c4.2,0,8.2,1.8,11.2,5.1c0.7,0.7,0.6,1.9-0.1,2.5c-0.7,0.7-1.9,0.6-2.5-0.1c-2.3-2.5-5.3-3.9-8.5-3.9l0,0
		c-3.2,0-6.3,1.4-8.6,3.9c-3,3.3-6.9,5.1-11.2,5.1l0,0c-4.3,0-8.2-1.8-11.2-5.1c-2.3-2.5-5.3-3.9-8.5-3.9l0,0
		c-3.2,0-6.3,1.4-8.6,3.9c-3,3.3-6.9,5.1-11.2,5.1l0,0c-4.2,0-8.2-1.8-11.2-5.1c-4.6-5-12.6-5-17.1,0c-3,3.3-6.9,5.1-11.2,5.1l0,0
		c-4.2,0-8.2-1.8-11.2-5.1c-2.3-2.5-5.3-3.9-8.6-3.9l0,0c-3.2,0-6.3,1.4-8.6,3.9c-0.7,0.7-1.8,0.8-2.5,0.1c-0.7-0.7-0.8-1.8-0.1-2.5
		c3-3.3,6.9-5.1,11.2-5.1l0,0c4.2,0,8.2,1.8,11.2,5.1c2.3,2.5,5.3,3.9,8.6,3.9l0,0c3.2,0,6.3-1.4,8.6-3.9c5.9-6.5,16.4-6.5,22.4,0
		c2.3,2.5,5.3,3.9,8.6,3.9l0,0c3.2,0,6.3-1.4,8.6-3.9C224.8,168.4,228.7,166.6,233,166.6z"/>
</g>
<g>
	<circle cx="1522.5" cy="911.3" r="2.8"/>
	<circle cx="1502.6" cy="762.6" r="2.8"/>
	<circle cx="1637.3" cy="808.1" r="2.8"/>
	<ellipse cx="1463.2" cy="964.1" rx="2.8" ry="2.8"/>
	<circle cx="1581.7" cy="881.7" r="2.8"/>
	<circle cx="1555.5" cy="761" r="2.8"/>
	<circle cx="1434.1" cy="706.1" r="2.8"/>
	<circle cx="1529.5" cy="692.1" r="2.8"/>
	<circle cx="1461.5" cy="818.9" r="2.8"/>
	<circle cx="1357.8" cy="876.6" r="2.8"/>
	<circle cx="1640.8" cy="776.9" r="2.8"/>
	<circle cx="1550" cy="737.9" r="2.8"/>
	<circle cx="1465.1" cy="713.9" r="2.8"/>
	<circle cx="1465.6" cy="771.3" r="2.8"/>
	<ellipse cx="1505.6" cy="920.2" rx="2.8" ry="2.8"/>
	<circle cx="1651" cy="827.3" r="2.8"/>
	<circle cx="1444.5" cy="965.5" r="2.8"/>
	<circle cx="1580.6" cy="807.7" r="2.8"/>
	<circle cx="1522.2" cy="939.3" r="2.8"/>
	<circle cx="1569.7" cy="911.7" r="2.8"/>
	<circle cx="1399.5" cy="922.6" r="2.8"/>
	<circle cx="1419.1" cy="952.9" r="2.8"/>
	<circle cx="1559.8" cy="694.1" r="2.8"/>
	<circle cx="1465.5" cy="892.2" r="2.8"/>
	<circle cx="1522.8" cy="779.8" r="2.8"/>
	<circle cx="1451.2" cy="765.7" r="2.8"/>
	<circle cx="1521.2" cy="798.7" r="2.8"/>
	<circle cx="1557.9" cy="731.2" r="2.8"/>
	<circle cx="1354.5" cy="847.9" r="2.8"/>
	<circle cx="1511.2" cy="820.6" r="2.8"/>
	<circle cx="1542.1" cy="943.6" r="2.8"/>
	<circle cx="1483.3" cy="900.9" r="2.8"/>
	<circle cx="1552.2" cy="889.5" r="2.8"/>
	<circle cx="1479.7" cy="838.8" r="2.8"/>
	<circle cx="1388.3" cy="760.8" r="2.8"/>
	<circle cx="1468.2" cy="678.9" r="2.8"/>
	<circle cx="1413" cy="751.5" r="2.8"/>
	<circle cx="1402" cy="866.7" r="2.8"/>
	<circle cx="1575.2" cy="832.5" r="2.8"/>
	<circle cx="1452.7" cy="746.1" r="2.8"/>
	<circle cx="1546.2" cy="820.6" r="2.8"/>
	<circle cx="1408.6" cy="774.9" r="2.8"/>
	<circle cx="1446.7" cy="823.6" r="2.8"/>
	<circle cx="1508.4" cy="743.8" r="2.8"/>
	<circle cx="1620.4" cy="777.5" r="2.8"/>
	<circle cx="1561.6" cy="718" r="2.8"/>
	<circle cx="1364.8" cy="800.1" r="2.8"/>
	<circle cx="1591.1" cy="768.9" r="2.8"/>
	<circle cx="1621.5" cy="828.2" r="2.8"/>
	<circle cx="1392.9" cy="824.5" r="2.8"/>
	<circle cx="1534.6" cy="959.9" r="2.8"/>
	<circle cx="1571.7" cy="739.4" r="2.8"/>
	<circle cx="1491.6" cy="965.9" r="2.8"/>
	<circle cx="1563.2" cy="871.8" r="2.8"/>
	<circle cx="1642.4" cy="851.7" r="2.8"/>
	<circle cx="1485.2" cy="745.6" r="2.8"/>
	<circle cx="1404.7" cy="794.7" r="2.8"/>
	<circle cx="1479.2" cy="783.8" r="2.8"/>
	<circle cx="1581.6" cy="895.9" r="2.8"/>
	<circle cx="1425.2" cy="694.1" r="2.8"/>
	<circle cx="1377.5" cy="858.8" r="2.8"/>
	<circle cx="1521.9" cy="826" r="2.8"/>
	<circle cx="1605.6" cy="735.7" r="2.8"/>
	<circle cx="1581.2" cy="907.4" r="2.8"/>
	<circle cx="1371.4" cy="837.9" r="2.8"/>
	<circle cx="1462.1" cy="916.1" r="2.8"/>
	<circle cx="1588.9" cy="942" r="2.8"/>
	<circle cx="1483" cy="721" r="2.8"/>
	<circle cx="1517.4" cy="954.2" r="2.8"/>
	<circle cx="1602.6" cy="913.5" r="2.8"/>
	<circle cx="1351.4" cy="821.9" r="2.8"/>
	<circle cx="1557.3" cy="841.5" r="2.8"/>
	<circle cx="1440.3" cy="728.4" r="2.8"/>
	<circle cx="1470.2" cy="692.8" r="2.8"/>
	<circle cx="1616.8" cy="799.5" r="2.8"/>
	<circle cx="1400.7" cy="896.7" r="2.8"/>
	<circle cx="1596.4" cy="840.7" r="2.8"/>
	<circle cx="1465.1" cy="856.1" r="2.8"/>
	<circle cx="1612.7" cy="851.2" r="2.8"/>
	<circle cx="1422.2" cy="910.7" r="2.8"/>
	<circle cx="1535.1" cy="733.8" r="2.8"/>
	<circle cx="1391.8" cy="877.8" r="2.8"/>
	<circle cx="1476.6" cy="954.8" r="2.8"/>
	<circle cx="1515.8" cy="787.9" r="2.8"/>
	<circle cx="1597.9" cy="821.4" r="2.8"/>
	<circle cx="1591.2" cy="718" r="2.8"/>
	<ellipse cx="1420.5" cy="734.1" rx="2.8" ry="2.8"/>
	<circle cx="1432.5" cy="761" r="2.8"/>
	<circle cx="1347.8" cy="792.8" r="2.8"/>
	<circle cx="1530.8" cy="802" r="2.8"/>
	<circle cx="1529" cy="764" r="2.8"/>
	<circle cx="1447.7" cy="934.7" r="2.8"/>
	<circle cx="1387.7" cy="809.6" r="2.8"/>
	<circle cx="1555.8" cy="929" r="2.8"/>
	<circle cx="1501.5" cy="787.5" r="2.8"/>
	<circle cx="1544.4" cy="680" r="2.8"/>
	<circle cx="1550.4" cy="780.3" r="2.8"/>
	<circle cx="1429.2" cy="935.8" r="2.8"/>
	<circle cx="1497.1" cy="946.3" r="2.8"/>
	<circle cx="1423.2" cy="821.1" r="2.8"/>
	<circle cx="1579.2" cy="781.9" r="2.8"/>
	<circle cx="1545" cy="974.6" r="2.8"/>
	<ellipse cx="1596.1" cy="797.7" rx="2.8" ry="2.8"/>
	<circle cx="1541.6" cy="869.3" r="2.8"/>
	<circle cx="1392.5" cy="840.5" r="2.8"/>
	<circle cx="1416.8" cy="839.4" r="2.8"/>
	<circle cx="1401.8" cy="730.7" r="2.8"/>
	<circle cx="1447.8" cy="892.5" r="2.8"/>
	<circle cx="1467.5" cy="733.5" r="2.8"/>
	<circle cx="1552.9" cy="909.1" r="2.8"/>
	<circle cx="1600.7" cy="868.2" r="2.8"/>
	<circle cx="1488.1" cy="930.7" r="2.8"/>
	<circle cx="1594.9" cy="922.1" r="2.8"/>
	<circle cx="1494.5" cy="832.7" r="2.8"/>
	<circle cx="1525.2" cy="884.3" r="2.8"/>
	<circle cx="1482.8" cy="867.4" r="2.8"/>
	<circle cx="1485.7" cy="886.9" r="2.8"/>
	<circle cx="1406.9" cy="935.4" r="2.8"/>
	<circle cx="1472.4" cy="815.4" r="2.8"/>
	<circle cx="1466.7" cy="974.6" r="2.8"/>
	<circle cx="1497.3" cy="712.9" r="2.8"/>
	<circle cx="1491.4" cy="684" r="2.8"/>
	<circle cx="1642.7" cy="880.5" r="2.8"/>
	<circle cx="1373.2" cy="881" r="2.8"/>
	<circle cx="1437.7" cy="841.5" r="2.8"/>
	<circle cx="1369.1" cy="820.2" r="2.8"/>
	<circle cx="1604.8" cy="754.9" r="2.8"/>
	<circle cx="1443.8" cy="691.2" r="2.8"/>
	<circle cx="1544" cy="707.6" r="2.8"/>
	<circle cx="1435.8" cy="910.6" r="2.8"/>
	<circle cx="1525.3" cy="863.3" r="2.8"/>
	<circle cx="1517.9" cy="728.9" r="2.8"/>
	<circle cx="1545.8" cy="858.1" r="2.8"/>
	<circle cx="1407.8" cy="711.5" r="2.8"/>
	<circle cx="1378.8" cy="781.2" r="2.8"/>
	<circle cx="1381.8" cy="742.5" r="2.8"/>
	<circle cx="1560.8" cy="808.7" r="2.8"/>
	<circle cx="1606.3" cy="934.4" r="2.8"/>
	<circle cx="1392.3" cy="719.6" r="2.8"/>
	<circle cx="1456.2" cy="802.8" r="2.8"/>
	<circle cx="1568.7" cy="943.3" r="2.8"/>
	<circle cx="1506.2" cy="698.9" r="2.8"/>
	<circle cx="1439.2" cy="789.3" r="2.8"/>
	<circle cx="1430.4" cy="865.7" r="2.8"/>
	<circle cx="1539.2" cy="921.8" r="2.8"/>
	<circle cx="1368" cy="757.9" r="2.8"/>
	<circle cx="1491.6" cy="805.8" r="2.8"/>
	<circle cx="1432.9" cy="883.6" r="2.8"/>
	<circle cx="1582.9" cy="703.9" r="2.8"/>
	<circle cx="1361.4" cy="774.8" r="2.8"/>
	<circle cx="1451.9" cy="866" r="2.8"/>
	<circle cx="1507.3" cy="897.4" r="2.8"/>
	<circle cx="1623.6" cy="911.6" r="2.8"/>
	<circle cx="1511.5" cy="678.8" r="2.8"/>
	<circle cx="1632.9" cy="761.4" r="2.8"/>
	<circle cx="1642.4" cy="864.5" r="2.8"/>
	<circle cx="1374.5" cy="901.8" r="2.8"/>
	<circle cx="1509.2" cy="851.3" r="2.8"/>
	<ellipse cx="1650.2" cy="798.2" rx="2.8" ry="2.8"/>
	<circle cx="1622.6" cy="869.6" r="2.8"/>
	<circle cx="1620.5" cy="896.9" r="2.8"/>
	<circle cx="1591.4" cy="748" r="2.8"/>
	<circle cx="1504.8" cy="874.1" r="2.8"/>
</g>
<g>
	<g>
		<path class="st4" d="M612.4,100.7L612.4,100.7c0-5.5,2.3-10.6,6.5-14.5c3.3-3,5-6.9,5-11.1l0,0c0-4.2-1.8-8.1-5-11.1
			c-4.2-3.9-6.5-9-6.5-14.5l0,0c0-5.5,2.3-10.6,6.5-14.5c0.9-0.9,2.4-0.8,3.3,0.2c0.9,0.9,0.8,2.4-0.2,3.3c-3.2,2.9-5,6.9-5,11.1
			l0,0c0,4.2,1.8,8.1,5,11.1c4.2,3.8,6.5,9,6.5,14.5l0,0c0,5.5-2.3,10.6-6.5,14.5c-3.2,3-5,6.9-5,11.1l0,0c0,4.2,1.8,8.1,5,11.1
			c4.2,3.8,6.5,9,6.5,14.5l0,0c0,5.5-2.3,10.7-6.5,14.5c-6.5,5.9-6.5,16.3,0,22.2c4.2,3.8,6.5,9,6.5,14.5l0,0
			c0,5.5-2.3,10.7-6.5,14.5c-3.3,3-5,6.9-5,11.1l0,0c0,4.2,1.8,8.1,5,11.1c0.9,0.9,1,2.3,0.2,3.3c-0.9,0.9-2.3,1-3.2,0.2
			c-4.2-3.8-6.5-9-6.5-14.5l0,0c0-5.5,2.3-10.7,6.5-14.5c3.3-3,5-6.9,5-11.1l0,0c0-4.2-1.8-8.1-5-11.1c-8.4-7.7-8.4-21.3,0-29
			c3.3-3,5-6.9,5-11.1l0,0c0-4.2-1.8-8.1-5-11.1C614.7,111.4,612.4,106.2,612.4,100.7z"/>
	</g>
	<g>
		<path class="st4" d="M560.4,100.7L560.4,100.7c0-5.5,2.3-10.6,6.5-14.5c3.3-3,5-6.9,5-11.1l0,0c0-4.2-1.8-8.1-5-11.1
			c-4.2-3.9-6.5-9-6.5-14.5l0,0c0-5.5,2.3-10.6,6.5-14.5c0.9-0.9,2.4-0.8,3.3,0.2c0.9,0.9,0.8,2.4-0.2,3.3c-3.2,2.9-5,6.9-5,11.1
			l0,0c0,4.2,1.8,8.1,5,11.1c4.2,3.8,6.5,9,6.5,14.5l0,0c0,5.5-2.3,10.6-6.5,14.5c-3.3,3-5,6.9-5,11.1l0,0c0,4.2,1.8,8.1,5,11.1
			c4.2,3.8,6.5,9,6.5,14.5l0,0c0,5.5-2.3,10.7-6.5,14.5c-6.5,5.9-6.5,16.3,0,22.2c4.2,3.8,6.5,9,6.5,14.5l0,0
			c0,5.5-2.3,10.7-6.5,14.5c-3.3,3-5,6.9-5,11.1l0,0c0,4.2,1.8,8.1,5,11.1c0.9,0.9,1,2.3,0.2,3.3c-0.9,0.9-2.3,1-3.3,0.2
			c-4.2-3.8-6.5-9-6.5-14.5l0,0c0-5.5,2.3-10.7,6.5-14.5c3.3-3,5-6.9,5-11.1l0,0c0-4.2-1.8-8.1-5-11.1c-8.4-7.7-8.4-21.3,0-29
			c3.3-3,5-6.9,5-11.1l0,0c0-4.2-1.8-8.1-5-11.1C562.7,111.4,560.4,106.2,560.4,100.7z"/>
	</g>
	<g>
		<path class="st4" d="M586.8,100.7L586.8,100.7c0-5.5,2.3-10.6,6.5-14.5c3.3-3,5-6.9,5-11.1l0,0c0-4.2-1.8-8.1-5-11.1
			c-4.2-3.9-6.5-9-6.5-14.5l0,0c0-5.5,2.3-10.6,6.5-14.5c0.9-0.9,2.4-0.8,3.3,0.2c0.9,0.9,0.8,2.4-0.2,3.3c-3.2,2.9-5,6.9-5,11.1
			l0,0c0,4.2,1.8,8.1,5,11.1c4.2,3.8,6.5,9,6.5,14.5l0,0c0,5.5-2.3,10.6-6.5,14.5c-3.3,3-5,6.9-5,11.1l0,0c0,4.2,1.8,8.1,5,11.1
			c4.2,3.8,6.5,9,6.5,14.5l0,0c0,5.5-2.3,10.7-6.5,14.5c-6.5,5.9-6.5,16.3,0,22.2c4.2,3.8,6.5,9,6.5,14.5l0,0
			c0,5.5-2.3,10.7-6.5,14.5c-3.3,3-5,6.9-5,11.1l0,0c0,4.2,1.8,8.1,5,11.1c0.9,0.9,1,2.3,0.2,3.3c-0.9,0.9-2.3,1-3.3,0.2
			c-4.2-3.8-6.5-9-6.5-14.5l0,0c0-5.5,2.3-10.7,6.5-14.5c3.3-3,5-6.9,5-11.1l0,0c0-4.2-1.8-8.1-5-11.1c-8.4-7.7-8.4-21.3,0-29
			c3.3-3,5-6.9,5-11.1l0,0c0-4.2-1.8-8.1-5-11.1C589.1,111.4,586.8,106.2,586.8,100.7z"/>
	</g>
</g>
</svg>
