<?xml version="1.0" encoding="utf-8"?>
<!-- Generator: Adobe Illustrator 21.0.0, SVG Export Plug-In . SVG Version: 6.00 Build 0)  -->
<svg version="1.1" id="Слой_1" xmlns="http://www.w3.org/2000/svg" xmlns:xlink="http://www.w3.org/1999/xlink" x="0px" y="0px"
	 viewBox="0 0 1920 1080" style="enable-background:new 0 0 1920 1080;" xml:space="preserve">
<style type="text/css">
	.st0{display:none;}
	.st1{fill:none;stroke:#808080;stroke-width:5;stroke-miterlimit:10;}
	.st2{fill:#808080;}
	.st3{fill:#FFFFFF;}
	.st4{fill:none;stroke:#FFFFFF;stroke-width:3;stroke-miterlimit:10;}
</style>
<rect class="st0" width="1920" height="1080"/>
<g>
	<g>
		<path class="st1" d="M1055.5,899.7l29.4-28.7c10.5,10.8,21,21.5,31.6,32.3c10.3-10.1,20.7-20.2,31-30.3
			c10.6,10.8,21.2,21.7,31.8,32.5c10.3-10.1,20.5-20.2,30.8-30.3c10.5,10.8,21,21.6,31.6,32.3c10.3-10.1,20.7-20.2,31-30.4l30.3,31"
			/>
		<g>
			<path class="st1" d="M1085.9,854.3l29.4-28.7c10.5,10.8,21,21.5,31.6,32.3c10.3-10.1,20.7-20.2,31-30.3
				c10.6,10.8,21.2,21.7,31.8,32.5c10.3-10.1,20.5-20.2,30.8-30.3c10.5,10.8,21,21.6,31.6,32.3c10.3-10.1,20.7-20.2,31-30.4l30.3,31
				"/>
		</g>
		<g>
			<path class="st1" d="M1052.3,806.1l29.4-28.7c10.5,10.8,21,21.5,31.6,32.3c10.3-10.1,20.7-20.2,31-30.3
				c10.6,10.8,21.2,21.7,31.8,32.5c10.3-10.1,20.5-20.2,30.8-30.3c10.5,10.8,21,21.6,31.6,32.3c10.3-10.1,20.7-20.2,31-30.4l30.3,31
				"/>
		</g>
	</g>
	<g>
		<path class="st2" d="M420.2,389.1c38.1,20,52.6,66.9,33,104.9l-25.3-13.2c12.8-24.1,3.2-53.7-20.9-66.5
			c-24.1-12.8-53.7-3.2-66.5,20.9l-25.3-13.2C334.9,384.1,382.1,369.5,420.2,389.1z"/>
	</g>
	<g>
		<circle class="st3" cx="399.3" cy="576.8" r="2.6"/>
		<circle class="st3" cx="399.3" cy="605.7" r="2.6"/>
		<path class="st3" d="M399.3,632c-1.4,0-2.6,1.2-2.6,2.6c0,1.4,1.1,2.6,2.6,2.6c1.4-0.1,2.6-1.2,2.6-2.6S400.8,632,399.3,632z"/>
		<circle class="st3" cx="399.3" cy="663.5" r="2.6"/>
		<circle class="st3" cx="399.3" cy="692.4" r="2.6"/>
		<circle class="st3" cx="399.3" cy="721.3" r="2.6"/>
		<path class="st3" d="M399.3,747.5c-1.4,0-2.6,1.2-2.6,2.6c0,1.4,1.1,2.6,2.6,2.6c1.4,0,2.6-1.2,2.6-2.6S400.7,747.5,399.3,747.5z"
			/>
		<circle class="st3" cx="399.3" cy="779" r="2.6"/>
		<circle class="st3" cx="370.4" cy="576.8" r="2.6"/>
		<circle class="st3" cx="370.4" cy="605.7" r="2.6"/>
		<path class="st3" d="M370.4,632c-1.4,0-2.6,1.2-2.6,2.6c0,1.4,1.1,2.6,2.6,2.6c1.4-0.1,2.6-1.2,2.6-2.6S371.9,632,370.4,632z"/>
		<circle class="st3" cx="370.4" cy="663.5" r="2.6"/>
		<circle class="st3" cx="370.4" cy="692.4" r="2.6"/>
		<circle class="st3" cx="370.4" cy="721.3" r="2.6"/>
		<path class="st3" d="M370.4,747.5c-1.4,0-2.6,1.2-2.6,2.6c0,1.4,1.1,2.6,2.6,2.6c1.4,0,2.6-1.2,2.6-2.6S371.9,747.5,370.4,747.5z"
			/>
		<circle class="st3" cx="370.4" cy="779" r="2.6"/>
		
			<ellipse transform="matrix(0.4997 -0.8662 0.8662 0.4997 -545.7377 780.6031)" class="st2" cx="402.9" cy="862.8" rx="4.4" ry="4.4"/>
		
			<ellipse transform="matrix(0.4997 -0.8662 0.8662 0.4997 -594.4842 780.6254)" class="st2" cx="378.6" cy="905" rx="4.4" ry="4.4"/>
		
			<ellipse transform="matrix(0.4997 -0.8662 0.8662 0.4997 -643.2308 780.6476)" class="st2" cx="354.2" cy="947.2" rx="4.4" ry="4.4"/>
		<circle class="st3" cx="341.5" cy="576.8" r="2.6"/>
		<path class="st3" d="M341.4,608.3c1.5-0.1,2.6-1.2,2.6-2.6c0-1.4-1.1-2.6-2.6-2.6c-1.4,0-2.6,1.1-2.6,2.6S340,608.3,341.4,608.3z"
			/>
		<path class="st3" d="M341.4,637.2c1.5-0.1,2.6-1.2,2.6-2.6s-1.1-2.6-2.6-2.6c-1.4,0-2.6,1.1-2.6,2.6
			C338.8,636,340,637.2,341.4,637.2z"/>
		<circle class="st3" cx="341.5" cy="663.5" r="2.6"/>
		<path class="st3" d="M341.4,695c1.5,0,2.6-1.2,2.6-2.6c0-1.4-1.1-2.6-2.6-2.6c-1.4,0-2.6,1.1-2.6,2.6
			C338.8,693.8,340,695,341.4,695z"/>
		<path class="st3" d="M341.5,718.7c-1.4,0-2.6,1.1-2.6,2.6c0,1.4,1.1,2.6,2.6,2.6c1.4,0,2.6-1.2,2.6-2.6S342.9,718.7,341.5,718.7z"
			/>
		<circle class="st3" cx="341.5" cy="750.2" r="2.6"/>
		<circle class="st3" cx="341.5" cy="779" r="2.6"/>
		<path class="st2" d="M362.9,834.6c-2-1.2-4.7-0.6-6,1.6c-1.2,2-0.6,4.7,1.6,6c2,1.2,4.8,0.4,6-1.6
			C365.7,838.6,364.9,835.8,362.9,834.6z"/>
		
			<ellipse transform="matrix(0.4997 -0.8662 0.8662 0.4997 -594.5064 731.8787)" class="st2" cx="336.3" cy="880.6" rx="4.4" ry="4.4"/>
		<path class="st2" d="M314.2,919c-2-1.2-4.8-0.4-6,1.6c-1.2,2-0.6,4.7,1.6,6c2,1.2,4.8,0.4,6-1.6C317,923,316.2,920.2,314.2,919z"
			/>
		<path class="st3" d="M312.5,574.2c-1.4,0-2.6,1.1-2.6,2.6c0,1.4,1.1,2.6,2.6,2.6c1.5-0.1,2.6-1.2,2.6-2.6
			C315.1,575.4,314,574.2,312.5,574.2z"/>
		<path class="st3" d="M312.5,603c-1.4,0-2.6,1.1-2.6,2.6s1.1,2.6,2.6,2.6c1.5-0.1,2.6-1.2,2.6-2.6S314,603,312.5,603z"/>
		<path class="st3" d="M312.5,632c-1.4,0-2.6,1.1-2.6,2.6c0,1.4,1.1,2.6,2.6,2.6c1.5-0.1,2.6-1.2,2.6-2.6S314,632,312.5,632z"/>
		<path class="st3" d="M312.5,660.9c-1.4,0-2.6,1.1-2.6,2.6c0,1.4,1.1,2.6,2.6,2.6c1.5-0.1,2.6-1.2,2.6-2.6S314,660.9,312.5,660.9z"
			/>
		<path class="st3" d="M312.5,689.8c-1.4,0-2.6,1.1-2.6,2.6c0,1.4,1.1,2.6,2.6,2.6s2.6-1.2,2.6-2.6S314,689.8,312.5,689.8z"/>
		<path class="st3" d="M312.5,718.7c-1.4,0-2.6,1.1-2.6,2.6c0,1.4,1.1,2.6,2.6,2.6s2.6-1.2,2.6-2.6S314,718.7,312.5,718.7z"/>
		<path class="st3" d="M312.5,747.5c-1.4,0-2.6,1.1-2.6,2.6c0,1.4,1.1,2.6,2.6,2.6s2.6-1.2,2.6-2.6S314,747.5,312.5,747.5z"/>
		<path class="st3" d="M312.5,776.5c-1.4,0-2.6,1.1-2.6,2.6c0,1.4,1.1,2.6,2.6,2.6s2.6-1.2,2.6-2.6S314,776.5,312.5,776.5z"/>
		<path class="st2" d="M320.5,810.2c-2-1.2-4.7-0.6-6,1.6c-1.2,2-0.6,4.7,1.6,6c2.2,1.3,4.8,0.4,6-1.6
			C323.3,814.1,322.7,811.4,320.5,810.2z"/>
		<path class="st2" d="M296.2,852.4c-2-1.2-4.8-0.4-6,1.6c-1.2,2-0.6,4.7,1.6,6c2.2,1.3,4.8,0.4,6-1.6
			C299,856.3,298.4,853.6,296.2,852.4z"/>
		<path class="st2" d="M271.8,894.6c-2-1.2-4.8-0.4-6,1.6c-1.2,2-0.6,4.7,1.6,6c2.2,1.3,4.8,0.4,6-1.6
			C274.6,898.5,274,895.9,271.8,894.6z"/>
		<circle class="st3" cx="283.7" cy="576.8" r="2.6"/>
		<path class="st3" d="M286.2,605.7c0-1.4-1.1-2.6-2.6-2.6c-1.4,0-2.6,1.1-2.6,2.6s1.1,2.6,2.6,2.6
			C285.1,608.2,286.2,607,286.2,605.7z"/>
		<path class="st3" d="M283.6,637.2c1.5-0.1,2.6-1.2,2.6-2.6s-1.1-2.6-2.6-2.6c-1.4,0-2.6,1.1-2.6,2.6
			C281,636,282.1,637.2,283.6,637.2z"/>
		<circle class="st3" cx="283.7" cy="663.5" r="2.6"/>
		<path class="st3" d="M283.6,695c1.5,0,2.6-1.2,2.6-2.6c0-1.4-1.1-2.6-2.6-2.6c-1.4,0-2.6,1.1-2.6,2.6
			C281,693.8,282.1,695,283.6,695z"/>
		<path class="st3" d="M283.6,723.9c1.5,0,2.6-1.2,2.6-2.6s-1.2-2.6-2.6-2.6s-2.6,1.1-2.6,2.6C281,722.7,282.1,723.9,283.6,723.9z"
			/>
		<circle class="st3" cx="283.7" cy="750.2" r="2.6"/>
		<circle class="st3" cx="283.7" cy="779" r="2.6"/>
		<path class="st2" d="M273.9,793.4c2.2,1.3,4.8,0.4,6-1.6c1.2-2,0.4-4.8-1.6-6c-2-1.2-4.7-0.6-6,1.6
			C271.2,789.5,271.8,792.1,273.9,793.4z"/>
		
			<ellipse transform="matrix(0.4997 -0.8662 0.8662 0.4997 -594.5509 634.3856)" class="st2" cx="251.9" cy="831.9" rx="4.4" ry="4.4"/>
		<path class="st2" d="M225.2,877.8c2.2,1.3,4.8,0.4,6-1.6c1.2-2,0.4-4.8-1.6-6s-4.8-0.4-6,1.6S223,876.6,225.2,877.8z"/>
		<circle class="st3" cx="254.8" cy="576.8" r="2.6"/>
		<path class="st3" d="M254.7,608.3c1.4,0,2.6-1.2,2.6-2.6c0-1.4-1.2-2.6-2.6-2.6s-2.6,1.1-2.6,2.6S253.3,608.3,254.7,608.3z"/>
		<path class="st3" d="M254.7,637.2c1.4,0,2.6-1.2,2.6-2.6s-1.2-2.6-2.6-2.6s-2.6,1.1-2.6,2.6C252.1,636,253.3,637.2,254.7,637.2z"
			/>
		<circle class="st3" cx="254.8" cy="663.5" r="2.6"/>
		<path class="st3" d="M254.7,695c1.4,0,2.6-1.2,2.6-2.6c0-1.4-1.2-2.6-2.6-2.6s-2.6,1.1-2.6,2.6C252.1,693.8,253.3,695,254.7,695z"
			/>
		<path class="st3" d="M254.7,723.9c1.4,0,2.6-1.2,2.6-2.6s-1.2-2.6-2.6-2.6s-2.6,1.1-2.6,2.6C252.1,722.7,253.3,723.9,254.7,723.9z
			"/>
		<circle class="st3" cx="254.8" cy="750.2" r="2.6"/>
		<circle class="st3" cx="254.8" cy="779" r="2.6"/>
		<path class="st2" d="M231.7,769.1c2,1.2,4.8,0.4,6-1.6c1.2-2,0.4-4.8-1.6-6c-2-1.2-4.7-0.6-6,1.6
			C228.9,765.1,229.7,767.9,231.7,769.1z"/>
		
			<ellipse transform="matrix(0.4997 -0.8662 0.8662 0.4997 -594.5731 585.639)" class="st2" cx="209.7" cy="807.6" rx="4.4" ry="4.4"/>
		<path class="st2" d="M183,853.5c2,1.2,4.8,0.4,6-1.6c1.2-2,0.4-4.8-1.6-6c-2-1.2-4.8-0.4-6,1.6C180.2,849.5,181,852.3,183,853.5z"
			/>
		<circle class="st3" cx="225.9" cy="576.8" r="2.6"/>
		<path class="st3" d="M225.8,608.3c1.5,0,2.6-1.2,2.6-2.6c0-1.4-1.1-2.6-2.6-2.6s-2.6,1.1-2.6,2.6S224.3,608.3,225.8,608.3z"/>
		<path class="st3" d="M225.8,637.2c1.5,0,2.6-1.2,2.6-2.6s-1.1-2.6-2.6-2.6s-2.6,1.1-2.6,2.6C223.2,636,224.3,637.2,225.8,637.2z"
			/>
		<circle class="st3" cx="225.9" cy="663.5" r="2.6"/>
		<path class="st3" d="M225.8,695c1.5,0,2.6-1.2,2.6-2.6c0-1.4-1.1-2.6-2.6-2.6s-2.6,1.1-2.6,2.6C223.2,693.8,224.3,695,225.8,695z"
			/>
		<path class="st3" d="M225.8,723.9c1.5,0,2.6-1.2,2.6-2.6s-1.1-2.6-2.6-2.6c-1.4,0-2.6,1.1-2.6,2.6
			C223.2,722.7,224.3,723.9,225.8,723.9z"/>
		<circle class="st3" cx="225.9" cy="750.2" r="2.6"/>
		<circle class="st3" cx="225.9" cy="779" r="2.6"/>
		<circle class="st3" cx="197" cy="576.8" r="2.6"/>
		<path class="st3" d="M196.9,608.3c1.5-0.1,2.6-1.2,2.6-2.6c0-1.4-1.2-2.6-2.6-2.6s-2.6,1.1-2.6,2.6S195.5,608.3,196.9,608.3z"/>
		<path class="st3" d="M196.9,637.2c1.5-0.1,2.6-1.2,2.6-2.6s-1.2-2.6-2.6-2.6s-2.6,1.1-2.6,2.6C194.3,636,195.5,637.2,196.9,637.2z
			"/>
		<circle class="st3" cx="197" cy="663.5" r="2.6"/>
		<path class="st3" d="M196.9,695c1.5,0,2.6-1.2,2.6-2.6c0-1.4-1.2-2.6-2.6-2.6s-2.6,1.1-2.6,2.6C194.3,693.8,195.5,695,196.9,695z"
			/>
		<path class="st3" d="M196.9,723.9c1.5,0,2.6-1.2,2.6-2.6s-1.2-2.6-2.6-2.6s-2.6,1.1-2.6,2.6C194.3,722.7,195.5,723.9,196.9,723.9z
			"/>
		<circle class="st3" cx="197" cy="750.2" r="2.6"/>
		<circle class="st3" cx="197" cy="779" r="2.6"/>
		<circle class="st3" cx="168.1" cy="576.8" r="2.6"/>
		<path class="st3" d="M168,608.3c1.5,0,2.6-1.2,2.6-2.6c0-1.4-1.1-2.6-2.6-2.6s-2.6,1.1-2.6,2.6S166.5,608.3,168,608.3z"/>
		<path class="st3" d="M168,637.2c1.5,0,2.6-1.2,2.6-2.6s-1.1-2.6-2.6-2.6s-2.6,1.1-2.6,2.6C165.4,636,166.5,637.2,168,637.2z"/>
		<circle class="st3" cx="168.1" cy="663.5" r="2.6"/>
		<path class="st3" d="M168,695c1.5,0,2.6-1.2,2.6-2.6c0-1.4-1.1-2.6-2.6-2.6s-2.6,1.1-2.6,2.6C165.4,693.8,166.5,695,168,695z"/>
		<path class="st3" d="M168,723.9c1.5,0,2.6-1.2,2.6-2.6s-1.2-2.6-2.6-2.6s-2.6,1.1-2.6,2.6C165.4,722.7,166.5,723.9,168,723.9z"/>
		<circle class="st3" cx="168.1" cy="750.2" r="2.6"/>
		<circle class="st3" cx="168.1" cy="779" r="2.6"/>
		<circle class="st3" cx="139.2" cy="576.8" r="2.6"/>
		<path class="st3" d="M141.7,605.7c0-1.4-1.1-2.6-2.6-2.6c-1.4,0-2.6,1.1-2.6,2.6s1.1,2.6,2.6,2.6
			C140.6,608.2,141.7,607,141.7,605.7z"/>
		<path class="st3" d="M139.1,637.2c1.5-0.1,2.6-1.2,2.6-2.6s-1.1-2.6-2.6-2.6c-1.4,0-2.6,1.1-2.6,2.6
			C136.5,636,137.6,637.2,139.1,637.2z"/>
		<circle class="st3" cx="139.2" cy="663.5" r="2.6"/>
		<path class="st3" d="M139.1,689.8c-1.4,0-2.6,1.1-2.6,2.6c0,1.4,1.1,2.6,2.6,2.6s2.6-1.2,2.6-2.6
			C141.7,691,140.6,689.8,139.1,689.8z"/>
		<path class="st3" d="M139.1,718.7c-1.4,0-2.6,1.1-2.6,2.6c0,1.4,1.1,2.6,2.6,2.6s2.6-1.2,2.6-2.6S140.6,718.7,139.1,718.7z"/>
		<path class="st3" d="M139.1,747.5c-1.4,0-2.6,1.1-2.6,2.6c0,1.4,1.1,2.6,2.6,2.6s2.6-1.2,2.6-2.6
			C141.7,748.8,140.6,747.5,139.1,747.5z"/>
		<path class="st3" d="M139.1,776.5c-1.4,0-2.6,1.1-2.6,2.6c0,1.4,1.1,2.6,2.6,2.6s2.6-1.2,2.6-2.6S140.6,776.5,139.1,776.5z"/>
		<circle class="st3" cx="110.2" cy="576.8" r="2.6"/>
		<path class="st3" d="M110.2,603c-1.4,0-2.6,1.1-2.6,2.6s1.2,2.6,2.6,2.6c1.5-0.1,2.6-1.2,2.6-2.6S111.7,603,110.2,603z"/>
		<path class="st3" d="M110.2,632c-1.4,0-2.6,1.1-2.6,2.6c0,1.4,1.2,2.6,2.6,2.6c1.5-0.1,2.6-1.2,2.6-2.6S111.7,632,110.2,632z"/>
		<circle class="st3" cx="110.2" cy="663.5" r="2.6"/>
		<path class="st3" d="M110.2,689.8c-1.4,0-2.6,1.1-2.6,2.6c0,1.4,1.2,2.6,2.6,2.6c1.5,0,2.6-1.2,2.6-2.6S111.7,689.8,110.2,689.8z"
			/>
		<path class="st3" d="M110.2,718.7c-1.4,0-2.6,1.1-2.6,2.6c0,1.4,1.2,2.6,2.6,2.6c1.5,0,2.6-1.2,2.6-2.6S111.7,718.7,110.2,718.7z"
			/>
		<path class="st3" d="M110.2,747.5c-1.4,0-2.6,1.1-2.6,2.6c0,1.4,1.2,2.6,2.6,2.6c1.5,0,2.6-1.2,2.6-2.6S111.7,747.5,110.2,747.5z"
			/>
		<path class="st3" d="M110.2,776.5c-1.4,0-2.6,1.1-2.6,2.6c0,1.4,1.2,2.6,2.6,2.6c1.5,0,2.6-1.2,2.6-2.6S111.7,776.5,110.2,776.5z"
			/>
		<path class="st3" d="M81.3,574.2c-1.4,0-2.6,1.1-2.6,2.6c0,1.4,1.1,2.6,2.6,2.6c1.5-0.1,2.6-1.2,2.6-2.6
			C83.9,575.4,82.8,574.2,81.3,574.2z"/>
		<path class="st3" d="M81.3,603c-1.4,0-2.6,1.1-2.6,2.6s1.1,2.6,2.6,2.6c1.5-0.1,2.6-1.2,2.6-2.6S82.8,603,81.3,603z"/>
		<path class="st3" d="M81.3,632c-1.4,0-2.6,1.1-2.6,2.6c0,1.4,1.1,2.6,2.6,2.6c1.5-0.1,2.6-1.2,2.6-2.6S82.8,632,81.3,632z"/>
		<path class="st3" d="M81.3,660.9c-1.4,0-2.6,1.1-2.6,2.6c0,1.4,1.1,2.6,2.6,2.6c1.5-0.1,2.6-1.2,2.6-2.6S82.8,660.9,81.3,660.9z"
			/>
		<path class="st3" d="M81.3,689.8c-1.4,0-2.6,1.1-2.6,2.6c0,1.4,1.1,2.6,2.6,2.6s2.6-1.2,2.6-2.6S82.8,689.8,81.3,689.8z"/>
		<path class="st3" d="M81.3,718.7c-1.4,0-2.6,1.1-2.6,2.6c0,1.4,1.1,2.6,2.6,2.6s2.6-1.2,2.6-2.6S82.8,718.7,81.3,718.7z"/>
		<path class="st3" d="M81.3,747.5c-1.4,0-2.6,1.1-2.6,2.6c0,1.4,1.1,2.6,2.6,2.6s2.6-1.2,2.6-2.6S82.8,747.5,81.3,747.5z"/>
		<path class="st3" d="M81.3,776.5c-1.4,0-2.6,1.1-2.6,2.6c0,1.4,1.1,2.6,2.6,2.6s2.6-1.2,2.6-2.6S82.8,776.5,81.3,776.5z"/>
	</g>
</g>
<g>
	<path class="st4" d="M394.6,266.7v234.9 M200.1,502.6V266.7 M207.5,261.1v241.2 M387.2,261.1c-4.2-4.3-9.6-10.9-13.5-19.9
		c-3.8-8.8-4.8-16.6-5.2-20.3c-0.4-3.4-0.5-6.2-0.5-8.3c-47.2,0.2-94.3,0.3-141.5,0.5c-0.1,2.5-0.3,6-1,10.3
		c-1.1,6.8-2.6,16-8.3,25.6c-1.9,3.2-4.9,7.5-9.7,12.1 M387.2,502.4V261.1 M332.7,502.4V256.6c0-10.2,8.3-18.6,18.6-18.6
		s18.6,8.3,18.6,18.6v245.7 M278.7,502.4V256.6c0-10.2,8.3-18.6,18.6-18.6s18.6,8.3,18.6,18.6v245.7 M224.8,502.4V256.6
		c0-10.2,8.3-18.6,18.6-18.6c10.2,0,18.6,8.3,18.6,18.6v245.7 M362.5,502.4V256.6c0-6.2-5-11.2-11.2-11.2c-6.2,0-11.2,5-11.2,11.2
		v245.7 M308.5,502.4V256.6c0-6.2-5-11.2-11.2-11.2c-6.2,0-11.2,5-11.2,11.2v245.7 M254.6,502.4V256.6c0-6.2-5-11.2-11.2-11.2
		s-11.2,5-11.2,11.2c0,0,0,245.7,0,245.7"/>
	<g>
		<path class="st4" d="M446.4,184.2"/>
		<path class="st4" d="M200.8,208.8c0,27.1-21.8,49-48.8,49s-48.7-21.9-48.7-49s21.8-49,48.8-49l292.4,0.3c27.1,0,49,21.8,49,48.8
			s-21.9,48.7-49,48.7s-49-21.8-49-48.8"/>
		<path class="st4" d="M210.8,208.8c0,32.7-26.3,59.1-58.8,59.1s-58.8-26.5-58.8-59.1c0-32.7,26.3-59.1,58.8-59.1l292.4,0.3
			c32.7,0,59.1,26.3,59.1,58.8c0,32.5-26.5,58.8-59.1,58.8c-32.7,0-59.1-26.3-59.1-58.8"/>
		<path class="st4" d="M190.7,209.1c0,21.5-17.3,38.9-38.7,38.9s-38.7-17.4-38.7-38.9s17.3-38.9,38.7-38.9"/>
		<path class="st4" d="M190.7,208.8c0,0.1,0,0.2,0,0.3c0,21.5-17.3,38.9-38.7,38.9s-38.7-17.4-38.7-38.9s17.3-38.9,38.7-38.9
			l292.4-0.1c0.1,0,0.2,0,0.3,0c21.5,0,38.9,17.3,38.9,38.7c0,21.4-17.4,38.7-38.9,38.7c-21.5,0-38.9-17.3-38.9-38.7"/>
		<path class="st4" d="M170.5,208.8c0,10.3-8.3,18.6-18.5,18.6s-18.5-8.3-18.5-18.6c0-10.3,8.3-18.6,18.5-18.6l292.4,0.1
			c10.3,0,18.6,8.3,18.6,18.5s-8.3,18.5-18.6,18.5c-10.3,0-18.6-8.3-18.6-18.5"/>
		<path class="st4" d="M160.4,209.1c0,4.7-3.8,8.4-8.4,8.4s-8.4-3.8-8.4-8.4s3.8-8.4,8.4-8.4l292.8-0.3c4.7,0,8.4,3.8,8.4,8.4
			c0,4.6-3.8,8.4-8.4,8.4s-8.4-3.8-8.4-8.4"/>
		<path class="st4" d="M180.6,212.6"/>
	</g>
</g>
<g>
	<path class="st4" d="M1502.1,748.1h17.2 M1510.7,756.7v-17.2"/>
	<path class="st4" d="M1459.9,748.1h17.2 M1468.6,756.7v-17.2"/>
	<path class="st4" d="M1460,706.3h17.2 M1468.7,714.9v-17.2"/>
	<path class="st4" d="M1502.5,706.3h17.2 M1511.1,714.9v-17.2"/>
	<path class="st4" d="M1418.2,748.1h17.2 M1426.8,756.7v-17.2"/>
	<path class="st4" d="M1376,748.1h17.2 M1384.7,756.7v-17.2"/>
	<path class="st4" d="M1376.1,706.3h17.2 M1384.7,714.9v-17.2"/>
	<path class="st4" d="M1418.5,706.3h17.2 M1427.2,714.9v-17.2"/>
	<path class="st4" d="M1502.3,831.9h17.2 M1510.9,840.5v-17.2"/>
	<path class="st4" d="M1460.1,831.9h17.2 M1468.8,840.5v-17.2"/>
	<path class="st4" d="M1460.2,790.1h17.2 M1468.9,798.7v-17.2"/>
	<path class="st4" d="M1502.7,790.1h17.2 M1511.3,798.7v-17.2"/>
	<path class="st4" d="M1418.2,831.9h17.2 M1426.8,840.5v-17.2"/>
	<path class="st4" d="M1376,831.9h17.2 M1384.7,840.5v-17.2"/>
	<path class="st4" d="M1376.1,790.1h17.2 M1384.7,798.7v-17.2"/>
	<path class="st4" d="M1418.5,790.1h17.2 M1427.2,798.7v-17.2"/>
	<g>
		<path class="st4" d="M1628.2,748.1h17.2 M1636.8,756.7v-17.2"/>
		<path class="st4" d="M1586,748.1h17.2 M1594.7,756.7v-17.2"/>
		<path class="st4" d="M1586.1,706.3h17.2 M1594.7,714.9v-17.2"/>
		<path class="st4" d="M1628.5,706.3h17.2 M1637.2,714.9v-17.2"/>
		<path class="st4" d="M1544.3,748.1h17.2 M1552.9,756.7v-17.2"/>
		<path class="st4" d="M1668.3,748.1h17.2 M1676.9,756.7v-17.2"/>
		<path class="st4" d="M1668.4,706.3h17.2 M1677,714.9v-17.2"/>
		<path class="st4" d="M1544.6,706.3h17.2 M1553.3,714.9v-17.2"/>
		<path class="st4" d="M1628.4,831.9h17.2 M1637,840.5v-17.2"/>
		<path class="st4" d="M1586.2,831.9h17.2 M1594.8,840.5v-17.2"/>
		<path class="st4" d="M1586.3,790.1h17.2 M1594.9,798.7v-17.2"/>
		<path class="st4" d="M1628.7,790.1h17.2 M1637.4,798.7v-17.2"/>
		<path class="st4" d="M1544.3,831.9h17.2 M1552.9,840.5v-17.2"/>
		<path class="st4" d="M1668.3,831.9h17.2 M1676.9,840.5v-17.2"/>
		<path class="st4" d="M1668.4,790.1h17.2 M1677,798.8v-17.2"/>
		<path class="st4" d="M1544.6,790.1h17.2 M1553.3,798.7v-17.2"/>
	</g>
	<g>
		<path class="st4" d="M1559.8,915.7h-17.2 M1551.1,907.1v17.2"/>
		<path class="st4" d="M1601.9,915.7h-17.2 M1593.3,907.1v17.2"/>
		<path class="st4" d="M1601.8,957.5h-17.2 M1593.2,948.9v17.2"/>
		<path class="st4" d="M1559.4,957.5h-17.2 M1550.8,948.9v17.2"/>
		<path class="st4" d="M1643.7,915.7h-17.2 M1635,907.1v17.2"/>
		<path class="st4" d="M1685.8,915.7h-17.2 M1677.2,907.1v17.2"/>
		<path class="st4" d="M1685.7,957.5h-17.2 M1677.1,948.9v17.2"/>
		<path class="st4" d="M1643.3,957.5h-17.2 M1634.7,948.9v17.2"/>
		<path class="st4" d="M1601.6,873.7h-17.2 M1593,865.1v17.2"/>
		<path class="st4" d="M1559.2,873.7H1542 M1550.6,865.1v17.2"/>
		<path class="st4" d="M1685.8,831.9h-17.2 M1677.2,823.3v17.2"/>
		<path class="st4" d="M1685.7,873.7h-17.2 M1677.1,865.1v17.2"/>
		<path class="st4" d="M1643.3,873.7h-17.2 M1634.7,865.1v17.2"/>
		<g>
			<path class="st4" d="M1433.7,915.7h-17.2 M1425.1,907.1v17.2"/>
			<path class="st4" d="M1475.8,915.7h-17.2 M1467.2,907.1v17.2"/>
			<path class="st4" d="M1475.8,957.5h-17.2 M1467.1,948.9v17.2"/>
			<path class="st4" d="M1433.3,957.5h-17.2 M1424.7,948.9v17.2"/>
			<path class="st4" d="M1517.6,915.7h-17.2 M1509,907.1v17.2"/>
			<path class="st4" d="M1393.5,915.7h-17.2 M1384.9,907.1v17.2"/>
			<path class="st4" d="M1393.5,957.5h-17.2 M1384.8,948.9v17.2"/>
			<path class="st4" d="M1517.2,957.5H1500 M1508.6,948.9v17.2"/>
			<path class="st4" d="M1475.6,873.7h-17.2 M1466.9,865.1v17.2"/>
			<path class="st4" d="M1433.1,873.7h-17.2 M1424.5,865.1v17.2"/>
			<path class="st4" d="M1393.5,831.9h-17.2 M1384.9,823.3v17.2"/>
			<path class="st4" d="M1393.5,873.7h-17.2 M1384.8,865.1v17.2"/>
			<path class="st4" d="M1517.2,873.7H1500 M1508.6,865.1v17.2"/>
		</g>
	</g>
</g>
<g>
	<path class="st4" d="M1105.2,208.4c9.3-0.4,18.6-1.2,27.9-2.5"/>
	<path class="st4" d="M1077.2,208.5c5,0.1,10,0.2,15,0.1"/>
	<path class="st4" d="M1039.2,207.1c8.4,0.3,16.7,0.7,25.1,1"/>
	<path class="st4" d="M1002,204.9c8,0.4,16.1,0.9,24.1,1.4"/>
	<path class="st4" d="M946.3,206c14.1-1.8,28.4-2.1,42.6-1.7"/>
	<path class="st4" d="M920.9,210.5c4.2-0.9,8.4-1.8,12.7-2.5"/>
	<path class="st4" d="M875.5,224.2c8.5-3.2,17-6.1,25.7-8.6"/>
	<path class="st4" d="M1116.9,233.1c10.6-0.5,21.3-1.1,31.9-1.2"/>
	<path class="st4" d="M1077.4,234.6c9-0.1,18-0.4,27.1-0.8"/>
	<path class="st4" d="M1028.8,230.7c11.8,2.3,23.7,3.4,35.7,3.8"/>
	<path class="st4" d="M986.5,229.6c9.8-0.1,19.6-0.7,29.5-0.2"/>
	<path class="st4" d="M956,232.6c5.9-0.6,11.8-1.2,17.6-1.8"/>
	<path class="st4" d="M915.8,242c9.2-3,18.5-5.4,28-7.3"/>
	<path class="st4" d="M891.3,250.3c3.8-1.4,7.7-2.8,11.5-4.2"/>
	<path class="st4" d="M1134.4,259.8c9.4-0.8,18.7-1.5,28.1-1.7"/>
	<path class="st4" d="M1105,261.6c5.5-0.1,11-0.4,16.5-0.8"/>
	<path class="st4" d="M1060.5,259.5c10.5,0.6,21.1,1.6,31.6,2"/>
	<path class="st4" d="M1015.1,256.9c10.8,0.2,21.7,0.9,32.5,1.6"/>
	<path class="st4" d="M989,256.5c4.4,0,8.7,0,13.1,0.1"/>
	<path class="st4" d="M953.2,262.1c7.6-2.1,15.3-3.5,23.1-4.5"/>
	<path class="st4" d="M905,276.4c11.7-4.4,23.6-8.3,35.8-11.4"/>
	<path class="st4" d="M1139.3,286.2c11.8-0.4,23.5-1.1,35.3-2"/>
	<path class="st4" d="M1086.7,286c13.2,0.5,26.3,0.7,39.5,0.5"/>
	<path class="st4" d="M1055.9,284.1c5.9,0.5,11.9,0.9,17.8,1.3"/>
	<path class="st4" d="M1017.9,282.4c8.2-0.6,16.5-0.1,24.7,0.5"/>
	<path class="st4" d="M988.2,284.2c5.5-0.7,11.1-1.2,16.6-1.5"/>
	<path class="st4" d="M946.9,292.7c9.5-2.6,19.1-4.8,28.7-6.5"/>
	<path class="st4" d="M917,302.5c5.7-2.2,11.4-4.2,17.2-6"/>
	<path class="st4" d="M1155.8,313.2c9.9-0.6,19.7-1.5,29.5-3"/>
	<path class="st4" d="M1100.2,312.9c14.2,0.7,28.5,1.1,42.7,0.8"/>
	<path class="st4" d="M1040.6,309.1c15.6,0.9,31.1,2.1,46.7,3.1"/>
	<path class="st4" d="M1016.7,308.7c3.6,0,7.3,0,10.9,0"/>
	<path class="st4" d="M983.5,312.7c6.9-1.3,13.9-2.3,21-3"/>
	<path class="st4" d="M927.7,328.6c14.1-5.3,28.5-9.8,43.2-13.2"/>
	<path class="st4" d="M1195.5,336.9c1.8-0.2,3.7-0.4,5.5-0.6"/>
	<path class="st4" d="M1157.5,339.3c8.5-0.2,17.1-0.6,25.6-1.3"/>
	<path class="st4" d="M1121.6,338.9c7.8,0.4,15.7,0.5,23.5,0.5"/>
	<path class="st4" d="M1093.2,336.9c5.1,0.5,10.1,0.9,15.2,1.3"/>
	<path class="st4" d="M1047.1,335.1c11.2,0,22.5,0.5,33.7,1.1"/>
	<path class="st4" d="M994.9,339.7c13-2.6,26.2-3.9,39.4-4.4"/>
	<path class="st4" d="M943.4,354.7c12.6-4.8,25.5-8.9,38.7-12.1"/>
	<path class="st4" d="M1193.4,363.8c6-0.4,12-0.9,18.1-1.4"/>
	<path class="st4" d="M1144.7,365.6c12.1,0.1,24.2-0.3,36.2-1"/>
	<path class="st4" d="M1103.2,363.3c9.6,1.1,19.3,1.7,29,2.1"/>
	<path class="st4" d="M1066.3,360.1c8.2,0.4,16.4,1.1,24.6,1.9"/>
	<path class="st4" d="M1021.9,363c10.4-2.2,21-3,31.6-3.1"/>
	<path class="st4" d="M990.9,369.1c6.1-1.7,12.3-3.1,18.5-4.2"/>
	<path class="st4" d="M953.9,380.8c7.9-3,15.8-5.7,23.9-8.1"/>
	<path class="st4" d="M1185.2,391.2c13.3-0.1,26.5-0.8,39.7-2.7"/>
	<path class="st4" d="M1151.5,390.6c6.9,0.2,13.7,0.4,20.6,0.5"/>
	<path class="st4" d="M1125.8,389.9c4.3,0.1,8.6,0.2,12.8,0.3"/>
	<path class="st4" d="M1080.7,387.3c10.7,0.5,21.4,1.1,32.1,1.8"/>
	<path class="st4" d="M1037.3,388.7c10.1-1.1,20.2-1.5,30.3-1.5"/>
	<path class="st4" d="M993.6,398.1c10.1-3.4,20.4-5.9,30.9-7.6"/>
	<path class="st4" d="M967.3,406.9c4.4-1.7,8.9-3.3,13.4-4.8"/>
</g>
<circle class="st2" cx="555.4" cy="789.6" r="30"/>
<g>
	<path class="st3" d="M1295.8,362.4c-0.5,0-0.9-0.2-1.3-0.6l-52.4-62.2c-0.5-0.6-0.5-1.4-0.1-2l19.6-26.2c0.3-0.4,0.8-0.7,1.3-0.7
		h65.5c0.5,0,1,0.2,1.3,0.7l19.6,26.2c0.5,0.6,0.4,1.5-0.1,2l-52.4,62.2C1296.8,362.2,1296.3,362.4,1295.8,362.4z M1245.5,298.5
		l50.3,59.7l50.3-59.7l-18.4-24.5h-63.9L1245.5,298.5z"/>
	<path class="st3" d="M1348.2,300.2h-104.8c-0.9,0-1.6-0.7-1.6-1.6s0.7-1.6,1.6-1.6h104.8c0.9,0,1.6,0.7,1.6,1.6
		S1349.1,300.2,1348.2,300.2z"/>
	<path class="st3" d="M1295.8,362.4c-0.2,0-0.3,0-0.5-0.1c-0.9-0.3-1.3-1.2-1.1-2.1l19.6-62.2c0.3-0.9,1.2-1.3,2.1-1.1
		c0.9,0.3,1.3,1.2,1.1,2.1l-19.6,62.2C1297.2,362,1296.5,362.4,1295.8,362.4z"/>
	<path class="st3" d="M1295.8,362.4c-0.7,0-1.3-0.4-1.6-1.1l-19.6-62.2c-0.3-0.9,0.2-1.8,1.1-2.1c0.9-0.3,1.8,0.2,2.1,1.1l19.6,62.2
		c0.3,0.9-0.2,1.8-1.1,2.1C1296.2,362.4,1296,362.4,1295.8,362.4z"/>
	<path class="st3" d="M1276.2,300.2c-0.6,0-1.2-0.3-1.5-0.9l-13.1-26.2c-0.4-0.8-0.1-1.8,0.7-2.2c0.8-0.4,1.8-0.1,2.2,0.7l13.1,26.2
		c0.4,0.8,0.1,1.8-0.7,2.2C1276.7,300.1,1276.4,300.2,1276.2,300.2z"/>
	<path class="st3" d="M1276.2,300.2c-0.3,0-0.7-0.1-1-0.3c-0.7-0.5-0.9-1.6-0.3-2.3l19.6-26.2c0.5-0.7,1.6-0.9,2.3-0.3
		c0.7,0.5,0.9,1.6,0.3,2.3l-19.6,26.2C1277.2,300,1276.7,300.2,1276.2,300.2z"/>
	<path class="st3" d="M1315.5,300.2c-0.5,0-1-0.2-1.3-0.7l-19.6-26.2c-0.5-0.7-0.4-1.7,0.3-2.3c0.7-0.5,1.7-0.4,2.3,0.3l19.6,26.2
		c0.5,0.7,0.4,1.7-0.3,2.3C1316.2,300.1,1315.8,300.2,1315.5,300.2z"/>
	<path class="st3" d="M1315.5,300.2c-0.2,0-0.5-0.1-0.7-0.2c-0.8-0.4-1.1-1.4-0.7-2.2l13.1-26.2c0.4-0.8,1.4-1.1,2.2-0.7
		c0.8,0.4,1.1,1.4,0.7,2.2l-13.1,26.2C1316.7,299.9,1316.1,300.2,1315.5,300.2z"/>
</g>
</svg>
